<?xml version="1.0" encoding="UTF-8"?>
<svg id="Layer_2" data-name="Layer 2" xmlns="http://www.w3.org/2000/svg" viewBox="0 0 75 75">
  <defs>
    <style>
      .cls-1, .cls-2 {
        stroke-width: 0px;
      }

      .cls-2 {
        fill: #ff1849;
      }
    </style>
  </defs>
  <g id="Layer_1-2" data-name="Layer 1">
    <g>
      <path class="cls-1" d="M13.25,46.85c-2.33-.11-4.25,0-6.1-.34C2.97,45.75.21,42.28.07,37.71c-.1-3.35-.09-6.71,0-10.06.12-4.67,2.74-7.83,6.94-8.98,1.15-.32,2.47-1.19,3.11-2.24,13.24-21.86,41.53-21.92,54.72-.11.68,1.12,2.09,2.04,3.32,2.39,4.01,1.16,6.66,4.33,6.79,8.82.1,3.35.05,6.71.02,10.06-.04,3.99-2,6.55-5.13,8.39-1,.59-2.05,1.6-2.5,2.7-4.17,10.01-10.98,16.73-20.62,20.14-1.07.38-2.15,1.36-2.8,2.37-2.49,3.9-7.37,5.04-10.78,2.32-3.49-2.78-4.07-8.26-1.25-11.79,2.85-3.56,7.79-3.89,10.85-.38,1.32,1.52,2.39,1.27,3.8.72,13.13-5.07,20.34-21.04,16.08-35.64C58.31,11.67,44.02,3.33,30.28,7.56c-13.57,4.18-21.77,19.45-18.38,34.24.35,1.51.79,2.99,1.35,5.04Z"/>
      <path class="cls-2" d="M21.24,53.97c1.55-1.49,2.95-2.83,3.75-3.61-1.75-4.47-3.97-8.32-4.74-12.49-1.87-10.13,5.03-20.2,14.21-21.63,10.14-1.58,18.83,5.23,20.38,15.96,1.5,10.42-4.94,20.52-14.5,21.62-6.23.72-12.58.13-19.1.13Z"/>
    </g>
  </g>
</svg>