<svg width="18" height="18" viewBox="0 0 18 18" fill="none" xmlns="http://www.w3.org/2000/svg">
<path d="M13.1572 10.8857C14.2286 10.8857 15.3 10.8857 16.3715 10.8857C16.4143 10.8857 16.4572 10.8857 16.4572 10.9715C16.4572 12.6 16.4572 14.2715 16.4572 15.9C16.4572 15.9857 16.4143 15.9857 16.3715 15.9857C16.2 15.9857 16.0715 15.9857 15.9 15.9857C13.9286 15.9857 11.9572 15.9857 9.9429 15.9857C9.81433 15.9857 9.81433 15.9857 9.81433 15.8572C9.81433 14.4 9.81433 12.9857 9.81433 11.5286C9.81433 11.3572 9.81433 11.1429 9.81433 10.9715C9.81433 10.8857 9.81433 10.8857 9.90005 10.8857C11.0143 10.8857 12.0858 10.8857 13.1572 10.8857ZM13.0715 13.8429C13.2 13.8429 13.3286 13.8429 13.4572 13.8429C13.5 13.8429 13.5429 13.8429 13.5429 13.7572C13.5429 13.5429 13.5429 13.2857 13.5429 13.0715C13.5429 13.0286 13.5429 13.0286 13.5 13.0286C13.2429 13.0286 12.9858 13.0286 12.7286 13.0286C12.6858 13.0286 12.6429 13.0715 12.6429 13.1143C12.6429 13.3286 12.6429 13.5857 12.6429 13.8C12.6429 13.8429 12.6429 13.8857 12.7286 13.8857C12.8572 13.8429 12.9429 13.8429 13.0715 13.8429Z" fill="white"/>
<path d="M9.00001 10.9714C9.00001 11.0143 9.00001 11.0572 9.00001 11.1429C9.00001 12.6429 9.00001 14.1429 9.00001 15.6429C9.00001 15.7286 9.00001 15.8143 9.00001 15.9C9.00001 16.0286 9.00001 16.0286 8.87144 16.0286C8.82858 16.0286 8.78572 16.0286 8.70001 16.0286C7.20001 16.0286 5.70001 16.0286 4.20001 16.0286C4.07144 16.0286 4.07144 16.0286 4.07144 15.9C4.07144 15.5143 4.07144 15.0857 4.07144 14.7C4.07144 14.5714 4.07144 14.6143 3.98572 14.6143C3.77144 14.6143 3.5143 14.6143 3.30001 14.6143C3.25715 14.6143 3.2143 14.6143 3.2143 14.7C3.2143 15.1286 3.2143 15.5572 3.2143 15.9857C3.2143 16.0286 3.2143 16.0714 3.12858 16.0714C2.6143 16.0714 2.10001 16.0714 1.58572 16.0714C1.45715 16.0714 1.45715 16.0714 1.45715 15.9429C1.45715 15.2143 1.45715 14.4857 1.45715 13.7572C1.45715 13.5429 1.50001 13.2857 1.54287 13.0714C1.75715 12.1714 2.3143 11.5714 3.12858 11.1857C3.5143 11.0143 3.94287 10.9286 4.37144 10.9286C4.4143 10.9286 4.4143 10.9286 4.45715 10.9714C5.05715 11.7429 5.6143 12.5143 6.2143 13.3286C6.25715 13.3714 6.25715 13.4143 6.25715 13.5C6.25715 13.7572 6.25715 14.0143 6.25715 14.2714C6.25715 14.3143 6.25715 14.3572 6.34287 14.3572C6.60001 14.3572 6.8143 14.3572 7.07144 14.3572C7.1143 14.3572 7.15715 14.3572 7.15715 14.2714C7.15715 14.0143 7.15715 13.7572 7.15715 13.5C7.15715 13.4143 7.15715 13.3714 7.24287 13.2857C7.80001 12.5572 8.35715 11.8286 8.95715 11.1429C8.95715 11.0143 9.00001 11.0143 9.00001 10.9714Z" fill="white"/>
<path d="M6.77149 5.70001C7.58577 5.70001 8.3572 5.87144 9.12863 6.12858C9.21434 6.17144 9.21434 6.17144 9.21434 6.25716C9.21434 6.5143 9.21434 6.8143 9.21434 7.07144C9.17149 8.0143 8.74291 8.70001 7.88577 9.17144C7.4572 9.38573 6.94291 9.5143 6.47149 9.42858C5.91434 9.34287 5.44291 9.12858 5.01434 8.74287C4.58577 8.3143 4.32863 7.80001 4.28577 7.15716C4.24291 6.85716 4.28577 6.5143 4.28577 6.2143C4.28577 6.17144 4.28577 6.17144 4.32863 6.17144C4.88577 5.95715 5.48577 5.82858 6.08577 5.74287C6.30006 5.70001 6.5572 5.70001 6.77149 5.70001Z" fill="white"/>
<path d="M6.72862 3.47144C7.07148 3.47144 7.4572 3.47144 7.80005 3.47144C8.22862 3.47144 8.57148 3.60001 8.87148 3.94286C9.08577 4.20001 9.21434 4.50001 9.21434 4.80001C9.21434 4.92858 9.21434 5.01429 9.21434 5.14286C9.21434 5.18572 9.21434 5.22858 9.12862 5.18572C8.65719 5.01429 8.18577 4.92858 7.71434 4.88572C7.20005 4.80001 6.64291 4.80001 6.12862 4.84286C5.57148 4.88572 5.01434 4.97144 4.50005 5.14286C4.4572 5.14286 4.37148 5.18572 4.32862 5.22858C4.28577 5.22858 4.28577 5.22858 4.28577 5.18572C4.28577 4.84286 4.28577 4.50001 4.45719 4.20001C4.71434 3.68572 5.14291 3.47144 5.70005 3.47144C6.04291 3.47144 6.38577 3.47144 6.72862 3.47144Z" fill="white"/>
<path d="M11.2715 7.92854C11.2715 8.31426 11.2715 8.69997 11.2715 9.08569C11.2715 9.59997 10.9715 9.98569 10.5 10.0714C10.3715 10.1143 10.2429 10.0714 10.1143 10.1143C10.0286 10.1143 9.9429 10.1143 9.85719 10.1143C9.81433 10.1143 9.81433 10.1143 9.81433 10.0714C9.81433 9.81426 9.81433 9.55712 9.81433 9.29997C9.81433 9.25712 9.85719 9.25711 9.85719 9.25711C9.98576 9.25711 10.1143 9.25711 10.2429 9.25711C10.3715 9.25711 10.4143 9.21426 10.4143 9.08569C10.4143 8.74283 10.4143 8.44283 10.4143 8.09997C10.4143 8.05711 10.4143 8.01426 10.3286 8.05711C10.2 8.09997 10.0715 8.09997 9.9429 8.09997C9.90005 8.09997 9.90005 8.09997 9.90005 8.05711C9.98576 7.71426 10.0715 7.3714 10.0715 7.02854C10.0715 6.59997 10.0715 6.1714 10.0715 5.69997C10.0715 5.65711 10.0715 5.61426 10.1572 5.61426C10.4143 5.65711 10.6715 5.69997 10.8858 5.8714C11.1858 6.12854 11.3143 6.42854 11.3143 6.81426C11.2715 7.19997 11.2715 7.54283 11.2715 7.92854Z" fill="white"/>
<path d="M14.1 5.52857C13.9714 5.52857 13.8428 5.52857 13.7571 5.52857C13.7143 5.52857 13.6714 5.52857 13.6714 5.44285C13.6714 4.84285 13.4571 4.28571 13.1143 3.81428C12.6857 3.25714 12.0857 2.95714 11.4 2.87143C11.3143 2.87143 11.2286 2.87143 11.1428 2.87143C11.1 2.87143 11.0571 2.87143 11.0571 2.78571C11.0571 2.52857 11.0571 2.27143 11.0571 2.05714C11.0571 2.01428 11.0571 2.01428 11.1 2.01428C12.6 2.1 13.6714 2.78571 14.3143 4.2C14.4857 4.62857 14.5714 5.05714 14.5714 5.48571C14.5714 5.52857 14.5714 5.57143 14.4857 5.57143C14.3571 5.52857 14.2286 5.52857 14.1 5.52857Z" fill="white"/>
<path d="M7.92855 10.5V10.5428C7.92855 10.9286 7.92855 10.9286 7.67141 11.2286C7.37141 11.5714 7.07141 11.9143 6.77141 12.2571C6.6857 12.3428 6.6857 12.3428 6.64284 12.2571C6.29998 11.8286 5.99998 11.4 5.65713 10.9714C5.61427 10.9286 5.57141 10.8428 5.57141 10.7571C5.57141 10.5428 5.57141 10.3286 5.57141 10.1143C5.57141 10.0714 5.57141 10.0714 5.61427 10.0714C6.29998 10.3286 7.02855 10.3286 7.71427 10.0714C7.75713 10.0714 7.79998 10.0714 7.79998 10.0286C7.84284 9.9857 7.84284 10.0286 7.84284 10.0714C7.92855 10.2428 7.92855 10.3714 7.92855 10.5Z" fill="white"/>
<path d="M3.42855 6.4714C3.42855 6.7714 3.42855 7.0714 3.47141 7.3714C3.51427 7.58568 3.51427 7.79997 3.59998 7.9714C3.59998 8.01425 3.59998 8.05711 3.55713 8.05711C3.21427 8.05711 2.87141 7.9714 2.61427 7.71425C2.09998 7.24283 2.09998 6.4714 2.57141 5.99997C2.7857 5.78568 3.04284 5.65711 3.3857 5.61425C3.42855 5.5714 3.42855 5.5714 3.42855 5.69997C3.42855 5.95711 3.42855 6.21425 3.42855 6.4714Z" fill="white"/>
<path d="M12.4286 5.52859C12.3 5.52859 12.1714 5.52859 12.0857 5.52859C12.0428 5.52859 12 5.52859 12 5.44287C12 4.97144 11.6143 4.62859 11.2714 4.54287C11.2286 4.54287 11.1428 4.54287 11.1 4.54287C11.0571 4.54287 11.0571 4.54287 11.0571 4.50002C11.0571 4.24287 11.0571 3.98573 11.0571 3.72859C11.0571 3.68573 11.1 3.68573 11.1428 3.68573C11.5286 3.72859 11.8714 3.8143 12.1714 4.02859C12.5571 4.32859 12.8143 4.7143 12.9 5.18573C12.9 5.27144 12.9428 5.40002 12.9428 5.48573C12.9428 5.52859 12.9428 5.57144 12.9 5.57144C12.6857 5.52859 12.5571 5.52859 12.4286 5.52859Z" fill="white"/>
</svg>