<svg width="14" height="14" viewBox="0 0 14 14" fill="none" xmlns="http://www.w3.org/2000/svg">
<g clip-path="url(#clip0_413_987)">
<path d="M8.33327 5.17142C8.25708 5.17142 8.18088 5.17142 8.0666 5.17142C7.99041 5.17142 7.95231 5.13332 7.95231 5.05713C7.91422 4.90475 7.87612 4.79047 7.87612 4.63809C7.87612 4.63809 7.87612 4.59999 7.83803 4.59999C7.76184 4.59999 7.72374 4.5619 7.64755 4.5238H7.60946C7.49517 4.59999 7.34279 4.67618 7.2285 4.79047C7.15231 4.82856 7.11422 4.82856 7.07612 4.79047C6.96184 4.67618 6.80946 4.5619 6.69517 4.44761C6.65708 4.40952 6.65708 4.37142 6.69517 4.33332C6.77136 4.21904 6.84755 4.14285 6.88565 4.02856C6.92374 3.99047 6.92374 3.95237 6.96184 3.95237V3.91428C6.92374 3.83809 6.88565 3.79999 6.88565 3.7238C6.88565 3.7238 6.88565 3.68571 6.84755 3.68571C6.69517 3.64761 6.54279 3.64761 6.39041 3.60952C6.31422 3.60952 6.27612 3.57142 6.27612 3.49523C6.27612 3.34285 6.27612 3.15237 6.27612 2.99999C6.27612 2.9238 6.31422 2.9238 6.35231 2.88571C6.50469 2.84761 6.61898 2.84761 6.77136 2.80952C6.80946 2.80952 6.84755 2.80952 6.84755 2.73332C6.84755 2.69523 6.88565 2.61904 6.92374 2.58094C6.92374 2.54285 6.92374 2.54285 6.92374 2.54285C6.84755 2.42856 6.77136 2.31428 6.69517 2.19999C6.61898 2.1238 6.61898 2.08571 6.69517 2.00952C6.80946 1.89523 6.92374 1.78094 7.03803 1.66666C7.03803 1.66666 7.07612 1.62856 7.07612 1.66666C7.11422 1.66666 7.11422 1.66666 7.15231 1.70475C7.2666 1.78094 7.41898 1.85713 7.53327 1.93332C7.57136 1.93332 7.57136 1.93332 7.60946 1.93332C7.68565 1.89523 7.76184 1.89523 7.79993 1.85713C7.79993 1.85713 7.83803 1.85713 7.83803 1.81904C7.87612 1.66666 7.91422 1.55237 7.91422 1.39999C7.91422 1.3238 7.95231 1.28571 8.0285 1.28571C8.21898 1.28571 8.37136 1.28571 8.56184 1.28571C8.63803 1.28571 8.63803 1.3238 8.67612 1.3619C8.71422 1.51428 8.75231 1.66666 8.75231 1.78094C8.75231 1.81904 8.75231 1.81904 8.79041 1.81904C8.8666 1.81904 8.90469 1.85713 8.98089 1.89523H9.01898C9.13327 1.81904 9.24755 1.74285 9.39993 1.66666C9.47612 1.62856 9.51422 1.62856 9.59041 1.66666C9.70469 1.78094 9.81898 1.85713 9.93327 1.97142C9.97136 2.00952 9.97136 2.04761 9.93327 2.1238C9.85708 2.19999 9.81898 2.27618 9.74279 2.39047C9.70469 2.42856 9.70469 2.46666 9.6666 2.50475V2.54285C9.70469 2.58094 9.74279 2.65713 9.74279 2.73332C9.74279 2.77142 9.78088 2.77142 9.81898 2.77142C9.97136 2.80951 10.0856 2.80952 10.238 2.84761C10.3142 2.84761 10.3523 2.88571 10.3523 2.99999C10.3523 2.99999 10.3523 2.99999 10.3523 3.03809C10.3523 3.19047 10.3523 3.34285 10.3523 3.49523C10.3523 3.57142 10.3142 3.60952 10.238 3.60952C10.0856 3.64761 9.93327 3.64761 9.81898 3.68571C9.78088 3.68571 9.78088 3.68571 9.78088 3.7238C9.78088 3.79999 9.74279 3.83809 9.70469 3.87618C9.70469 3.91428 9.70469 3.91428 9.70469 3.95237C9.78088 4.06666 9.85708 4.18094 9.93327 4.29523C9.97136 4.37142 9.97136 4.40952 9.93327 4.44761C9.81898 4.5619 9.74279 4.63809 9.6285 4.75237L9.59041 4.79047C9.55231 4.82856 9.51422 4.82856 9.43803 4.79047C9.32374 4.71428 9.20946 4.67618 9.09517 4.59999C9.01898 4.5619 8.98088 4.5238 8.90469 4.5619C8.8666 4.59999 8.8285 4.59999 8.79041 4.59999C8.75231 4.59999 8.75231 4.59999 8.75231 4.63809C8.71422 4.79047 8.67612 4.90475 8.67612 5.05713C8.67612 5.13332 8.63803 5.13332 8.56184 5.13332C8.52374 5.17142 8.44755 5.17142 8.33327 5.17142ZM8.33327 4.10475C8.48565 4.10475 8.56184 4.10475 8.67612 4.06666C8.94279 3.95237 9.13327 3.79999 9.20946 3.53332C9.32374 3.26666 9.28565 2.99999 9.09517 2.77142C8.8285 2.42856 8.37136 2.31428 7.99041 2.46666C7.64755 2.61904 7.41898 2.9619 7.45708 3.34285C7.49517 3.53332 7.53327 3.68571 7.68565 3.83809C7.83803 3.99047 8.0666 4.10475 8.33327 4.10475Z" fill="white"/>
<path d="M11.9142 7.34285C11.8761 7.34285 11.8761 7.34285 11.838 7.30476C11.7618 7.22857 11.6475 7.19047 11.5713 7.11428H11.5332C11.4951 7.11428 11.457 7.15237 11.4189 7.15237C11.3809 7.15237 11.3809 7.15237 11.3809 7.19047C11.3428 7.30476 11.3428 7.41904 11.3047 7.53333C11.3047 7.60952 11.2666 7.60952 11.1904 7.60952C11.0761 7.60952 10.9237 7.60952 10.8094 7.60952C10.7332 7.60952 10.7332 7.57142 10.6951 7.53333C10.657 7.41904 10.657 7.30476 10.619 7.19047C10.619 7.15237 10.619 7.15237 10.5809 7.15237C10.5428 7.15237 10.5047 7.11428 10.4666 7.11428H10.4285C10.3523 7.19047 10.238 7.22857 10.1618 7.30476C10.1237 7.34285 10.0856 7.34285 10.0475 7.30476C9.97133 7.22857 9.85705 7.15238 9.78085 7.03809C9.78085 7.03809 9.78086 7.03809 9.74276 6.99999C9.70466 6.9619 9.66657 6.9238 9.70466 6.84761C9.74276 6.73333 9.81895 6.65714 9.89514 6.58095V6.54285C9.89514 6.50476 9.85705 6.46666 9.85705 6.42857C9.85705 6.42857 9.85705 6.39047 9.81895 6.39047C9.70466 6.35237 9.59038 6.35238 9.47609 6.31428C9.438 6.31428 9.3999 6.27618 9.3999 6.23809C9.3999 6.08571 9.3999 5.93333 9.3999 5.81904C9.3999 5.78095 9.438 5.74285 9.47609 5.74285C9.59038 5.70476 9.66657 5.70476 9.78085 5.66666H9.81895C9.85705 5.66666 9.85705 5.66666 9.85705 5.62857C9.85705 5.59047 9.89514 5.55238 9.89514 5.51428V5.47618C9.81895 5.39999 9.78086 5.3238 9.74276 5.24761C9.66657 5.13333 9.66657 5.13333 9.78085 5.05714C9.85705 4.98095 9.93324 4.90476 10.0094 4.82857C10.0475 4.79047 10.0856 4.79047 10.1618 4.82857C10.238 4.90476 10.3523 4.94285 10.4285 5.01904H10.4666C10.5047 4.98095 10.5428 4.98095 10.5809 4.98095C10.619 4.98095 10.619 4.94285 10.619 4.94285C10.657 4.82857 10.657 4.75238 10.6951 4.63809V4.59999C10.6951 4.5619 10.7332 4.5238 10.7713 4.5238H10.8094C10.9237 4.5238 11.038 4.5238 11.1523 4.5238C11.2285 4.5238 11.2666 4.5619 11.2666 4.63809C11.3047 4.75238 11.3047 4.82857 11.3047 4.94285C11.3047 4.98095 11.3047 4.98095 11.3428 4.98095C11.3809 4.98095 11.419 5.01904 11.457 5.01904H11.4951C11.5713 4.94285 11.6856 4.90476 11.7618 4.82857C11.838 4.79047 11.838 4.79047 11.9142 4.82857C11.9904 4.90476 12.0666 4.98095 12.1809 5.05714C12.2951 5.17142 12.257 5.20952 12.219 5.28571C12.1809 5.3619 12.1047 5.43809 12.0666 5.51428V5.55238C12.0666 5.59047 12.1047 5.62857 12.1047 5.66666C12.1047 5.66666 12.1047 5.70476 12.1428 5.70476C12.257 5.74285 12.3713 5.74285 12.4856 5.78095C12.5618 5.78095 12.5618 5.81904 12.5618 5.89523C12.5618 6.00952 12.5618 6.1619 12.5618 6.27618C12.5618 6.35238 12.5237 6.39047 12.4856 6.39047C12.3713 6.42857 12.257 6.42857 12.1809 6.46666C12.1428 6.46666 12.1428 6.46666 12.1428 6.50476C12.1428 6.54285 12.1047 6.58095 12.1047 6.61904C12.1047 6.65714 12.1047 6.65714 12.1047 6.69523C12.1809 6.77142 12.219 6.88571 12.2951 6.9619C12.3332 6.99999 12.3332 7.03809 12.2951 7.07618C12.2951 7.07618 12.2951 7.11428 12.257 7.11428C12.1809 7.19047 12.0666 7.30476 11.9904 7.38095C11.9904 7.34285 11.9523 7.34285 11.9142 7.34285ZM10.9999 6.80952C11.3428 6.80952 11.7237 6.54285 11.7618 6.08571C11.7618 5.66666 11.419 5.3238 10.9999 5.3238C10.5809 5.3238 10.2761 5.66666 10.238 6.08571C10.238 6.50476 10.657 6.80952 10.9999 6.80952Z" fill="white"/>
<path d="M6.92367 5.4381C6.84747 5.51429 6.80938 5.55239 6.77128 5.59048L6.73319 5.62858C6.69509 5.66667 6.657 5.66667 6.6189 5.62858C6.58081 5.59048 6.58081 5.55239 6.6189 5.51429C6.657 5.4762 6.69509 5.4381 6.73319 5.36191C6.80938 5.28572 6.88557 5.20953 6.92367 5.13334C6.96176 5.09524 7.03795 5.09524 7.07605 5.13334C7.19033 5.24762 7.30462 5.36191 7.38081 5.4381L7.4189 5.4762C7.457 5.51429 7.457 5.55239 7.4189 5.59048C7.38081 5.62858 7.34271 5.62858 7.30462 5.59048C7.26652 5.55239 7.22843 5.51429 7.19033 5.4762L7.15224 5.4381C7.15224 5.51429 7.19033 5.59048 7.22843 5.70477C7.26652 5.85715 7.34271 5.97143 7.4189 6.08572C7.64748 6.46667 7.95224 6.73334 8.37128 6.88572C8.56176 6.96191 8.75224 7 8.94271 7C9.0189 7 9.057 7.0381 9.057 7.0762C9.09509 7.15239 9.0189 7.22858 8.94271 7.22858C8.82843 7.22858 8.67605 7.19048 8.56176 7.19048C7.99033 7.0381 7.53319 6.69524 7.22843 6.2C7.11414 6.00953 7.03795 5.78096 6.99986 5.55239C6.96176 5.51429 6.96176 5.4762 6.92367 5.4381Z" fill="white"/>
<path d="M11.9904 4.02857C11.9904 3.95238 11.9904 3.87619 11.9904 3.8C11.9523 3.41905 11.7999 3.07619 11.5713 2.80952C11.3047 2.50476 10.9999 2.31428 10.6189 2.2C10.5808 2.2 10.5428 2.2 10.5047 2.1619C10.4285 2.1619 10.4285 2.12381 10.4285 2.08571C10.4285 2.04762 10.4666 2.00952 10.5047 2.00952C10.5428 2.00952 10.5808 2.00952 10.6189 2.00952C10.8094 2.04762 11.038 2.12381 11.2285 2.27619C11.3808 2.39047 11.5332 2.50476 11.6475 2.65714C11.9142 2.9619 12.0666 3.34285 12.1428 3.72381C12.1428 3.83809 12.1808 3.91428 12.1428 4.02857V4.06666C12.1428 4.06666 12.1428 4.06666 12.1808 4.06666C12.257 4.02857 12.2951 3.95238 12.3713 3.91428C12.4094 3.87619 12.4475 3.87619 12.4856 3.91428C12.5237 3.95238 12.5237 3.99047 12.5237 4.02857C12.5237 4.06666 12.5237 4.06666 12.4856 4.10476C12.3713 4.21905 12.257 4.33333 12.1428 4.44762C12.1047 4.48571 12.0666 4.48571 12.0285 4.44762C11.9142 4.33333 11.7999 4.21905 11.6856 4.10476C11.6475 4.06666 11.6475 3.99047 11.6856 3.95238C11.7237 3.91428 11.7618 3.91428 11.838 3.95238C11.8761 3.91428 11.9142 3.99047 11.9904 4.02857C11.9523 4.02857 11.9523 4.02857 11.9904 4.02857Z" fill="white"/>
<path d="M3.0381 0.980957C3.38096 0.980957 3.68572 0.980957 4.02858 0.980957C4.21905 0.980957 4.44762 0.980957 4.6 1.09524C4.94286 1.28572 5.09524 1.55239 5.09524 1.93334C5.09524 2.50477 5.17143 3.0762 5.32381 3.64762C5.36191 3.8 5.4 3.99048 5.4762 4.14286C5.55239 4.44762 5.51429 4.75239 5.28572 4.98096C5.09524 5.20953 4.90477 5.4762 4.71429 5.74286C4.56191 5.93334 4.40953 6.16191 4.25715 6.35239C4.21905 6.39048 4.21905 6.39048 4.25715 6.42858C4.44762 6.77143 4.6381 7.11429 4.86667 7.45715C5.28572 8.02858 5.78096 8.52381 6.35239 8.98096C6.73334 9.28572 7.15239 9.51429 7.57143 9.74286C7.60953 9.78096 7.64762 9.74286 7.64762 9.74286C7.99048 9.51429 8.29524 9.24762 8.6381 8.98096C8.79048 8.86667 8.90477 8.79048 9.05715 8.6762C9.32381 8.48572 9.59048 8.44762 9.89524 8.52381C10.2381 8.6381 10.581 8.71429 10.9238 8.79048C11.1905 8.82858 11.4571 8.86667 11.7619 8.86667C11.9143 8.86667 12.0667 8.86667 12.2191 8.90477C12.6381 8.94286 13.0191 9.36191 13.0191 9.78096C13.0571 10.1238 13.0191 10.5048 13.0191 10.8476C13.0191 11.1905 13.0191 11.5714 13.0191 11.9143C13.0191 12.1429 12.981 12.3714 12.8667 12.5619C12.6762 12.8286 12.4476 13.0191 12.1048 13.0191C11.7619 13.0571 11.4191 13.0191 11.0762 12.981C10.6571 12.9429 10.2381 12.8667 9.78096 12.7905C8.75239 12.5619 7.8 12.2191 6.88572 11.7619C6.42858 11.5333 6.00953 11.2667 5.59048 10.9619C5.28572 10.7333 4.94286 10.4667 4.6762 10.2C4.21905 9.78096 3.76191 9.32381 3.38096 8.82858C3.19048 8.56191 2.96191 8.29524 2.80953 8.02858C2.54286 7.57143 2.2762 7.15239 2.04762 6.65715C1.78096 6.12381 1.59048 5.55239 1.4381 4.98096C1.32381 4.52381 1.20953 4.06667 1.13334 3.60953C1.01905 3.19048 0.980957 2.73334 0.980957 2.31429C0.980957 2.12381 0.980957 1.97143 0.980957 1.78096C1.05715 1.36191 1.4381 1.01905 1.85715 0.980957C1.89524 0.980957 1.97143 0.980957 2.00953 0.980957C2.35239 0.980957 2.69524 0.980957 3.0381 0.980957Z" fill="white"/>
</g>
<defs>
<clipPath id="clip0_413_987">
<rect width="14" height="14" fill="white"/>
</clipPath>
</defs>
</svg>
