<svg width="14" height="14" viewBox="0 0 14 14" fill="none" xmlns="http://www.w3.org/2000/svg">
<g clip-path="url(#clip0_413_970)">
<path d="M4.3858 2.62859C4.3858 2.80002 4.3858 3.01431 4.3858 3.18574C4.3858 3.22859 4.3858 3.27145 4.30008 3.31431C3.61437 3.74288 3.01437 4.25717 2.5858 4.94288C2.54294 4.98574 2.50008 4.98574 2.45723 4.98574C1.85723 4.64288 1.25723 4.25717 0.700084 3.87145C0.657227 3.82859 0.657227 3.82859 0.657227 3.78574C1.34294 2.71431 2.24294 1.85717 3.35723 1.21431C4.04294 0.828594 4.81437 0.571451 5.62865 0.400022C6.7858 0.185737 7.94294 0.228594 9.10008 0.571451C10.6858 1.04288 11.9715 1.98574 13.0001 3.27145C13.1287 3.44288 13.2144 3.57145 13.3429 3.74288C13.3858 3.78574 13.3858 3.78574 13.3429 3.82859C12.7429 4.21431 12.1429 4.60002 11.5429 4.94288C11.4572 4.98574 11.4572 4.98574 11.4144 4.90002C10.9858 4.25717 10.4715 3.74288 9.82866 3.31431C9.70008 3.22859 9.61437 3.14288 9.65723 2.97145C9.65723 2.67145 9.65723 2.32859 9.65723 2.02859C9.65723 1.94288 9.65723 1.94288 9.57151 1.90002C8.97151 1.64288 8.32866 1.47145 7.6858 1.42859C6.65723 1.34288 5.67151 1.42859 4.72865 1.81431C4.64294 1.85717 4.55723 1.90002 4.42865 1.94288C4.3858 1.94288 4.3858 1.98574 4.3858 2.02859C4.3858 2.24288 4.3858 2.45717 4.3858 2.62859Z" fill="white"/>
<path d="M9.0144 6.7C9.0144 6.14285 9.40012 5.75714 9.95726 5.75714C10.5144 5.75714 10.9001 6.14285 10.9001 6.7C10.9001 7.25714 10.5144 7.64286 9.95726 7.64286C9.40012 7.64286 9.0144 7.25714 9.0144 6.7Z" fill="white"/>
<path d="M3.0144 6.7C3.0144 6.14285 3.40012 5.75714 3.95726 5.75714C4.5144 5.75714 4.90012 6.14285 4.90012 6.7C4.90012 7.21428 4.47155 7.64286 3.95726 7.64286C3.40012 7.64286 3.0144 7.25714 3.0144 6.7Z" fill="white"/>
<path d="M3.0144 12.7429C3.0144 12.1857 3.40012 11.8 3.95726 11.8C4.5144 11.8 4.90012 12.1857 4.90012 12.7429C4.90012 13.3 4.5144 13.6857 3.95726 13.6857C3.40012 13.6857 3.0144 13.3 3.0144 12.7429Z" fill="white"/>
<path d="M7.90012 6.74291C7.90012 7.30005 7.5144 7.68576 6.95726 7.68576C6.40012 7.68576 6.0144 7.30005 6.0144 6.74291C6.0144 6.22862 6.40012 5.80005 6.95726 5.80005C7.5144 5.80005 7.90012 6.18576 7.90012 6.74291Z" fill="white"/>
<path d="M9.0144 12.7429C9.0144 12.1857 9.40012 11.8 9.9144 11.8C10.4715 11.8 10.8573 12.1857 10.9001 12.7429C10.9001 13.3 10.5144 13.6857 9.95726 13.6857C9.52869 13.6857 9.0144 13.3857 9.0144 12.7429Z" fill="white"/>
<path d="M7.90012 12.7429C7.90012 13.3 7.5144 13.6857 6.95726 13.6857C6.48583 13.6857 6.0144 13.3429 6.0144 12.7429C6.0144 12.1857 6.40012 11.8 6.9144 11.8C7.5144 11.8 7.90012 12.1857 7.90012 12.7429Z" fill="white"/>
<path d="M9.99999 10.6429C9.44284 10.6429 9.05713 10.3 9.05713 9.74286C9.05713 9.18571 9.39999 8.75714 9.95713 8.75714C10.5143 8.75714 10.9428 9.14285 10.9428 9.7C10.9 10.2571 10.5143 10.6429 9.99999 10.6429Z" fill="white"/>
<path d="M6.95726 10.6429C6.40012 10.6429 6.0144 10.2571 6.0144 9.7C6.0144 9.14286 6.40012 8.75714 6.95726 8.8C7.5144 8.8 7.90012 9.18571 7.90012 9.74286C7.90012 10.3 7.5144 10.6857 6.95726 10.6429Z" fill="white"/>
<path d="M4.90019 9.74287C4.85734 10.3 4.47162 10.6857 3.91448 10.6429C3.35733 10.6 2.97162 10.2143 3.01448 9.6143C3.05733 9.10002 3.48591 8.7143 4.00019 8.75716C4.51448 8.80002 4.90019 9.22859 4.90019 9.74287Z" fill="white"/>
</g>
<defs>
<clipPath id="clip0_413_970">
<rect width="14" height="14" fill="white"/>
</clipPath>
</defs>
</svg>
