<svg width="10" height="16" viewBox="0 0 10 16" fill="none" xmlns="http://www.w3.org/2000/svg">
<g clip-path="url(#clip0_413_1000)">
<path d="M9.02869 10.7C9.02869 11.0857 9.07155 11.5143 9.02869 11.9429C8.94298 12.8857 8.60012 13.7 7.95726 14.3857C7.6144 14.7286 7.22869 15.0286 6.80012 15.2429C6.1144 15.5857 5.38583 15.7143 4.6144 15.6286C3.67155 15.5 2.85726 15.1143 2.17155 14.4286C1.6144 13.8286 1.22869 13.1429 1.10012 12.3715C1.05726 12.0715 1.0144 11.8143 1.0144 11.5143C1.0144 10.8286 1.0144 10.1 1.0144 9.41431C1.0144 9.37145 1.0144 9.32859 1.10012 9.32859C1.95726 9.32859 2.77155 9.32859 3.62869 9.32859C3.7144 9.32859 3.7144 9.37145 3.7144 9.41431C3.7144 10.1429 3.7144 10.8286 3.7144 11.5572C3.7144 11.8143 3.75726 12.0286 3.84298 12.2429C4.05726 12.6286 4.35726 12.8857 4.78583 12.9286C5.64298 13.1 6.32869 12.4572 6.37155 11.7715C6.37155 11.6429 6.37155 11.4715 6.37155 11.3429C6.37155 10.7 6.37155 10.0143 6.37155 9.37145C6.37155 9.32859 6.37155 9.28574 6.45726 9.28574C7.3144 9.28574 8.12869 9.28574 8.98583 9.28574C9.07155 9.28574 9.07155 9.28574 9.07155 9.37145C9.02869 9.84288 9.02869 10.2715 9.02869 10.7Z" fill="white"/>
<path d="M5.0859 3.02858C5.25733 3.07144 5.3859 3.07144 5.51447 3.1143C6.11447 3.28573 6.5859 3.62858 6.92876 4.18573C7.14305 4.52858 7.22876 4.9143 7.22876 5.34287C7.22876 5.47144 7.22876 5.55715 7.22876 5.68573C7.22876 5.77144 7.22876 5.77144 7.14305 5.77144C6.67162 5.77144 6.20019 5.77144 5.6859 5.77144C4.74305 5.77144 3.75733 5.77144 2.81447 5.77144C2.72876 5.77144 2.72876 5.77144 2.72876 5.68573C2.72876 5.38573 2.72876 5.08573 2.77162 4.78573C2.9859 3.92858 3.71447 3.20001 4.61447 3.07144C4.65733 3.07144 4.74305 3.07144 4.82876 3.02858C4.01447 2.90001 3.54305 2.25715 3.62876 1.57144C3.71447 0.842868 4.31447 0.328583 5.00019 0.328583C5.72876 0.328583 6.32876 0.885726 6.32876 1.6143C6.37162 2.25715 5.9859 2.90001 5.0859 3.02858Z" fill="white"/>
<path d="M2.30014 6.62857C2.72871 6.62857 3.15728 6.62857 3.543 6.62857C3.62871 6.62857 3.62871 6.62857 3.62871 6.71429C3.62871 7.27143 3.62871 7.78571 3.62871 8.34286C3.62871 8.38571 3.62871 8.42857 3.543 8.42857C2.68585 8.42857 1.82871 8.42857 1.01443 8.42857C0.971568 8.42857 0.928711 8.42857 0.928711 8.34286C0.928711 7.78571 0.928711 7.22857 0.928711 6.67143C0.928711 6.62857 0.971568 6.62857 1.01443 6.62857C1.443 6.62857 1.87157 6.62857 2.30014 6.62857Z" fill="white"/>
<path d="M7.70004 6.62858C8.12861 6.62858 8.55718 6.62858 8.9429 6.62858C9.02861 6.62858 9.02861 6.62858 9.02861 6.71429C9.02861 7.27144 9.02861 7.78572 9.02861 8.34287C9.02861 8.38572 8.98576 8.42858 8.9429 8.42858C8.08576 8.42858 7.27147 8.42858 6.41433 8.42858C6.37147 8.42858 6.32861 8.42858 6.32861 8.34287C6.32861 7.78572 6.32861 7.22858 6.32861 6.67144C6.32861 6.62858 6.32861 6.58572 6.41433 6.58572C6.8429 6.62858 7.27147 6.62858 7.70004 6.62858Z" fill="white"/>
<path d="M0.971533 3.45717C0.714391 3.45717 0.41439 3.45717 0.157247 3.45717C0.11439 3.45717 0.0715332 3.45717 0.0715332 3.37146C0.0715332 3.11431 0.0715332 2.85717 0.0715332 2.60003C0.0715332 2.51431 0.11439 2.51431 0.157247 2.51431C0.457247 2.51431 0.800104 2.51431 1.1001 2.51431C1.31439 2.51431 1.57153 2.51431 1.78582 2.51431C1.87153 2.51431 1.87153 2.51431 1.87153 2.60003C1.87153 2.85717 1.87153 3.07146 1.87153 3.3286C1.87153 3.37146 1.87153 3.41431 1.78582 3.41431C1.48582 3.45717 1.22868 3.45717 0.971533 3.45717Z" fill="white"/>
<path d="M9.02877 2.60001C9.28592 2.60001 9.58592 2.60001 9.84306 2.60001C9.88592 2.60001 9.92877 2.60001 9.92877 2.68573C9.92877 2.94287 9.92877 3.20001 9.92877 3.4143C9.92877 3.45716 9.92877 3.50001 9.88592 3.50001C9.32877 3.50001 8.81449 3.50001 8.25735 3.50001C8.17163 3.50001 8.17163 3.50001 8.17163 3.4143C8.17163 3.20001 8.17163 2.94287 8.17163 2.72859C8.17163 2.64287 8.17163 2.64287 8.25735 2.64287C8.51449 2.55716 8.77163 2.55716 9.02877 2.60001C9.02877 2.55716 9.02877 2.55716 9.02877 2.60001Z" fill="white"/>
<path d="M9.84288 4.95715V5.00001C9.7143 5.21429 9.62859 5.47144 9.50002 5.68572C9.50002 5.72858 9.45716 5.72858 9.4143 5.72858C8.94288 5.51429 8.47145 5.25715 8.00002 5.04286C7.87145 5.00001 7.87145 5.00001 7.9143 4.82858C8.00002 4.61429 8.08573 4.44286 8.2143 4.22858C8.25716 4.18572 8.25716 4.14286 8.34288 4.18572C8.85716 4.40001 9.32859 4.65715 9.84288 4.91429C9.80002 4.91429 9.84288 4.91429 9.84288 4.95715Z" fill="white"/>
<path d="M1.78591 4.18573C1.91448 4.44287 2.04305 4.70002 2.17162 4.95716C2.17162 5.00002 2.17162 5.00002 2.12877 5.04287C1.61448 5.30002 1.1002 5.5143 0.628767 5.77144C0.58591 5.77144 0.58591 5.77144 0.543053 5.72859C0.414481 5.47144 0.328767 5.25716 0.200195 5.00002C0.200195 4.95716 0.200195 4.95716 0.243052 4.9143C0.671624 4.70002 1.10019 4.48573 1.52877 4.3143C1.57162 4.27144 1.65734 4.22859 1.78591 4.18573C1.74305 4.18573 1.74305 4.18573 1.78591 4.18573Z" fill="white"/>
<path d="M9.50015 0.328583C9.54301 0.328583 9.54301 0.328583 9.54301 0.37144C9.67158 0.628583 9.7573 0.842869 9.88587 1.10001C9.88587 1.14287 9.88587 1.14287 9.84301 1.18573C9.32872 1.40001 8.81444 1.65715 8.30015 1.87144C8.2573 1.87144 8.2573 1.87144 8.21444 1.82858C8.08587 1.57144 8.00015 1.35715 7.87158 1.10001C7.87158 1.05715 7.87158 1.05715 7.91444 1.05715C8.42872 0.800011 8.94301 0.585726 9.50015 0.328583C9.4573 0.37144 9.4573 0.328583 9.50015 0.328583Z" fill="white"/>
<path d="M1.74294 1.87144C1.70008 1.87144 1.70008 1.87144 1.65722 1.82859C1.1858 1.6143 0.714366 1.40001 0.242938 1.18573C0.114366 1.14287 0.114367 1.14287 0.157224 1.0143C0.242938 0.800014 0.371509 0.585728 0.457224 0.371443C0.500081 0.285728 0.542938 0.328585 0.542938 0.328585C0.97151 0.500014 1.40008 0.7143 1.82865 0.928585C1.91437 0.971443 2.00008 1.0143 2.0858 1.05716C2.12865 1.05716 2.12865 1.10001 2.0858 1.14287C2.00008 1.35716 1.87151 1.57144 1.7858 1.82859C1.7858 1.82859 1.7858 1.87144 1.74294 1.87144Z" fill="white"/>
</g>
<defs>
<clipPath id="clip0_413_1000">
<rect width="10" height="16" fill="white"/>
</clipPath>
</defs>
</svg>
