<svg width="14" height="14" viewBox="0 0 14 14" fill="none" xmlns="http://www.w3.org/2000/svg">
<g clip-path="url(#clip0_413_1059)">
<path d="M7.38574 12.2714C7.38574 12.0143 7.38574 11.8 7.38574 11.5428C7.38574 11.3286 7.51431 11.2 7.7286 11.1571C8.50003 11.0286 9.2286 10.6857 9.8286 10.1286C10.5143 9.52855 10.9429 8.75712 11.1143 7.85712C11.2429 7.12855 11.2429 6.39998 10.9857 5.71427C10.8572 5.37141 10.6857 5.02855 10.4715 4.72855C10.4715 4.68569 10.4286 4.68569 10.4286 4.64284C10.3 4.47141 10.3429 4.29998 10.4715 4.17141C10.6857 3.95712 10.9429 3.69998 11.1572 3.4857C11.2857 3.35712 11.4143 3.22855 11.5429 3.09998C11.7143 2.92855 11.9715 2.97141 12.1429 3.1857C12.2715 3.39998 12.4429 3.57141 12.5286 3.7857C12.9572 4.51427 13.2572 5.32855 13.3857 6.14284C13.4286 6.44284 13.4715 6.69998 13.4715 6.99998C13.4715 7.64284 13.3857 8.28569 13.1715 8.92855C13 9.57141 12.7 10.1286 12.3572 10.6857C12.0572 11.1571 11.6715 11.5428 11.2429 11.9286C10.9 12.2286 10.5572 12.4857 10.1715 12.7C9.61431 13.0428 8.97146 13.2571 8.3286 13.3857C8.15717 13.4286 7.98574 13.4714 7.81431 13.4714C7.64289 13.4714 7.47146 13.3857 7.4286 13.2143C7.4286 13.1714 7.38574 13.0857 7.38574 13.0428C7.38574 12.7857 7.38574 12.5286 7.38574 12.2714Z" fill="white"/>
<path d="M1.68563 6.61428C1.42849 6.61428 1.2142 6.61428 0.957061 6.61428C0.657061 6.61428 0.485632 6.44285 0.52849 6.14285C0.614204 5.62856 0.699918 5.11428 0.914204 4.64285C1.2142 3.91428 1.64278 3.22856 2.15706 2.62856C2.88563 1.85713 3.74278 1.29999 4.72849 0.957133C5.28563 0.742848 5.84278 0.614276 6.39992 0.571419C6.78563 0.528562 7.12849 0.528562 7.5142 0.571419C8.15706 0.657133 8.75706 0.785705 9.35706 0.99999C9.65706 1.12856 9.9142 1.25713 10.2142 1.42856C10.4285 1.55713 10.6856 1.72856 10.8999 1.89999C11.0713 2.02856 11.0713 2.24285 10.9428 2.41428C10.8999 2.45713 10.8571 2.49999 10.8571 2.54285C10.5571 2.84285 10.2142 3.1857 9.9142 3.4857C9.74277 3.65713 9.57135 3.69999 9.35706 3.52856C9.0142 3.31428 8.62849 3.09999 8.24277 2.97142C7.77135 2.79999 7.25706 2.75713 6.74277 2.79999C6.05706 2.84285 5.4142 3.05713 4.8142 3.39999C4.12849 3.82856 3.6142 4.42856 3.27135 5.15713C3.09992 5.49999 3.0142 5.84285 2.92849 6.22856C2.88563 6.44285 2.75706 6.57142 2.49992 6.57142C2.19992 6.61428 1.94278 6.61428 1.68563 6.61428Z" fill="white"/>
<path d="M1.68558 7.47141C1.94272 7.47141 2.157 7.47141 2.41415 7.47141C2.62843 7.47141 2.757 7.59998 2.79986 7.7714C2.84272 8.02855 2.88557 8.28569 3.01415 8.49998C3.22843 9.09998 3.57129 9.61426 4.04272 10.0428C4.64272 10.6 5.32843 10.9857 6.09986 11.1571C6.14272 11.1571 6.18557 11.1571 6.27129 11.2C6.44272 11.2428 6.57129 11.3714 6.57129 11.5428C6.57129 12.0571 6.57129 12.5714 6.57129 13.0428C6.57129 13.3 6.39986 13.4285 6.14272 13.4285C5.54272 13.3428 4.94272 13.2143 4.38557 12.9571C3.61415 12.6143 2.97129 12.1857 2.37129 11.5857C1.89986 11.1143 1.51415 10.5571 1.21415 9.95712C1.08557 9.74283 0.999861 9.52855 0.914146 9.31426C0.742718 8.88569 0.657003 8.41426 0.571289 7.94283C0.571289 7.85712 0.571289 7.72855 0.614146 7.64283C0.69986 7.51426 0.785575 7.47141 0.957003 7.47141C1.21415 7.47141 1.47129 7.47141 1.68558 7.47141Z" fill="white"/>
<path d="M6.22852 6.61426C6.22852 6.01426 6.22852 5.37141 6.22852 4.77141C6.22852 4.51426 6.39994 4.34283 6.65709 4.34283C6.87137 4.34283 7.08566 4.34283 7.29994 4.34283C7.55709 4.34283 7.72852 4.51426 7.72852 4.77141C7.72852 6.01426 7.72852 7.25712 7.72852 8.45712C7.72852 8.71426 7.55709 8.88569 7.3428 8.88569C7.12852 8.88569 6.87137 8.88569 6.65709 8.88569C6.39994 8.88569 6.22852 8.71426 6.22852 8.45712C6.22852 7.85712 6.22852 7.25712 6.22852 6.61426Z" fill="white"/>
<path d="M3.95703 7C3.95703 6.52857 3.95703 6.01429 3.95703 5.54286C3.95703 5.28572 4.12846 5.11429 4.3856 5.11429C4.59989 5.11429 4.81417 5.11429 5.07132 5.11429C5.32846 5.11429 5.49989 5.28572 5.49989 5.54286C5.49989 6.52857 5.49989 7.51429 5.49989 8.5C5.49989 8.75715 5.32846 8.92857 5.11417 8.92857C4.89989 8.92857 4.64275 8.92857 4.42846 8.92857C4.17132 8.92857 4.04275 8.75715 4.04275 8.54286C3.95703 7.98572 3.95703 7.51429 3.95703 7Z" fill="white"/>
<path d="M8.5 7.77143C8.5 7.51429 8.5 7.3 8.5 7.04286C8.5 6.78572 8.67143 6.61429 8.92857 6.61429C9.14286 6.61429 9.35714 6.61429 9.61429 6.61429C9.87143 6.61429 10.0429 6.78572 10.0429 7.04286C10.0429 7.51429 10.0429 8.02857 10.0429 8.5C10.0429 8.71429 9.87143 8.88572 9.65714 8.88572C9.4 8.88572 9.18571 8.88572 8.92857 8.88572C8.67143 8.88572 8.54286 8.71429 8.54286 8.45715C8.5 8.24286 8.5 7.98572 8.5 7.77143Z" fill="white"/>
</g>
<defs>
<clipPath id="clip0_413_1059">
<rect width="14" height="14" fill="white"/>
</clipPath>
</defs>
</svg>
