<svg width="15" height="14" viewBox="0 0 15 14" fill="none" xmlns="http://www.w3.org/2000/svg">
<g clip-path="url(#clip0_413_1028)">
<path d="M8.56176 10.7333C8.9808 10.7333 9.32366 10.6571 9.66652 10.4666C10.5427 9.93331 11.457 9.43807 12.3713 8.90474C12.6379 8.75236 12.9427 8.59998 13.2856 8.59998C13.3999 8.59998 13.5141 8.59998 13.6284 8.63807C13.857 8.71426 14.0094 8.86664 14.0475 9.13331C14.0856 9.39998 14.0094 9.62855 13.7808 9.78093C13.4379 10.0095 13.0951 10.2 12.7522 10.4285C11.6856 11.0762 10.6189 11.7619 9.51414 12.4095C9.32366 12.5238 9.17128 12.6381 8.9808 12.7524C8.63795 12.9428 8.25699 13.0571 7.87604 13.019C7.68557 12.9809 7.53319 12.9428 7.34271 12.9047C6.35223 12.6381 5.36176 12.3714 4.37128 12.1047C4.257 12.0666 4.10461 12.0285 3.99033 11.9905C3.87604 11.9524 3.76176 11.9905 3.68557 12.0666C3.60938 12.1047 3.60938 12.1047 3.57128 12.0285C3.11414 11.2285 2.69509 10.4666 2.23795 9.66664C2.19985 9.62855 2.23795 9.62855 2.27604 9.59045C2.92366 9.2095 3.60938 8.82855 4.257 8.4476C4.67604 8.21903 5.13318 8.18093 5.59033 8.33331C5.89509 8.4476 6.16176 8.56188 6.46652 8.63807C6.99985 8.82855 7.53319 8.98093 8.06652 9.09522C8.14271 9.09522 8.2189 9.13331 8.29509 9.13331C8.52366 9.17141 8.71414 9.36188 8.75223 9.59045C8.79033 9.81902 8.71414 10.0476 8.52366 10.1619C8.37128 10.2762 8.1808 10.2762 7.99033 10.2381C7.457 10.1238 6.96176 9.97141 6.42842 9.81903C6.35223 9.78093 6.27604 9.78093 6.19985 9.78093C6.08557 9.74283 5.97128 9.81903 5.93319 9.93331C5.89509 10.0476 5.97128 10.1619 6.08557 10.2C6.19985 10.2381 6.31414 10.2762 6.39033 10.2762C6.84747 10.3905 7.30461 10.5428 7.76176 10.619C7.99033 10.6571 8.29509 10.7333 8.56176 10.7333Z" fill="white"/>
<path d="M11.1142 5.70477C11.1142 6.20001 11.1142 6.65716 11.1142 7.15239C11.1142 7.34287 11.038 7.45716 10.8856 7.53335C10.8475 7.53335 10.7713 7.53335 10.7333 7.53335C10.1999 7.53335 9.70468 7.53335 9.17135 7.53335C9.13325 7.53335 9.09516 7.53335 9.09516 7.45716C9.09516 6.80954 9.09516 6.16192 9.09516 5.5143C9.09516 5.17144 8.90468 4.90477 8.59992 4.86668C8.48564 4.82858 8.37135 4.86668 8.25706 4.86668C8.10468 4.86668 7.9523 4.86668 7.79992 4.86668C7.53325 4.90477 7.34278 5.13335 7.30468 5.40001C7.30468 5.5143 7.30468 5.62858 7.30468 5.70477C7.30468 6.2762 7.30468 6.84763 7.30468 7.41906C7.30468 7.49525 7.26659 7.49525 7.22849 7.49525C6.80944 7.49525 6.3523 7.49525 5.93325 7.49525C5.81897 7.49525 5.70468 7.49525 5.5904 7.49525C5.43802 7.45715 5.36183 7.38096 5.32373 7.22858C5.32373 7.19049 5.32373 7.1143 5.32373 7.0762C5.32373 6.12382 5.32373 5.13335 5.32373 4.18097C5.32373 4.10477 5.36183 4.10477 5.39992 4.06668C5.89516 3.68573 6.3904 3.34287 6.92373 2.96192C7.30468 2.65716 7.72373 2.35239 8.14278 2.04763C8.18087 2.00954 8.21897 2.04763 8.21897 2.04763C8.56183 2.2762 8.90468 2.54287 9.24754 2.77144C9.85706 3.19049 10.4285 3.64763 11.038 4.06668C11.1142 4.10477 11.0761 4.18097 11.0761 4.21906C11.1142 4.7143 11.1142 5.20954 11.1142 5.70477Z" fill="white"/>
<path d="M9.7046 1.09523C9.7046 0.942854 9.7046 0.752378 9.7046 0.599997C9.7046 0.409521 9.7427 0.371425 9.93317 0.371425C10.0475 0.371425 10.1617 0.371425 10.276 0.371425C10.3903 0.371425 10.4665 0.409521 10.4665 0.561902C10.4665 0.904759 10.4665 1.20952 10.4665 1.55238C10.4665 1.59047 10.4665 1.62857 10.5427 1.66666C10.9998 2.00952 11.457 2.31428 11.9141 2.65714C12.0665 2.77143 12.1808 2.88571 12.2189 3.07619C12.257 3.38095 12.1046 3.64762 11.7998 3.72381C11.6094 3.8 11.4189 3.7619 11.2665 3.64762C11.0379 3.49523 10.8094 3.30476 10.5808 3.15238C9.81889 2.58095 8.98079 2.00952 8.21889 1.43809C8.18079 1.4 8.18079 1.4 8.1427 1.43809C7.15222 2.1619 6.12365 2.88571 5.13317 3.60952C4.9427 3.7619 4.71413 3.8 4.48556 3.72381C4.1046 3.57143 4.02841 3.07619 4.29508 2.80952C4.44746 2.65714 4.63794 2.54285 4.82841 2.39047C5.28556 2.08571 5.7046 1.74285 6.16175 1.43809C6.73317 1.05714 7.26651 0.638092 7.83794 0.25714C8.06651 0.104759 8.29508 0.0666635 8.52365 0.25714C8.9046 0.523806 9.28556 0.790473 9.66651 1.05714C9.66651 1.05714 9.7046 1.05714 9.7046 1.09523Z" fill="white"/>
<path d="M3.53322 13.0953C3.53322 13.2476 3.45703 13.3619 3.38084 13.4C3.11418 13.5524 2.8856 13.7048 2.61894 13.8191C2.42846 13.9333 2.23798 13.8572 2.1237 13.6667C1.97132 13.4381 1.85703 13.2095 1.74275 12.981C1.2856 12.1429 0.790366 11.3429 0.333223 10.5048C0.218937 10.3524 0.142747 10.1619 0.0665565 10.0095C-0.0477292 9.78097 -0.00963397 9.59049 0.218937 9.43811C0.447509 9.32382 0.637985 9.17144 0.866556 9.05716C1.09513 8.94287 1.2856 8.98097 1.43799 9.20954C1.66656 9.66668 1.93322 10.1238 2.19989 10.6191C2.61894 11.381 3.03799 12.1429 3.49513 12.9048C3.53322 12.9429 3.57132 13.0191 3.53322 13.0953ZM0.904652 9.66668C0.752271 9.66668 0.637985 9.78097 0.637985 9.93335C0.637985 10.0857 0.752271 10.2 0.904652 10.2C1.05703 10.2 1.17132 10.0857 1.17132 9.93335C1.17132 9.78097 1.05703 9.66668 0.904652 9.66668Z" fill="white"/>
</g>
<defs>
<clipPath id="clip0_413_1028">
<rect width="15" height="14" fill="white"/>
</clipPath>
</defs>
</svg>
