<svg width="16" height="12" viewBox="0 0 16 12" fill="none" xmlns="http://www.w3.org/2000/svg">
<path d="M0 12V9.75H1.6V1.5C1.6 1.0875 1.75667 0.734375 2.07 0.440625C2.38333 0.146875 2.76 0 3.2 0H15.2V1.5H3.2V9.75H8V12H0ZM10.4 12C10.1733 12 9.98333 11.9281 9.83 11.7844C9.67667 11.6406 9.6 11.4625 9.6 11.25V3.75C9.6 3.5375 9.67667 3.35937 9.83 3.21562C9.98333 3.07187 10.1733 3 10.4 3H15.2C15.4267 3 15.6167 3.07187 15.77 3.21562C15.9233 3.35937 16 3.5375 16 3.75V11.25C16 11.4625 15.9233 11.6406 15.77 11.7844C15.6167 11.9281 15.4267 12 15.2 12H10.4Z" fill="white"/>
</svg>
