<svg width="17" height="16" viewBox="0 0 17 16" fill="none" xmlns="http://www.w3.org/2000/svg">
<path d="M12.8694 8.22995C12.8694 7.55027 12.8694 6.87058 12.8694 6.19089C12.8694 3.98308 11.5335 2.25339 9.396 1.69089C7.09443 1.08152 4.53506 2.63777 4.00537 4.95808C3.90693 5.38933 3.86006 5.82058 3.86006 6.2612C3.86475 7.69089 3.86006 9.12058 3.86006 10.5503C3.86006 10.8409 3.76162 11.0143 3.52256 11.0565C2.65068 11.2065 1.71318 11.0331 1.12725 10.269C0.888184 9.95495 0.724121 9.60808 0.710058 9.21902C0.681933 8.59558 0.644433 7.97214 0.733496 7.35339C0.874121 6.40183 1.73193 5.65652 2.69287 5.63777C2.84756 5.63308 2.93193 5.6237 2.95068 5.43152C3.15225 3.35027 4.69912 1.47995 6.72412 0.861204C9.74287 -0.0622335 12.8507 1.67214 13.6522 4.7237C13.7132 4.95339 13.7694 5.18777 13.7788 5.42683C13.7835 5.57214 13.8257 5.63308 13.9851 5.63777C15.171 5.67995 16.0335 6.57058 16.0335 7.75652C16.0335 8.28152 16.0851 8.8112 16.0007 9.3362C15.846 10.33 15.021 11.0518 14.0179 11.0893C13.8022 11.0987 13.5866 11.094 13.371 11.0893C13.0429 11.08 12.8741 10.9065 12.8694 10.5784C12.8694 9.79558 12.8694 9.01277 12.8694 8.22995Z" fill="white"/>
<path d="M8.35537 15.069C8.15381 15.069 7.95693 15.0737 7.75537 15.069C7.21631 15.0456 6.81318 14.619 6.82256 14.0846C6.83193 13.5643 7.24443 13.1612 7.77881 13.1518C8.17256 13.1471 8.56162 13.1471 8.95537 13.1518C9.48975 13.1565 9.90225 13.5643 9.91162 14.08C9.921 14.6143 9.51787 15.0456 8.97881 15.0643C8.77256 15.0784 8.56162 15.069 8.35537 15.069Z" fill="white"/>
<path d="M5.84756 14.366C4.36631 14.3238 3.12881 13.3347 2.7585 11.8909C2.71162 11.7128 2.71162 11.6191 2.95068 11.6284C3.16631 11.6378 3.26943 11.6706 3.33975 11.9097C3.68662 13.0769 4.72256 13.8269 5.93193 13.8363C6.00225 13.8363 6.07725 13.8409 6.14756 13.8363C6.25537 13.8269 6.30225 13.8503 6.28818 13.9769C6.26475 14.3753 6.26943 14.38 5.84756 14.366Z" fill="white"/>
</svg>
