<svg width="13" height="16" viewBox="0 0 13 16" fill="none" xmlns="http://www.w3.org/2000/svg">
<path d="M6.87804 15.8518C5.57048 15.8608 4.35279 15.8203 3.14858 15.5822C2.65431 15.4833 2.17802 15.3395 1.72868 15.1059C0.519976 14.4813 0.654776 13.1288 1.2479 12.4503C1.55794 12.0954 1.93987 11.8258 2.33978 11.5831C3.05422 11.1518 3.78663 10.7518 4.56847 10.4553C4.92344 10.3205 5.23798 10.1273 5.26943 9.69142C5.2919 9.37239 5.13014 9.12526 4.94142 8.89161C4.51006 8.3569 4.15508 7.77726 3.92143 7.13022C3.56646 6.15067 3.4676 5.14417 3.74619 4.14215C4.22248 2.43918 5.66035 1.72474 7.26896 1.90897C8.93599 2.10218 9.96047 3.28393 10.0413 5.01386C10.0818 5.86759 9.91554 6.6719 9.57404 7.44925C9.46171 7.70537 8.96744 7.8851 8.71132 7.75929C8.23952 7.52563 7.74975 7.55709 7.26896 7.67841C6.85108 7.78175 6.59946 8.23558 6.65787 8.66694C6.71628 9.10279 7.08024 9.44878 7.53407 9.47574C7.74975 9.48922 7.96543 9.48473 8.18111 9.47574C8.3249 9.47125 8.39679 9.5027 8.37882 9.66446C8.34736 9.97899 8.50463 10.1947 8.75626 10.3564C9.07528 10.5631 9.43475 10.6755 9.78523 10.8192C10.585 11.1473 11.3624 11.5067 12.0319 12.0684C12.6744 12.6031 12.8901 13.2861 12.7778 14.0904C12.7149 14.5442 12.4183 14.8408 12.0409 15.0654C11.3983 15.4384 10.6884 15.5822 9.96496 15.681C8.91352 15.8203 7.85759 15.8653 6.87804 15.8518Z" fill="white"/>
<path d="M1.45905 6.51928C1.45905 6.24069 1.45905 5.9621 1.45905 5.68352C1.45905 5.47233 1.52645 5.27462 1.69271 5.16229C1.8994 5.0185 1.92636 4.82529 1.95332 4.60961C2.20045 2.51122 3.84052 0.772302 5.91644 0.399356C8.72028 -0.0994043 11.3264 1.81925 11.6679 4.64556C11.6904 4.84326 11.7173 5.01401 11.9105 5.14881C12.0903 5.27462 12.1577 5.4903 12.1577 5.71946C12.1532 6.25866 12.1622 6.79786 12.1532 7.33706C12.1442 7.91221 11.6095 8.28965 11.0658 8.09644C10.922 8.04701 10.8232 8.0515 10.6973 8.13238C10.1626 8.48286 9.56053 8.64912 8.93147 8.73449C8.78768 8.75246 8.65288 8.76145 8.54953 8.89176C8.46865 8.9951 8.33835 9.02656 8.20804 9.02656C7.98337 9.02656 7.75871 9.03554 7.53404 9.01757C7.27792 8.9951 7.10268 8.7929 7.09819 8.55026C7.09369 8.30762 7.25545 8.08296 7.51607 8.07397C7.88901 8.06049 8.29341 7.93018 8.61693 8.24472C8.66187 8.28516 8.72028 8.26269 8.76971 8.2582C9.32239 8.20428 9.83912 8.04701 10.3289 7.7819C10.4817 7.70102 10.5311 7.61116 10.5266 7.42693C10.5041 6.8428 10.5131 6.25866 10.5131 5.67453C10.5131 5.4229 10.6255 5.2207 10.8232 5.07692C10.913 5.01401 10.9535 4.9556 10.9445 4.83428C10.7423 2.7988 9.07525 1.1767 7.08021 1.07336C4.97284 0.965516 3.16203 2.34946 2.73516 4.40292C2.7082 4.53322 2.69921 4.66802 2.67225 4.80282C2.64979 4.91965 2.66776 5.00053 2.7756 5.07692C3.00027 5.22969 3.09912 5.45436 3.09912 5.72396C3.09912 6.26316 3.1126 6.80236 3.09463 7.34156C3.08115 7.8493 2.74415 8.15036 2.24539 8.14137C1.77808 8.13238 1.45905 7.79988 1.45456 7.30561C1.45905 7.0405 1.45905 6.77989 1.45905 6.51928Z" fill="white"/>
</svg>
