<svg width="14" height="12" viewBox="0 0 14 12" fill="none" xmlns="http://www.w3.org/2000/svg">
<path d="M11.2099 2.69273C10.8557 2.16152 10.3037 1.79696 9.67872 1.67197C9.49123 1.63031 9.31416 1.7553 9.27249 1.94278C9.23083 2.13027 9.35582 2.30734 9.54331 2.349C9.99119 2.44275 10.3766 2.69273 10.637 3.07812C10.8974 3.46351 10.9807 3.92181 10.8974 4.36969C10.8557 4.55718 10.9807 4.73425 11.1682 4.77591C11.189 4.77591 11.2203 4.78633 11.2411 4.78633C11.3973 4.78633 11.5432 4.67175 11.5744 4.5051C11.6994 3.86973 11.5744 3.23436 11.2099 2.69273C11.2203 2.69273 11.2203 2.69273 11.2099 2.69273Z" fill="white"/>
<path d="M12.366 1.93251C12.366 1.93251 12.366 1.9221 12.3556 1.9221C11.7931 1.08882 10.939 0.526365 9.9495 0.328463C9.76201 0.286799 9.58494 0.41179 9.54328 0.599276C9.50161 0.786763 9.6266 0.963834 9.81409 1.0055C10.6265 1.16174 11.3244 1.63045 11.7827 2.30749C11.7827 2.30749 11.7827 2.3179 11.7931 2.3179C12.2514 3.00535 12.4181 3.82821 12.2618 4.64065C12.2202 4.82814 12.3452 5.00521 12.5326 5.04687C12.5535 5.04687 12.5847 5.05729 12.6056 5.05729C12.7618 5.05729 12.9076 4.94271 12.9389 4.77606C13.1263 3.77613 12.9284 2.76579 12.366 1.93251Z" fill="white"/>
<path d="M3.51248 9.69233L2.55422 10.3381C2.41881 10.4319 2.27299 10.3902 2.2105 10.286C1.34597 9.00488 1.71053 9.55692 0.846011 8.27577C0.773099 8.16119 0.804347 8.01537 0.908506 7.94246L1.87719 7.28625L3.51248 9.69233Z" fill="white"/>
<path d="M7.67881 11.036L6.93928 11.5359C6.81429 11.6192 6.63721 11.588 6.55389 11.463L5.48105 9.87978L6.67888 9.07776L7.75172 10.661C7.83505 10.786 7.8038 10.9526 7.67881 11.036Z" fill="white"/>
<path d="M6.6164 8.28621C4.31449 9.8486 4.46031 9.75486 4.39781 9.77569L2.11673 6.40093C2.15839 6.34885 2.02299 6.45301 4.3249 4.89062L6.6164 8.28621Z" fill="white"/>
<path d="M10.8245 7.89031L7.31429 8.08821L4.76239 4.31765L6.25187 1.13038C6.37686 0.828317 6.78308 0.786654 6.97056 1.05747C9.64745 5.01551 8.48087 3.28647 11.1682 7.25494C11.3348 7.51533 11.1473 7.87989 10.8245 7.89031Z" fill="white"/>
</svg>
