<svg width="14" height="15" viewBox="0 0 14 15" fill="none" xmlns="http://www.w3.org/2000/svg">
<g clip-path="url(#clip0_5_436)">
<path d="M6.79221 14.0189C5.01564 14.0189 3.23439 14.0189 1.45783 14.0189C1.29846 14.0189 1.13439 14.0282 0.975019 13.9907C0.646894 13.9157 0.407831 13.7282 0.243768 13.4376C0.140643 13.2501 0.112518 13.0486 0.112518 12.8423C0.112518 12.1157 0.112518 11.3892 0.112518 10.6626C0.112518 8.36575 0.112518 6.06418 0.112518 3.76731C0.112518 3.61731 0.112519 3.46731 0.145331 3.322C0.239081 2.92356 0.604706 2.58137 1.01252 2.51575C1.11096 2.50168 1.20471 2.497 1.30314 2.49231C1.34064 2.49231 1.35002 2.50637 1.35002 2.54387C1.35002 3.19075 1.35002 3.83762 1.35002 4.4845C1.35002 6.66418 1.34533 8.83918 1.35002 11.0189C1.35002 11.6986 1.64533 12.2189 2.23596 12.5657C2.51721 12.7298 2.82658 12.7814 3.15002 12.7814C3.72658 12.7814 4.30314 12.7814 4.87971 12.7814C5.62971 12.7767 6.17814 12.4439 6.50627 11.7642C6.61877 11.5298 6.66096 11.272 6.65627 11.0142C6.65158 10.447 6.65627 9.8845 6.65627 9.31731C6.65627 7.06262 6.65627 4.80793 6.65627 2.55793C6.65627 2.50637 6.67502 2.49231 6.72189 2.49231C8.60158 2.49231 10.4813 2.49231 12.361 2.49231C12.7641 2.49231 13.0875 2.647 13.3172 2.97981C13.4531 3.17668 13.5047 3.39231 13.5047 3.63137C13.5047 4.68606 13.5047 5.74075 13.5047 6.80012C13.5047 8.7595 13.5047 10.7189 13.5047 12.6782C13.5047 12.8564 13.5141 13.0392 13.4625 13.2126C13.3735 13.522 13.186 13.7517 12.9 13.9017C12.7313 13.9907 12.5485 14.0189 12.3656 14.0189C10.5047 14.0189 8.64846 14.0189 6.79221 14.0189ZM9.91877 5.6095C9.91877 5.60481 9.91877 5.60481 9.91877 5.6095C10.4344 5.60481 10.95 5.60481 11.4656 5.60481C11.5922 5.60481 11.7188 5.61418 11.8453 5.60481C12.061 5.59075 12.2297 5.422 12.2578 5.18762C12.286 4.98606 12.15 4.77043 11.9625 4.70012C11.8266 4.65325 11.6813 4.66262 11.5406 4.66262C10.425 4.66262 9.30939 4.672 8.19377 4.65793C8.11408 4.65793 8.03439 4.66262 7.95471 4.67668C7.56096 4.75637 7.50002 5.197 7.67346 5.422C7.78596 5.56731 7.93596 5.60481 8.10471 5.60481C8.71408 5.60481 9.31877 5.6095 9.91877 5.6095ZM9.91877 7.47981C9.91877 7.47512 9.91877 7.47512 9.91877 7.47981C10.4344 7.47512 10.95 7.47512 11.4656 7.47512C11.5922 7.47512 11.7188 7.4845 11.8453 7.47512C12.1125 7.45637 12.3094 7.18918 12.2531 6.92668C12.2016 6.69231 12.0516 6.56106 11.8125 6.53762C11.6297 6.51887 11.4469 6.53762 11.2641 6.53762C10.2281 6.53293 9.19221 6.547 8.15627 6.52825C8.09064 6.52825 8.02502 6.53293 7.95939 6.547C7.56564 6.62668 7.50002 7.072 7.67814 7.297C7.79064 7.43762 7.93596 7.47512 8.10939 7.47512C8.71408 7.47512 9.31408 7.47981 9.91877 7.47981ZM8.05314 9.6595C8.31564 9.6595 8.52189 9.45325 8.52189 9.19543C8.52189 8.92825 8.32033 8.722 8.05783 8.722C7.78596 8.722 7.57971 8.92356 7.58439 9.19075C7.58908 9.46262 7.78596 9.6595 8.05314 9.6595ZM9.92346 9.6595C10.186 9.6595 10.3922 9.45325 10.3969 9.19543C10.3969 8.92825 10.1953 8.722 9.93283 8.722C9.66096 8.722 9.45471 8.91887 9.45939 9.19075C9.45471 9.46262 9.65627 9.6595 9.92346 9.6595ZM11.7938 9.6595C12.0563 9.6595 12.2625 9.45325 12.2672 9.19543C12.2672 8.92825 12.0656 8.722 11.8031 8.722C11.5313 8.722 11.325 8.91887 11.3297 9.19075C11.325 9.46262 11.5266 9.6595 11.7938 9.6595ZM8.05314 11.5298C8.31564 11.5298 8.52189 11.3236 8.52658 11.0657C8.52658 10.7986 8.32502 10.5923 8.06252 10.5923C7.79064 10.5923 7.58439 10.7939 7.58908 11.0611C7.58908 11.3329 7.78596 11.5298 8.05314 11.5298ZM9.92346 11.5298C10.186 11.5298 10.3969 11.3236 10.3969 11.0657C10.3969 10.7986 10.1953 10.5923 9.93283 10.5923C9.66096 10.5923 9.45471 10.7892 9.45939 11.0611C9.45471 11.3329 9.65627 11.5298 9.92346 11.5298ZM11.7891 11.5298C12.0516 11.5298 12.2625 11.3236 12.2625 11.0657C12.2625 10.7986 12.0563 10.5923 11.7938 10.5923C11.5219 10.5923 11.325 10.7892 11.3203 11.0564C11.325 11.3282 11.5219 11.5298 11.7891 11.5298Z" fill="white"/>
<path d="M6.02347 6.37357C6.02347 7.85482 6.02347 9.33607 6.02347 10.8126C6.02347 10.972 6.03284 11.1314 5.99534 11.2908C5.92034 11.6189 5.73284 11.8579 5.44222 12.0173C5.26878 12.1158 5.08128 12.1439 4.88441 12.1439C4.30316 12.1439 3.72191 12.1439 3.13597 12.1439C2.77503 12.1439 2.46566 12.0267 2.22659 11.7454C2.04378 11.5298 1.97347 11.2767 1.97347 11.0001C1.97347 10.4423 1.97347 9.87982 1.97347 9.32201C1.97347 6.89388 1.97347 4.46575 1.97347 2.04232C1.97347 1.8595 1.95941 1.68138 1.99691 1.49857C2.06722 1.16107 2.25472 0.907943 2.55941 0.74388C2.72347 0.654818 2.89691 0.617318 3.07972 0.617318C3.69378 0.617318 4.30784 0.61263 4.92191 0.617318C5.41409 0.622005 5.75159 0.870443 5.94847 1.31576C6.00472 1.44701 6.01878 1.58763 6.01878 1.73294C6.01878 2.39388 6.01878 3.05482 6.01878 3.71576C6.02347 4.60638 6.02347 5.49232 6.02347 6.37357Z" fill="white"/>
</g>
<defs>
<clipPath id="clip0_5_436">
<rect width="14" height="15" fill="white"/>
</clipPath>
</defs>
</svg>
