<?xml version="1.0" encoding="UTF-8"?>
<svg id="Layer_9" data-name="Layer 9" xmlns="http://www.w3.org/2000/svg" viewBox="0 0 90 90">
  <defs>
    <style>
      .cls-1 {
        fill: #9256ff;
        stroke-width: 0px;
      }
    </style>
  </defs>
  <path class="cls-1" d="m26,46.98c0,2.97,0,5.95,0,8.92,0,1.58-.61,2.19-2.21,2.2-2.23.02-4.46.02-6.69,0-1.51-.01-2.15-.66-2.16-2.15,0-6.02,0-12.05,0-18.07,0-1.56.63-2.19,2.22-2.2,2.23-.02,4.46-.02,6.69,0,1.53.02,2.14.64,2.14,2.15.01,3.05,0,6.1,0,9.15Z"/>
  <path class="cls-1" d="m64,46.76c0-2.97,0-5.95,0-8.92,0-1.52.61-2.15,2.13-2.16,2.27-.02,4.54-.03,6.81,0,1.5.02,2.12.67,2.12,2.18,0,6.02,0,12.05,0,18.07,0,1.5-.64,2.15-2.14,2.16-2.27.02-4.54.02-6.81,0-1.49-.02-2.1-.66-2.11-2.19,0-3.05,0-6.1,0-9.15Z"/>
  <path class="cls-1" d="m26.56,32.53c-1.15-.17-2.22-.34-3.3-.5.96-8.42,10.78-16.61,20.46-17.07,10.88-.52,20.99,6.93,23.07,17.06-1.1.17-2.2.33-3.32.5-3.27-9.11-9.6-14.42-19.54-13.95-8.9.42-14.52,5.63-17.38,13.96Z"/>
  <path class="cls-1" d="m63.02,61.05c1.2.26,2.26.49,3.43.75-.14.34-.25.7-.43,1.03-2.8,5.34-7.21,8.17-13.23,8.47-.27.01-.55.03-.82,0-1.08-.14-1.78.11-2.39,1.23-1.18,2.16-3.85,3.02-6.22,2.29-2.29-.7-3.9-2.9-3.9-5.3,0-2.51,1.69-4.67,4.16-5.33,2.32-.63,4.88.34,6.06,2.47.49.88.99,1.14,1.97,1.15,5.21.07,8.99-2.19,11.37-6.75Z"/>
  <path class="cls-1" d="m34.25,52.53c2.25,0,4.26,0,6.28,0,.39,0,.8-.01,1.16.1.89.28,1.35.93,1.25,1.87-.1.89-.64,1.5-1.52,1.52-3.29.05-6.58.06-9.86,0-1.03-.02-1.63-.97-1.52-2.13.15-1.66.84-3.07,2.03-4.25,2.25-2.23,4.46-4.51,6.74-6.71.74-.71.73-1.4.33-2.2-.54-1.1-1.64-1.71-2.89-1.61-1.21.09-2.2.89-2.55,2.09-.09.3-.12.61-.17.92-.18,1.09-.94,1.77-1.89,1.67-1-.1-1.66-.96-1.61-2.09.13-2.87,2.22-5.32,5.1-5.99,2.75-.64,5.81.64,7.01,3.26.57,1.26.65,2.77.76,4.19.04.47-.45,1.06-.83,1.46-2.27,2.32-4.58,4.6-6.88,6.9-.26.26-.51.55-.93,1.01Z"/>
  <path class="cls-1" d="m55.52,50.41c-2.51,0-4.84,0-7.18,0-1.72,0-2.35-.69-2.21-2.37.12-1.51.75-2.79,1.79-3.85,2.61-2.64,5.25-5.25,7.87-7.88.6-.61,1.28-.93,2.11-.61.88.34,1.16,1.09,1.16,1.98,0,3.01,0,6.01,0,9.08,1.02.27,2.02.79,1.8,1.91-.15.76-.94,1.39-1.44,2.08-.12-.07-.24-.13-.36-.2,0,1.13.02,2.26,0,3.39-.03,1.35-.72,2.14-1.83,2.11-1.06-.03-1.68-.77-1.69-2.09-.01-1.13,0-2.25,0-3.55Zm-.07-8.3c-1.56,1.56-3.18,3.17-4.74,4.72h4.74v-4.72Z"/>
</svg>