<svg width="91" height="34" viewBox="0 0 91 34" fill="none" xmlns="http://www.w3.org/2000/svg">
<path d="M8.74005 8.22998C3.91005 8.22998 0 12.14 0 16.97C0 21.8 3.91005 25.71 8.74005 25.71C13.5701 25.71 17.48 21.8 17.48 16.97C17.48 12.14 13.5701 8.22998 8.74005 8.22998ZM8.74005 21.13C6.44005 21.13 4.57001 19.26 4.57001 16.96C4.57001 14.66 6.44005 12.79 8.74005 12.79C11.0401 12.79 12.91 14.66 12.91 16.96C12.91 19.26 11.0401 21.13 8.74005 21.13Z" fill="#3972E6"/>
<path d="M45.45 0C36.08 0 28.48 7.6 28.48 16.97C28.48 26.34 36.08 33.94 45.45 33.94C54.82 33.94 62.42 26.34 62.42 16.97C62.42 7.6 54.82 0 45.45 0ZM45.45 25.07C40.98 25.07 37.36 21.45 37.36 16.98C37.36 12.51 40.98 8.89 45.45 8.89C49.92 8.89 53.54 12.51 53.54 16.98C53.54 21.45 49.92 25.07 45.45 25.07Z" fill="#FF5669"/>
<path d="M82.1601 8.22998C77.3301 8.22998 73.42 12.14 73.42 16.97C73.42 21.8 77.3301 25.71 82.1601 25.71C86.9901 25.71 90.9001 21.8 90.9001 16.97C90.9001 12.14 86.9901 8.22998 82.1601 8.22998ZM82.1601 21.13C79.8601 21.13 77.9901 19.26 77.9901 16.96C77.9901 14.66 79.8601 12.79 82.1601 12.79C84.4601 12.79 86.3301 14.66 86.3301 16.96C86.3301 19.26 84.4601 21.13 82.1601 21.13Z" fill="#25C16F"/>
</svg>
