<?xml version="1.0" encoding="utf-8"?>
<!-- Generator: Adobe Illustrator 27.5.0, SVG Export Plug-In . SVG Version: 6.00 Build 0)  -->
<svg version="1.1" id="Layer_1" xmlns="http://www.w3.org/2000/svg" xmlns:xlink="http://www.w3.org/1999/xlink" x="0px" y="0px"
	 viewBox="0 0 34 34" style="enable-background:new 0 0 34 34;" xml:space="preserve">
<style type="text/css">
	.st0{fill:#1F65D1;}
	.st1{fill:#ED4252;}
	.st2{fill:#9256FF;}
	.st3{fill:#FFFFFF;}
</style>
<g>
	<path class="st1" d="M14.2,27.6c0,0.1,0,0.2,0,0.3c0.1,0,0.1,0,0.1,0c2.1,0,4.3,0,6.4,0c0.1,0,0.2,0,0.2-0.1
		c0.4-0.2,0.7-0.6,0.8-1.1c0,0,0-0.1,0.1-0.1c1.1-0.5,2.3-1.1,3.4-1.6c0.4-0.2,0.9-0.4,1.3-0.6c0.6-0.2,1.4,0.3,1.3,1
		c0,0.2-0.1,0.4-0.3,0.6c-0.2,0.2-0.4,0.4-0.7,0.6c-1.6,0.8-3.2,1.7-4.8,2.5c-1.1,0.6-2.3,1.1-3.5,1.7c-0.6,0.3-1.2,0.3-1.8,0.2
		c-1-0.2-2.1-0.4-3.2-0.4c-0.6,0-1.2,0-1.8,0.1C10.9,30.8,10,31,9,31.2c-0.1,0-0.2,0.1-0.4,0.1c0-0.1,0-0.1,0-0.2c0-1.5,0-3.1,0-4.6
		c0-0.1,0-0.2,0.1-0.2c0.8-0.4,1.5-0.7,2.3-1.1c1-0.5,2.1-0.6,3.1-0.4c0.6,0.1,1.2,0.3,1.8,0.5c0.7,0.2,1.4,0.3,2.1,0.3
		c0.7,0,1.3,0,2,0c0.2,0,0.4,0,0.6,0c0.5,0.1,0.8,0.6,0.8,1.1c0,0.5-0.5,0.8-1,0.8c-0.5,0-1.1,0-1.6,0c-1.5,0-3,0-4.5,0
		C14.3,27.6,14.3,27.6,14.2,27.6z M19.7,26.4C19.7,26.4,19.7,26.4,19.7,26.4c0,0.1,0,0.3,0,0.4c0,0,0,0.1,0.1,0.1c0.3,0,0.6,0,0.9,0
		c0.3,0,0.4-0.2,0.4-0.5c0-0.3-0.2-0.4-0.4-0.5c-0.3,0-0.5,0-0.8,0c-0.1,0-0.1,0-0.1,0.1C19.7,26.2,19.7,26.3,19.7,26.4z"/>
	<path class="st1" d="M15.1,16.8c0.9-0.9,1.8-1.8,2.7-2.8c0,0.1,0.1,0.1,0.1,0.2c0.5,0.5,1,1,1.5,1.5c0,0,0.1,0.1,0.1,0.1
		c0.5,0.4,1,0.4,1.4,0c0.4-0.4,0.9-0.8,1.3-1.3c0.5-0.5,0.9-0.9,1.4-1.4c0,0,0,0,0.1-0.1c0.5,0.4,0.8,0.4,1.3-0.1
		c0,0.3,0,0.6-0.1,0.8c-0.1,1.2-0.7,2.3-1.5,3.2c-0.3,0.3-0.5,0.7-0.8,1c-0.6,0.7-0.8,1.5-0.9,2.4c-1.6,0-3.2,0-4.8,0
		c-0.1-0.4-0.2-0.8-0.3-1.1c-0.2-0.6-0.5-1.1-0.9-1.6c-0.2-0.2-0.4-0.5-0.6-0.7C15.2,16.9,15.1,16.8,15.1,16.8z"/>
	<path class="st1" d="M23.8,9.6c-0.4,0.2-0.8,0.3-1.2,0.5c-0.2,0.1-0.4,0.2-0.5,0.4c-0.2,0.3-0.2,0.7,0.1,1c0,0,0,0,0,0
		c-0.6,0.6-1.3,1.3-1.9,1.9c-0.1-0.1-0.2-0.2-0.3-0.3c-0.4-0.4-0.9-0.9-1.3-1.3c-0.2-0.2-0.5-0.4-0.9-0.4c-0.3,0-0.5,0.1-0.7,0.3
		c-0.7,0.7-1.4,1.4-2,2c-0.3,0.3-0.6,0.6-0.9,0.9c0,0,0,0,0,0c-0.8-2.1,0.1-5.2,2.7-6.6C19.3,6.7,22.3,7.7,23.8,9.6z"/>
	<path class="st1" d="M3,32.1c0-2.2,0-4.4,0-6.6c1.8,0,3.6,0,5.4,0c0,0.1,0,0.2,0,0.2c0,2.1,0,4.2,0,6.2c0,0.1,0,0.2-0.2,0.2
		c-1.7,0-3.4,0-5.1,0C3,32.1,3,32.1,3,32.1z M5.7,31c0-0.3-0.2-0.5-0.4-0.4c-0.2,0-0.4,0.2-0.4,0.4c0,0.2,0.2,0.5,0.4,0.4
		C5.5,31.4,5.7,31.3,5.7,31z M6.6,30.9c0,0.2,0.2,0.4,0.4,0.5c0.2,0,0.4-0.2,0.4-0.4c0-0.3-0.2-0.5-0.4-0.5
		C6.8,30.5,6.6,30.7,6.6,30.9z"/>
	<path class="st1" d="M17,20.9c1.6,0,3.2,0,4.8,0c0,0,0,0.1,0,0.1c0,0.5,0,1,0,1.5c0,1-0.5,1.7-1.4,2.2c-1.3,0.6-2.8-0.1-3.3-1.5
		c-0.1-0.3-0.2-0.7-0.1-1c0-0.4,0-0.8,0-1.2C17,21,17,20.9,17,20.9z"/>
	<path class="st1" d="M22.5,10.9c1-0.4,2-0.8,3.1-1.3c-0.1,0.1-0.1,0.2-0.1,0.3c-0.3,0.8-0.7,1.7-1,2.5c0,0,0,0.1,0,0.1
		c0,0-0.1,0.1-0.1,0.1c0,0-0.1-0.1-0.1-0.1c-0.1-0.1-0.1-0.3-0.2-0.4c-0.1-0.1-0.2-0.2-0.3-0.1c-0.1,0.1-0.2,0.2-0.3,0.3
		c-0.7,0.7-1.4,1.3-2,2c-0.3,0.3-0.5,0.5-0.8,0.8c-0.3,0.2-0.3,0.2-0.6,0c-0.6-0.5-1.1-1.1-1.7-1.6c-0.1-0.1-0.1-0.1-0.2-0.2
		c-0.2-0.2-0.4-0.2-0.6,0c-0.4,0.4-0.7,0.7-1.1,1.1c-0.7,0.7-1.4,1.4-2.1,2c-0.1,0.1-0.3,0.2-0.5,0.1c-0.2-0.1-0.3-0.3-0.2-0.5
		c0.1-0.1,0.1-0.2,0.2-0.3c1.2-1.2,2.3-2.3,3.5-3.5c0,0,0,0,0,0c0.3-0.3,0.4-0.3,0.7,0c0.6,0.6,1.2,1.1,1.8,1.7
		c0.3,0.3,0.4,0.3,0.7,0c0.8-0.8,1.7-1.6,2.5-2.4c0.2-0.2,0.2-0.4-0.1-0.5C22.8,11.1,22.6,11.1,22.5,10.9z"/>
	<path class="st1" d="M28.8,13.9c-0.5,0-1,0-1.5,0c-0.4,0-0.8-0.5-0.7-0.9c0.1-0.3,0.4-0.6,0.7-0.6c1,0,1.9,0,2.9,0
		c0.4,0,0.8,0.3,0.8,0.7c0,0.2-0.1,0.4-0.3,0.6c-0.2,0.2-0.4,0.2-0.6,0.2c-0.2,0-0.5,0-0.7,0C29.2,13.9,29,13.9,28.8,13.9
		C28.8,13.9,28.8,13.9,28.8,13.9z"/>
	<path class="st1" d="M10,13.9c-0.5,0-1,0-1.5,0c-0.4,0-0.7-0.3-0.8-0.7c0-0.2,0.1-0.5,0.3-0.6c0.2-0.1,0.3-0.2,0.5-0.2
		c0.9,0,1.8,0,2.7,0c0.3,0,0.6,0.1,0.8,0.4c0.2,0.3,0.1,0.5-0.1,0.8c-0.1,0.2-0.3,0.3-0.6,0.3C11,13.9,10.5,13.9,10,13.9
		C10,13.9,10,13.9,10,13.9z"/>
	<path class="st1" d="M13.2,8.2c-0.2,0-0.4-0.1-0.6-0.3c-0.4-0.4-0.9-0.9-1.3-1.3c-0.3-0.3-0.6-0.5-0.8-0.8c-0.3-0.3-0.3-0.7,0-1
		c0.2-0.2,0.6-0.3,0.9-0.1c0.2,0.1,0.3,0.3,0.4,0.4c0.6,0.6,1.2,1.2,1.8,1.8c0,0,0.1,0.1,0.1,0.1c0.3,0.4,0.2,0.8-0.2,1.1
		C13.5,8.1,13.4,8.1,13.2,8.2z"/>
	<path class="st1" d="M25.6,8.1c-0.3,0-0.5-0.1-0.7-0.4C24.8,7.5,24.8,7.2,25,7c0.4-0.4,0.8-0.8,1.1-1.2c0.4-0.4,0.7-0.7,1.1-1.1
		c0.3-0.3,0.7-0.2,0.9,0c0.3,0.3,0.4,0.7,0.1,1c0,0.1-0.1,0.1-0.1,0.2c-0.7,0.7-1.4,1.4-2.1,2.1C25.9,8.1,25.8,8.2,25.6,8.1z"/>
	<path class="st1" d="M20.1,4.2c0,0.5,0,0.9,0,1.4c0,0.1,0,0.2,0,0.4c-0.1,0.3-0.4,0.6-0.7,0.5c-0.4,0-0.7-0.3-0.7-0.7
		c0-0.8,0-1.5,0-2.3c0-0.3,0-0.6,0-0.9c0-0.4,0.3-0.7,0.7-0.7c0.3,0,0.7,0.2,0.7,0.6c0,0.3,0,0.6,0,0.9c0,0,0,0,0,0
		C20.1,3.6,20.1,3.9,20.1,4.2C20.1,4.2,20.1,4.2,20.1,4.2z"/>
</g>
</svg>
