<svg width="40" height="41" viewBox="0 0 40 41" fill="none" xmlns="http://www.w3.org/2000/svg">
<path d="M39.3685 18.4998C39.0836 19.1546 38.5496 19.4093 37.8375 19.3729C37.4459 19.3365 37.0542 19.3729 36.6626 19.3729C36.6626 18.609 36.6626 17.845 36.6626 17.1175C37.2679 17.1175 37.9087 17.0811 38.514 17.1175C38.9412 17.1539 39.1548 17.554 39.3685 17.9178C39.3685 18.0633 39.3685 18.2816 39.3685 18.4998Z" fill="#9059FF"/>
<path d="M26.5153 40.2918C25.8744 40.0008 25.6252 39.4551 25.6608 38.7276C25.6964 38.3274 25.6608 37.9273 25.6608 37.5271C26.4085 37.5271 27.1561 37.5271 27.8682 37.5271C27.8682 38.1455 27.9038 38.8003 27.8682 39.4187C27.8326 39.8553 27.441 40.0735 27.0849 40.2918C26.9069 40.2918 26.6933 40.2918 26.5153 40.2918Z" fill="#9059FF"/>
<path d="M39.3685 9.22334C39.0836 9.87814 38.5496 10.1328 37.8375 10.0964C37.4459 10.06 37.0542 10.0964 36.6626 10.0964C36.6626 9.33248 36.6626 8.56855 36.6626 7.841C37.2679 7.841 37.9087 7.80462 38.514 7.841C38.9412 7.87737 39.1548 8.27753 39.3685 8.6413C39.3685 8.82319 39.3685 9.00508 39.3685 9.22334Z" fill="#9059FF"/>
<path d="M31.6424 0.710754C32.2833 1.00177 32.5325 1.54744 32.4969 2.27499C32.4613 2.67514 32.4969 3.07529 32.4969 3.47545C31.7492 3.47545 31.0015 3.47545 30.2539 3.47545C30.2539 2.85703 30.2183 2.20223 30.2539 1.58381C30.2895 1.14728 30.6811 0.92902 31.0371 0.710754C31.2508 0.710754 31.4288 0.710754 31.6424 0.710754Z" fill="#9059FF"/>
<path d="M0.631592 13.2246C0.91642 12.5698 1.45047 12.3152 2.16254 12.3515C2.55418 12.3879 2.94582 12.3515 3.33746 12.3515C3.33746 13.1155 3.33746 13.8794 3.33746 14.6069C2.7322 14.6069 2.09134 14.6433 1.48608 14.6069C1.05883 14.5706 0.845213 14.1704 0.631592 13.8066C0.631592 13.6611 0.631592 13.4429 0.631592 13.2246Z" fill="#9059FF"/>
<path d="M39.3685 13.8439C39.0836 14.4987 38.5496 14.7534 37.8375 14.717C37.4459 14.6806 37.0542 14.717 36.6626 14.717C36.6626 13.9531 36.6626 13.1892 36.6626 12.4616C37.2679 12.4616 37.9087 12.4252 38.514 12.4616C38.9412 12.498 39.1548 12.8981 39.3685 13.2619C39.3685 13.4438 39.3685 13.6621 39.3685 13.8439Z" fill="#9059FF"/>
<path d="M27.1207 0.710754C27.7615 1.00177 28.0108 1.54744 27.9752 2.27499C27.9396 2.67514 27.9752 3.07529 27.9752 3.47545C27.2275 3.47545 26.4798 3.47545 25.7321 3.47545C25.7321 2.85703 25.6965 2.20223 25.7321 1.58381C25.7677 1.14728 26.1594 0.92902 26.5154 0.710754C26.6934 0.710754 26.907 0.710754 27.1207 0.710754Z" fill="#9059FF"/>
<path d="M22.5633 0.710754C23.2042 1.00177 23.4534 1.54744 23.4178 2.27499C23.3822 2.67514 23.4178 3.07529 23.4178 3.47545C22.6701 3.47545 21.9224 3.47545 21.1748 3.47545C21.1748 2.85703 21.1392 2.20223 21.1748 1.58381C21.2104 1.14728 21.602 0.92902 21.958 0.710754C22.1717 0.710754 22.3853 0.710754 22.5633 0.710754Z" fill="#9059FF"/>
<path d="M0.631592 17.8812C0.91642 17.2264 1.45047 16.9718 2.16254 17.0081C2.55418 17.0445 2.94582 17.0081 3.33746 17.0081C3.33746 17.7721 3.33746 18.536 3.33746 19.2636C2.7322 19.2636 2.09134 19.2999 1.48608 19.2636C1.05883 19.2272 0.845213 18.827 0.631592 18.4632C0.631592 18.2814 0.631592 18.0631 0.631592 17.8812Z" fill="#9059FF"/>
<path d="M18.0418 0.710754C18.6827 1.00177 18.9319 1.54744 18.8963 2.27499C18.8607 2.67514 18.8963 3.07529 18.8963 3.47545C18.1486 3.47545 17.4009 3.47545 16.6533 3.47545C16.6533 2.85703 16.6177 2.20223 16.6533 1.58381C16.6889 1.14728 17.0805 0.92902 17.4366 0.710754C17.6146 0.710754 17.8282 0.710754 18.0418 0.710754Z" fill="#9059FF"/>
<path d="M31.037 40.2918C30.3961 40.0008 30.1469 39.4551 30.1825 38.7276C30.2181 38.3274 30.1825 37.9273 30.1825 37.5271C30.9302 37.5271 31.6779 37.5271 32.3899 37.5271C32.3899 38.1455 32.4255 38.8003 32.3899 39.4187C32.3543 39.8553 31.9627 40.0735 31.6067 40.2918C31.4286 40.2918 31.2506 40.2918 31.037 40.2918Z" fill="#9059FF"/>
<path d="M0.631592 22.501C0.91642 21.8462 1.45047 21.5916 2.16254 21.628C2.55418 21.6643 2.94582 21.628 3.33746 21.628C3.33746 22.3919 3.33746 23.1558 3.33746 23.8834C2.7322 23.8834 2.09134 23.9197 1.48608 23.8834C1.05883 23.847 0.845213 23.4468 0.631592 23.0831C0.631592 22.9375 0.631592 22.7193 0.631592 22.501Z" fill="#9059FF"/>
<path d="M39.3685 23.1204C39.0836 23.7752 38.5496 24.0298 37.8375 23.9934C37.4459 23.9571 37.0542 23.9934 36.6626 23.9934C36.6626 23.2295 36.6626 22.4656 36.6626 21.738C37.2679 21.738 37.9087 21.7017 38.514 21.738C38.9412 21.7744 39.1548 22.1746 39.3685 22.5383C39.3685 22.7202 39.3685 22.9385 39.3685 23.1204Z" fill="#9059FF"/>
<path d="M13.4844 0.710754C14.1253 1.00177 14.3745 1.54744 14.3389 2.27499C14.3033 2.67514 14.3389 3.07529 14.3389 3.47545C13.5913 3.47545 12.8436 3.47545 12.0959 3.47545C12.0959 2.85703 12.0603 2.20223 12.0959 1.58381C12.1315 1.14728 12.5231 0.92902 12.8792 0.710754C13.0928 0.710754 13.3064 0.710754 13.4844 0.710754Z" fill="#9059FF"/>
<path d="M0.631592 27.1577C0.91642 26.5029 1.45047 26.2483 2.16254 26.2846C2.55418 26.321 2.94582 26.2846 3.33746 26.2846C3.33746 27.0486 3.33746 27.8125 3.33746 28.54C2.7322 28.54 2.09134 28.5764 1.48608 28.54C1.05883 28.5037 0.845213 28.1399 0.631592 27.7761C0.631592 27.5578 0.631592 27.3396 0.631592 27.1577Z" fill="#9059FF"/>
<path d="M39.3685 27.7763C39.0836 28.4311 38.5496 28.6857 37.8375 28.6493C37.4459 28.6129 37.0542 28.6493 36.6626 28.6493C36.6626 27.8854 36.6626 27.1215 36.6626 26.3939C37.2679 26.3939 37.9087 26.3575 38.514 26.3939C38.9412 26.4303 39.1548 26.8304 39.3685 27.1942C39.3685 27.3397 39.3685 27.558 39.3685 27.7763Z" fill="#9059FF"/>
<path d="M0.631592 31.7767C0.91642 31.1219 1.45047 30.8673 2.16254 30.9037C2.55418 30.94 2.94582 30.9037 3.33746 30.9037C3.33746 31.6676 3.33746 32.4315 3.33746 33.1591C2.7322 33.1591 2.09134 33.1954 1.48608 33.1591C1.05883 33.1227 0.845213 32.7225 0.631592 32.3588C0.631592 32.1769 0.631592 31.995 0.631592 31.7767Z" fill="#9059FF"/>
<path d="M39.3685 32.3961C39.0836 33.0509 38.5496 33.3055 37.8375 33.2691C37.4459 33.2328 37.0542 33.2691 36.6626 33.2691C36.6626 32.5052 36.6626 31.7413 36.6626 31.0137C37.2679 31.0137 37.9087 30.9773 38.514 31.0137C38.9412 31.0501 39.1548 31.4503 39.3685 31.814C39.3685 31.9959 39.3685 32.1778 39.3685 32.3961Z" fill="#9059FF"/>
<path d="M8.96296 0.710754C9.60382 1.00177 9.85304 1.54744 9.81744 2.27499C9.78184 2.67514 9.81744 3.07529 9.81744 3.47545C9.06977 3.47545 8.32209 3.47545 7.57442 3.47545C7.57442 2.85703 7.53881 2.20223 7.57442 1.58381C7.61002 1.14728 8.00166 0.92902 8.3577 0.710754C8.57132 0.710754 8.74933 0.710754 8.96296 0.710754Z" fill="#9059FF"/>
<path d="M8.35755 40.2918C7.71669 40.0008 7.46746 39.4551 7.50307 38.7276C7.53867 38.3274 7.50307 37.9273 7.50307 37.5271C8.25074 37.5271 8.99842 37.5271 9.71049 37.5271C9.71049 38.1455 9.74609 38.8003 9.71049 39.4187C9.67488 39.8553 9.28324 40.0735 8.92721 40.2918C8.74919 40.2918 8.57117 40.2918 8.35755 40.2918Z" fill="#9059FF"/>
<path d="M12.8793 40.2918C12.2384 40.0008 11.9892 39.4551 12.0248 38.7276C12.0604 38.3274 12.0248 37.9273 12.0248 37.5271C12.7725 37.5271 13.5201 37.5271 14.2322 37.5271C14.2322 38.1455 14.2678 38.8003 14.2322 39.4187C14.1966 39.8553 13.805 40.0735 13.4489 40.2918C13.3065 40.2918 13.0929 40.2918 12.8793 40.2918Z" fill="#9059FF"/>
<path d="M17.4364 40.2918C16.7955 40.0008 16.5463 39.4551 16.5819 38.7276C16.6175 38.3274 16.5819 37.9273 16.5819 37.5271C17.3296 37.5271 18.0773 37.5271 18.7893 37.5271C18.7893 38.1455 18.8249 38.8003 18.7893 39.4187C18.7537 39.8553 18.3621 40.0735 18.0061 40.2918C17.828 40.2918 17.6144 40.2918 17.4364 40.2918Z" fill="#9059FF"/>
<path d="M21.9581 40.2918C21.3173 40.0008 21.0681 39.4551 21.1037 38.7276C21.1393 38.3274 21.1037 37.9273 21.1037 37.5271C21.8513 37.5271 22.599 37.5271 23.3111 37.5271C23.3111 38.1455 23.3467 38.8003 23.3111 39.4187C23.2755 39.8553 22.8838 40.0735 22.5278 40.2918C22.3854 40.2918 22.1718 40.2918 21.9581 40.2918Z" fill="#9059FF"/>
<path d="M0.631592 8.60557C0.91642 7.95077 1.45047 7.69613 2.16254 7.73251C2.55418 7.76889 2.94582 7.73251 3.33746 7.73251C3.33746 8.49644 3.33746 9.26036 3.33746 9.98792C2.7322 9.98792 2.09134 10.0243 1.48608 9.98792C1.05883 9.95154 0.845213 9.55139 0.631592 9.18761C0.631592 9.00572 0.631592 8.82384 0.631592 8.60557Z" fill="#9059FF"/>
<path d="M20 5.80524C24.3436 5.80524 28.6517 5.80524 32.9953 5.80524C33.921 5.80524 34.3482 6.24177 34.3482 7.18758C34.3482 16.0637 34.3482 24.9398 34.3482 33.8159C34.3482 34.7617 33.921 35.1983 32.9953 35.1983C24.308 35.1983 15.6208 35.1983 6.9335 35.1983C6.00781 35.1983 5.58057 34.7617 5.58057 33.8523C5.58057 24.9762 5.58057 16.1001 5.58057 7.18758C5.58057 6.27815 6.00781 5.84162 6.8979 5.84162C11.3127 5.80524 15.6564 5.80524 20 5.80524ZM9.03411 20.5018C9.03411 23.7757 9.03411 27.0497 9.03411 30.3601C9.03411 31.2695 9.46135 31.706 10.3514 31.706C16.7601 31.706 23.2043 31.706 29.613 31.706C30.503 31.706 30.9303 31.2695 30.9303 30.3237C30.9303 23.7757 30.9303 17.2278 30.9303 10.6798C30.9303 9.73401 30.503 9.29748 29.5773 9.29748C23.1687 9.29748 16.7601 9.29748 10.3514 9.29748C9.42575 9.29748 8.99851 9.73401 8.99851 10.6798C9.03411 13.9538 9.03411 17.2278 9.03411 20.5018Z" fill="#9059FF"/>
<path d="M11.3127 11.6247C17.1161 11.6247 22.8839 11.6247 28.6517 11.6247C28.6517 17.5179 28.6517 23.411 28.6517 29.3406C22.8839 29.3406 17.1161 29.3406 11.3127 29.3406C11.3127 23.4474 11.3127 17.5542 11.3127 11.6247ZM18.0774 24.0294C18.6471 24.0294 19.2167 24.0294 19.7864 24.0294C19.8932 24.0294 20.0712 24.1749 20.1424 24.2841C20.3204 24.6842 20.4272 25.0844 20.6053 25.4845C20.8901 26.1757 21.4954 26.5031 22.1006 26.2485C22.7059 25.9938 22.9551 25.339 22.7059 24.6842C21.6022 21.7013 20.4985 18.6819 19.3947 15.699C19.1811 15.0806 18.7183 14.7532 18.1486 14.7532C17.579 14.7532 17.0805 15.0806 16.8669 15.699C15.7276 18.6819 14.6239 21.7013 13.5202 24.7206C13.2709 25.4118 13.5558 26.0666 14.161 26.2848C14.7663 26.5031 15.4072 26.2121 15.6564 25.5573C15.7988 25.1571 15.9768 24.757 16.0836 24.3568C16.1548 24.1386 16.2616 24.0658 16.4753 24.1022C16.9737 24.0294 17.5434 24.0294 18.0774 24.0294ZM26.6223 20.5372C26.6223 19.0821 26.6223 17.627 26.6223 16.1719C26.6223 15.99 26.6223 15.8445 26.5867 15.6626C26.5155 15.1533 26.0526 14.7532 25.5542 14.7168C25.0557 14.6804 24.5573 15.0078 24.4148 15.5171C24.3792 15.699 24.3436 15.8809 24.3436 16.0991C24.3436 19.0457 24.3436 21.9923 24.3436 24.9389C24.3436 25.0844 24.3436 25.2663 24.3792 25.4118C24.4861 25.9211 24.9489 26.3212 25.4474 26.3212C25.9814 26.3212 26.4799 25.9574 26.5867 25.4118C26.6223 25.2299 26.6223 25.048 26.6223 24.8661C26.6223 23.411 26.6223 21.9559 26.6223 20.5372Z" fill="#9059FF"/>
<path d="M18.1486 18.8627C18.5046 19.7722 18.8251 20.718 19.1811 21.6638C18.4334 21.6638 17.757 21.6638 17.0093 21.6638C17.3653 20.718 17.7213 19.7722 18.0418 18.8627C18.113 18.8627 18.113 18.8627 18.1486 18.8627Z" fill="#9059FF"/>
</svg>
