<?xml version="1.0" encoding="utf-8"?>
<!-- Generator: Adobe Illustrator 27.7.0, SVG Export Plug-In . SVG Version: 6.00 Build 0)  -->
<svg version="1.1" id="Layer_1" xmlns="http://www.w3.org/2000/svg" xmlns:xlink="http://www.w3.org/1999/xlink" x="0px" y="0px"
	 viewBox="0 0 150 150" style="enable-background:new 0 0 150 150;" xml:space="preserve">
<style type="text/css">
	.st0{fill:#FFFFFF;}
</style>
<g>
	<path class="st0" d="M101.5,98.5c-5.5,0-10.9-0.9-15.9-2.5c-1.6-0.5-3.3-0.1-4.5,1.1l-7.1,8.9c-12.7-6.1-24.6-17.5-31-30.7l8.8-7.5
		c1.2-1.3,1.6-3,1.1-4.6c-1.7-5-2.5-10.3-2.5-15.9c0-2.4-2-4.5-4.5-4.5H30.4c-2.4,0-5.4,1.1-5.4,4.5c0,41.8,34.8,76.5,76.5,76.5
		c3.2,0,4.5-2.8,4.5-5.3v-15.5C105.9,100.5,103.9,98.5,101.5,98.5z"/>
	<g>
		<g>
			<g>
				<path class="st0" d="M99.7,49.3L84.8,35.7l1.7-1.7c0.6-0.6,1.1-1.4,1.2-2.3c0.2-0.9,0.1-1.8-0.3-2.6c-0.3-0.8-0.9-1.5-1.7-2
					c-0.7-0.5-1.6-0.8-2.5-0.8H72c-1.2,0-2.3,0.5-3.2,1.3c-0.8,0.8-1.3,2-1.3,3.2v11.3c0,0.9,0.3,1.8,0.8,2.5c0.5,0.7,1.2,1.3,2,1.7
					c0.8,0.3,1.7,0.4,2.6,0.3c0.9-0.2,1.7-0.6,2.3-1.2l2.3-2.3l13.6,12.3v18.2c0,1.4,0.5,2.7,1.5,3.6c1,1,2.3,1.5,3.6,1.5
					c1.4,0,2.7-0.5,3.6-1.5c1-1,1.5-2.3,1.5-3.6V53.1c0-0.7-0.1-1.4-0.4-2.1C100.6,50.4,100.2,49.8,99.7,49.3z M124.7,29.1
					c-0.2-0.6-0.6-1-1-1.5c-0.4-0.4-0.9-0.8-1.5-1c-0.6-0.2-1.1-0.3-1.7-0.3h-11.3c-0.9,0-1.8,0.3-2.5,0.8c-0.7,0.5-1.3,1.2-1.7,2
					c-0.3,0.8-0.4,1.7-0.3,2.6c0.2,0.9,0.6,1.7,1.2,2.3l1.5,1.5l-4.1,3.7c-0.5,0.5-0.9,1-1.2,1.6c-0.3,0.6-0.5,1.3-0.5,1.9
					c0,0.7,0.1,1.3,0.3,2c0.2,0.6,0.6,1.2,1,1.7c0.9,1,2.2,1.6,3.5,1.7c1.4,0.1,2.7-0.4,3.7-1.3l4.5-4l2.6,2.6
					c0.6,0.6,1.4,1.1,2.3,1.2c0.9,0.2,1.8,0.1,2.6-0.2c0.8-0.3,1.5-0.9,2-1.7c0.5-0.7,0.8-1.6,0.8-2.5V30.8
					C125,30.2,124.9,29.6,124.7,29.1z"/>
			</g>
		</g>
	</g>
</g>
</svg>
