<?xml version="1.0" encoding="UTF-8"?>
<svg id="Layer_14" data-name="Layer 14" xmlns="http://www.w3.org/2000/svg" viewBox="0 0 90 90">
  <defs>
    <style>
      .cls-1 {
        fill: #fff;
        stroke-width: 0px;
      }
    </style>
  </defs>
  <path class="cls-1" d="m28.93,43.19c-2.99-.42-5.82-.82-8.64-1.23-.71-.1-1.67-.09-1.73-1-.04-.56.36-1.31.8-1.73,5.63-5.32,12.34-8.18,20.08-8.64.47-.03,1.05-.27,1.38-.61,7.5-7.8,16.55-12.65,27.26-14.3,1.56-.24,3.15-.28,4.73-.34,1.49-.05,1.86.35,1.86,1.82,0,6.09-1.53,11.83-4.08,17.32-2.58,5.56-6.08,10.46-10.54,14.68-.36.34-.61.97-.64,1.48-.48,7.69-3.32,14.36-8.58,20-.52.55-1.14,1.2-1.86.72-.48-.31-.8-1.09-.9-1.7-.47-2.8-.83-5.63-1.23-8.45-.16.03-.25.01-.3.05q-2.05,1.54-3.91-.31c-4.64-4.64-9.28-9.28-13.93-13.93-1.53-1.53-1.54-1.67-.13-3.31.1-.11.17-.24.38-.52Zm34.9-10.93c-.03-3.45-2.77-6.14-6.23-6.1-3.38.04-6.1,2.78-6.09,6.15,0,3.4,2.81,6.19,6.2,6.18,3.41-.01,6.15-2.8,6.13-6.23Z"/>
  <path class="cls-1" d="m35.11,62.38c-.12,3.06-1.3,5.31-3.87,6.72-4.49,2.47-9.36,3.96-14.21,5.48-1.12.35-1.96-.5-1.61-1.62,1.52-4.85,3-9.73,5.49-14.21,1.6-2.88,4.56-4.26,7.81-3.76,2.96.45,5.4,2.71,6.14,5.73.15.59.18,1.21.24,1.65Z"/>
</svg>