<?xml version="1.0" encoding="UTF-8"?>
<svg id="Layer_1" data-name="Layer 1" xmlns="http://www.w3.org/2000/svg" viewBox="0 0 50 50">
  <defs>
    <style>
      .cls-1 {
        fill: #fff;
        stroke-width: 0px;
      }
    </style>
  </defs>
  <path class="cls-1" d="m15.33,39.89c-.42,1.25-.81,2.41-1.25,3.73.61,0,1.07-.1,1.46.03.32.11.55.48.83.73-.27.26-.5.66-.82.74-.48.13-1.02.04-1.53.04-3.72,0-7.44,0-11.16,0-.28,0-.56,0-.95,0,0-.99-.03-1.93.02-2.86,0-.17.3-.38.5-.47.92-.38,1.87-.69,2.78-1.1.28-.12.53-.44.65-.73.65-1.52,1.22-3.09,1.92-4.59.23-.5.27-.86.03-1.34-.41-.82-.74-1.69-1.14-2.52-.18-.38-.13-.63.18-.93,1.23-1.2,2.43-2.44,3.67-3.62.17-.17.6-.23.83-.14.93.35,1.82.82,2.76,1.17.28.11.69.08.98-.03,1.59-.62,3.17-1.27,4.74-1.96.31-.13.63-.42.77-.71.4-.88.73-1.8,1.06-2.72.14-.38.31-.56.77-.56,1.72.03,3.44.03,5.16,0,.45,0,.63.17.77.55.34.94.69,1.87,1.09,2.79.1.24.35.48.59.59,1.66.72,3.34,1.42,5.02,2.09.23.09.55.09.78,0,.95-.38,1.87-.84,2.82-1.21.23-.09.66-.03.83.13,1.26,1.2,2.5,2.44,3.7,3.7.17.17.22.61.13.84-.35.91-.77,1.79-1.18,2.67-.19.41-.12.72.06,1.14.69,1.54,1.28,3.12,1.96,4.66.13.31.42.63.72.76.88.4,1.82.69,2.71,1.08.22.1.49.39.51.61.06.87.02,1.74.02,2.65-.22.03-.39.06-.56.07-4.26,0-8.52,0-12.78,0-.1,0-.24.04-.3-.01-.29-.24-.55-.5-.82-.76.27-.26.5-.63.82-.74.38-.13.85-.03,1.46-.03-.44-1.31-.83-2.48-1.25-3.73-.56.31-.95.55-1.36.75-.43.21-.89.14-1.02-.32-.08-.28.06-.75.27-.98.28-.31.72-.46,1.25-.78-.97-.91-1.87-1.76-2.85-2.68-.3.51-.51.89-.74,1.24-.26.4-.6.66-1.09.36-.45-.28-.51-.67-.24-1.12.2-.35.4-.71.69-1.23-1.28-.33-2.48-.64-3.81-.98,0,.61.01,1.03,0,1.46-.02.51-.26.84-.81.82-.51-.02-.71-.35-.73-.82-.01-.41,0-.81,0-1.43-1.29.31-2.48.6-3.81.93.29.52.49.89.69,1.25.26.45.2.84-.25,1.12-.49.3-.83.03-1.09-.37-.22-.34-.42-.7-.72-1.22-.97.89-1.87,1.72-2.87,2.64.51.31.94.47,1.21.77.22.25.42.73.33,1.02-.15.49-.63.53-1.09.28-.38-.21-.75-.42-1.3-.72Z"/>
  <path class="cls-1" d="m36.46,10.5c-.87,0-1.58.02-2.29-.01-.23-.01-.5-.11-.64-.26-.07-.08.07-.43.21-.59,1.75-2.08,3.51-4.15,5.26-6.23.35-.41.62-.35.93.03,1.75,2.08,3.52,4.14,5.26,6.23.13.15.23.46.16.59-.07.14-.37.23-.57.23-.76.03-1.52.01-2.35.01v17.2c-.91-.9-1.7-1.64-2.44-2.43-.38-.4-.69-.48-1.19-.22-.72.38-1.48.67-2.34,1.04v-15.59Z"/>
  <path class="cls-1" d="m13.57,20.36v5.74c-.9-.4-1.72-.73-2.51-1.12-.39-.19-.65-.13-.94.18-.77.81-1.57,1.6-2.51,2.55v-7.35c-.83,0-1.57.02-2.3-.01-.23,0-.56-.09-.65-.25-.08-.13.06-.48.2-.65,1.71-2.04,3.45-4.06,5.16-6.11.41-.49.7-.44,1.1.03,1.68,2.01,3.38,3.99,5.06,5.99.16.2.22.48.32.73-.25.09-.49.24-.75.25-.69.04-1.38.01-2.18.01Z"/>
  <path class="cls-1" d="m27.98,15.42v5.03h-5.91v-5.03c-.86,0-1.62.02-2.38-.01-.22,0-.5-.12-.64-.28-.06-.07.1-.42.23-.58,1.73-2.06,3.48-4.1,5.21-6.16.4-.47.68-.39,1.04.03,1.71,2.04,3.45,4.06,5.16,6.1.15.17.18.44.26.67-.23.08-.46.21-.69.22-.74.03-1.47.01-2.28.01Z"/>
  <path class="cls-1" d="m23.3,45.16c0-1.14,1-1.89,2.15-1.68.36.07.8,0,1.12-.16,1.09-.57,2.14-1.21,3.2-1.82.46-.27.94-.42,1.27.12.36.59-.03.94-.52,1.22-.87.49-1.72,1.01-2.59,1.49-.64.36-1.23.65-1.43,1.51-.18.77-1.13,1.16-1.86.98-.79-.19-1.33-.86-1.34-1.66Z"/>
</svg>