<?xml version="1.0" encoding="UTF-8"?>
<svg id="Layer_1" data-name="Layer 1" xmlns="http://www.w3.org/2000/svg" viewBox="0 0 70 70">
  <defs>
    <style>
      .cls-1 {
        fill: #ed4252;
        stroke-width: 0px;
      }
    </style>
  </defs>
  <path class="cls-1" d="m23.82,32.2c.79,0,1.46-.27,1.99-.8.54-.54.8-1.2.8-1.99s-.27-1.46-.8-1.99-1.2-.8-1.99-.8-1.46.27-1.99.8c-.54.54-.8,1.2-.8,1.99s.27,1.46.8,1.99c.54.54,1.2.8,1.99.8Zm11.18,0c.79,0,1.46-.27,1.99-.8.54-.54.8-1.2.8-1.99s-.27-1.46-.8-1.99-1.2-.8-1.99-.8-1.46.27-1.99.8c-.54.54-.8,1.2-.8,1.99s.27,1.46.8,1.99c.54.54,1.2.8,1.99.8Zm11.18,0c.79,0,1.46-.27,1.99-.8.54-.54.8-1.2.8-1.99s-.27-1.46-.8-1.99c-.54-.54-1.2-.8-1.99-.8s-1.46.27-1.99.8c-.54.54-.8,1.2-.8,1.99s.27,1.46.8,1.99c.54.54,1.2.8,1.99.8ZM7.04,62.96V12.63c0-1.54.55-2.85,1.64-3.95,1.09-1.09,2.41-1.64,3.95-1.64h44.73c1.54,0,2.85.55,3.95,1.64,1.09,1.09,1.64,2.41,1.64,3.95v33.55c0,1.54-.55,2.85-1.64,3.95-1.1,1.09-2.41,1.64-3.95,1.64H18.23l-11.18,11.18Z"/>
</svg>