<?xml version="1.0" encoding="UTF-8"?>
<svg id="Layer_1" data-name="Layer 1" xmlns="http://www.w3.org/2000/svg" viewBox="0 0 90 90">
  <defs>
    <style>
      .cls-1 {
        fill: #fff;
        stroke-width: 0px;
      }
    </style>
  </defs>
  <path class="cls-1" d="m28.9,65.45c3.61-3.07,7.18-6.1,10.74-9.14,1.24-1.05,2.49-2.09,3.7-3.17.25-.22.5-.6.5-.91.04-2.84.02-5.68.02-8.49-.09-.08-.14-.15-.19-.15-2.4-.26-2.61-.46-3.02-2.83-.22-1.26-1.74-1.91-2.8-1.18-.26.18-.51.36-.77.53-1.1.7-2.04.63-2.97-.27-.92-.89-1.83-1.8-2.71-2.72-.89-.92-.96-1.81-.28-2.88.1-.16.21-.31.31-.47.74-1.07.77-1.7.04-2.74-.12-.17-.39-.27-.61-.33-.45-.12-.92-.15-1.38-.27-1.21-.31-1.74-.97-1.75-2.2-.02-1.31-.02-2.62,0-3.94.02-1.27.6-1.93,1.87-2.19.24-.05.49-.11.73-.15,1.55-.3,2.14-1.71,1.24-2.99-1.3-1.84-1.25-2.47.32-4.04.71-.71,1.41-1.42,2.12-2.12,1.05-1.03,1.92-1.07,3.19-.29.61.37,1.05,1.1,2.05.7.97-.39,1.38-.92,1.5-1.95.19-1.68.94-2.26,2.62-2.27,1.03,0,2.06,0,3.09,0,1.88,0,2.57.54,2.78,2.41.11.92.49,1.37,1.34,1.76.87.4,1.34-.05,1.92-.45,1.57-1.08,2.34-1.01,3.68.32.71.71,1.42,1.41,2.12,2.12,1.25,1.27,1.32,2.07.29,3.54-.44.63-.91,1.14-.45,2.08.37.74.74,1.07,1.54,1.2,2.17.35,2.56.85,2.56,3.03,0,.97,0,1.94,0,2.91,0,1.67-.6,2.43-2.27,2.62-1.02.11-1.63.46-1.91,1.5-.13.49-.23.85.13,1.26.28.33.51.71.74,1.08.55.91.51,1.8-.22,2.58-.98,1.05-2,2.07-3.04,3.05-.74.69-1.62.75-2.51.26-.3-.17-.57-.38-.86-.57-1.33-.91-2.76-.29-3.01,1.31-.32,2.03-.68,2.34-3.18,2.63,0,.62,0,1.26,0,1.91,0,2.16-.01,4.31.02,6.47,0,.33.11.78.35.98,4.83,4.15,9.69,8.27,14.61,12.46,1.89-1.35,4.07-1.39,6.27-1.34,2.4.06,4.83-.1,7.2.2,3.65.46,6.32,3.63,6.41,7.33.07,2.65.03,5.31.02,7.97,0,.96-.41,1.37-1.38,1.37-6.87,0-13.75,0-20.62,0-.93,0-1.33-.39-1.34-1.31-.01-2.75-.02-5.5.02-8.25.03-1.65.7-3.08,1.71-4.46-4.79-4.08-9.56-8.14-14.39-12.25-4.81,4.09-9.58,8.16-14.41,12.26,1.61,1.96,1.84,4.21,1.77,6.57-.06,1.94,0,3.87-.01,5.81,0,1.29-.33,1.63-1.6,1.63-6.72,0-13.43,0-20.15,0-1.24,0-1.59-.36-1.6-1.63,0-2.44-.02-4.87,0-7.31.04-4.55,3.41-7.9,7.97-7.93,2.34-.02,4.69.02,7.03-.01,1.73-.02,3.35.33,4.9,1.33Zm16.04-30.78c4.63.03,8.44-3.74,8.46-8.35.02-4.61-3.77-8.45-8.37-8.47-4.59-.02-8.42,3.78-8.45,8.38-.03,4.63,3.73,8.42,8.36,8.44Zm-30.11,44.02h2.22c0-1.56.03-3.08-.01-4.59-.02-.65-.46-1.02-1.11-1.01-.66,0-1.07.4-1.08,1.04-.04,1.49-.01,2.98-.01,4.56Zm11.65.02c0-1.57.02-3.05,0-4.54-.01-.64-.41-1.15-1.04-1.05-.41.07-1.05.54-1.08.87-.11,1.56-.05,3.13-.05,4.72h2.18Zm48.65,0c0-1.59.07-3.08-.05-4.56-.03-.38-.59-.96-.95-.99-.37-.04-1.12.45-1.14.76-.12,1.59-.05,3.2-.05,4.8h2.2Zm-11.64-.02h2.18c0-1.56.06-3.11-.05-4.64-.03-.35-.62-.84-1.03-.92-.62-.13-1.07.34-1.09.99-.04,1.51-.01,3.02-.01,4.58Z"/>
  <path class="cls-1" d="m27.24,57.23c0,3.62-2.93,6.55-6.54,6.56-3.66,0-6.64-2.96-6.62-6.59.02-3.65,3-6.59,6.66-6.57,3.6.02,6.51,2.98,6.51,6.6Z"/>
  <path class="cls-1" d="m69.36,63.78c-3.63.01-6.58-2.89-6.61-6.49-.03-3.67,2.88-6.64,6.54-6.67,3.64-.03,6.63,2.96,6.62,6.6,0,3.61-2.95,6.55-6.55,6.56Z"/>
  <path class="cls-1" d="m44.98,32.43c-3.38,0-6.14-2.75-6.15-6.14-.01-3.35,2.77-6.17,6.13-6.2,3.33-.03,6.17,2.77,6.2,6.12.03,3.42-2.75,6.21-6.18,6.21Z"/>
</svg>