<?xml version="1.0" encoding="utf-8"?>
<!-- Generator: Adobe Illustrator 27.0.1, SVG Export Plug-In . SVG Version: 6.00 Build 0)  -->
<svg version="1.1" id="Layer_1" xmlns="http://www.w3.org/2000/svg" xmlns:xlink="http://www.w3.org/1999/xlink" x="0px" y="0px"
	 viewBox="0 0 50 50" style="enable-background:new 0 0 50 50;" xml:space="preserve">
<style type="text/css">
	.Drop_x0020_Shadow{fill:none;}
	.Outer_x0020_Glow_x0020_5_x0020_pt{fill:none;}
	.Blue_x0020_Neon{fill:none;stroke:#8AACDA;stroke-width:7;stroke-linecap:round;stroke-linejoin:round;}
	.Chrome_x0020_Highlight{fill:url(#SVGID_1_);stroke:#FFFFFF;stroke-width:0.3629;stroke-miterlimit:1;}
	.Jive_GS{fill:#FFDD00;}
	.Alyssa_GS{fill:#A6D0E4;}
	.st0{fill:url(#SVGID_00000154384273849536102780000002563433053617979555_);}
	.st1{fill:#FFFFFF;}
	.st2{fill:none;stroke:#000000;stroke-miterlimit:10;}
</style>
<linearGradient id="SVGID_1_" gradientUnits="userSpaceOnUse" x1="-125" y1="15" x2="-125" y2="14">
	<stop  offset="0" style="stop-color:#656565"/>
	<stop  offset="0.618" style="stop-color:#1B1B1B"/>
	<stop  offset="0.6292" style="stop-color:#545454"/>
	<stop  offset="0.9831" style="stop-color:#3E3E3E"/>
</linearGradient>
<g>
	<g>
		<polygon class="st1" points="43.2,25.3 31.6,25.3 31.6,24.5 42.3,24.5 42.3,6.6 43.2,6.6 		"/>
	</g>
	<g>
		<polygon class="st1" points="7.7,41.8 6.8,41.8 6.8,24.5 17.2,24.5 17.2,25.3 7.7,25.3 		"/>
	</g>
	<circle class="st1" cx="7.2" cy="42.2" r="5.2"/>
	<circle class="st1" cx="42.8" cy="7.8" r="5.2"/>
	<path class="st1" d="M24.4,17.1c-4.3,0-7.7,3.5-7.7,7.7c0,4.3,3.5,7.7,7.7,7.7s7.7-3.5,7.7-7.7C32.1,20.6,28.7,17.1,24.4,17.1z
		 M27.4,27.6L27,28.9c-0.1,0.2-0.3,0.3-0.5,0.3c-3.7-0.9-5.9-4.7-4.9-8.4c0.1-0.2,0.3-0.3,0.5-0.3l1.4,0.4c0.2,0.1,0.3,0.3,0.3,0.5
		c-0.1,0.5-0.2,1-0.1,1.5c0,0.1-0.1,0.3-0.2,0.4l-1.1,0.6c0.3,1.3,1,2.4,1.9,3.2l1.1-0.6c0.1-0.1,0.3-0.1,0.4,0
		c0.4,0.3,0.9,0.5,1.3,0.6C27.3,27.1,27.5,27.3,27.4,27.6z"/>
</g>
</svg>
