<?xml version="1.0" encoding="utf-8"?>
<!-- Generator: Adobe Illustrator 27.7.0, SVG Export Plug-In . SVG Version: 6.00 Build 0)  -->
<svg version="1.1" id="Layer_1" xmlns="http://www.w3.org/2000/svg" xmlns:xlink="http://www.w3.org/1999/xlink" x="0px" y="0px"
	 viewBox="0 0 24 24" style="enable-background:new 0 0 24 24;" xml:space="preserve">
<style type="text/css">
	.st0{fill:none;}
	.st1{fill:#FFFFFF;}
</style>
<g>
	<g>
		<path class="st0" d="M3.4,3.7H20v16.7H3.4V3.7z"/>
		<path class="st1" d="M17.2,14.3c-0.9,0-1.7-0.1-2.4-0.4c-0.2-0.1-0.5,0-0.7,0.2L13,15.5c-2-0.9-3.8-2.7-4.8-4.7l1.4-1.2
			c0.2-0.2,0.2-0.5,0.2-0.7C9.5,8.1,9.4,7.3,9.4,6.4c0-0.4-0.3-0.7-0.7-0.7H6.3c-0.4,0-0.8,0.2-0.8,0.7c0,6.4,5.4,11.8,11.8,11.8
			c0.5,0,0.7-0.4,0.7-0.8V15C17.9,14.7,17.6,14.3,17.2,14.3z"/>
	</g>
	<g>
		<g>
			<rect x="11.7" y="3.8" class="st0" width="9" height="9"/>
		</g>
		<g>
			<g>
				<path class="st1" d="M19.5,6.8c-0.5,0-0.8,0.5-0.7,0.9L17.5,9c-0.1,0-0.3,0-0.4,0l-1-1c0.1-0.4-0.2-0.9-0.7-0.9
					c-0.5,0-0.8,0.5-0.7,0.9L13,9.8c-0.4-0.1-0.9,0.2-0.9,0.7c0,0.4,0.3,0.7,0.7,0.7c0.5,0,0.8-0.5,0.7-0.9l1.7-1.7
					c0.1,0,0.3,0,0.4,0l1,1c-0.1,0.4,0.2,0.9,0.7,0.9c0.5,0,0.8-0.5,0.7-0.9l1.3-1.3c0.4,0.1,0.9-0.2,0.9-0.7
					C20.3,7.1,19.9,6.8,19.5,6.8z"/>
				<polygon class="st1" points="17.3,7.2 17.6,6.4 18.4,6 17.6,5.7 17.3,4.9 16.9,5.7 16.2,6 16.9,6.4 				"/>
				<polygon class="st1" points="13,7.9 13.2,7.2 13.9,7 13.2,6.8 13,6 12.8,6.8 12.1,7 12.8,7.2 				"/>
			</g>
		</g>
	</g>
</g>
</svg>
