<svg width="24" height="24" viewBox="0 0 24 24" fill="none" xmlns="http://www.w3.org/2000/svg">
<path d="M8.7713 14.8018L18.296 4.48108C18.5919 4.16038 18.9686 4.00003 19.426 4.00003C19.8834 4.00003 20.2601 4.16038 20.5561 4.48108C20.852 4.80178 21 5.20994 21 5.70557C21 6.2012 20.852 6.60936 20.5561 6.93006L9.90134 18.4752C9.57847 18.8251 9.20179 19 8.7713 19C8.34081 19 7.96413 18.8251 7.64126 18.4752L3.44395 13.9271C3.14798 13.6064 3 13.1983 3 12.7027C3 12.207 3.14798 11.7989 3.44395 11.4782C3.73991 11.1575 4.11659 10.9971 4.57399 10.9971C5.03139 10.9971 5.40807 11.1575 5.70404 11.4782L8.7713 14.8018Z" fill="#10B278"/>
</svg>
