<svg width="20" height="19" viewBox="0 0 20 19" fill="none" xmlns="http://www.w3.org/2000/svg">
<path d="M14.97 14.0902C12.27 14.0902 11.52 12.5702 9.81 15.4802C7.42 14.3402 5.19 12.1902 4 9.7202C6.9 7.8502 5.38 7.2602 5.38 4.4802C5.45 3.0502 2.37 3.8402 1.63 3.6402C1.17 3.6402 0.630005 3.8402 0.630005 4.4802C0.630005 12.3202 7.15 18.8302 14.98 18.8302C16.45 18.8102 15.6 15.7302 15.82 14.9202C15.82 14.4602 15.44 14.0802 14.98 14.0802L14.97 14.0902Z" fill="white"/>
<path d="M14.63 4.8602L11.84 2.3202C13.97 0.390203 9.86001 0.150203 8.84001 0.790203C8.16001 1.9202 8.49001 6.0202 10.47 3.6802L13.01 5.9902V9.4002C12.99 10.6502 14.96 10.6502 14.94 9.4002C14.83 8.8402 15.24 5.2002 14.63 4.8602ZM19.32 1.0702C19.07 0.180203 17.03 0.660203 16.41 0.540203C15.42 0.560203 15.33 1.8102 16.09 2.2702C13.75 3.8002 15.81 5.8002 17.45 3.6402C19.47 5.9302 19.62 2.4302 19.32 1.0702Z" fill="white"/>
</svg>
