<svg width="39" height="39" viewBox="0 0 39 39" fill="none" xmlns="http://www.w3.org/2000/svg">
<path d="M28.0854 2.36071C16.8681 -3.24796 3.67672 3.14404 0.825391 15.082C0.606058 16.022 0.512058 17.0247 0.355391 17.996C0.324058 18.09 0.324058 18.2154 0.292725 18.3094C0.292725 19.124 0.292725 19.9074 0.292725 20.722C0.386725 21.4427 0.480725 22.1947 0.606058 22.9154C1.82806 30.3727 7.96939 36.796 15.4267 38.2687C16.3041 38.4567 17.1814 38.5194 18.0587 38.6447C18.1527 38.6447 18.2154 38.676 18.3094 38.7074C19.1241 38.7074 19.9074 38.7074 20.7221 38.7074C21.4114 38.6134 22.1321 38.5194 22.8214 38.4254C30.3727 37.172 36.6081 31.25 38.2374 23.7614C40.1487 15.0507 36.0441 6.30871 28.0854 2.36071ZM12.4187 7.34271C12.6694 7.06071 13.0454 6.93537 13.5154 6.93537C13.9854 6.93537 14.3301 7.06071 14.6121 7.31137C14.8627 7.56204 15.0194 7.87537 15.0194 8.22004C15.0194 8.69004 14.8001 9.06604 14.3614 9.37937L14.0794 9.56737C13.8601 9.72404 13.7661 9.91204 13.7661 10.194C13.7661 10.2254 13.7661 10.2567 13.7661 10.288H13.1081C13.1081 10.1627 13.1081 10.1 13.1081 10.0374C13.1081 9.63004 13.2961 9.31671 13.6407 9.06604L13.9541 8.84671C14.1734 8.69004 14.2674 8.50204 14.2674 8.28271C14.2674 8.09471 14.2047 7.93804 14.0794 7.81271C13.9541 7.68737 13.7974 7.62471 13.5467 7.62471C13.3274 7.62471 13.1394 7.68737 13.0141 7.84404C12.8887 8.00071 12.8261 8.15737 12.8261 8.37671C12.8261 8.50204 12.8261 8.59604 12.8574 8.65871L12.1054 8.59604C12.0741 8.50204 12.0741 8.40804 12.0741 8.28271C12.0114 7.93804 12.1367 7.62471 12.4187 7.34271ZM13.8914 11.228C13.8914 11.3534 13.8601 11.4787 13.7661 11.5727C13.6721 11.6667 13.5467 11.698 13.4214 11.698C13.2961 11.698 13.1707 11.6667 13.0767 11.5727C12.9827 11.4787 12.9201 11.3534 12.9201 11.228C12.9201 11.1027 12.9514 10.9774 13.0454 10.8834C13.1394 10.7894 13.2647 10.7267 13.3901 10.7267C13.5154 10.7267 13.6407 10.7894 13.7347 10.8834C13.8287 10.9774 13.8914 11.1027 13.8914 11.228ZM9.28539 21.3174C9.28539 22.3514 8.47073 23.1347 7.46806 23.1034C6.49672 23.1034 5.71339 22.32 5.68206 21.3174C5.68206 20.722 5.68206 20.1267 5.68206 19.5314C5.68206 18.936 5.68206 18.3407 5.68206 17.7454C5.68206 16.7427 6.49672 15.9594 7.46806 15.9594C8.47073 15.9594 9.28539 16.7427 9.28539 17.7454C9.31673 18.9047 9.31673 20.0954 9.28539 21.3174ZM15.3014 24.3567C15.3014 25.234 14.6434 25.9547 13.7974 26.1114C12.9827 26.2367 12.1054 25.7667 11.8234 24.952C11.7607 24.7327 11.6981 24.482 11.6981 24.2627C11.6981 21.1294 11.6981 17.9647 11.6981 14.8314C11.6981 13.766 12.4814 12.9514 13.4841 12.9514C14.5181 12.9514 15.3014 13.7347 15.3014 14.8314C15.3014 16.4294 15.3014 17.996 15.3014 19.594C15.3014 21.1607 15.3014 22.7587 15.3014 24.3567ZM21.2861 27.9287C21.2861 28.806 20.6281 29.5267 19.7821 29.6834C18.9674 29.8087 18.0901 29.3387 17.8081 28.524C17.7141 28.2734 17.6827 28.0227 17.6827 27.7407C17.6827 24.9834 17.6827 22.226 17.6827 19.4687C17.6827 16.7114 17.6827 13.9227 17.6827 11.1654C17.6827 10.382 18.1214 9.75537 18.8107 9.47337C19.5001 9.19137 20.2521 9.34804 20.7847 9.88071C21.1607 10.2567 21.2861 10.758 21.2861 11.2907C21.2861 15.176 21.2861 19.0927 21.2861 22.978C21.2861 24.6074 21.3174 26.268 21.2861 27.9287ZM25.5787 30.0594C25.5161 30.122 25.4534 30.1534 25.3594 30.1534C25.2654 30.1534 25.2027 30.122 25.1401 30.0594C25.0774 29.9967 25.0461 29.934 25.0461 29.84C25.0461 29.746 25.0774 29.6834 25.1401 29.6207C25.2027 29.558 25.2654 29.5267 25.3594 29.5267C25.4534 29.5267 25.5161 29.558 25.5787 29.6207C25.6414 29.6834 25.6727 29.746 25.6727 29.84C25.6727 29.934 25.6414 29.9967 25.5787 30.0594ZM25.9547 28.6807L25.7667 28.806C25.6414 28.9 25.5474 29.0254 25.5474 29.2134C25.5474 29.2447 25.5474 29.2447 25.5474 29.276H25.1401C25.1401 29.2134 25.1401 29.1507 25.1401 29.1194C25.1401 28.8687 25.2654 28.6494 25.4847 28.4927L25.6727 28.3674C25.7981 28.2734 25.8607 28.148 25.8607 28.0227C25.8607 27.8974 25.8294 27.8034 25.7354 27.7407C25.6727 27.6467 25.5474 27.6154 25.3907 27.6154C25.2341 27.6154 25.1401 27.6467 25.0461 27.7407C24.9521 27.8347 24.9207 27.9287 24.9207 28.0854C24.9207 28.148 24.9207 28.2107 24.9521 28.2734L24.4821 28.242C24.4507 28.1794 24.4507 28.1167 24.4507 28.054C24.4507 27.8347 24.5447 27.6154 24.7014 27.4587C24.8581 27.2707 25.1087 27.208 25.3907 27.208C25.6727 27.208 25.9234 27.302 26.0801 27.4587C26.2367 27.6154 26.3307 27.8034 26.3307 28.054C26.3621 28.242 26.2054 28.4927 25.9547 28.6807ZM27.3021 24.3254C27.3021 25.2027 26.6441 25.9234 25.7981 26.08C24.9834 26.2367 24.1061 25.7354 23.8241 24.9207C23.7614 24.7014 23.6987 24.4507 23.6987 24.2314C23.6987 21.098 23.6987 17.9334 23.6987 14.8C23.6987 13.7347 24.4821 12.92 25.5161 12.92C26.5187 12.92 27.3021 13.7347 27.3021 14.8C27.3021 16.3667 27.3021 17.9334 27.3021 19.5314C27.3021 21.1294 27.3021 22.7274 27.3021 24.3254ZM33.2867 21.286C33.2867 22.32 32.4721 23.1034 31.4694 23.1034C30.4667 23.1034 29.6834 22.2887 29.6834 21.286C29.6834 20.6907 29.6834 20.1267 29.6834 19.5314C29.6834 18.936 29.6834 18.3407 29.6834 17.7454C29.6834 16.7114 30.4981 15.928 31.5007 15.928C32.4721 15.928 33.2867 16.7114 33.2867 17.714C33.2867 18.9047 33.2867 20.0954 33.2867 21.286ZM35.3861 20.91C35.3234 20.9727 35.2607 21.004 35.1667 21.004C35.0727 21.004 35.0101 20.9727 34.9474 20.91C34.8847 20.8474 34.8534 20.7847 34.8534 20.6907C34.8534 20.5967 34.8847 20.534 34.9474 20.4714C35.0101 20.4087 35.0727 20.3774 35.1667 20.3774C35.2607 20.3774 35.3234 20.4087 35.3861 20.4714C35.4487 20.534 35.4801 20.5967 35.4801 20.6907C35.4801 20.7847 35.4487 20.8474 35.3861 20.91ZM35.7621 19.5314L35.5741 19.6567C35.4487 19.7507 35.3547 19.876 35.3547 20.064C35.3547 20.0954 35.3547 20.0954 35.3547 20.1267H34.9474C34.9474 20.064 34.9474 20.0014 34.9474 19.97C34.9474 19.7194 35.0727 19.5 35.2921 19.3434L35.4801 19.1867C35.6054 19.0927 35.6681 18.9674 35.6681 18.842C35.6681 18.7167 35.6367 18.6227 35.5427 18.56C35.4801 18.466 35.3547 18.4347 35.1981 18.4347C35.0414 18.4347 34.9474 18.466 34.8534 18.56C34.7594 18.654 34.7281 18.748 34.7281 18.9047C34.7281 18.9674 34.7281 19.03 34.7594 19.0927L34.2894 19.0614C34.2581 18.9987 34.2581 18.936 34.2581 18.8734C34.2581 18.654 34.3521 18.4347 34.5087 18.278C34.6654 18.09 34.9161 18.0274 35.1981 18.0274C35.4801 18.0274 35.7307 18.1214 35.8874 18.278C36.0441 18.4347 36.1381 18.6227 36.1381 18.8734C36.1694 19.0927 36.0441 19.3434 35.7621 19.5314Z" fill="#FF5969"/>
</svg>
