<svg width="20" height="18" viewBox="0 0 20 18" fill="none" xmlns="http://www.w3.org/2000/svg">
<path d="M19.1401 13.5598C19.6201 11.9498 16.1401 12.0298 15.4801 11.4598C15.1201 10.7098 16.1001 6.76985 14.0801 8.02985C13.6101 8.25985 13.9401 13.1198 13.8501 13.5598L13.7701 13.6398C13.7101 13.6298 13.6401 13.6798 13.6101 13.5598C12.4401 12.4698 11.1201 13.0099 11.9701 14.3398C12.0501 14.4198 13.7401 17.0198 13.8401 17.0698C14.0401 16.9798 18.6101 17.2698 18.6701 16.9098L19.1401 13.5598Z" fill="white"/>
<path d="M9.87005 16.7499C11.2101 16.4599 10.7001 15.1099 9.48005 15.1099C9.36005 14.8999 9.30005 13.7099 9.56005 13.5499C12.8001 10.9099 3.05005 12.3999 2.47005 11.9099C2.35005 11.3799 2.30005 2.61988 2.47005 1.92988C2.69005 1.70988 16.5201 1.92988 16.8101 1.84988C16.8901 1.84988 17.0401 1.92988 17.1201 1.92988C17.4601 2.32988 16.8401 10.7399 17.4301 10.9699C19.8901 12.9599 18.3501 2.36988 18.7601 1.84988C18.7901 1.05988 17.9901 0.259881 17.2001 0.289881H2.38005C1.59005 0.259881 0.790052 1.05988 0.820052 1.84988C0.980052 2.54988 0.370053 12.8999 1.29005 13.0699C1.84005 13.9699 6.83005 13.3699 7.68005 13.5399C8.10005 13.5199 7.85005 14.7299 7.91005 14.9399C7.64005 15.5799 5.73005 14.7999 5.34005 15.4099C3.91005 17.5599 9.12005 16.4999 9.86005 16.7299L9.87005 16.7499Z" fill="white"/>
<path d="M10.8001 7.78978C10.7201 7.70978 10.6401 7.62977 10.4901 7.62977C10.1201 7.40977 9.67009 7.66978 9.40009 7.93978C8.70009 7.31978 8.00009 6.60978 7.37009 5.90978C8.58009 5.02978 6.51009 2.81977 5.50009 3.72977C2.78009 5.06977 9.54009 11.7098 11.1101 10.1198C12.2001 9.35978 11.6401 8.42978 10.8001 7.77978V7.78978Z" fill="white"/>
</svg>
