<?xml version="1.0" encoding="utf-8"?>
<!-- Generator: Adobe Illustrator 27.5.0, SVG Export Plug-In . SVG Version: 6.00 Build 0)  -->
<svg version="1.1" id="Layer_1" xmlns="http://www.w3.org/2000/svg" xmlns:xlink="http://www.w3.org/1999/xlink" x="0px" y="0px"
	 viewBox="0 0 34 34" style="enable-background:new 0 0 34 34;" xml:space="preserve">
<style type="text/css">
	.st0{fill:#1F65D1;}
	.st1{fill:#ED4252;}
	.st2{fill:#9256FF;}
	.st3{fill:#FFFFFF;}
</style>
<g>
	<path class="st2" d="M8.3,21c0.1,0,0.1-0.1,0.2-0.1c2.3-0.9,4.6-1.9,6.8-2.8c0.1,0,0.2,0,0.2,0.1c0.6,0.7,1.4,1,2.3,0.8
		c0.9-0.2,1.4-0.8,1.6-1.7c0.1-0.3,0-0.5,0-0.8c1-0.4,2-0.9,3-1.3c1.3-0.5,2.6-1.1,3.9-1.6c0.2-0.1,0.2,0,0.2,0.1
		c0.8,2.3,0.7,4.5-0.1,6.8c-0.7,2-2.1,3.6-3.8,4.8c-0.6,0.4-1.2,0.7-1.8,0.9c-0.2,0.1-0.4,0.1-0.6,0.1c-0.8,0-1.6,0-2.4,0
		c-0.2,0-0.2,0-0.2-0.2c0-1.4,0-2.8,0-4.2c0-0.2,0.1-0.2,0.2-0.2c0.9-0.1,1.7-0.5,2.4-1.1c0.7-0.6,1.3-1.4,1.5-2.3
		c0.1-0.3,0.1-0.5,0.2-0.8c0-0.3-0.1-0.4-0.3-0.5c-0.2,0-0.4,0.1-0.5,0.3c-0.1,0.5-0.2,1-0.5,1.4c-0.7,1.2-1.7,1.9-3,2
		c-0.4,0-0.9,0-1.3-0.1c-0.6-0.1-1.1-0.4-1.6-0.8c-0.2-0.2-0.5-0.2-0.6,0.1c-0.1,0.2-0.1,0.3,0.1,0.5c0.6,0.5,1.3,0.9,2.1,1
		c0.5,0.1,0.5,0.1,0.5,0.6c0,1.3,0,2.6,0,3.8c0,0.2-0.1,0.2-0.2,0.2c-0.9,0-1.7,0-2.6,0c-0.1,0-0.2,0-0.4-0.1
		c-1.4-0.5-2.6-1.4-3.7-2.5c-0.6-0.7-1.1-1.5-1.6-2.3C8.5,21.2,8.4,21.1,8.3,21z M25.6,16.8c0,0,0-0.1,0-0.1c0-0.1,0-0.2,0-0.3
		c0-0.2-0.1-0.4-0.4-0.4c-0.2,0-0.4,0.1-0.4,0.3c0,0.1,0,0.2,0,0.3c0,0.9-0.1,1.8-0.4,2.6c-0.2,0.7-0.6,1.2-1,1.8
		c-0.2,0.2-0.1,0.5,0.1,0.6c0.2,0.1,0.4,0.1,0.6-0.1c0.3-0.4,0.5-0.8,0.7-1.2C25.3,19.2,25.5,18.1,25.6,16.8z M21.3,23.7
		c0.1,0.1,0.2,0.3,0.3,0.4c0.1,0.1,0.3,0.1,0.5-0.1c0.3-0.3,0.6-0.6,0.8-0.9c0.1-0.2,0.1-0.4-0.1-0.6c-0.2-0.1-0.4-0.1-0.6,0
		c-0.2,0.3-0.5,0.5-0.7,0.8C21.5,23.4,21.4,23.5,21.3,23.7z"/>
	<path class="st2" d="M9.4,10.9c0.3-0.2,0.5-0.5,0.8-0.7c0.4-0.4,0.7-0.7,1.1-1.1c0.1-0.1,0.2-0.1,0.3,0c0.5,0.5,1,0.9,1.7,1.1
		c0.9,0.4,1.7,0.1,2.2-0.8c0.3-0.6,0.4-1.2,0.5-1.8c0-0.2,0-0.3,0-0.5c0.2,0,0.3,0,0.4,0c0.7,0,1.4,0,2.2,0c0.2,0,0.2,0,0.3,0.2
		c0.1,0.5,0.1,1.1,0.2,1.6c0.1,0.5,0.4,0.9,0.8,1.2c0.5,0.3,1,0.4,1.5,0.2C22,10,22.6,9.5,23.1,9c0.1-0.1,0.1-0.1,0.2,0
		c0.2,0.3,0.5,0.5,0.7,0.8c0.4,0.4,0.7,0.8,1.1,1.2c0,0.1-0.1,0.1-0.1,0.2c-0.3,0.5-0.7,0.9-1,1.4c-0.2,0.3-0.2,0.7-0.3,1
		c0,0.1-0.1,0.2-0.2,0.3c-0.7,0.3-1.3,0.5-2,0.8c-0.1,0.1-0.2,0-0.2-0.1c-0.4-0.6-1-1.2-1.6-1.6c-3-1.9-6.6,0.1-7.1,3.3
		c-0.1,0.7-0.1,1.3,0.1,1.9c0,0.1,0,0.2-0.1,0.2c-0.7,0.3-1.3,0.6-2,0.9c-0.1,0-0.2,0-0.2,0c-0.5-0.5-1.2-0.7-1.8-0.8
		c-0.3,0-0.6-0.1-0.9-0.1c-0.2,0-0.2-0.1-0.2-0.2c0-0.8,0-1.6,0-2.5c0-0.2,0.1-0.2,0.2-0.2c0.5-0.1,1-0.1,1.4-0.2
		c0.2,0,0.4-0.1,0.7-0.3c0.9-0.5,1.2-1.1,0.9-2.1c-0.2-0.6-0.6-1.2-1-1.6C9.6,11.1,9.6,11,9.4,10.9z"/>
	<path class="st2" d="M13.4,16.8c0-2.2,1.9-4,4-3.9c1.4,0.1,2.4,0.7,3.2,1.9c0.1,0.1,0.1,0.2-0.1,0.3c-0.4,0.2-0.8,0.3-1.3,0.5
		c-0.1,0.1-0.2,0-0.3-0.1c-0.5-0.5-1-0.8-1.7-0.8c-1.2,0-2.2,1.1-2.1,2.4c0,0.2,0,0.3-0.2,0.4c-0.4,0.1-0.8,0.3-1.1,0.5
		c-0.1,0.1-0.2,0-0.2-0.1C13.5,17.5,13.5,17.1,13.4,16.8z"/>
	<path class="st2" d="M17.3,29.1c1.3,0,2.6,0,3.8,0c0.2,0,0.3,0.1,0.3,0.3c0,0.3,0,0.6,0,0.8c0,0.2-0.1,0.2-0.3,0.2
		c-1.8,0-3.7,0-5.5,0c-0.7,0-1.5,0-2.2,0c-0.2,0-0.2,0-0.2-0.2c0-0.3,0-0.6,0-0.9c0-0.2,0-0.2,0.2-0.2C14.7,29.1,16,29.1,17.3,29.1
		C17.3,29.1,17.3,29.1,17.3,29.1z"/>
	<path class="st2" d="M13.6,31.3c2.5,0,5,0,7.5,0c0,0.1-0.1,0.1-0.1,0.2c-0.1,0.2-0.3,0.5-0.4,0.7c-0.2,0.5-0.5,0.6-1,0.6
		c-1.6,0-3.3,0-4.9,0c-0.2,0-0.2-0.1-0.3-0.2c-0.2-0.3-0.4-0.7-0.6-1C13.6,31.4,13.6,31.4,13.6,31.3z"/>
	<path class="st2" d="M15.9,16.8c0-0.8,0.6-1.4,1.4-1.4c0.8,0,1.4,0.6,1.4,1.4c0,0.7-0.7,1.4-1.4,1.4C16.6,18.2,15.9,17.7,15.9,16.8
		z"/>
	<path class="st2" d="M17.7,28.3c0-0.4,0-0.8,0-1.2c0-0.2,0.1-0.2,0.2-0.2c0.8,0,1.5,0,2.3,0c0.2,0,0.5,0,0.7,0
		c0.3,0,0.5,0.2,0.5,0.5c0,0.2,0,0.4,0,0.7c0,0.1,0,0.2-0.2,0.2c-1.1,0-2.3,0-3.4,0C17.8,28.3,17.8,28.3,17.7,28.3z"/>
	<path class="st2" d="M15.1,28.3c-0.6,0-1.1,0-1.7,0c-0.2,0-0.2,0-0.2-0.2c0-0.2,0-0.4,0-0.6c0-0.4,0.2-0.6,0.6-0.6
		c0.4,0,0.7,0,1.1,0c0.6,0,1.2,0,1.9,0c0.2,0,0.2,0.1,0.2,0.2c0,0.3,0,0.6,0,0.9c0,0.1,0,0.2-0.2,0.2C16.2,28.3,15.6,28.3,15.1,28.3
		C15.1,28.3,15.1,28.3,15.1,28.3z"/>
	<path class="st2" d="M6.4,6.5c0.1-0.1,0.2-0.2,0.3-0.3c0.1-0.1,0.3,0,0.4,0.1c0.6,0.6,1.2,1.2,1.8,1.8c0.2,0.2,0.1,0.3,0,0.5
		C8.7,8.7,8.5,8.7,8.4,8.6c-0.1,0-0.1-0.1-0.2-0.2c-0.5-0.5-1-1-1.5-1.5C6.6,6.8,6.5,6.7,6.4,6.5z"/>
	<path class="st2" d="M3.9,17.5c-0.4,0-0.8,0-1.3,0c-0.2,0-0.4-0.2-0.3-0.4c0-0.2,0.1-0.3,0.3-0.3c0.1,0,0.2,0,0.3,0
		c0.7,0,1.5,0,2.2,0c0.3,0,0.4,0.1,0.5,0.3c0,0.2-0.1,0.4-0.4,0.4C4.7,17.5,4.3,17.5,3.9,17.5C3.9,17.5,3.9,17.5,3.9,17.5z"/>
	<path class="st2" d="M28.2,6.5c-0.1,0.1-0.1,0.2-0.2,0.3c-0.6,0.6-1.1,1.1-1.7,1.7c-0.2,0.2-0.3,0.2-0.5,0c-0.2-0.2-0.2-0.4,0-0.5
		c0.6-0.6,1.2-1.2,1.7-1.7c0.1-0.1,0.3-0.2,0.4-0.1C28.1,6.3,28.1,6.4,28.2,6.5z"/>
	<path class="st2" d="M30.8,17.5c-0.4,0-0.8,0-1.2,0c-0.3,0-0.4-0.1-0.4-0.4c0-0.2,0.1-0.4,0.4-0.4c0.8,0,1.6,0,2.4,0
		c0.2,0,0.4,0.2,0.4,0.4c0,0.2-0.1,0.4-0.4,0.4C31.6,17.5,31.2,17.5,30.8,17.5C30.8,17.5,30.8,17.5,30.8,17.5z"/>
	<path class="st2" d="M17.7,3.3c0,0.4,0,0.8,0,1.2c0,0.3-0.2,0.4-0.4,0.4c-0.2,0-0.3-0.1-0.3-0.3c0-0.1,0-0.3,0-0.4
		c0-0.6,0-1.3,0-1.9c0-0.1,0-0.2,0-0.3c0-0.2,0.1-0.3,0.3-0.3c0.2,0,0.3,0.1,0.4,0.3c0,0.1,0,0.2,0,0.2C17.7,2.6,17.7,3,17.7,3.3
		C17.7,3.3,17.7,3.3,17.7,3.3z"/>
</g>
</svg>
