<?xml version="1.0" encoding="utf-8"?>
<!-- Generator: Adobe Illustrator 27.7.0, SVG Export Plug-In . SVG Version: 6.00 Build 0)  -->
<svg version="1.1" id="Layer_1" xmlns="http://www.w3.org/2000/svg" xmlns:xlink="http://www.w3.org/1999/xlink" x="0px" y="0px"
	 viewBox="0 0 150 150" style="enable-background:new 0 0 150 150;" xml:space="preserve">
<style type="text/css">
	.st0{fill:#FFFFFF;}
</style>
<path class="st0" d="M112.7,20H37.3c-7.9,0-14.3,6.4-14.3,14.3v81.3c0,7.9,6.4,14.3,14.3,14.3h75.5c7.9,0,14.3-6.4,14.3-14.3V34.3
	C127.1,26.4,120.6,20,112.7,20L112.7,20z M60.4,72.7V47.1C72.9,49,82.6,59.7,82.6,72.7c0,14.4-11.7,26-26,26
	c-5.8,0-11.1-1.9-15.4-5.1l18.1-18.1C60,74.8,60.4,73.8,60.4,72.7L60.4,72.7z M52.6,47.1v24l-17,17c-3.2-4.3-5.1-9.6-5.1-15.4
	C30.5,59.7,40.1,49,52.6,47.1L52.6,47.1z M115.6,115.7H34.7c-2.2,0-3.9-1.7-3.9-3.9c0-2.2,1.7-3.9,3.9-3.9h80.9
	c2.2,0,3.9,1.7,3.9,3.9C119.5,113.9,117.7,115.7,115.6,115.7L115.6,115.7z M115.4,98.7H94.1c-2.2,0-3.9-1.7-3.9-3.9
	c0-2.2,1.7-3.9,3.9-3.9h21.4c2.2,0,3.9,1.7,3.9,3.9C119.4,97,117.6,98.7,115.4,98.7L115.4,98.7z M115.4,84.4H94.1
	c-2.2,0-3.9-1.7-3.9-3.9c0-2.2,1.7-3.9,3.9-3.9h21.4c2.2,0,3.9,1.7,3.9,3.9C119.4,82.7,117.6,84.4,115.4,84.4L115.4,84.4z
	 M115.4,68.8H94.1c-2.2,0-3.9-1.7-3.9-3.9c0-2.2,1.7-3.9,3.9-3.9h21.4c2.2,0,3.9,1.7,3.9,3.9C119.4,67.1,117.6,68.8,115.4,68.8
	L115.4,68.8z M115.4,54.5H94.1c-2.2,0-3.9-1.7-3.9-3.9c0-2.2,1.7-3.9,3.9-3.9h21.4c2.2,0,3.9,1.7,3.9,3.9
	C119.4,52.8,117.6,54.5,115.4,54.5L115.4,54.5z"/>
</svg>
