<?xml version="1.0" encoding="UTF-8"?>
<svg id="Layer_11" data-name="Layer 11" xmlns="http://www.w3.org/2000/svg" viewBox="0 0 90 90">
  <defs>
    <style>
      .cls-1 {
        fill: none;
      }

      .cls-1, .cls-2 {
        stroke-width: 0px;
      }

      .cls-2 {
        fill: #fff;
      }
    </style>
  </defs>
  <rect class="cls-1" x="9.27" y="9.27" width="71.46" height="71.46"/>
  <g>
    <path class="cls-2" d="m71.8,33.09c-4.32,0-6.73,4.29-5.75,7.47l-10.57,10.6c-.89-.27-2.2-.27-3.1,0l-7.59-7.59c1.01-3.19-1.4-7.5-5.75-7.5s-6.76,4.29-5.75,7.5l-13.58,13.55c-3.19-.98-7.47,1.43-7.47,5.75,0,3.28,2.68,5.96,5.96,5.96,4.32,0,6.73-4.29,5.75-7.47l13.55-13.58c.89.27,2.2.27,3.1,0l7.59,7.59c-1.01,3.19,1.4,7.5,5.75,7.5s6.76-4.29,5.75-7.5l10.6-10.57c3.19.98,7.47-1.43,7.47-5.75,0-3.28-2.68-5.96-5.96-5.96Z"/>
    <polygon class="cls-2" points="53.93 36.07 56.73 29.9 62.87 27.13 56.73 24.36 53.93 18.2 51.19 24.36 45 27.13 51.19 29.9 53.93 36.07"/>
    <polygon class="cls-2" points="19.69 42.02 21.18 36.07 27.13 34.58 21.18 33.09 19.69 27.13 18.2 33.09 12.25 34.58 18.2 36.07 19.69 42.02"/>
  </g>
</svg>