<?xml version="1.0" encoding="UTF-8"?>
<svg id="Layer_1" data-name="Layer 1" xmlns="http://www.w3.org/2000/svg" viewBox="0 0 50 50">
  <defs>
    <style>
      .cls-1 {
        fill: #fff;
        stroke-width: 0px;
      }
    </style>
  </defs>
  <path class="cls-1" d="m29.56,32.02c-.82-.84-1.61-1.65-2.42-2.45-1.6-1.59-3.53-1.8-5.45-.6-2.33,1.46-4.67,2.91-6.98,4.4-.4.26-.7.26-1.11.05-5.12-2.67-8-6.86-8.55-12.61-.73-7.61,4.45-14.57,11.81-16.31,8.13-1.92,16.31,2.84,18.47,10.9,1.69,6.32-.15,11.69-5.02,16.04-.22.19-.46.36-.74.58Zm-7.74-18.84c0-.31,0-.56,0-.8,0-1.27-.5-1.95-1.41-1.93-.9.02-1.35.63-1.31,1.91.02.6-.12.9-.74,1.11-1.62.57-2.66,2.26-2.47,3.84.23,1.94,1.45,3.26,3.32,3.52.56.08,1.13.07,1.7.09.85.03,1.33.43,1.34,1.12,0,.69-.49,1.12-1.33,1.13-1.16.01-2.32-.01-3.48,0-.95.01-1.56.57-1.56,1.37,0,.79.61,1.34,1.55,1.35.54,0,1.07,0,1.66,0,0,.33,0,.56,0,.78,0,.25,0,.5.02.75.08.73.6,1.19,1.33,1.19.88,0,1.41-.62,1.36-1.74-.03-.68.08-1.06.84-1.33,1.66-.59,2.6-2.42,2.29-4.13-.33-1.83-1.74-3.11-3.55-3.21-.48-.03-.96,0-1.43-.02-.83-.03-1.33-.48-1.34-1.16,0-.68.52-1.13,1.34-1.13,1.18,0,2.37,0,3.55,0,.88-.01,1.48-.58,1.48-1.36,0-.78-.6-1.34-1.48-1.36-.54-.01-1.08,0-1.69,0Z"/>
  <path class="cls-1" d="m31.31,36.95c2.5-2.5,4.94-4.94,7.47-7.48-.67-.65-1.38-1.35-2.1-2.03-.65-.62-.97-1.33-.62-2.2.36-.87,1.08-1.15,1.98-1.14,2.23.02,4.46,0,6.69,0,1.4,0,2.11.7,2.11,2.08,0,2.25,0,4.5,0,6.76,0,.88-.28,1.58-1.11,1.93-.86.37-1.59.08-2.21-.58-.69-.72-1.39-1.42-2.11-2.16-.25.24-.43.4-.6.58-2.62,2.62-5.24,5.24-7.87,7.86-1.12,1.12-2.05,1.12-3.16,0-1.97-1.98-3.94-3.96-5.95-5.98-.51.31-.99.6-1.47.9-5.41,3.35-10.82,6.7-16.23,10.04-1.13.7-2.35.41-2.84-.65-.41-.9-.07-1.83.9-2.43,3.3-2.05,6.61-4.09,9.91-6.13,2.82-1.75,5.64-3.49,8.46-5.24,1.46-.9,2.05-.84,3.28.4,1.81,1.82,3.63,3.64,5.45,5.46Z"/>
</svg>