<?xml version="1.0" encoding="UTF-8"?>
<svg id="Layer_10" data-name="Layer 10" xmlns="http://www.w3.org/2000/svg" viewBox="0 0 90 90">
  <defs>
    <style>
      .cls-1 {
        fill: #fff;
        stroke-width: 0px;
      }
    </style>
  </defs>
  <path class="cls-1" d="m44.96,71.15c-5.21,0-10.41,0-15.62,0-2.93,0-4.42-1.46-4.43-4.37-.01-4.42-.04-8.85.02-13.27.02-1.17.16-2.4.53-3.5,1.15-3.36,3.55-5.3,7.08-5.81,1.24-.18,2.49-.36,3.73-.59.9-.17,1.37.15,1.68,1.02,1.9,5.31,3.86,10.6,5.79,15.9.23.62.41,1.28,1.22,1.31.88.03,1.08-.66,1.32-1.31,1.89-5.21,3.79-10.41,5.69-15.61.51-1.41.63-1.47,2.08-1.23,1.31.22,2.62.39,3.92.65,3.95.78,6.96,4.12,7.07,8.14.13,4.97.09,9.94.03,14.91-.03,2.32-1.67,3.76-4.07,3.77-5.34.01-10.69,0-16.03,0Z"/>
  <path class="cls-1" d="m34.68,29.17c0-5.69,4.65-10.33,10.34-10.32,5.65.01,10.24,4.59,10.29,10.26.05,5.67-4.6,10.36-10.28,10.37-5.7.01-10.34-4.61-10.34-10.31Z"/>
  <path class="cls-1" d="m44.65,42.88c.81,0,1.33-.05,1.83.01,1.01.13,1.61,1.13.96,1.84-1.76,1.88-1.34,4.03-.9,6.12.42,1.98-.5,3.58-1.12,5.27-.2.55-.64.53-.85-.02-.65-1.73-1.61-3.37-1.08-5.37.28-1.04.33-2.15.38-3.24.02-.42-.26-.86-.41-1.29-.03-.09-.12-.17-.16-.26-.39-.75-1.31-1.35-.8-2.36.54-1.08,1.61-.62,2.17-.7Z"/>
</svg>