<?xml version="1.0" encoding="UTF-8"?>
<svg id="Layer_1" data-name="Layer 1" xmlns="http://www.w3.org/2000/svg" viewBox="0 0 50 50">
  <defs>
    <style>
      .cls-1 {
        fill: #fff;
        stroke-width: 0px;
      }
    </style>
  </defs>
  <path class="cls-1" d="m14.74,36.25c.76.18,1.37.29,1.96.46,3.89,1.13,6.79,5,6.79,9.05,0,1-.47,1.51-1.48,1.51-5.47,0-10.95,0-16.42,0-.99,0-1.47-.52-1.47-1.53.01-4.47,3.55-8.6,7.97-9.31.22-.03.44-.08.77-.15-3.56-1.34-5.14-3.72-4.55-6.68.51-2.56,2.91-4.66,5.86-4.49,2.49.14,4.8,2.19,5.13,4.68.41,3.1-1.19,5.42-4.58,6.47Z"/>
  <path class="cls-1" d="m37.17,36.26c.63.15,1.19.27,1.73.42,3.99,1.15,6.83,4.78,6.97,8.91.04,1.16-.45,1.68-1.6,1.68-5.38,0-10.76,0-16.14,0-1.19,0-1.63-.45-1.61-1.65.06-4.46,3.57-8.51,7.99-9.2.2-.03.4-.08.61-.17-1.52-.43-2.77-1.21-3.63-2.55-.86-1.34-1.12-2.8-.75-4.33.61-2.53,2.97-4.46,5.9-4.27,2.44.16,4.67,2.17,5.06,4.69.46,2.94-1.11,5.2-4.53,6.46Z"/>
  <path class="cls-1" d="m40.29,7.17c0-2.73-1.71-4.43-4.42-4.43-3.62,0-7.23,0-10.85,0-3.71,0-7.42-.01-11.13,0-2.35.01-4.13,1.71-4.16,4.05-.05,3.76-.05,7.51,0,11.27.03,2.34,1.82,4.03,4.16,4.04,1.92.01,3.85.03,5.77-.01.56-.01.81.19,1.04.66.96,1.98,1.96,3.94,2.93,5.91.29.58.6,1.1,1.36,1.11.8,0,1.11-.54,1.41-1.14.97-1.97,1.97-3.93,2.93-5.91.22-.45.46-.64.99-.63,1.85.04,3.71-.06,5.56.03,2.25.11,4.47-1.61,4.43-4.45-.05-3.5,0-7-.01-10.5Zm-12.67,1.14l.87-.93c.12-.13.32-.13.45-.01.13.12.13.32.01.45l-.87.93c-.12.13-.32.13-.45.01-.13-.12-.13-.32-.01-.45Zm-1.84-1.98c.17,0,.32.13.33.31l.04,1.28c0,.17-.13.32-.31.33s-.32-.13-.33-.31l-.04-1.28c0-.17.13-.32.31-.33Zm-2.97,1.48c.12-.13.32-.13.45-.01l.93.87c.13.12.13.32.01.45-.12.13-.32.13-.45.01l-.93-.87c-.13-.12-.13-.32-.01-.45Zm3.11,4.4l.23.23s.02.03.03.04c.25.35.22.66.04.94.03.01.06.03.09.05l.23.23s.02.03.03.04c.27.38.21.71,0,1.01,0,0,.02.01.03.02l.23.23s.02.03.03.04c.53.72-.1,1.33-.6,1.82l-.13.13-.56.59-.02.02c-.51.47-1.02.59-1.61.74-.1.02-.2.05-.34.09,0,0,0,0,0,0-.32.09-.61.11-.87.06-.26-.05-.49-.17-.68-.35l-1.97-1.96c-.2-.19-.27-.43-.21-.71.04-.22.17-.47.38-.74l.53-2.97h0c.02-.18.08-.43.17-.67.07-.18.17-.36.29-.5.15-.17.3-.27.44-.33.18-.07.35-.06.5,0,.14.06.26.17.35.31.11.17.18.38.2.6.02.18.05.48.08.77l.02.24,2.27-2.27c.44-.44.91-.52,1.29-.4.15.05.29.13.4.24.11.11.19.24.24.4.12.38.04.86-.39,1.28l-.75.75s.03.02.04.03Zm2.92,1.25c-.12.13-.32.13-.45.01l-.93-.87c-.13-.12-.13-.32-.01-.45.12-.13.32-.13.45-.01l.93.87c.13.12.13.32.01.45Zm1.03-2.78l-1.28.04c-.17,0-.32-.13-.33-.31,0-.17.13-.32.31-.33l1.28-.04c.17,0,.32.13.33.31,0,.17-.13.32-.31.33Z"/>
</svg>