<?xml version="1.0" encoding="utf-8"?>
<!-- Generator: Adobe Illustrator 27.7.0, SVG Export Plug-In . SVG Version: 6.00 Build 0)  -->
<svg version="1.1" id="Layer_1" xmlns="http://www.w3.org/2000/svg" xmlns:xlink="http://www.w3.org/1999/xlink" x="0px" y="0px"
	 viewBox="0 0 24 24" style="enable-background:new 0 0 24 24;" xml:space="preserve">
<style type="text/css">
	.st0{fill:#FFFFFF;}
</style>
<g>
	<path class="st0" d="M11.8,14.6c-0.1,0-0.2-0.1-0.3-0.1c-0.8-0.2-1.4-0.9-1.5-1.7c-0.1-0.9,0.3-1.8,1.1-2.2c1.1-0.5,2.4,0,2.8,1.1
		c0.5,1.3-0.3,2.6-1.6,2.8c0,0-0.1,0-0.1,0c0.1,0,0.1,0,0.2,0c0.7,0,1.3,0.2,1.8,0.6c0.8,0.6,1.2,1.4,1.2,2.4c0,0.4,0,0.7,0,1.1
		c0,0.4-0.1,0.8-0.5,1c-0.2,0.1-0.5,0.2-0.7,0.2c-1.5,0-3,0-4.4,0c-0.6,0-1-0.3-1.1-0.8c0-0.1,0-0.2,0-0.4c0-0.3,0-0.7,0-1
		c0-0.7,0.3-1.4,0.7-2c0.5-0.5,1-0.9,1.7-1C11.3,14.7,11.5,14.6,11.8,14.6C11.7,14.7,11.7,14.7,11.8,14.6z"/>
	<path class="st0" d="M16.3,14.2c-1-0.1-1.6-1.1-1.4-2c0.2-0.9,1-1.5,1.8-1.4c1,0.1,1.6,1,1.6,1.8c0,0.9-0.8,1.5-1.5,1.6
		c0.1,0,0.1,0,0.2,0c0.5,0,1,0.1,1.4,0.4c0.7,0.5,1.2,1.2,1.2,2.1c0,0.3,0,0.7,0,1.1c0,0.5-0.5,0.9-1,1c-0.1,0-0.3,0-0.4,0
		c-0.6,0-1.3,0-1.9,0c-0.1,0-0.1,0-0.1-0.1c0-0.4,0-0.8,0-1.2c0-0.5-0.1-0.9-0.3-1.4c-0.2-0.5-0.6-1-1-1.4c-0.1-0.1,0-0.1,0-0.1
		c0.4-0.2,0.8-0.4,1.2-0.4C16.1,14.3,16.1,14.3,16.3,14.2C16.2,14.3,16.3,14.2,16.3,14.2z"/>
	<path class="st0" d="M7.7,14.2c0.1,0.1,0.3,0.1,0.4,0.1c0.4,0,0.8,0.2,1.1,0.4c0.1,0,0.1,0.1,0,0.1c-0.8,0.7-1.2,1.5-1.3,2.5
		c0,0.2,0,0.5,0,0.8c0,0.2,0,0.5,0,0.7c0,0.1,0,0.1-0.1,0.1c-0.7,0-1.4,0-2.1,0c-0.7,0-1-0.4-1.1-0.8c0-0.1,0-0.1,0-0.2
		c0-0.5-0.1-1.1,0.1-1.6c0.2-0.8,0.7-1.3,1.4-1.7c0.3-0.2,0.7-0.2,1.1-0.3c0,0,0.1,0,0.1,0c-0.5-0.1-0.9-0.3-1.2-0.7
		c-0.3-0.4-0.4-0.9-0.2-1.4c0.2-0.8,1.1-1.4,1.9-1.2c0.8,0.1,1.5,0.9,1.4,1.8C9.1,13.5,8.4,14.2,7.7,14.2z"/>
	<path class="st0" d="M10.3,7.8c0-0.2,0-0.4,0-0.5c0-0.1,0-0.1-0.1-0.2c-0.2-0.3-0.4-0.5-0.6-0.8C9.6,6.2,9.5,6.1,9.5,6
		c0-0.2,0.1-0.3,0.3-0.4c0.2-0.1,0.4-0.1,0.5-0.2c0.2,0,0.3-0.1,0.5-0.1C11,5.2,11,5.2,11,5.1c0.2-0.3,0.4-0.5,0.6-0.8
		c0.1-0.1,0.1-0.2,0.2-0.2c0.2-0.1,0.4,0,0.6,0.2c0.1,0.1,0.2,0.3,0.3,0.4C12.8,4.8,12.9,5,13,5.1c0,0.1,0.1,0.1,0.2,0.1
		c0.3,0.1,0.6,0.2,1,0.3c0.1,0,0.2,0.1,0.3,0.2c0.1,0.2,0.1,0.4,0,0.5c-0.2,0.2-0.3,0.4-0.5,0.6c-0.2,0.2-0.2,0.4-0.2,0.6
		c0,0.3,0,0.5,0,0.8c0,0.3-0.3,0.6-0.6,0.5c-0.3-0.1-0.6-0.2-0.9-0.3c-0.1,0-0.2,0-0.3,0c-0.3,0.1-0.6,0.2-0.9,0.3
		c-0.2,0.1-0.4,0-0.5-0.1c-0.1-0.1-0.1-0.2-0.1-0.3C10.3,8.2,10.3,8,10.3,7.8z"/>
	<path class="st0" d="M16.1,8.7c0-0.1,0-0.3,0-0.4c0-0.1,0-0.1,0-0.1c-0.2-0.2-0.3-0.4-0.5-0.6c-0.1-0.1-0.1-0.2-0.1-0.3
		c0-0.2,0.1-0.3,0.3-0.3c0.2-0.1,0.4-0.1,0.6-0.2c0.2,0,0.3-0.1,0.5-0.3C16.9,6.1,17,6,17.1,5.8c0.2-0.3,0.5-0.3,0.7,0
		C18,6,18.1,6.3,18.3,6.5c0,0.1,0.1,0.1,0.2,0.1c0.3,0.1,0.5,0.2,0.8,0.2c0.1,0,0.1,0,0.2,0.1c0.2,0.1,0.2,0.3,0.1,0.5
		c-0.2,0.3-0.4,0.5-0.6,0.7c0,0,0,0.1,0,0.1c0,0.3,0,0.6,0,0.9c0,0.2-0.1,0.3-0.3,0.4c-0.1,0-0.2,0-0.3,0c-0.3-0.1-0.5-0.2-0.8-0.3
		c-0.1,0-0.1,0-0.2,0c-0.2,0.1-0.5,0.2-0.7,0.3c0,0,0,0-0.1,0C16.3,9.7,16,9.5,16,9.1C16,9,16,8.8,16.1,8.7
		C16,8.7,16.1,8.7,16.1,8.7z"/>
	<path class="st0" d="M6.5,5.6c0.2,0,0.3,0.1,0.3,0.2C7,6,7.2,6.2,7.3,6.5c0.1,0.1,0.1,0.1,0.2,0.2C7.8,6.7,8,6.7,8.2,6.8
		C8.4,6.9,8.6,7,8.6,7.2c0,0.1,0,0.2-0.1,0.3C8.3,7.7,8.2,7.9,8,8.1C7.9,8.2,7.9,8.2,7.9,8.3c0,0.3,0,0.5,0,0.8
		c0,0.2-0.1,0.4-0.3,0.4c-0.1,0-0.2,0-0.3,0C7.1,9.5,6.9,9.4,6.6,9.3c-0.1,0-0.1,0-0.2,0C6.2,9.4,5.9,9.4,5.7,9.5
		c-0.1,0-0.1,0.1-0.2,0.1c-0.2,0-0.4-0.2-0.4-0.4c0-0.3,0-0.5,0-0.8c0-0.1,0-0.2-0.1-0.3C4.9,7.9,4.7,7.6,4.5,7.4
		C4.4,7.2,4.5,6.9,4.7,6.9c0,0,0.1,0,0.1,0c0.3-0.1,0.5-0.2,0.8-0.2c0.1,0,0.1,0,0.1-0.1C5.9,6.3,6,6,6.2,5.8
		C6.3,5.7,6.4,5.6,6.5,5.6z"/>
</g>
</svg>
