<?xml version="1.0" encoding="UTF-8"?>
<svg id="Layer_15" data-name="Layer 15" xmlns="http://www.w3.org/2000/svg" viewBox="0 0 90 90">
  <defs>
    <style>
      .cls-1 {
        fill: #fff;
        stroke-width: 0px;
      }
    </style>
  </defs>
  <g id="Layer_16" data-name="Layer 16">
    <g>
      <path class="cls-1" d="m36.24,56.33c-2.54-4.39-5.06-8.76-7.63-13.21.72-.63,1.43-1.23,2.13-1.86,4.69-4.21,8.7-8.95,11.26-14.77.22-.49.25-1.13.17-1.67-.3-1.91.58-3.68,2.28-4.37,1.77-.72,3.69-.12,4.72,1.61,1.66,2.78,3.25,5.6,4.87,8.4.21.37.43.73.64,1.08,3.27-1.28,5.52-.74,6.77,1.58,1.21,2.25.47,4.46-2.18,6.38,1.81,3.14,3.65,6.26,5.42,9.43,1.34,2.39.18,5.1-2.39,5.7-1.29.31-2.39-.11-3.42-.9-.41-.31-.94-.58-1.44-.64-6.82-.78-13.36.51-19.77,2.75-.44.15-.88.3-1.43.49Z"/>
      <path class="cls-1" d="m26.29,43.83c2.76,4.79,5.44,9.42,8.17,14.15-2.5,1.4-4.83,2.91-7.32,4.07-3.76,1.75-8.3.1-10.3-3.54-1.98-3.6-.99-8.23,2.42-10.53,2.22-1.49,4.6-2.73,7.03-4.15Z"/>
      <path class="cls-1" d="m30.73,62.84c1.72-.99,3.38-1.95,5.13-2.96,1.92,2.51,3.84,4.95,5.68,7.46.57.78.33,1.65-.44,2.19-1.1.78-1.73,2.58-3.6,1.81-.24-.1-.44-.33-.61-.54-2.03-2.61-4.05-5.23-6.16-7.95Z"/>
      <path class="cls-1" d="m61.12,18.48c1.49.02,2.32,1.27,1.75,2.36-.93,1.78-1.94,3.52-3.01,5.22-.5.8-1.35.98-2.18.45-.81-.51-1.07-1.29-.6-2.15.95-1.73,1.92-3.44,2.96-5.11.26-.41.84-.62,1.08-.78Z"/>
      <path class="cls-1" d="m69.63,41.05c-.91,0-1.81.03-2.72,0-1.14-.04-1.78-.65-1.76-1.63.02-1.05.65-1.63,1.63-1.66,1.93-.06,3.86-.06,5.79,0,.99.04,1.63.67,1.59,1.7-.04,1.01-.67,1.56-1.7,1.59-.94.02-1.89,0-2.84,0Z"/>
      <path class="cls-1" d="m72.14,28.08c-.18.23-.46.84-.93,1.14-1.46.94-2.98,1.78-4.5,2.62-.95.52-1.91.26-2.37-.54-.46-.8-.2-1.79.7-2.34,1.52-.92,3.05-1.82,4.62-2.65,1.18-.62,2.44.13,2.48,1.77Z"/>
    </g>
  </g>
</svg>