<?xml version="1.0" encoding="UTF-8"?>
<svg id="Layer_1" data-name="Layer 1" xmlns="http://www.w3.org/2000/svg" viewBox="0 0 50 50">
  <defs>
    <style>
      .cls-1 {
        fill: #fff;
        stroke-width: 0px;
      }
    </style>
  </defs>
  <path class="cls-1" d="m44.04,18.13c-.21.66-.35,1.36-.66,1.97-2.21,4.44-1.76,3.05-1.31,7.67.18,1.91-.63,3.46-2.36,4.25-.88.4-1.82.68-2.64,1.17-.74.44-1.43,1.02-1.99,1.67-.61.7-1.04,1.56-1.57,2.34-1.1,1.62-2.79,2.2-4.65,1.64-.4-.12-.82-.2-1.19-.37-2.23-1.07-4.36-.39-6.51.31-2.1.68-3.71.08-4.93-1.77-2.55-3.86-1.61-3.03-5.85-4.89-1.94-.85-2.8-2.34-2.56-4.42.06-.54.09-1.09.2-1.63.33-1.64,0-3.12-.81-4.58-.55-1.01-.97-2.13-1.2-3.25-.25-1.2.34-2.23,1.22-3.07.62-.6,1.23-1.21,1.88-1.77.87-.75,1.36-1.68,1.59-2.8.16-.82.36-1.63.57-2.43.46-1.83,1.87-2.98,3.76-3.09.89-.05,1.79.01,2.65-.16.87-.17,1.75-.47,2.53-.9.84-.46,1.55-1.14,2.34-1.7,1.55-1.1,3.25-1.1,4.8,0,.77.54,1.52,1.11,2.26,1.69.81.64,1.74.91,2.76.95.83.03,1.67.08,2.5.13,1.92.11,3.32,1.27,3.78,3.16.23.96.37,1.96.72,2.87.29.75.74,1.48,1.26,2.1.62.73,1.4,1.33,2.08,2.01.86.85,1.21,1.7,1.34,2.91ZM24.99,7.54c-7.02-.06-12.72,5.6-12.76,12.68-.05,7,5.54,12.64,12.48,12.8,6.94.16,12.96-5.57,12.97-12.64.01-7.08-5.57-12.79-12.69-12.85Z"/>
  <path class="cls-1" d="m12.65,34.77c.29.31.6.58.83.9.54.77,1.03,1.57,1.55,2.35,1.3,1.92,3.09,2.8,5.42,2.53.15-.02.3,0,.55,0-.85,1.83-1.66,3.6-2.48,5.37-.32.69-.63,1.37-.97,2.05-.1.19-.28.34-.43.52-.18-.16-.42-.29-.54-.49-.75-1.25-1.51-2.5-2.19-3.79-.28-.52-.61-.6-1.13-.51-1.48.28-2.97.53-4.46.78-.55.09-.73-.11-.47-.66,1.37-2.92,2.73-5.86,4.09-8.78.03-.06.1-.11.24-.25Z"/>
  <path class="cls-1" d="m28.98,40.67c.92-.1,1.86-.11,2.75-.31,1.3-.29,2.28-1.11,3.03-2.2.54-.8,1.05-1.62,1.6-2.41.24-.35.56-.64.95-1.07.27.57.46.98.66,1.4,1.18,2.53,2.36,5.05,3.54,7.58.34.73.23.91-.56.79-1.41-.22-2.82-.47-4.23-.74-.57-.11-.94-.04-1.25.55-.67,1.29-1.44,2.54-2.19,3.79-.35.58-.61.61-.86.07-1.15-2.45-2.28-4.91-3.42-7.37-.02-.04,0-.1,0-.07Z"/>
  <path class="cls-1" d="m24.83,15.92c1.13-.54,2.17-1.21,3.3-1.56,2.83-.85,5.9,1.55,5.18,5.24-.31,1.62-1.27,2.89-2.36,4.08-1.62,1.76-3.52,3.18-5.56,4.41-.21.12-.59.18-.77.07-2.8-1.71-5.42-3.63-7.2-6.47-.93-1.48-1.27-3.07-.65-4.77.84-2.29,3.41-3.36,5.82-2.33.85.36,1.6.94,2.25,1.33Z"/>
</svg>