<?xml version="1.0" encoding="UTF-8"?>
<svg id="Layer_6" data-name="Layer 6" xmlns="http://www.w3.org/2000/svg" viewBox="0 0 90 90">
  <defs>
    <style>
      .cls-1 {
        fill: #fff;
        stroke-width: 0px;
      }
    </style>
  </defs>
  <path class="cls-1" d="m22.9,45.02c0,1.34.14,2.56-.05,3.72-.12.73-.58,1.61-1.17,2.02-.78.55-1.7.17-2.39-.53-2.54-2.54-5.1-5.07-7.62-7.63-1.06-1.08-1.06-2.06,0-3.15,2.52-2.56,5.08-5.09,7.62-7.63.7-.7,1.63-1.09,2.39-.53.6.45,1.04,1.37,1.18,2.15.2,1.11.05,2.28.05,3.59,3.23,0,6.37-.13,9.5.05,2.14.12,4.36.39,6.36,1.1,5.95,2.1,10.11,7.96,10.19,14.27.1,8.12.04,16.24.03,24.36,0,1.55-.75,2.26-2.3,2.29-1.06.02-2.13.01-3.19,0-1.79-.02-2.49-.71-2.49-2.51,0-7.68,0-15.35,0-23.03,0-5.22-3.35-8.53-8.59-8.54-2.71,0-5.41,0-8.12,0-.4,0-.79,0-1.39,0Z"/>
  <path class="cls-1" d="m67.1,36.92c0-1.26.01-2.41,0-3.56-.01-.98.31-1.91,1.27-2.09.71-.13,1.76.07,2.26.55,2.65,2.48,5.2,5.08,7.75,7.68,1,1.02,1,2.03,0,3.05-2.54,2.6-5.09,5.2-7.75,7.68-.51.47-1.55.68-2.26.55-.96-.17-1.28-1.11-1.27-2.08.01-1.15,0-2.3,0-3.59-.41-.03-.79-.08-1.17-.08-2.57,0-5.15.04-7.72-.02-2.24-.05-4.32.34-6.07,1.71-1.32-2.32-2.63-4.6-3.97-6.96,5.69-4.19,12.44-2.22,18.93-2.84Z"/>
  <path class="cls-1" d="m41,22.92c-1.32,0-2.53.14-3.68-.05-.74-.12-1.78-.57-2-1.13-.25-.64,0-1.83.49-2.35,2.47-2.66,5.07-5.2,7.67-7.74,1.02-1,2.02-1,3.05,0,2.59,2.54,5.2,5.08,7.67,7.74.49.52.73,1.71.48,2.35-.22.57-1.26,1.01-2,1.13-1.16.19-2.36.05-3.68.05,0,3.52-.04,6.92.02,10.32.02,1.04-.38,1.51-1.2,2.17-1.99,1.59-3.64,1.58-5.64,0-.82-.66-1.22-1.14-1.2-2.17.06-3.37.02-6.73.02-10.32Z"/>
</svg>