<?xml version="1.0" encoding="utf-8"?>
<!-- Generator: Adobe Illustrator 27.5.0, SVG Export Plug-In . SVG Version: 6.00 Build 0)  -->
<svg version="1.1" id="Layer_1" xmlns="http://www.w3.org/2000/svg" xmlns:xlink="http://www.w3.org/1999/xlink" x="0px" y="0px"
	 viewBox="0 0 34 34" style="enable-background:new 0 0 34 34;" xml:space="preserve">
<style type="text/css">
	.st0{fill:#1F65D1;}
	.st1{fill:#ED4252;}
	.st2{fill:#9256FF;}
	.st3{fill:#FFFFFF;}
</style>
<g>
	<path class="st3" d="M24.2,22.4c0-2.5,0-5,0-7.5c0,0,0-0.1,0-0.1c0-0.4,0.2-0.5,0.5-0.5c1.2,0,2.5,0,3.7,0c0.4,0,0.5,0.2,0.5,0.5
		c0,0.3,0,0.6,0,0.9c0,4.8,0,9.6,0,14.4c0,0.4-0.2,0.6-0.6,0.6c-1.2,0-2.4,0-3.7,0c-0.4,0-0.5-0.2-0.5-0.5
		C24.2,27.5,24.2,25,24.2,22.4z"/>
	<path class="st3" d="M21.8,23.9c0,2.1,0,4.1,0,6.2c0,0.4-0.2,0.6-0.6,0.6c-1.2,0-2.4,0-3.7,0c-0.4,0-0.5-0.2-0.5-0.5
		c0-4.1,0-8.2,0-12.4c0-0.4,0.2-0.6,0.5-0.6c1.2,0,2.5,0,3.7,0c0.4,0,0.5,0.2,0.5,0.5c0,0.1,0,0.3,0,0.4C21.8,20,21.8,22,21.8,23.9
		C21.8,23.9,21.8,23.9,21.8,23.9z"/>
	<path class="st3" d="M15.2,11.4c-0.2-0.4-0.4-0.8-0.6-1.2c0-0.1-0.1-0.2-0.1-0.2c-0.1-0.3,0.2-0.6,0.5-0.5c0.5,0.1,1.1,0.2,1.6,0.4
		c0.8,0.2,1.6,0.4,2.5,0.5c0.3,0.1,0.6,0.1,0.9,0.2c0.3,0.1,0.4,0.3,0.3,0.6c-0.2,0.4-0.3,0.8-0.5,1.2c-0.5,1.1-1,2.2-1.5,3.4
		c0,0.1,0,0.1-0.1,0.2c-0.2,0.3-0.6,0.4-0.8,0c-0.2-0.3-0.3-0.6-0.5-0.9c-0.1-0.1-0.1-0.3-0.2-0.4c0-0.1-0.1-0.1-0.2-0.1
		c-0.5,0.3-1,0.5-1.4,0.8c-2.6,1.3-5.3,2.7-7.9,4c0,0-0.1,0-0.1,0.1c-0.3,0.1-0.5,0.1-0.7-0.2c-0.2-0.4-0.5-0.9-0.7-1.3
		c-0.1-0.3-0.3-0.5-0.4-0.8c-0.2-0.4-0.1-0.5,0.2-0.7c0.8-0.4,1.6-0.8,2.4-1.3c2.3-1.2,4.6-2.4,7-3.6C15.1,11.5,15.1,11.4,15.2,11.4
		z"/>
	<path class="st3" d="M26.6,3.4c2.8,0,4.8,2.4,4.7,4.9c-0.1,2.7-2.2,4.6-4.8,4.7c-2.5,0-4.8-2-4.8-4.8C21.8,5.6,23.9,3.4,26.6,3.4z
		 M26.1,10.1c-0.2-0.1-0.4-0.3-0.4-0.5c0-0.1,0-0.2,0-0.3c-0.1-0.2-0.3-0.3-0.5-0.3c-0.2,0-0.4,0.2-0.4,0.4c0,0.7,0.5,1.4,1.2,1.6
		c0.1,0,0.1,0.1,0.1,0.2c0,0.1,0,0.2,0,0.3c0,0.2,0.2,0.4,0.4,0.4c0.2,0,0.4-0.1,0.4-0.4c0-0.1,0-0.2,0-0.3c0-0.1,0-0.1,0.1-0.2
		c0.1,0,0.2-0.1,0.3-0.1c0.8-0.4,1.2-1.5,0.7-2.3c-0.2-0.4-0.6-0.6-1-0.8C27,7.8,27,7.8,27,7.7c0-0.4,0-0.8,0-1.2c0,0,0-0.1,0-0.1
		c0.2,0.1,0.3,0.3,0.4,0.5c0,0.1,0,0.2,0.1,0.3c0,0.2,0.2,0.3,0.4,0.3c0.2,0,0.4-0.2,0.4-0.4c0-0.3,0-0.6-0.2-0.8
		c-0.2-0.4-0.6-0.7-1-0.8C27,5.3,27,5.3,27,5.2c0-0.1,0-0.2,0-0.3c0-0.2-0.2-0.4-0.4-0.4c-0.2,0-0.4,0.1-0.4,0.4c0,0.1,0,0.2,0,0.3
		c0,0.1,0,0.1-0.1,0.1c-0.7,0.2-1.2,0.8-1.2,1.5c0,0.7,0.5,1.4,1.2,1.6c0.1,0,0.1,0.1,0.1,0.2c0,0.1,0,0.3,0,0.4
		C26.1,9.4,26.1,9.7,26.1,10.1z"/>
	<path class="st3" d="M9.8,25.4c0-1.5,0-3.1,0-4.6c0-0.4,0.2-0.6,0.6-0.6c1.2,0,2.4,0,3.5,0c0.1,0,0.2,0,0.2,0
		c0.2,0,0.3,0.2,0.3,0.4c0,0.1,0,0.3,0,0.4c0,3,0,6.1,0,9.1c0,0.4-0.2,0.6-0.5,0.6c-1.2,0-2.5,0-3.7,0c-0.3,0-0.5-0.2-0.5-0.5
		C9.8,28.5,9.8,26.9,9.8,25.4z"/>
	<path class="st3" d="M7.4,26.9c0,1.1,0,2.1,0,3.2c0,0.4-0.2,0.6-0.5,0.6c-1.2,0-2.5,0-3.7,0c-0.4,0-0.5-0.2-0.5-0.6
		c0-1.8,0-3.5,0-5.3c0-0.3,0-0.7,0-1c0-0.4,0.2-0.6,0.6-0.6c1.2,0,2.4,0,3.6,0c0.4,0,0.6,0.2,0.6,0.6c0,0.5,0,0.9,0,1.4
		C7.4,25.7,7.4,26.3,7.4,26.9C7.4,26.9,7.4,26.9,7.4,26.9z"/>
	<path class="st3" d="M26.1,6.3c0,0.5,0,0.9,0,1.3c-0.3-0.2-0.4-0.4-0.4-0.6C25.6,6.7,25.8,6.4,26.1,6.3z"/>
	<path class="st3" d="M27,8.8c0.3,0.1,0.4,0.4,0.4,0.7c0,0.2-0.2,0.5-0.4,0.6c0,0,0,0,0,0C27,9.6,27,9.2,27,8.8z"/>
</g>
</svg>
