<?xml version="1.0" encoding="utf-8"?>
<!-- Generator: Adobe Illustrator 27.5.0, SVG Export Plug-In . SVG Version: 6.00 Build 0)  -->
<svg version="1.1" id="Layer_1" xmlns="http://www.w3.org/2000/svg" xmlns:xlink="http://www.w3.org/1999/xlink" x="0px" y="0px"
	 viewBox="0 0 34 34" style="enable-background:new 0 0 34 34;" xml:space="preserve">
<style type="text/css">
	.st0{fill:#1F65D1;}
	.st1{fill:#ED4252;}
	.st2{fill:#9256FF;}
	.st3{fill:#FFFFFF;}
</style>
<g>
	<path class="st3" d="M22.4,19.7c0.6,0.6,1.3,1.2,1.9,1.9c-0.2,0.2-0.3,0.3-0.5,0.5c-0.3,0.3-0.7,0.6-1,1c-0.1,0.1-0.1,0.1-0.2,0
		c-0.6-0.6-1.1-1.1-1.7-1.7c-0.1-0.1-0.1-0.1-0.2,0c-0.7,0.5-1.5,0.8-2.4,1c-1.6,0.3-3.1,0-4.5-0.8c-1.6-1-2.6-2.4-2.9-4.2
		c-0.3-1.4-0.1-2.8,0.5-4.1c0.6-1.1,1.3-2,2.4-2.6c0.9-0.5,1.8-0.8,2.8-0.9c1.9-0.2,3.6,0.5,5,1.8c1.1,1.1,1.7,2.4,1.8,3.9
		c0.2,1.5-0.2,2.9-1,4.1C22.5,19.5,22.5,19.6,22.4,19.7z M20.5,18.6c0-0.1,0-0.1,0-0.1c0-1.2,0-2.3,0-3.5c0-0.2,0-0.4,0-0.6
		c0-0.3-0.2-0.5-0.5-0.4c-0.2,0-0.4,0.2-0.4,0.5c0,1.3,0,2.7,0,4c0,0.1,0,0.2-0.2,0.2c-0.2,0-0.5,0-0.7,0c-0.1,0-0.1,0-0.1-0.2
		c0-0.7,0-1.4,0-2c0-0.1,0-0.3,0-0.4c0-0.2-0.2-0.4-0.5-0.3c-0.2,0-0.3,0.2-0.4,0.4c0,0,0,0.1,0,0.1c0,0.7,0,1.5,0,2.2
		c0,0.1,0,0.2-0.2,0.2c-0.2,0-0.4,0-0.7,0c-0.2,0-0.2,0-0.2-0.2c0-1.1,0-2.2,0-3.3c0-0.3-0.2-0.4-0.4-0.4c-0.2,0-0.4,0.2-0.4,0.4
		c0,0.1,0,0.2,0,0.3c0,1,0,2,0,3c0,0.1,0,0.2-0.2,0.2c-0.2,0-0.4,0-0.7,0c-0.1,0-0.2,0-0.2-0.2c0-0.6,0-1.2,0-1.8c0-0.1,0-0.2,0-0.3
		c0-0.2-0.2-0.3-0.4-0.3c-0.3,0-0.5,0.2-0.5,0.5c0,0.5,0,1.1,0,1.6c0,0.2,0,0.3,0,0.5c0,0.1,0,0.1-0.1,0.1c-0.1,0-0.2,0-0.4,0
		c-0.2,0-0.4,0.2-0.4,0.4c0,0.2,0.2,0.4,0.4,0.4c0.1,0,0.2,0,0.2,0c1.4,0,2.8,0,4.3,0c0.9,0,1.9,0,2.8,0c0.3,0,0.5-0.2,0.5-0.4
		c0-0.3-0.2-0.4-0.5-0.4C20.7,18.6,20.6,18.6,20.5,18.6z M13.7,14.5c-0.1,0-0.2,0-0.3,0c-0.3,0-0.4,0.2-0.4,0.4
		c0,0.3,0.2,0.4,0.4,0.4c0.3,0,0.6,0,0.9,0c0.2,0,0.3-0.1,0.5-0.2c0.5-0.5,1-1,1.5-1.5c0.1-0.1,0.1-0.1,0.2,0
		c0.4,0.3,0.9,0.5,1.3,0.8c0.3,0.2,0.5,0.2,0.7-0.1c0.6-0.6,1.1-1.2,1.7-1.8c0.1-0.1,0.1-0.1,0.2-0.2c0.1-0.2,0.1-0.4-0.1-0.5
		c-0.2-0.1-0.4-0.1-0.5,0c-0.1,0.1-0.1,0.1-0.2,0.2c-0.5,0.5-0.9,1-1.4,1.5c-0.1,0.1-0.1,0.1-0.2,0c-0.4-0.3-0.8-0.5-1.3-0.8
		c-0.4-0.2-0.5-0.2-0.9,0.1c-0.4,0.4-0.9,0.9-1.3,1.3C14.3,14.4,14.1,14.6,13.7,14.5z"/>
	<path class="st3" d="M24.2,20.2c-0.2-0.2-0.4-0.4-0.6-0.6c0,0,0-0.1,0-0.2c0.2-0.4,0.4-0.8,0.5-1.2c0.3-1,0.4-2.1,0.3-3.2
		c-0.2-1.4-0.7-2.7-1.7-3.7c-1.1-1.2-2.4-2-4-2.4c-1.7-0.4-3.4-0.1-4.9,0.7c-1.3,0.7-2.3,1.8-3,3.1c-0.4,0.7-0.6,1.4-0.7,2.1
		c-0.1,0.6-0.1,1.2,0,1.8c0.1,1.1,0.5,2.1,1.1,3.1c0.8,1.3,1.9,2.2,3.3,2.8c1.2,0.5,2.5,0.6,3.8,0.5c0.9-0.1,1.7-0.4,2.4-0.8
		c0,0,0.1,0,0.1,0c0.3,0.3,0.6,0.6,0.9,0.9c0,0,0,0.1,0,0.1c-0.5,0.7-0.9,1.4-1.3,2.1c0,0-0.1,0.1-0.1,0.1c0,0-0.1,0-0.1,0
		c-2.1,0-4.1,0-6.2,0c-0.1,0-0.1,0-0.2,0c-0.6-1.2-1.3-2.2-2.2-3.2c-0.6-0.8-1.3-1.6-1.8-2.4c-0.6-0.9-0.9-1.8-1-2.9
		c-0.1-0.8-0.1-1.5-0.1-2.3c0.2-1.8,0.9-3.4,2.1-4.8c0.7-0.7,1.4-1.4,2.3-1.8c1.6-0.8,3.2-1.2,4.9-0.9c1.3,0.2,2.5,0.6,3.6,1.3
		c1.7,1.1,2.9,2.7,3.5,4.7c0.5,1.7,0.5,3.5-0.1,5.2c-0.2,0.6-0.4,1.1-0.7,1.6C24.2,20.1,24.2,20.1,24.2,20.2z"/>
	<path class="st3" d="M27.3,22.1c0,0.2-0.1,0.4-0.3,0.6c-1,1-2,2-3,3c-0.3,0.3-0.7,0.4-1.1,0.2c-0.5-0.2-0.7-0.9-0.4-1.3
		c0.1-0.2,0.3-0.3,0.4-0.4c0.9-0.9,1.8-1.8,2.8-2.8c0.3-0.3,0.6-0.4,0.9-0.3C27,21.2,27.3,21.6,27.3,22.1z"/>
	<path class="st3" d="M25.3,25.6c0.5-0.5,1-1,1.5-1.5c0,0,0.1,0,0.1,0.1c0.8,0.8,1.6,1.6,2.4,2.5c0.3,0.3,0.4,0.6,0.3,1
		c-0.1,0.4-0.3,0.7-0.7,0.8c-0.4,0.1-0.8,0.1-1.1-0.2c-0.2-0.1-0.3-0.3-0.4-0.5C26.7,27,26,26.3,25.3,25.6z"/>
	<path class="st3" d="M14.2,30.4c1.9,0,3.7,0,5.6,0c-0.2,1-1.5,1.9-3,1.9C15.6,32.2,14.3,31.3,14.2,30.4z"/>
	<path class="st3" d="M14.1,27.8c0-0.3,0-0.5,0-0.8c0-0.1,0-0.3,0-0.4c0-0.1,0-0.1,0.1-0.1c1.9,0,3.8,0,5.7,0c0.1,0,0.1,0,0.1,0.1
		c0,0.4,0,0.7,0,1.1c0,0.1,0,0.1-0.1,0.1c-0.2,0-0.3,0-0.5,0c-1.7,0-3.4,0-5.1,0C14.2,27.8,14.1,27.8,14.1,27.8z"/>
	<path class="st3" d="M14.1,29.5c0-0.3,0-0.6,0-0.9c2,0,3.9,0,5.9,0c0,0.3,0,0.6,0,0.9c0,0-0.1,0.1-0.1,0.1c-1,0-2,0-3,0
		c-0.9,0-1.7,0-2.6,0C14.2,29.6,14.1,29.6,14.1,29.5z"/>
	<path class="st3" d="M5.1,16.1c-0.5,0-1,0-1.5,0c-0.1,0-0.2,0-0.3,0c-0.2,0-0.3-0.2-0.3-0.4c0-0.2,0.1-0.4,0.3-0.4
		c0.1,0,0.2,0,0.2,0c1,0,2,0,3,0c0.2,0,0.4,0,0.5,0.2c0.2,0.3,0,0.6-0.2,0.6c-0.1,0-0.2,0-0.3,0C6.1,16.1,5.6,16.1,5.1,16.1z"/>
	<path class="st3" d="M29,15.3c0.5,0,1,0,1.6,0c0.3,0,0.4,0.1,0.5,0.3c0,0.2-0.1,0.4-0.3,0.5c-0.1,0-0.2,0-0.3,0c-1,0-1.9,0-2.9,0
		c-0.1,0-0.2,0-0.3,0c-0.2,0-0.3-0.2-0.3-0.4c0-0.2,0.1-0.4,0.3-0.4c0.1,0,0.2,0,0.3,0C28,15.3,28.5,15.3,29,15.3
		C29,15.3,29,15.3,29,15.3z"/>
	<path class="st3" d="M25.9,11c-0.2,0-0.4-0.1-0.4-0.3c0-0.2,0-0.4,0.2-0.5c0.3-0.2,0.7-0.4,1-0.6c0.6-0.3,1.1-0.7,1.7-1
		c0.3-0.2,0.6-0.1,0.7,0.2c0.1,0.2,0,0.4-0.2,0.5c-0.5,0.3-1,0.6-1.5,0.9c-0.4,0.2-0.8,0.5-1.2,0.7C26.1,10.9,26,10.9,25.9,11z"/>
	<path class="st3" d="M10.2,3.5c0.2,0,0.3,0.1,0.4,0.3c0.3,0.6,0.7,1.2,1,1.7c0.2,0.4,0.4,0.7,0.6,1.1c0.1,0.3,0,0.5-0.3,0.6
		c-0.2,0-0.3,0-0.4-0.2c-0.1-0.2-0.3-0.5-0.4-0.7c-0.4-0.7-0.8-1.4-1.2-2c0-0.1-0.1-0.1-0.1-0.2C9.7,3.8,9.9,3.5,10.2,3.5z"/>
	<path class="st3" d="M8.1,11c-0.1,0-0.2-0.1-0.2-0.1c-0.7-0.4-1.3-0.8-2-1.1C5.6,9.6,5.3,9.4,5,9.3C4.9,9.1,4.8,9,4.9,8.8
		c0-0.2,0.2-0.3,0.4-0.3c0.1,0,0.2,0,0.2,0c0.9,0.5,1.9,1.1,2.8,1.6c0.2,0.1,0.3,0.3,0.2,0.5C8.4,10.8,8.3,11,8.1,11z"/>
	<path class="st3" d="M21.7,6.7c0,0,0-0.1,0.1-0.2c0.5-0.9,1.1-1.8,1.6-2.8c0.1-0.2,0.2-0.3,0.4-0.2c0.2,0,0.3,0.1,0.3,0.3
		c0,0.1,0,0.3-0.1,0.4c-0.2,0.5-0.5,0.9-0.8,1.4c-0.3,0.4-0.5,0.9-0.8,1.3c-0.1,0.2-0.3,0.3-0.5,0.2C21.8,7.1,21.7,6.9,21.7,6.7z"/>
	<path class="st3" d="M16.6,3.8c0-0.5,0-1.1,0-1.6c0-0.3,0.3-0.5,0.6-0.4c0.2,0.1,0.3,0.2,0.3,0.4c0,0.1,0,0.2,0,0.3
		c0,1,0,1.9,0,2.9c0,0,0,0.1,0,0.1c0,0.2-0.2,0.4-0.4,0.4c-0.2,0-0.4-0.2-0.4-0.4c0-0.3,0-0.5,0-0.8C16.6,4.4,16.6,4.1,16.6,3.8
		C16.6,3.8,16.6,3.8,16.6,3.8z"/>
</g>
</svg>
