<?xml version="1.0" encoding="utf-8"?>
<!-- Generator: Adobe Illustrator 27.5.0, SVG Export Plug-In . SVG Version: 6.00 Build 0)  -->
<svg version="1.1" id="Layer_1" xmlns="http://www.w3.org/2000/svg" xmlns:xlink="http://www.w3.org/1999/xlink" x="0px" y="0px"
	 viewBox="0 0 34 34" style="enable-background:new 0 0 34 34;" xml:space="preserve">
<style type="text/css">
	.st0{fill:#1F65D1;}
	.st1{fill:#ED4252;}
	.st2{fill:#9256FF;}
	.st3{fill:#FFFFFF;}
</style>
<g>
	<path class="st3" d="M17,28.8c-0.3,0-0.6,0-1,0c-0.6,0-0.9-0.3-1.1-0.8c-0.2-0.5-0.3-1.1-0.5-1.6c0-0.1-0.1-0.1-0.1-0.2
		c-0.6-0.2-1.1-0.5-1.7-0.7c-0.1-0.1-0.2-0.1-0.4,0c-0.5,0.3-1,0.5-1.5,0.7c-0.5,0.2-0.9,0.2-1.3-0.2c-0.5-0.5-1-1-1.5-1.5
		c-0.3-0.4-0.4-0.8-0.2-1.2c0.3-0.5,0.5-1.1,0.8-1.6c0-0.1,0-0.2,0-0.2c-0.2-0.6-0.5-1.2-0.7-1.8c0-0.1-0.1-0.1-0.2-0.1
		c-0.5-0.2-1.1-0.4-1.6-0.5c-0.6-0.2-0.8-0.5-0.8-1.1c0-0.6,0-1.3,0-1.9c0-0.6,0.2-1,0.8-1.2c0.5-0.2,1-0.3,1.6-0.5
		c0.1,0,0.2-0.1,0.2-0.2c0.2-0.6,0.5-1.1,0.7-1.7c0-0.1,0.1-0.2,0-0.3c-0.2-0.5-0.5-0.9-0.7-1.4c-0.3-0.6-0.2-1,0.2-1.5
		C8.5,8.9,8.9,8.4,9.4,8c0.4-0.4,0.8-0.4,1.3-0.2c0.5,0.2,1,0.5,1.4,0.7c0.1,0.1,0.3,0.1,0.4,0c0.5-0.2,1.1-0.4,1.6-0.7
		c0.1,0,0.2-0.1,0.2-0.2c0.2-0.5,0.3-1,0.5-1.6c0.2-0.6,0.5-0.8,1.1-0.8c0.7,0,1.4,0,2.1,0c0.5,0,0.9,0.3,1,0.8
		c0.2,0.5,0.3,1,0.5,1.6c0,0.1,0.1,0.2,0.2,0.2C20.4,8,21,8.2,21.6,8.5c0,0,0.1,0,0.2,0c0.5-0.2,1-0.5,1.5-0.7
		c0.6-0.3,1-0.2,1.5,0.2C25.1,8.5,25.6,9,26,9.4c0.2,0.2,0.3,0.4,0.3,0.7c0,0.2,0,0.5-0.1,0.7c-0.2,0.5-0.5,1-0.7,1.5
		c-0.1,0.1-0.1,0.2,0,0.3c0.2,0.5,0.5,1.1,0.7,1.6c0,0.1,0.1,0.2,0.2,0.2c0.5,0.2,1,0.3,1.5,0.5c0.6,0.2,0.9,0.6,0.9,1.2
		c0,0.6,0,1.3,0,1.9c0,0.6-0.2,0.9-0.8,1.1c-0.5,0.2-1,0.3-1.6,0.5c-0.1,0-0.2,0.1-0.3,0.3c-0.2,0.5-0.4,1.1-0.7,1.6
		c-0.1,0.1-0.1,0.2,0,0.4c0.2,0.5,0.5,0.9,0.7,1.4c0.3,0.6,0.2,1-0.3,1.5c-0.4,0.4-0.9,0.9-1.3,1.3c-0.3,0.3-0.6,0.4-1,0.4
		c-0.1,0-0.2-0.1-0.3-0.1c-0.5-0.2-1-0.5-1.4-0.7c-0.1-0.1-0.2-0.1-0.4,0c-0.6,0.2-1.1,0.5-1.7,0.7c-0.1,0-0.1,0.1-0.2,0.2
		c-0.2,0.5-0.3,1-0.5,1.5c-0.2,0.6-0.5,0.8-1.2,0.8C17.6,28.8,17.3,28.8,17,28.8z M16.5,18.1c-0.1,0-0.2,0-0.2,0c-0.5,0-0.9,0-1.4,0
		c-0.6,0-1.2,0.1-1.7,0.5c-1,0.7-1.5,1.5-1.5,2.7c0,0.6,0.5,1,1,1c2.9,0,5.7,0,8.6,0c0.5,0,1-0.3,1-0.9c0-0.3,0-0.5,0-0.8
		c-0.3-1.6-1.8-2.7-3.2-2.6c-0.6,0-1.1,0-1.7,0c0.9-0.2,1.6-0.6,2.1-1.3c0.5-0.7,0.7-1.6,0.5-2.5c-0.3-1.6-1.7-2.6-3-2.6
		c-1.7,0-3,1-3.3,2.6c-0.1,0.7-0.1,1.4,0.3,2.1C14.6,17.2,15.4,17.9,16.5,18.1z"/>
	<path class="st3" d="M27.6,4.8c0.6-0.6,1.2-1.2,1.8-1.8c0.2-0.2,0.5-0.5,0.7-0.7c0.3-0.3,0.7-0.4,1.1-0.3c0.4,0.1,0.7,0.4,0.8,0.8
		c0.1,0.4,0,0.7-0.3,1c-0.7,0.7-1.4,1.4-2,2c-0.1,0.1-0.3,0.3-0.4,0.5c0,0,0,0,0,0c0.5,0.2,0.7,0.7,0.6,1.2
		c-0.1,0.5-0.5,0.8-1.1,0.9c-0.7,0-1.4,0-2.1,0c-0.6,0-1.1-0.5-1.1-1.1c0-0.7,0-1.3,0-2c0-0.6,0.3-1,0.8-1.1
		c0.4-0.1,0.9,0.1,1.1,0.5C27.6,4.7,27.6,4.8,27.6,4.8z"/>
	<path class="st3" d="M4.8,6.4C4.8,6.3,4.8,6.3,4.8,6.4C3.9,5.5,3.1,4.7,2.3,3.9C2,3.6,1.9,3.2,2.1,2.8C2.2,2.4,2.5,2.1,2.9,2
		c0.3-0.1,0.7,0,0.9,0.3C4.1,2.5,4.3,2.8,4.5,3c0.6,0.6,1.2,1.2,1.7,1.7c0,0,0.1,0.1,0.1,0.1c0.1-0.1,0.1-0.3,0.2-0.3
		c0.3-0.3,0.6-0.4,1-0.3C8.1,4.3,8.3,4.6,8.4,5c0,0.1,0,0.2,0,0.3c0,0.7,0,1.3,0,2C8.4,8,8,8.4,7.3,8.4c-0.7,0-1.4,0-2.1,0
		c-0.4,0-0.8-0.2-1-0.6C4.1,7.5,4.1,7.1,4.4,6.7C4.5,6.6,4.7,6.5,4.8,6.4z"/>
	<path class="st3" d="M27.6,29.1c-0.2,0.4-0.4,0.6-0.8,0.7c-0.5,0.1-1.2-0.3-1.2-0.8c0-0.3,0-0.6,0-0.9c0-0.4,0-0.9,0-1.3
		c0-0.7,0.4-1.1,1.1-1.2c0.7,0,1.4,0,2.1,0c0.5,0,0.9,0.4,1,0.9c0.1,0.4-0.1,0.9-0.6,1.1c0,0,0,0-0.1,0.1c0.1,0,0.1,0,0.1,0.1
		c0.8,0.8,1.6,1.6,2.4,2.4c0.5,0.5,0.5,1.2-0.1,1.6c-0.4,0.3-0.9,0.3-1.3,0c-0.2-0.1-0.3-0.3-0.5-0.5c-0.7-0.7-1.3-1.3-2-2
		C27.7,29.2,27.7,29.2,27.6,29.1z"/>
	<path class="st3" d="M4.8,27.6c0,0-0.1,0-0.1-0.1c-0.4-0.2-0.6-0.7-0.5-1.1c0.1-0.5,0.4-0.8,0.9-0.9c0.1,0,0.2,0,0.4,0
		c0.6,0,1.2,0,1.9,0c0.7,0,1.2,0.4,1.2,1.1c0,0.7,0,1.4,0,2c0,0.5-0.3,0.9-0.8,1.1c-0.5,0.1-0.9-0.1-1.2-0.5c0-0.1-0.1-0.1-0.1-0.2
		c-0.6,0.6-1.2,1.2-1.8,1.8c-0.2,0.2-0.5,0.5-0.7,0.7C3.2,32.3,2.2,32,2,31.1c-0.1-0.4,0.1-0.7,0.3-1C2.9,29.6,3.5,29,4,28.5
		C4.3,28.2,4.5,27.9,4.8,27.6z"/>
</g>
</svg>
