<?xml version="1.0" encoding="utf-8"?>
<!-- Generator: Adobe Illustrator 27.5.0, SVG Export Plug-In . SVG Version: 6.00 Build 0)  -->
<svg version="1.1" id="Layer_1" xmlns="http://www.w3.org/2000/svg" xmlns:xlink="http://www.w3.org/1999/xlink" x="0px" y="0px"
	 viewBox="0 0 34 34" style="enable-background:new 0 0 34 34;" xml:space="preserve">
<style type="text/css">
	.st0{fill:#1F65D1;}
	.st1{fill:#ED4252;}
	.st2{fill:#9256FF;}
	.st3{fill:#FFFFFF;}
</style>
<g>
	<path class="st2" d="M17,26.9c-3.5,0-7,0-10.5,0c-0.2,0-0.2-0.1-0.2-0.2c-0.4-1.8-0.8-3.6-1.2-5.4c-0.6-2.7-1.2-5.4-1.7-8.1
		c-0.1-0.3-0.2-0.7-0.2-1c0-0.1-0.1-0.1-0.1-0.1c-1.2,0-2-1-2.2-2c-0.3-1.3,0.4-2.6,1.6-3c0.8-0.3,1.8,0,2.4,0.7
		c0.9,1.1,0.9,2.8-0.4,3.8c-0.1,0.1,0,0.2,0,0.2c0.5,0.7,1.1,1.5,1.6,2.2C6.5,14.8,7.2,15.5,8,16c0.4,0.3,0.8,0.6,1.3,0.8
		c0.9,0.5,1.7,0.3,2.5-0.3c0.7-0.5,1.2-1.2,1.7-1.9c0.8-1.2,1.3-2.4,1.9-3.7c0.3-0.7,0.6-1.4,0.9-2.1c0-0.1,0-0.2-0.1-0.2
		c-1-0.4-1.5-1.5-1.5-2.4c0-0.8,0.3-1.4,0.9-1.9c0.9-0.8,2.2-0.8,3.1,0.1c1.1,1.1,1,2.9-0.1,3.8c-0.2,0.2-0.4,0.3-0.6,0.4
		c-0.1,0.1-0.1,0.1-0.1,0.2c0.5,1.2,1,2.5,1.6,3.7c0.5,1,1,2,1.7,2.9c0.3,0.4,0.7,0.7,1,1.1c0.9,0.7,1.8,0.8,2.8,0.3
		c0.9-0.5,1.7-1.1,2.4-1.9c0.8-0.9,1.6-1.9,2.3-2.9c0.1-0.1,0.2-0.2,0.2-0.3c0-0.1-0.1-0.2-0.2-0.2c-0.5-0.5-0.8-1.1-0.9-1.8
		c0-1.1,0.5-2.2,1.7-2.6c0.8-0.3,1.8,0,2.4,0.7c1.1,1.2,0.8,3.1-0.5,4c-0.3,0.2-0.7,0.3-1.1,0.3c-0.1,0-0.2,0-0.2,0.2
		c-0.3,1.6-0.7,3.2-1,4.8c-0.5,2.1-0.9,4.2-1.4,6.3c-0.2,1.1-0.5,2.3-0.7,3.4c0,0.1-0.1,0.1-0.2,0.1c-0.1,0-0.2,0-0.4,0
		C23.8,26.9,20.4,26.9,17,26.9C17,26.9,17,26.9,17,26.9z"/>
	<path class="st2" d="M27.6,30.3c-7.1,0-14.1,0-21.2,0c0-0.1,0-0.1,0-0.2c0-0.8,0-1.7,0-2.5c0-0.1,0-0.2,0.2-0.2
		c6.9,0,13.7,0,20.6,0c0.1,0,0.3,0,0.4,0c0.1,0,0.1,0,0.1,0.1C27.6,28.4,27.6,29.3,27.6,30.3C27.6,30.2,27.6,30.3,27.6,30.3z"/>
</g>
</svg>
