<?xml version="1.0" encoding="utf-8"?>
<!-- Generator: Adobe Illustrator 27.5.0, SVG Export Plug-In . SVG Version: 6.00 Build 0)  -->
<svg version="1.1" id="Layer_1" xmlns="http://www.w3.org/2000/svg" xmlns:xlink="http://www.w3.org/1999/xlink" x="0px" y="0px"
	 viewBox="0 0 34 34" style="enable-background:new 0 0 34 34;" xml:space="preserve">
<style type="text/css">
	.st0{fill:#1F65D1;}
	.st1{fill:#ED4252;}
	.st2{fill:#9256FF;}
	.st3{fill:#FFFFFF;}
</style>
<g>
	<path class="st3" d="M6.2,16.6c0.9,0,1.8,0,2.7,0c0.9,0,1.8,0,2.7,0c0,0.2,0,0.3,0,0.5c0,1.8,0,3.5,0,5.3c0,1.4,0.4,2.7,1.4,3.7
		c0.6,0.7,1.4,1.2,2.4,1.5c1.9,0.6,3.6,0.2,5.1-1c1.1-0.9,1.7-2.1,1.9-3.5c0-0.3,0-0.6,0-0.8c0-1.8,0-3.5,0-5.3c0-0.1,0-0.3,0-0.4
		c1.8,0,3.6,0,5.5,0c0,0,0,0.1,0,0.1c0,2,0.1,4,0,6c-0.2,4.1-2.1,7.2-5.6,9.3c-0.4,0.2-0.9,0.4-1.3,0.6c-1.3,0.5-5.2,0.9-7.7,0
		c-0.1,0-0.2-0.1-0.3-0.1c-1.6-0.7-2.9-1.6-4.1-2.9c-1.3-1.5-2.2-3.2-2.5-5.2c-0.1-0.6-0.2-1.3-0.2-1.9c0-1.9,0-3.8,0-5.6
		C6.2,16.7,6.2,16.7,6.2,16.6z"/>
	<path class="st3" d="M20.2,10c-0.2,1.1-0.7,1.9-1.5,2.5c-1.6,1.3-4.1,1.2-5.6-0.2c-0.8-0.7-1.2-1.6-1.3-2.7c0-0.1,0-0.2-0.2-0.1
		C9.4,9.6,7.3,8,7,5.9C6.6,3.9,7.7,2,9.6,1.2c1.7-0.8,4.2-0.2,5.4,1.9c0.3,0.5,0.5,1.1,0.5,1.7c0,0.1,0,0.1,0.1,0.1
		c1.1-0.1,2.1,0.2,2.9,0.8c0,0,0,0,0.1,0C19,4,20.1,2.8,21.8,2.4c1-0.3,2-0.1,3,0.3c1.8,0.9,2.9,3.2,2,5.4c-0.5,1.3-1.5,2.1-2.9,2.5
		C22.6,11.1,21.3,10.7,20.2,10z M18.6,11.7c1.2-1.1,1.6-3.4,0-5.1c-1.4-1.5-3.8-1.4-5.2,0.1c-1.6,1.7-1,4,0.1,5
		c0.3-0.3,0.5-0.6,0.8-0.9c0.3-0.3,0.7-0.4,1.1-0.5C15,10,14.6,9.7,14.6,9.2c-0.1-0.5,0-0.9,0.4-1.3c0.5-0.6,1.4-0.6,2-0.1
		c0.3,0.3,0.5,0.6,0.5,1c0.1,0.7-0.3,1.1-0.8,1.5c0.5,0.1,0.8,0.2,1.1,0.5C18,11.1,18.3,11.4,18.6,11.7z M25.3,9.1
		C25.4,9.1,25.4,9.1,25.3,9.1C25.4,9.1,25.5,9,25.5,9c0.6-0.7,0.9-1.5,0.9-2.4c0.1-1.9-1.7-4-4.3-3.6c-1.5,0.3-2.7,1.5-3,3
		c0,0.2,0,0.3,0.1,0.5c0.4,0.5,0.7,1.1,0.9,1.8c0.1,0.3,0.1,0.5,0.1,0.8c0.4-0.7,1-1.1,1.8-1.4c-0.4-0.2-0.7-0.6-0.8-1
		c-0.1-0.5,0-0.9,0.3-1.2c0.5-0.6,1.5-0.7,2.1-0.2c0.3,0.3,0.5,0.6,0.5,1c0,0.7-0.3,1.1-0.9,1.5C24.3,8,24.9,8.4,25.3,9.1z
		 M11.8,6.3c0.2,0.1,0.4,0.1,0.6,0.2c0.1,0.1,0.2,0,0.3-0.1c0.5-0.6,1.1-1,1.7-1.3c0.1-0.1,0.3-0.1,0.4-0.2c0.1-0.1,0-0.3,0-0.5
		C14.3,1.8,11.1,0.6,9,2.2c-1.5,1.2-1.8,3-1.1,4.5c0.2,0.4,0.4,0.7,0.7,1C9.1,7,9.7,6.5,10.5,6.3c-0.8-0.7-1-1.2-0.7-1.9
		c0.2-0.6,0.8-1,1.4-0.9c0.7,0,1.2,0.5,1.4,1.2C12.8,5.3,12.5,5.9,11.8,6.3z"/>
	<path class="st3" d="M8.9,16c-0.7,0-1.5,0-2.2,0c-0.1,0-0.1,0-0.2,0c-0.3,0-0.3,0-0.3-0.4c0-1.2,0-2.4,0-3.6c0,0,0-0.1,0-0.1
		c0-0.4,0.2-0.6,0.7-0.6c1,0,1.9,0,2.9,0c0.4,0,0.9,0,1.3,0c0.4,0,0.6,0.2,0.6,0.6c0,1.3,0,2.6,0,3.9c0,0.2-0.1,0.2-0.2,0.2
		C10.6,15.9,9.7,15.9,8.9,16C8.9,15.9,8.9,15.9,8.9,16z"/>
	<path class="st3" d="M25.1,15.9c-0.8,0-1.7,0-2.5,0c-0.2,0-0.2-0.1-0.2-0.2c0-1.3,0-2.6,0-3.9c0-0.4,0.2-0.6,0.6-0.6
		c1.4,0,2.8,0,4.2,0c0.4,0,0.6,0.2,0.6,0.6c0,1.3,0,2.6,0,3.9c0,0.2-0.1,0.2-0.3,0.2C26.7,15.9,25.9,15.9,25.1,15.9
		C25.1,15.9,25.1,15.9,25.1,15.9z"/>
</g>
</svg>
