<?xml version="1.0" encoding="UTF-8"?>
<svg id="Layer_12" data-name="Layer 12" xmlns="http://www.w3.org/2000/svg" viewBox="0 0 90 90">
  <defs>
    <style>
      .cls-1 {
        fill: #fff;
        stroke-width: 0px;
      }
    </style>
  </defs>
  <path class="cls-1" d="m29.23,48.7c4.41-2.94,7.41-6.68,8.68-11.7.68-2.67,2.22-3.5,4.82-2.52,2.52.94,3.94,3.4,3.46,6.23-.27,1.58-.75,3.13-1.14,4.68-.1.4-.22.78-.4,1.41.64,0,1.09,0,1.54,0,2.59,0,5.17-.02,7.76,0,3.59.03,5.83,2.76,5.1,6.25-1.05,5.02-2.11,10.03-3.2,15.04-.7,3.24-2.56,4.65-5.86,4.59-1.57-.03-3.14-.04-4.71.02-4.68.19-9.21-.48-13.54-2.34-.5-.21-1.06-.41-1.58-.37-.44.04-1.02.33-1.24.69-.94,1.54-2.23,2.41-4.04,2.44-1.06.02-2.12.05-3.18-.01-2.52-.14-4.35-1.88-4.37-4.4-.06-6.23-.06-12.47,0-18.7.02-2.55,1.92-4.34,4.47-4.45.59-.03,1.19.03,1.78-.01,2.5-.18,4.53.54,5.64,3.16Z"/>
  <path class="cls-1" d="m60.47,16.88c2.5,0,5-.01,7.51,0,3.12.02,4.71,1.6,4.73,4.69,0,2.5.01,5,0,7.51-.02,2.91-1.63,4.79-4.45,4.47-4.3-.48-8.34-.46-10.96,3.35-.38.44-.76,1.27-1.72,2.09-.64.54-1.97.28-2.06-.95-.08-.97-.06-1.95-.02-2.92.04-1-.34-1.44-1.38-1.52-2.46-.18-3.93-1.76-3.97-4.24-.04-2.71-.04-5.43,0-8.14.04-2.63,1.68-4.26,4.33-4.31,2.67-.04,5.34,0,8.01-.01Z"/>
</svg>