<?xml version="1.0" encoding="utf-8"?>
<!-- Generator: Adobe Illustrator 27.5.0, SVG Export Plug-In . SVG Version: 6.00 Build 0)  -->
<svg version="1.1" id="Layer_1" xmlns="http://www.w3.org/2000/svg" xmlns:xlink="http://www.w3.org/1999/xlink" x="0px" y="0px"
	 viewBox="0 0 34 34" style="enable-background:new 0 0 34 34;" xml:space="preserve">
<style type="text/css">
	.st0{fill:#1F65D1;}
	.st1{fill:#ED4252;}
	.st2{fill:#9256FF;}
	.st3{fill:#FFFFFF;}
</style>
<g>
	<path class="st3" d="M26.2,23.3c0.7-1.1,1.2-2.2,1.6-3.4c0.3-1.3,0.5-2.6,0.4-3.9c-0.1-1.4-0.5-2.7-1.1-3.9c-0.5-1-1-1.9-1.8-2.7
		c-0.1-0.1-0.1-0.2-0.1-0.3c0-0.9,0-1.8,0-2.7c0-0.1,0-0.2,0.2-0.2c0.9,0,1.7,0,2.6,0c0.2,0,0.3,0.1,0.4,0.2c0.9,1,1.7,2.1,2.4,3.3
		c0.8,1.5,1.3,3.1,1.6,4.8c0.1,0.9,0.2,1.9,0.2,2.8c-0.1,1.5-0.3,3-0.9,4.5c-0.2,0.5-0.4,1-0.6,1.5c-0.4,0.9-0.9,1.7-1.5,2.5
		c0,0,0,0-0.1,0.1c0-0.9,0-1.8,0-2.7C28.4,23.3,27.3,23.3,26.2,23.3z"/>
	<path class="st3" d="M26,4.5c-0.9,0-1.8,0-2.7,0c0,1.1,0,2.2,0,3.3c-0.1,0-0.1-0.1-0.1-0.1c-0.8-0.5-1.5-0.9-2.4-1.2
		C20,6.2,19.1,6,18.2,5.9c-1.7-0.2-3.3,0-4.9,0.6C11.9,7,10.7,7.7,9.6,8.7C9.4,8.8,9.3,8.9,9.1,8.9c-0.9,0-1.8,0-2.7,0
		c-0.1,0-0.1,0-0.1-0.1c0-0.9,0-1.8,0-2.7c0-0.1,0-0.2,0.1-0.2c0.9-0.9,2-1.6,3.1-2.3c1.7-1,3.5-1.5,5.4-1.8c2.5-0.3,5,0,7.3,0.8
		C23.6,3,24.9,3.6,26,4.5C26,4.5,26,4.5,26,4.5C26,4.5,26,4.5,26,4.5z"/>
	<path class="st3" d="M8,29.5c0.9,0,1.8,0,2.7,0c0-1.1,0-2.2,0-3.3c0.1,0.1,0.2,0.1,0.3,0.2c1.3,0.8,2.7,1.4,4.2,1.6
		c1.2,0.2,2.5,0.2,3.8,0c1.7-0.3,3.2-1,4.6-2c0.3-0.2,0.6-0.5,0.9-0.7c0.1-0.1,0.2-0.1,0.3-0.1c0.9,0,1.8,0,2.7,0
		c0.1,0,0.2,0,0.2,0.1c0,0.9,0,1.8,0,2.7c0,0.1,0,0.2-0.1,0.3c-1.1,1-2.3,1.9-3.7,2.5c-1.5,0.7-3,1.2-4.6,1.4
		c-0.8,0.1-1.7,0.2-2.6,0.2c-1.9,0-3.6-0.4-5.4-1.1C10.2,30.9,9.1,30.3,8,29.5C8,29.5,8,29.5,8,29.5C8,29.5,8,29.5,8,29.5z"/>
	<path class="st3" d="M4.5,8c0,0.3,0,0.6,0,1c0,0.5,0,1.1,0,1.6c0,0.1,0.1,0.1,0.1,0.1c1,0,2,0,3,0c0,0,0.1,0,0.2,0
		c-0.1,0.2-0.3,0.4-0.4,0.6c-0.8,1.3-1.3,2.7-1.5,4.3C5.7,17.8,6,19.9,7,22c0.5,0.9,1,1.8,1.7,2.6c0.1,0.1,0.1,0.2,0.1,0.2
		c0,0.9,0,1.8,0,2.8c0,0.1,0,0.1-0.1,0.1c-0.9,0-1.8,0-2.8,0c-0.1,0-0.2-0.1-0.2-0.1c-0.9-1-1.7-2.1-2.3-3.3
		c-0.8-1.5-1.3-3.1-1.6-4.8c-0.2-1-0.2-2-0.2-3c0-1.1,0.2-2.2,0.5-3.3C2.5,11.3,3.4,9.6,4.5,8C4.5,8,4.5,8,4.5,8C4.5,8,4.5,8,4.5,8z
		"/>
	<path class="st3" d="M17,9.9c0.2,0.4,0.4,0.8,0.6,1.2c0.5,1,1,2,1.5,3c0,0,0.1,0.1,0.1,0.1c0.7,0.1,1.4,0.2,2.1,0.3
		c0.8,0.1,1.6,0.2,2.4,0.3c0,0,0,0,0.1,0.1c-0.1,0.1-0.2,0.1-0.3,0.2c-0.7,0.7-1.4,1.4-2.2,2.1c-0.3,0.3-0.6,0.6-0.9,0.9
		c-0.1,0.1-0.1,0.1-0.1,0.2c0.2,0.8,0.3,1.7,0.4,2.5c0.1,0.6,0.2,1.3,0.3,1.9c0,0,0,0,0,0.1c-0.2-0.1-0.3-0.2-0.5-0.3
		c-1.2-0.6-2.4-1.2-3.5-1.9c-0.1-0.1-0.2-0.1-0.3,0c-1.2,0.6-2.4,1.3-3.6,1.9c-0.1,0.1-0.3,0.1-0.4,0.2c0-0.2,0.1-0.4,0.1-0.5
		c0.2-1.3,0.5-2.7,0.7-4c0-0.1,0-0.2-0.1-0.2c-1.1-1-2.2-2.1-3.2-3.1c0,0,0,0-0.1-0.1c0.1,0,0.2,0,0.3,0c1.3-0.2,2.5-0.4,3.8-0.5
		c0.1,0,0.2-0.1,0.3,0c0.3,0,0.4-0.1,0.5-0.4C15.7,12.5,16.3,11.2,17,9.9C17,9.9,17,9.9,17,9.9z"/>
</g>
</svg>
