<?xml version="1.0" encoding="utf-8"?>
<!-- Generator: Adobe Illustrator 27.7.0, SVG Export Plug-In . SVG Version: 6.00 Build 0)  -->
<svg version="1.1" id="Layer_1" xmlns="http://www.w3.org/2000/svg" xmlns:xlink="http://www.w3.org/1999/xlink" x="0px" y="0px"
	 viewBox="0 0 24 24" style="enable-background:new 0 0 24 24;" xml:space="preserve">
<style type="text/css">
	.st0{fill:#FFFFFF;}
</style>
<g>
	<path class="st0" d="M12,20.1c-2.5,0-4.9,0-7.4,0c-0.1,0-0.2,0-0.2,0c-0.3,0-0.5-0.2-0.5-0.4c0-0.2,0.1-0.4,0.4-0.5
		c0,0,0.1,0,0.1,0c0.2,0,0.4,0.1,0.5,0c0.1-0.1,0-0.3,0-0.5c0-1.2,0-2.3,0-3.5c0-0.6,0.1-0.7,0.7-0.7c0.5,0,1,0,1.5-0.1
		c0.5,0,0.7,0.1,0.7,0.6c0,1.1,0,2.2,0,3.3c0,0.2,0,0.5,0,0.7c0,0.1,0,0.2,0.2,0.2c0.2,0,0.3,0,0.5,0c0.3,0,0.3-0.1,0.3-0.3
		c0-1.4,0-2.8,0-4.2c0-0.5,0.1-0.6,0.6-0.7c0.5-0.1,1.1-0.3,1.6-0.5c0.5-0.2,0.7,0,0.7,0.5c0,1.6,0,3.2,0,4.8c0,0.2,0.1,0.3,0.3,0.3
		c0.6,0,0.6,0,0.6-0.6c0-1.8,0-3.5,0-5.3c0-0.3,0.1-0.5,0.4-0.7c0.6-0.3,1.1-0.6,1.6-0.9c0.2-0.1,0.4-0.2,0.6-0.1
		c0.2,0.1,0.3,0.3,0.3,0.5c0,2.2,0,4.5,0,6.7c0,0.2,0.1,0.3,0.3,0.3c0.2,0,0.5,0.1,0.6,0c0.1-0.1,0-0.4,0-0.6c0-2.6,0-5.2,0-7.8
		c0-0.3,0.1-0.5,0.3-0.7c0.6-0.5,1.1-1.1,1.7-1.8C18.4,8,18.6,8,18.8,8.1c0.2,0.1,0.3,0.2,0.3,0.4c0,0.1,0,0.2,0,0.3
		c0,3.4,0,6.7,0,10.1c0,0.2,0,0.4,0.3,0.3c0,0,0.1,0,0.1,0c0.3,0,0.6,0.2,0.6,0.5c0,0.3-0.2,0.5-0.6,0.5C17,20.1,14.5,20.1,12,20.1z
		"/>
	<path class="st0" d="M18.8,4.9c-0.4,0-0.7,0-1,0c-0.3,0-0.6-0.2-0.6-0.5c0-0.3,0.2-0.5,0.6-0.5c0.6,0,1.1,0,1.7,0
		c0.4,0,0.5,0.1,0.5,0.5c0,0.6,0,1.2,0,1.8c0,0.3-0.2,0.5-0.5,0.5c-0.3,0-0.5-0.2-0.5-0.5c0-0.1,0-0.2,0-0.3c-0.3,0.4-0.7,0.7-1,1.1
		c-1,1.2-2.1,2.3-3.4,3.2c-2,1.4-4.2,2.3-6.5,2.7c-1.2,0.2-2.4,0.3-3.6,0.2c-0.1,0-0.2,0-0.3,0c-0.2,0-0.4-0.3-0.4-0.5
		c0-0.2,0.2-0.4,0.4-0.4c0.3,0,0.7,0,1,0c2.9,0,5.6-0.7,8.1-2.3C14.8,9.2,16,8.1,17,6.9c0.5-0.6,1.1-1.2,1.6-1.8
		C18.7,5,18.7,5,18.8,4.9z"/>
</g>
</svg>
