<?xml version="1.0" encoding="utf-8"?>
<!-- Generator: Adobe Illustrator 27.5.0, SVG Export Plug-In . SVG Version: 6.00 Build 0)  -->
<svg version="1.1" id="Layer_1" xmlns="http://www.w3.org/2000/svg" xmlns:xlink="http://www.w3.org/1999/xlink" x="0px" y="0px"
	 viewBox="0 0 34 34" style="enable-background:new 0 0 34 34;" xml:space="preserve">
<style type="text/css">
	.st0{fill:#1F65D1;}
	.st1{fill:#ED4252;}
	.st2{fill:#9256FF;}
	.st3{fill:#FFFFFF;}
</style>
<g>
	<path class="st3" d="M4,25.7c0-0.3,0.1-0.5,0.2-0.6c0.3-0.4,0.7-0.8,1.1-1.2c0.1-0.1,0.1-0.1,0-0.2c-0.6-1-1-2.1-1.3-3.2
		c0-0.1-0.1-0.2-0.2-0.2c-0.5,0-1,0-1.5-0.1c-0.5,0-0.9-0.4-0.9-1c0-1.6,0-3.1,0-4.7c0-0.6,0.4-1,0.9-1c0.5,0,1,0,1.5-0.1
		c0.1,0,0.2,0,0.2-0.2c0.3-1.1,0.7-2.1,1.3-3.1c0.1-0.1,0.1-0.2,0-0.3c-0.3-0.3-0.6-0.7-1-1.1c-0.4-0.5-0.4-1,0-1.4
		c1-1,2.1-2.1,3.1-3.1c0.1-0.1,0.1-0.1,0.2-0.2c0.4-0.4,0.9-0.4,1.3,0C9.2,4.5,9.5,4.7,9.8,5c0.3,0.3,0.3,0.3,0.8,0.1
		c0.9-0.5,1.8-0.9,2.9-1.2c0.1,0,0.2-0.1,0.2-0.2c0-0.5,0-1,0.1-1.4c0-0.6,0.4-1,1-1c0,0,0.1,0,0.1,0c1.5,0,3,0,4.5,0
		c0.1,0,0.3,0,0.4,0c0.4,0.1,0.7,0.4,0.7,0.9c0,0.5,0.1,1,0.1,1.5c0,0.1,0,0.2,0.1,0.2c1.1,0.3,2.2,0.7,3.2,1.3c0.1,0,0.1,0,0.2,0
		c0.4-0.3,0.8-0.7,1.2-1c0.3-0.3,0.8-0.4,1.2-0.1c0.1,0.1,0.1,0.1,0.2,0.2c1.1,1.1,2.1,2.1,3.2,3.2c0.3,0.3,0.5,0.5,0.4,0.9
		c0,0.2-0.1,0.4-0.3,0.5c-0.3,0.4-0.7,0.7-1,1.1c-0.1,0.1-0.1,0.1,0,0.2c0.6,1,1,2,1.3,3.1c0,0.1,0.1,0.2,0.2,0.2
		c0.5,0,0.9,0,1.4,0.1c0.6,0,1,0.4,1,1c0,0.3,0,0.6,0,0.8c0,1.2,0,2.5,0,3.7c0,0.2,0,0.3-0.1,0.5c-0.1,0.4-0.4,0.6-0.8,0.6
		c-0.5,0-1,0.1-1.6,0.1c-0.1,0-0.2,0-0.2,0.1c-0.3,1.1-0.7,2.2-1.3,3.2c-0.1,0.1,0,0.1,0.1,0.2c0.3,0.4,0.7,0.7,1,1.1
		c0.1,0.1,0.2,0.3,0.3,0.5c0.1,0.3,0,0.6-0.3,0.8c-0.7,0.7-1.4,1.4-2.2,2.2c-0.4,0.4-0.8,0.8-1.2,1.2c-0.2,0.2-0.5,0.4-0.9,0.3
		c-0.1,0-0.3-0.1-0.4-0.2c-0.4-0.3-0.8-0.7-1.2-1.1c-0.1-0.1-0.1-0.1-0.2,0c-1,0.6-2.1,1-3.2,1.3c-0.1,0-0.1,0.1-0.1,0.2
		c0,0.5-0.1,0.9-0.1,1.4c0,0.7-0.5,1-1.1,1c-1.3,0-2.5,0-3.8,0c-0.3,0-0.5,0-0.8,0c-0.2,0-0.4,0-0.5-0.1c-0.3-0.1-0.5-0.4-0.5-0.8
		c0-0.5-0.1-1-0.1-1.5c0-0.1,0-0.2-0.2-0.2c-1.1-0.3-2.2-0.7-3.1-1.3c-0.1,0-0.1-0.1-0.2,0c-0.4,0.4-0.7,0.7-1.1,1
		C8.7,30,8.4,30.1,8.1,30c-0.2,0-0.4-0.2-0.5-0.3c-1.1-1.1-2.2-2.2-3.3-3.3C4.1,26.2,4,26,4,25.7z M19.8,25.1
		c3.7-1.2,6.4-4.9,5.7-9.5c-0.7-4.4-4.7-7.7-9.6-7.1c-4.3,0.5-7.7,4.4-7.4,8.9c0.1,2.2,1,4.1,2.5,5.7c0.9,0.9,2,1.6,3.3,2
		c0-0.1,0-0.1,0-0.2c0-2.1,0-4.2,0-6.3c0-0.1,0-0.1-0.1-0.1c-0.7,0-1.4,0-2.1,0c-0.4,0-0.7-0.2-0.8-0.5c-0.2-0.3-0.1-0.7,0.1-1
		c0.1-0.1,0.1-0.2,0.2-0.2c0.8-0.9,1.6-1.9,2.4-2.8c0.8-1,1.6-1.9,2.4-2.8c0.4-0.5,1-0.5,1.5,0c1.2,1.4,2.3,2.7,3.5,4.1
		c0.5,0.5,0.9,1.1,1.4,1.7c0.2,0.2,0.3,0.5,0.3,0.8c-0.1,0.5-0.4,0.8-0.9,0.8c-0.6,0-1.3,0-1.9,0c-0.1,0-0.2,0-0.3,0
		C19.8,20.7,19.8,22.9,19.8,25.1z"/>
</g>
</svg>
