<?xml version="1.0" encoding="utf-8"?>
<!-- Generator: Adobe Illustrator 27.7.0, SVG Export Plug-In . SVG Version: 6.00 Build 0)  -->
<svg version="1.1" id="Layer_1" xmlns="http://www.w3.org/2000/svg" xmlns:xlink="http://www.w3.org/1999/xlink" x="0px" y="0px"
	 viewBox="0 0 24 24" style="enable-background:new 0 0 24 24;" xml:space="preserve">
<style type="text/css">
	.st0{fill:#FFFFFF;}
</style>
<g>
	<path class="st0" d="M12.8,3.1c0.9,0,1.8,0,2.7,0c0.5,0,0.9,0.1,1.4,0.3C18,3.9,18.6,4.7,18.8,6C19,7.5,17.9,9,16.3,9.4
		c0,0-0.1,0-0.1,0c-0.1,0-0.1,0-0.1,0.1c0,0.4,0,0.8,0,1.2c0,0.2-0.1,0.4-0.2,0.5c-0.2,0.1-0.4,0.1-0.6,0c-0.3-0.2-0.5-0.4-0.7-0.6
		c-0.4-0.3-0.8-0.7-1.2-1c-0.1-0.1-0.2-0.1-0.3-0.1c-1.1,0-2.1,0-3.2,0c-0.9,0-1.7-0.4-2.3-1C7,7.8,6.8,7.1,6.7,6.3
		c0-0.8,0.3-1.5,0.8-2.1c0.5-0.6,1.2-1,2-1.1c0.2,0,0.4,0,0.5,0C11,3.1,11.9,3.1,12.8,3.1z"/>
	<path class="st0" d="M16.7,20.9c-0.6,0-1.2,0-1.9,0c-0.4,0-0.7-0.1-1-0.3c-0.8-0.5-1.1-1.6-0.6-2.5c0.4-0.7,1.1-1.2,1.8-1.6
		c0.1,0,0.1,0,0-0.1c-0.5-0.5-0.7-1.1-0.6-1.8c0.1-1.1,0.9-2,2-2.2c1.3-0.2,2.5,0.6,2.7,1.9c0.1,0.8-0.1,1.5-0.6,2
		c-0.1,0.1-0.1,0.1,0,0.1c0.8,0.4,1.4,0.9,1.8,1.6c0.6,0.9,0.2,1.9-0.6,2.4c-0.3,0.2-0.7,0.3-1.1,0.3C18.1,20.9,17.4,20.9,16.7,20.9
		z"/>
	<path class="st0" d="M6.6,20.9c-0.6,0-1.1,0-1.6,0c-0.5,0-1-0.2-1.3-0.7c-0.3-0.5-0.4-1-0.1-1.6c0.3-0.5,0.7-0.9,1.1-1.2
		c0.1,0,0.1-0.1,0.2-0.1c0.1,0,0.1-0.1,0-0.1c-0.1-0.1-0.2-0.2-0.2-0.4c-0.4-0.8-0.2-1.7,0.4-2.3C5.5,14.2,6,14,6.6,14.1
		c0.8,0,1.5,0.5,1.8,1.3c0.2,0.5,0.2,1,0,1.5C8.2,17,8.1,17.1,8,17.2c0,0.1,0,0.1,0,0.1c0.5,0.3,1,0.7,1.3,1.2
		C9.6,19,9.7,19.5,9.5,20c-0.2,0.5-0.7,0.9-1.2,0.9C7.6,20.9,7,20.9,6.6,20.9z"/>
	<path class="st0" d="M9.6,11.8c-0.4,0-0.7,0-1.1,0c-0.1,0-0.2,0-0.3,0.1c-0.4,0.3-0.8,0.7-1.2,1C6.8,13,6.6,13.1,6.4,13
		c-0.2-0.1-0.3-0.2-0.3-0.4c0-0.2,0-0.5,0-0.7c0-0.1,0-0.1-0.1-0.2c-0.4-0.1-0.7-0.3-1-0.6C3.9,10,4.1,8.3,5.3,7.5
		c0.1-0.1,0.3-0.2,0.4-0.2c0.1,0,0.1,0,0.1,0c0.3,1.2,1,2.1,2.1,2.7c0.6,0.3,1.3,0.5,1.9,0.5c0.9,0,1.8,0,2.7,0c0.1,0,0.1,0,0,0.1
		c-0.3,0.6-0.9,1-1.5,1.2c-0.2,0.1-0.5,0.1-0.7,0.1C10.1,11.8,9.9,11.8,9.6,11.8C9.6,11.8,9.6,11.8,9.6,11.8z"/>
</g>
</svg>
