<?xml version="1.0" encoding="utf-8"?>
<!-- Generator: Adobe Illustrator 27.5.0, SVG Export Plug-In . SVG Version: 6.00 Build 0)  -->
<svg version="1.1" id="Layer_1" xmlns="http://www.w3.org/2000/svg" xmlns:xlink="http://www.w3.org/1999/xlink" x="0px" y="0px"
	 viewBox="0 0 34 34" style="enable-background:new 0 0 34 34;" xml:space="preserve">
<style type="text/css">
	.st0{fill:#1F65D1;}
	.st1{fill:#ED4252;}
	.st2{fill:#9256FF;}
	.st3{fill:#FFFFFF;}
</style>
<g>
	<path class="st1" d="M17,20c-2.5,0-5,0-7.5,0c-1.5,0-2.9,0-4.4,0c-0.1,0-0.2,0-0.2,0.2c0,3.7,0,7.3,0,11c0,0.3,0,0.5,0,0.8
		c0,0.1,0,0.1-0.1,0.1c-1,0-1.9,0-2.9,0c0-6,0-12,0-18.1c0.1,0,0.2,0,0.4,0c3.8,0,7.6,0,11.4,0c0.3,0,0.3,0,0.3-0.3
		c0-2.3,0-4.6,0-6.9c0-0.3,0-0.3,0.3-0.3c1.8,0,3.7,0,5.5,0c0.2,0,0.2,0,0.2,0.2c0,2.3,0,4.6,0,7c0,0.1,0,0.3,0,0.4
		c0.1,0.1,0.2,0,0.4,0c0.8,0,1.6,0,2.4,0c0.1,0,0.2,0,0.3,0c0-4,0-8,0-12.1c0.1,0,0.1,0,0.2,0c1.9,0,3.8,0,5.7,0
		c0.1,0,0.2,0,0.2,0.2c0,3.9,0,7.7,0,11.6c0,0.3,0,0.3,0.3,0.3c0.9,0,1.7,0,2.6,0c0,0,0.1,0,0.1,0c0,6,0,12,0,18c-5,0-10,0-15.1,0
		C17,28,17,24,17,20z M21.5,20C21.5,20,21.5,20,21.5,20c-0.5,0-0.9,0-1.4,0c-0.1,0-0.1,0-0.1,0.1c0,0.9,0,1.9,0,2.8
		c0,0.1,0,0.1,0.1,0.1c0.9,0,1.9,0,2.8,0c0.1,0,0.1,0,0.1-0.1c0-0.9,0-1.8,0-2.7c0-0.1,0-0.1-0.1-0.1C22.4,20,22,20,21.5,20z M23,29
		c0-0.1,0-0.1,0-0.2c0-0.9,0-1.8,0-2.7c0-0.1,0-0.2-0.2-0.2c-0.9,0-1.8,0-2.7,0c-0.1,0-0.2,0-0.2,0.2c0,0.9,0,1.8,0,2.7
		c0,0.1,0,0.1,0.1,0.1c0.9,0,1.8,0,2.7,0C22.9,29.1,23,29,23,29z M26,21.5C26,21.5,26,21.5,26,21.5c0,0.5,0,0.9,0,1.4
		c0,0.1,0,0.1,0.1,0.1c0.9,0,1.8,0,2.8,0c0.1,0,0.1,0,0.1-0.1c0-0.9,0-1.8,0-2.7c0-0.2-0.1-0.2-0.2-0.2c-0.9,0-1.8,0-2.7,0
		c-0.1,0-0.1,0-0.1,0.1C26,20.6,26,21.1,26,21.5z M29.1,27.6C29.1,27.6,29.1,27.6,29.1,27.6c0-0.5,0-0.9,0-1.4c0-0.1,0-0.1-0.1-0.1
		c-0.9,0-1.9,0-2.8,0c-0.1,0-0.1,0-0.1,0.1c0,0.9,0,1.9,0,2.8c0,0.1,0,0.1,0.1,0.1c0.9,0,1.8,0,2.8,0c0.1,0,0.2,0,0.2-0.2
		C29.1,28.4,29.1,28,29.1,27.6z"/>
	<path class="st1" d="M8,32.1c0-0.2,0-0.5,0-0.7c0-2.7,0-5.3,0-8C8,23,8,23,8.3,23c1.8,0,3.7,0,5.5,0c0.1,0,0.2,0,0.2,0.2
		c0,2.7,0,5.3,0,8c0,0.3,0,0.5,0,0.8c0,0.1,0,0.1-0.1,0.1c-1.9,0-3.8,0-5.8,0C8,32.1,8,32.1,8,32.1z"/>
</g>
</svg>
