<?xml version="1.0" encoding="UTF-8"?>
<svg id="Layer_8" data-name="Layer 8" xmlns="http://www.w3.org/2000/svg" viewBox="0 0 90 90">
  <defs>
    <style>
      .cls-1 {
        fill: #ed4252;
        stroke-width: 0px;
      }
    </style>
  </defs>
  <path class="cls-1" d="m19.17,43.08h51.67c0,1.42.06,2.8-.04,4.17-.03.37-.49.8-.85,1.05-5.49,3.87-10.98,7.74-16.52,11.55-.82.56-1.08,1.15-1.06,2.1.05,2.91.04,5.82,0,8.73,0,.38-.31.98-.61,1.09-4.64,1.6-9.29,3.13-14.12,4.73v-1.65c0-4.34-.03-8.69.02-13.03,0-.87-.24-1.39-.97-1.9-5.56-3.84-11.08-7.75-16.63-11.6-.65-.45-.94-.9-.89-1.7.07-1.14.02-2.28.02-3.54Z"/>
  <path class="cls-1" d="m21.1,39.26c-.13-5.25,3.01-8.89,9.58-11.04-2.15-.65-3.82-1.69-4.9-3.52-1.1-1.86-1.36-3.84-.74-5.91,1-3.37,4.21-5.55,7.68-5.26,3.31.28,6.17,2.92,6.64,6.11.58,3.97-1.33,6.85-5.83,8.61,5.88,1.38,9.16,4.91,9.68,11h-22.1Z"/>
  <path class="cls-1" d="m59.39,28.27c5.87,1.37,9.13,4.92,9.65,11h-22.04c-.52-4.76,2.87-8.75,9.51-11.07-2.12-.61-3.76-1.65-4.84-3.41-1.11-1.8-1.4-3.75-.86-5.79.9-3.4,4.01-5.65,7.52-5.49,3.29.16,6.25,2.71,6.84,5.9.73,3.95-1.2,6.94-5.77,8.85Z"/>
</svg>