<?xml version="1.0" encoding="utf-8"?>
<!-- Generator: Adobe Illustrator 27.7.0, SVG Export Plug-In . SVG Version: 6.00 Build 0)  -->
<svg version="1.1" id="Layer_1" xmlns="http://www.w3.org/2000/svg" xmlns:xlink="http://www.w3.org/1999/xlink" x="0px" y="0px"
	 viewBox="0 0 24 24" style="enable-background:new 0 0 24 24;" xml:space="preserve">
<style type="text/css">
	.st0{fill:#FFFFFF;}
</style>
<g>
	<path class="st0" d="M12,18.2c-3,0-6,0-9,0c-0.1,0-0.1,0-0.2,0c-0.2,0-0.2-0.1-0.2-0.2c0-2.7,0-5.5,0-8.2c0-0.7,0.6-1.3,1.3-1.4
		c0.2,0,0.2,0,0.2,0.2c0,0.6,0,1.3,0,1.9c0,0.4,0.1,0.8,0.4,1c0.2,0.2,0.4,0.2,0.6,0.2c0.2,0,0.4,0,0.6,0c0.1,0,0.2,0,0.2,0.2
		c0,0.1,0.1,0.1,0.2,0.1c0.2,0,0.5,0.1,0.7,0.1c0.2,0,0.2,0.1,0.3,0.2c0.1,0.2,0.1,0.4,0.2,0.5c0.1,0.1,0,0.2,0,0.3
		c-0.1,0.2-0.3,0.4-0.4,0.5c-0.2,0.2-0.2,0.2,0,0.4c0.5,0.5,0.9,0.9,1.4,1.4c0.1,0.1,0.2,0.3,0.4,0.3c0.2,0,0.3-0.2,0.4-0.3
		c0,0,0.1,0,0.1-0.1c0.2-0.3,0.5-0.3,0.8-0.1c0.1,0.1,0.2,0.1,0.3,0.1c0.2,0,0.2,0.1,0.3,0.3c0,0.2,0,0.4,0.1,0.6
		c0,0.2,0.1,0.2,0.2,0.2c0.8,0,1.5,0,2.3,0c0.2,0,0.2-0.1,0.2-0.2c0-0.2,0-0.4,0.1-0.6c0-0.2,0.1-0.3,0.3-0.3c0.2,0,0.4-0.2,0.6-0.2
		c0.1-0.1,0.2-0.1,0.3,0c0.2,0.1,0.4,0.3,0.6,0.4c0.1,0.1,0.1,0.1,0.2,0c0.6-0.6,1.1-1.1,1.7-1.7c0.1-0.1,0.1-0.2,0-0.3
		c-0.2-0.2-0.3-0.4-0.5-0.6c-0.1-0.1-0.1-0.2,0-0.3c0.1-0.2,0.2-0.4,0.2-0.6c0-0.1,0.1-0.2,0.2-0.2c0.2,0,0.5-0.1,0.7-0.1
		c0.1,0,0.2,0,0.3-0.2c0-0.1,0.1-0.1,0.2-0.1c0.2,0,0.3,0,0.5,0c0.7,0,1.2-0.4,1.2-1.2c0-0.6,0-1.3,0-1.9c0-0.3,0-0.3,0.3-0.2
		c0.7,0.2,1.3,0.8,1.3,1.5c0,2.7,0,5.3,0,8c0,0.3,0,0.3-0.3,0.3C18.1,18.2,15,18.2,12,18.2z"/>
	<path class="st0" d="M8.3,13.1C8.3,13.1,8.3,13.1,8.3,13.1c-0.3-0.5-0.5-0.9-0.5-1.4c0-0.1-0.1-0.2-0.2-0.2c-0.2,0-0.4-0.1-0.7-0.1
		c-0.2,0-0.2-0.1-0.2-0.2c0-0.3,0-0.7,0-1c0-0.2,0.1-0.2,0.2-0.3c0.2,0,0.5-0.1,0.7-0.1c0.1,0,0.2-0.1,0.2-0.2
		C8,9.2,8.1,8.9,8.3,8.5c0.1-0.1,0.1-0.2,0-0.3C8.2,8,8,7.8,7.9,7.6c-0.1-0.1-0.1-0.2,0-0.3c0.3-0.3,0.5-0.5,0.8-0.8
		c0.1-0.1,0.2-0.1,0.3,0C9.2,6.7,9.4,6.9,9.6,7c0.1,0.1,0.2,0.1,0.2,0c0.3-0.2,0.7-0.4,1.1-0.4c0.1,0,0.2-0.1,0.2-0.2
		c0-0.3,0.1-0.5,0.1-0.8c0-0.2,0.1-0.3,0.3-0.2c0.3,0,0.7,0,1,0c0.2,0,0.3,0.1,0.3,0.3c0,0.3,0.1,0.5,0.1,0.8c0,0.1,0.1,0.1,0.2,0.2
		c0.4,0.1,0.7,0.2,1.1,0.4c0.1,0.1,0.2,0.1,0.3,0c0.2-0.2,0.4-0.3,0.6-0.5c0.1-0.1,0.2-0.1,0.4,0c0.2,0.3,0.5,0.5,0.7,0.7
		c0.1,0.1,0.1,0.2,0,0.4C16,7.8,15.8,8,15.7,8.2c-0.1,0.1-0.1,0.2,0,0.3c0.2,0.4,0.4,0.7,0.5,1.2c0,0.1,0.1,0.1,0.2,0.1
		c0.2,0,0.5,0.1,0.7,0.1c0.2,0,0.3,0.1,0.3,0.3c0,0.3,0,0.7,0,1c0,0.1,0,0.2-0.2,0.2c-0.2,0-0.4,0.1-0.7,0.1c-0.1,0-0.2,0.1-0.2,0.2
		c-0.1,0.5-0.3,0.9-0.5,1.3c-0.1,0.1-0.1,0.2,0,0.3c0.1,0.2,0.2,0.3,0.4,0.5c0.1,0.1,0.1,0.2,0,0.3c-0.3,0.3-0.5,0.5-0.8,0.8
		c-0.1,0.1-0.2,0.1-0.3,0c-0.1-0.1-0.3-0.2-0.4-0.3c-0.1-0.1-0.1-0.1-0.2,0C14,14.7,13.5,15,13,15.1c-0.1,0-0.1,0.1-0.1,0.2
		c0,0.2-0.1,0.4-0.1,0.6c0,0.1-0.1,0.2-0.2,0.2c-0.4,0-0.8,0-1.1,0c-0.1,0-0.2-0.1-0.2-0.2c0-0.2-0.1-0.4-0.1-0.6
		c0-0.1-0.1-0.1-0.2-0.2c-0.5-0.1-0.9-0.3-1.3-0.6c-0.1-0.1-0.2-0.1-0.4,0c-0.1,0.1-0.3,0.2-0.4,0.3c-0.1,0.1-0.2,0.1-0.3,0
		c-0.3-0.3-0.5-0.5-0.8-0.8c-0.1-0.1-0.1-0.2,0-0.3c0.1-0.2,0.3-0.3,0.4-0.5C8.3,13.2,8.3,13.2,8.3,13.1z M12,8.7
		c-1.2,0-2.2,1-2.2,2.2c0,1.2,1,2.2,2.2,2.2c1.2,0,2.2-1,2.2-2.2C14.2,9.6,13.2,8.6,12,8.7z"/>
	<path class="st0" d="M12,18.9c3,0,6,0,9,0c0.1,0,0.2,0,0.2,0c0.1,0,0.1,0,0.1,0.1c0,0.4,0.1,0.9-0.1,1.3c-0.3,0.5-0.7,0.9-1.3,0.9
		c-1.7,0-3.4,0-5.1,0c-3.6,0-7.1,0-10.7,0c-0.6,0-1-0.2-1.4-0.7c-0.2-0.2-0.3-0.5-0.3-0.8c0-0.2,0-0.4,0-0.6c0-0.2,0-0.2,0.3-0.3
		c0.1,0,0.1,0,0.2,0C6,18.9,9,18.9,12,18.9z"/>
	<path class="st0" d="M12,23.9c-1.6,0-3.1,0-4.7,0c-0.2,0-0.4,0-0.5-0.2c-0.2-0.2-0.1-0.6,0.2-0.6c0.1,0,0.3,0,0.4,0
		c0.3,0,0.6,0,0.9,0c0.1,0,0.2-0.1,0.2-0.2c0-0.2,0-0.4,0-0.7c0-0.3,0-0.3,0.3-0.3c0.6,0,1.2,0,1.7,0c1.5,0,3,0,4.5,0
		c0.3,0,0.3,0,0.3,0.3c0,0.2,0,0.4,0,0.6c0,0.1,0.1,0.2,0.2,0.2c0.4,0,0.7,0,1.1,0c0.1,0,0.2,0,0.3,0c0.2,0,0.3,0.2,0.3,0.4
		c0,0.2-0.1,0.3-0.2,0.4c-0.1,0.1-0.3,0.1-0.4,0.1C15.1,23.9,13.6,23.9,12,23.9z"/>
	<path class="st0" d="M19.2,8.7c0,0.6,0,1.2,0,1.8c0,0.4-0.2,0.6-0.6,0.6c-0.2,0-0.3,0-0.5,0C18,11.1,18,11,18,10.9
		c0-0.1,0-0.2,0-0.3c0-0.2,0-0.3,0.3-0.3c0.1,0,0.1,0,0.1-0.1c0-0.1,0-0.1,0-0.2c0-1.2,0-2.4,0-3.6c0-0.4,0.1-0.6,0.6-0.6
		c0.4,0,0.8,0,1.2,0c0.1,0,0.2,0,0.3-0.2c0.3-0.5,0.9-0.7,1.4-0.5c0.5,0.2,0.8,0.8,0.7,1.3c-0.1,0.4-0.5,0.8-0.9,0.9
		c-0.5,0.1-1-0.1-1.2-0.5c-0.1-0.1-0.2-0.2-0.3-0.2c-0.2,0-0.5,0-0.7,0c-0.2,0-0.2,0.1-0.2,0.2C19.2,7.4,19.2,8.1,19.2,8.7z"/>
	<path class="st0" d="M5.6,8.2c0,0.6,0,1.2,0,1.9c0,0.2,0,0.3,0.2,0.3C6,10.3,6,10.3,6,10.4c0,0.2,0,0.3,0,0.5C6,11,6,11.1,5.8,11.1
		c-0.2,0-0.4,0-0.5,0c-0.3,0-0.4-0.2-0.5-0.4c0-0.1,0-0.2,0-0.2c0-1.2,0-2.4,0-3.6c0-0.3,0-0.3-0.3-0.3c-0.2,0-0.5,0-0.7,0
		c-0.1,0-0.2,0-0.2,0.1C3.4,7.2,3,7.4,2.4,7.3c-0.5-0.1-0.8-0.4-1-0.8C1.3,6,1.5,5.6,1.8,5.3c0.5-0.5,1.4-0.4,1.8,0.3
		c0.1,0.1,0.2,0.2,0.3,0.2c0.4,0,0.8,0,1.2,0c0.4,0,0.5,0.2,0.5,0.5C5.7,6.9,5.6,7.5,5.6,8.2z"/>
	<path class="st0" d="M15.7,4.5c0-0.4,0-0.8,0-1.2c0-0.4,0.1-0.5,0.5-0.5c0.5,0,1,0,1.5,0c0.2,0,0.3,0,0.4-0.2
		c0.3-0.5,0.9-0.7,1.4-0.5c0.6,0.2,0.8,0.8,0.7,1.4c-0.1,0.5-0.4,0.7-0.9,0.8c-0.5,0.1-1-0.1-1.2-0.6c-0.1-0.1-0.2-0.2-0.3-0.2
		c-0.3,0-0.7,0-1,0c-0.3,0-0.3,0-0.3,0.3c0,0.8,0,1.7,0,2.5c0,0.1,0,0.1,0,0.2c0,0.1,0,0.1-0.1,0.2c-0.1,0-0.1,0-0.2-0.1
		c-0.2-0.2-0.3-0.3-0.5-0.5c-0.1-0.1-0.2-0.2-0.2-0.4C15.7,5.3,15.7,4.9,15.7,4.5z"/>
	<path class="st0" d="M7.4,5.1c0-0.4,0-0.9,0-1.3c0-0.2-0.1-0.2-0.2-0.2c-0.3,0-0.7,0-1,0c-0.1,0-0.2,0-0.3,0.2
		c-0.5,0.8-1.5,0.8-2,0C3.6,3.3,3.7,2.7,4,2.4C4.3,2,4.8,1.9,5.3,2.1c0.3,0.1,0.5,0.3,0.6,0.5C5.9,2.7,6,2.8,6.2,2.8
		c0.5,0,1,0,1.6,0c0.3,0,0.5,0.1,0.5,0.5c0,0.8,0,1.7,0,2.5c0,0.1,0,0.2-0.1,0.3C8,6.2,7.8,6.4,7.7,6.6c0,0-0.1,0.1-0.2,0.1
		c-0.1,0-0.1-0.1-0.1-0.2C7.4,6,7.4,5.6,7.4,5.1z"/>
	<path class="st0" d="M11.6,3.5c0-0.3,0-0.6,0-0.9c0-0.1,0-0.2-0.2-0.3c-0.8-0.5-0.8-1.4-0.2-1.9c0.6-0.5,1.6-0.2,1.8,0.6
		c0.2,0.6,0,1.1-0.5,1.4c-0.1,0.1-0.2,0.2-0.2,0.3c0,0.6,0,1.3,0,1.9c0,0.2,0,0.3-0.2,0.3c-0.7,0-0.5,0.1-0.6-0.6
		C11.6,3.9,11.6,3.7,11.6,3.5z"/>
</g>
</svg>
