<?xml version="1.0" encoding="UTF-8"?>
<svg id="Layer_1" data-name="Layer 1" xmlns="http://www.w3.org/2000/svg" viewBox="0 0 70 70">
  <defs>
    <style>
      .cls-1 {
        fill: #9256ff;
        stroke-width: 0px;
      }
    </style>
  </defs>
  <path class="cls-1" d="m46.74,33.59c-.78,1.39-1.45,2.69-2.21,3.94-.85,1.41-2.14,2.02-3.8,1.97-1.6-.05-3.21.05-4.8-.03-1.98-.09-3.56.56-4.77,2.25-3.82-1.5-6.15-4.39-7.71-8.12-1,1.28-2.22,1.94-3.85,1.59-1.47-.31-2.65-1.62-2.66-3.12-.03-3.08-.05-6.16.02-9.23.01-.64.28-1.42.71-1.87.63-.66.73-1.4.86-2.2,1.08-6.68,6.31-12.11,13-13.54,9.27-1.98,18.39,4.16,19.96,13.47.15.87.29,1.65.94,2.37.42.45.64,1.25.65,1.89.07,2.98.08,5.97,0,8.95-.02.73-.49,1.44-.76,2.16-.18.5-.51,1-.52,1.5-.05,6.43-4.5,10.9-10.92,10.9-1.76,0-3.52,0-5.28,0-1.44,0-2.37-.85-2.38-2.1,0-1.27.87-2.07,2.37-2.09,1.79-.02,3.58,0,5.37,0,4.22-.04,6.93-2.97,6.58-7.17-.04-.52-.53-1-.8-1.49Zm-23.2-12.26c2.29-4.91,5.72-8.49,11.5-8.49,5.78,0,9.2,3.61,11.66,8.55.33-.68.75-1.39.64-2.01-1.02-5.89-6.09-10.22-12.02-10.35-5.96-.14-11.13,3.9-12.55,9.75-.25,1.03-.23,1.89.77,2.55Z"/>
  <path class="cls-1" d="m52.09,43.82c5.19,3.23,8.43,7.75,9.46,13.76.25,1.44.27,2.93.28,4.4,0,1.92-1.28,3.16-3.21,3.16-15.73,0-31.46,0-47.18,0-1.9,0-3.16-1.22-3.23-3.06-.39-9.53,5.25-17.44,14.38-20.21.7-.21,1.18-.17,1.74.38,1.63,1.61,3.56,2.74,5.71,3.54.36.13.74.45.93.79.86,1.49,2.1,2.52,3.81,2.57,2.85.08,5.72.15,8.55-.12,3.31-.32,6.02-2.01,8.18-4.56.18-.21.37-.42.58-.66Z"/>
</svg>