<?xml version="1.0" encoding="UTF-8"?>
<svg id="Layer_1" data-name="Layer 1" xmlns="http://www.w3.org/2000/svg" viewBox="0 0 50 50">
  <defs>
    <style>
      .cls-1 {
        fill: #fff;
        stroke-width: 0px;
      }
    </style>
  </defs>
  <path class="cls-1" d="m15.37,27.61c0,.23,0,.36,0,.49-.11,2.17-.22,4.34-.35,6.51-.03.58-.18.69-.76.69-1.99,0-3.99,0-5.98,0-.57,0-.76-.18-.75-.75.04-2.67.06-5.34.14-8.01.02-.77.17-1.54.32-2.3.25-1.3.76-2.2,2.8-2.44,1.51-.17,2.88.23,4.11,1.11,1,.72,2.01,1.41,3,2.13.21.15.38.16.61.04.98-.5,1.97-.99,2.97-1.47.96-.46,1.98-.13,2.42.77.43.89.08,1.89-.85,2.37-1.37.71-2.75,1.4-4.12,2.1-.65.33-1.27.3-1.87-.14-.51-.37-1.04-.7-1.66-1.11Z"/>
  <path class="cls-1" d="m34.6,27.63c-.51.34-.98.63-1.43.95-.73.52-1.46.58-2.27.14-1.31-.71-2.65-1.35-3.97-2.04-1.15-.6-1.33-2.11-.34-2.91.6-.49,1.27-.54,1.96-.2,1.01.5,2.02,1.01,3.02,1.52.2.1.34.09.52-.04,1.02-.74,2.06-1.46,3.08-2.2,1.18-.85,2.5-1.21,3.95-1.08,1.75.15,2.61.9,2.95,2.62.37,1.86.4,3.74.41,5.62.01,1.49-.02,2.98-.03,4.46,0,.64-.18.81-.8.81-1.96,0-3.92,0-5.88,0-.64,0-.79-.12-.82-.75-.11-2.21-.21-4.41-.31-6.62,0-.08-.02-.15-.03-.29Z"/>
  <path class="cls-1" d="m31.53,8.55c-.02-.44-.04-.8-.05-1.16-.03-.78.45-1.37,1.14-1.41.74-.05,1.31.44,1.38,1.23.12,1.41.22,2.83.31,4.25.05.78-.48,1.33-1.26,1.38-1.41.09-2.81.2-4.22.26-1.06.05-1.7-.97-1.21-1.87.22-.4.56-.61,1.01-.64.4-.03.81-.05,1.24-.14-.1-.07-.2-.14-.3-.2-3.87-2.19-8.74-1.31-11.55,2.14-.73.9-1.82.63-2.2-.07-.27-.49-.22-1.01.16-1.47,1.64-1.99,3.7-3.31,6.2-3.92,3.14-.77,6.1-.29,8.88,1.36.13.08.26.16.47.29Z"/>
  <path class="cls-1" d="m20.09,39.58c.68.44,1.42.77,2.2.98,3.85,1.01,7.09.02,9.71-2.99.42-.48.94-.65,1.47-.45.52.19.88.7.82,1.23-.03.25-.13.54-.29.73-2.71,3.21-6.15,4.67-10.35,4.28-1.79-.17-3.44-.78-4.96-1.74-.06-.04-.12-.07-.17-.1-.02,0-.04,0-.13,0,.02.36.05.71.07,1.06.04.67-.31,1.21-.89,1.39-.75.24-1.57-.29-1.63-1.07-.11-1.45-.2-2.9-.28-4.35-.04-.79.48-1.33,1.26-1.37,1.41-.09,2.81-.2,4.22-.26,1.04-.05,1.68.94,1.22,1.84-.21.4-.54.63-.99.67-.41.04-.83.05-1.24.08,0,.03-.02.06-.03.08Z"/>
  <path class="cls-1" d="m11.88,13.15c2.16,0,3.89,1.73,3.89,3.88,0,2.13-1.73,3.87-3.86,3.89-2.13.02-3.9-1.74-3.91-3.88,0-2.15,1.73-3.89,3.88-3.89Z"/>
  <path class="cls-1" d="m38.07,13.15c2.15,0,3.89,1.74,3.89,3.89,0,2.14-1.77,3.89-3.9,3.88-2.13-.01-3.86-1.75-3.87-3.88,0-2.15,1.73-3.89,3.88-3.89Z"/>
</svg>