<?xml version="1.0" encoding="utf-8"?>
<!-- Generator: Adobe Illustrator 27.5.0, SVG Export Plug-In . SVG Version: 6.00 Build 0)  -->
<svg version="1.1" id="Layer_1" xmlns="http://www.w3.org/2000/svg" xmlns:xlink="http://www.w3.org/1999/xlink" x="0px" y="0px"
	 viewBox="0 0 34 34" style="enable-background:new 0 0 34 34;" xml:space="preserve">
<style type="text/css">
	.st0{fill:#1F65D1;}
	.st1{fill:#ED4252;}
	.st2{fill:#9256FF;}
	.st3{fill:#FFFFFF;}
</style>
<g>
	<path class="st0" d="M14.3,20.7c0.4,0.4,0.8,0.8,1.3,1.2c0.5,0.5,1,0.9,1.5,1.4c0.7,0.7,0.9,1.6,0.5,2.5c-0.6,1.3-1.2,2.6-1.8,3.9
		c-0.4,0.9-0.8,1.7-1.2,2.6c-0.3,0.8-0.8,1.3-1.7,1.4c-1.5,0.3-2.7-1.1-2.3-2.5c0.2-0.7,0.6-1.4,0.9-2.1c0.5-1.2,1.1-2.3,1.6-3.5
		c0-0.1,0-0.2,0-0.2c-1.4-1.3-2.8-2.6-4.1-3.9c-0.5-0.5-0.8-1-0.8-1.7c0-0.4,0.2-0.8,0.4-1.1c0.7-1.1,1.4-2.2,2-3.3
		c0.8-1.3,1.6-2.6,2.4-3.9c0.3-0.5,0.7-0.8,1.2-1c0.8-0.3,1.5-0.2,2.1,0.3c0.6,0.4,1.1,0.8,1.7,1.3c0.7,0.6,1.4,1.1,2.3,1.3
		c0.8,0.2,1.6,0.4,2.3,0.7c0.4,0.1,0.8,0.1,1.2,0c1.3-0.1,2.6-0.2,3.9-0.3c0.3,0,0.3,0,0.3,0.3c0,1,0,2,0,3c0,0.2,0,0.2-0.2,0.2
		c-1.4,0.1-2.8,0.2-4.3,0.3c-0.7,0.1-1.4-0.1-2-0.3c-1.1-0.3-2.3-0.7-3.4-1c-0.1,0-0.1,0-0.2,0C16.7,17.6,15.5,19.1,14.3,20.7
		C14.3,20.6,14.3,20.6,14.3,20.7z"/>
	<path class="st0" d="M33.3,17c0,4.8,0,9.7,0,14.5c0,0.4,0,0.8,0,1.2c0,0.5-0.3,0.8-0.8,0.8c-0.6,0-1.3,0-1.9,0
		c-0.5,0-0.7-0.3-0.8-0.7c0-0.3,0-0.5,0-0.8c0-10,0-20,0-30.1c0-0.3,0-0.6,0-0.9c0-0.5,0.3-0.7,0.8-0.8c0.6,0,1.3,0,1.9,0
		c0.5,0,0.8,0.3,0.8,0.8c0,0.3,0,0.7,0,1C33.3,7.2,33.3,12.1,33.3,17z"/>
	<path class="st0" d="M7.4,22.4c1,1,2,1.9,3,2.8c0,0,0,0.1-0.1,0.1c-1.8,2.3-3.6,4.5-5.4,6.8c-0.2,0.3-0.4,0.5-0.6,0.7
		c-0.6,0.6-1.3,0.8-2,0.6C1.5,33.3,1,32.8,0.8,32c-0.1-0.6,0-1.1,0.3-1.6c0.6-0.8,1.2-1.5,1.8-2.3c1.3-1.6,2.5-3.2,3.8-4.8
		C6.9,23,7.2,22.7,7.4,22.4z"/>
	<path class="st0" d="M20.6,11.5c-1.8,0-3.7-1.5-3.6-3.7c0-1.9,1.7-3.6,3.7-3.5c2,0,3.6,1.7,3.5,3.7C24.3,9.9,22.6,11.5,20.6,11.5z"
		/>
</g>
</svg>
