<svg width="45" height="41" viewBox="0 0 45 41" fill="none" xmlns="http://www.w3.org/2000/svg">
<path d="M11.0947 40.6799C10.6247 40.5546 10.1547 40.4919 9.71608 40.3353C7.77341 39.6146 6.99008 37.5466 7.96141 35.7293C8.24341 35.1966 8.58808 34.6953 8.87008 34.1626C9.37141 33.3166 9.27741 32.4079 8.55674 31.8126C8.11808 31.4366 7.61674 31.3113 7.05274 31.3113C5.73674 31.2799 4.38941 31.2799 3.07341 31.2799C2.69741 31.2799 2.32141 31.2799 1.97674 31.2486C1.09941 31.1859 0.62941 30.7473 0.566744 29.8386C0.53541 29.5253 0.53541 29.2119 0.53541 28.9299C0.53541 27.5826 0.53541 26.2353 0.53541 24.8566C0.53541 24.3866 0.62941 23.9479 0.848744 23.5406C1.31874 22.7259 2.35274 22.4439 3.23008 22.9139C3.63741 23.1333 4.01341 23.4466 4.42074 23.6973C5.32941 24.2613 6.30074 24.5433 7.33474 24.2299C8.49408 23.9166 9.24608 23.1019 9.62208 21.9739C10.0921 20.5326 9.96674 19.1539 9.05808 17.9319C7.99274 16.5219 6.01874 16.2399 4.57741 17.2113C4.20141 17.4619 3.82541 17.7753 3.41808 17.9946C3.13608 18.1513 2.82274 18.2766 2.50941 18.3079C1.69474 18.4019 1.03674 17.9946 0.786077 17.2113C0.62941 16.7413 0.566744 16.2399 0.53541 15.7699C0.504077 14.3286 0.53541 12.9186 0.53541 11.4773C0.53541 10.2239 1.00541 9.78526 2.25874 9.75393C3.60608 9.72259 4.95341 9.75393 6.33208 9.72259C6.80208 9.72259 7.24074 9.69126 7.67941 9.59726C9.05808 9.28393 9.59074 7.99926 8.80741 6.80859C8.52541 6.40126 8.24341 5.99393 7.99274 5.58659C7.27208 4.39593 7.33474 2.89193 8.18074 1.79526C8.87008 0.917925 9.81008 0.479259 10.9067 0.416592C12.2541 0.291259 13.4761 0.635925 14.3847 1.70126C15.1994 2.64126 15.3561 3.73793 14.9801 4.89726C14.7921 5.42993 14.4474 5.89993 14.1967 6.36993C14.0714 6.62059 13.8834 6.83993 13.7581 7.09059C13.1627 8.31259 13.7267 9.44059 15.0741 9.65993C15.7947 9.78526 16.5467 9.78526 17.2987 9.81659C18.2701 9.84793 19.2101 9.78526 20.1814 9.81659C20.5261 9.81659 20.9021 9.87926 21.2467 9.94193C21.6854 10.0359 21.9361 10.3179 21.9987 10.7566C22.0614 11.0386 22.0927 11.3519 22.0927 11.6339C22.0927 12.8246 22.0927 14.0153 22.0614 15.2059C22.0614 16.1146 22.2807 16.9293 22.8134 17.6813C23.4087 18.5273 24.0981 18.6839 25.0067 18.1513C25.5081 17.8379 26.0094 17.4619 26.5421 17.1799C27.7641 16.5533 28.9547 16.5846 30.0827 17.4306C30.8661 18.0259 31.2734 18.8093 31.4614 19.7493C31.6807 21.0026 31.4614 22.1933 30.6467 23.1959C29.5501 24.5433 27.6701 24.7939 26.1661 23.8226C25.7587 23.5719 25.3827 23.2899 24.9754 23.0393C23.8161 22.2873 22.5314 23.0393 22.2807 24.1046C22.1554 24.5433 22.1241 24.9819 22.1241 25.4206C22.0927 26.8933 22.0927 28.3659 22.0927 29.8386C22.0927 29.9326 22.0927 30.0579 22.0614 30.1519C21.9674 30.8099 21.6541 31.1546 20.9961 31.2486C20.6514 31.3113 20.3067 31.3113 19.9621 31.3113C18.6147 31.3113 17.2987 31.3113 15.9514 31.3426C15.5441 31.3426 15.1054 31.4366 14.6981 31.5619C13.5074 32.0006 13.1314 33.0659 13.7581 34.1626C13.9461 34.5073 14.1967 34.7893 14.4161 35.1339C15.0741 36.0739 15.3561 37.1079 15.0114 38.2046C14.5414 39.7399 13.3821 40.4293 11.9094 40.6799C11.8154 40.7113 11.6901 40.7113 11.5961 40.7426C11.4394 40.6799 11.2827 40.6799 11.0947 40.6799Z" fill="#CA6F42"/>
<path d="M33.4041 40.6798C32.9654 40.5858 32.5267 40.5231 32.1194 40.3665C29.9887 39.6145 29.1427 37.2958 30.3334 35.3531C30.5841 34.9458 30.8974 34.6011 31.1481 34.1938C31.3047 33.8805 31.4301 33.5358 31.4927 33.1911C31.5867 32.3138 31.0541 31.5931 30.1141 31.4678C29.2681 31.3425 28.4221 31.3111 27.5761 31.2798C26.5107 31.2485 25.4454 31.2798 24.3487 31.2171C23.4087 31.1858 22.9387 30.7158 22.9387 29.7758C22.9387 28.1778 22.9074 26.5798 22.9701 24.9818C22.9701 24.6058 23.1267 24.2611 23.2834 23.9165C23.4714 23.5405 23.7221 23.4465 24.1607 23.4778C24.6307 23.5405 25.0067 23.7911 25.3827 24.0731C26.1347 24.6058 26.9807 25.0131 27.9207 25.0445C29.6754 25.1071 31.4614 24.1358 32.0567 22.0991C32.4014 20.8771 32.4641 19.6551 31.9314 18.4331C30.9601 16.1771 28.3594 15.2371 26.1974 16.4278C25.7901 16.6471 25.4141 16.9605 25.0067 17.2111C24.7874 17.3365 24.5367 17.4618 24.2861 17.5558C23.6907 17.7125 23.1581 17.3991 23.0327 16.7725C23.0014 16.6158 22.9701 16.4278 22.9701 16.2398C22.9701 14.4851 22.9701 12.7305 22.9701 10.9758C22.9701 10.2238 23.4714 9.75379 24.3487 9.75379C25.3514 9.72245 26.3854 9.75379 27.3881 9.75379C28.1087 9.75379 28.7981 9.72245 29.5187 9.69112C30.0827 9.65979 30.6154 9.50312 31.0227 9.09579C31.6181 8.53179 31.6807 7.62312 31.2107 6.83979C30.9601 6.43245 30.6781 6.08779 30.4274 5.68045C29.7381 4.52112 29.6127 3.36179 30.2707 2.13979C30.6781 1.38779 31.3047 0.917786 32.1194 0.635786C33.4667 0.165786 34.7827 0.259785 36.0047 1.04312C37.2267 1.82645 37.7907 3.36179 37.3521 4.77179C37.1641 5.33579 36.8507 5.83712 36.5061 6.30712C36.2241 6.68312 35.9734 7.05912 35.8481 7.52912C35.6287 8.46912 36.0987 9.28379 37.0387 9.53445C37.4147 9.62845 37.8221 9.69112 38.2294 9.69112C39.6394 9.72245 41.0807 9.75379 42.4907 9.78512C42.8041 9.78512 43.1174 9.84779 43.3994 9.87912C43.9007 9.97312 44.2141 10.2865 44.3081 10.7878C44.3707 11.1951 44.4021 11.6338 44.4021 12.0411C44.4021 13.4511 44.4021 14.8611 44.3707 16.3025C44.3707 16.6471 44.2767 16.9918 44.1514 17.3051C43.7441 18.3078 42.5847 18.6525 41.6447 18.1198C41.2061 17.8378 40.7674 17.5245 40.3287 17.2425C39.2321 16.6471 38.1041 16.4591 36.9447 17.0545C36.1301 17.4618 35.5974 18.1511 35.2841 18.9971C34.8141 20.3131 34.9081 21.5978 35.6287 22.7885C36.5374 24.2611 38.2607 24.7938 39.8587 24.0731C40.2661 23.8851 40.6421 23.6031 41.0181 23.3525C41.3001 23.1958 41.5507 23.0078 41.8327 22.8825C43.0234 22.3811 44.1201 23.0078 44.2767 24.2925C44.3707 24.9818 44.4021 25.6711 44.4021 26.3605C44.4021 27.5825 44.3707 28.8045 44.3394 30.0265C44.3081 30.7158 43.9321 31.1231 43.2741 31.2485C43.1174 31.2798 42.9921 31.2798 42.8354 31.2798C41.3314 31.2798 39.8274 31.2798 38.3234 31.3111C37.8847 31.3111 37.4147 31.3738 36.9761 31.5305C35.8167 31.9065 35.4407 33.1285 36.0987 34.1625C36.3807 34.6011 36.6941 35.0085 36.9447 35.4158C37.6967 36.6378 37.6027 38.1731 36.7567 39.2698C36.0987 40.0845 35.1901 40.4918 34.1874 40.6171C34.0934 40.6171 33.9681 40.6485 33.8741 40.6798C33.7174 40.6798 33.5607 40.6798 33.4041 40.6798Z" fill="#CA6F42"/>
</svg>
