<svg width="135" height="101" viewBox="0 0 135 101" fill="none" xmlns="http://www.w3.org/2000/svg">
<path d="M37.6447 2.16674C38.5234 1.5101 39.5233 1.03234 40.5874 0.760731C41.6514 0.489123 42.7588 0.428987 43.8461 0.583758C44.9335 0.738528 45.9797 1.10517 46.9248 1.66276C47.87 2.22035 48.6957 2.95796 49.3547 3.83347C50.0138 4.70899 50.4933 5.70527 50.7659 6.76542C51.0385 7.82558 51.0988 8.92885 50.9435 10.0122C50.7882 11.0956 50.4202 12.1379 49.8605 13.0796C49.3009 14.0213 48.5606 14.844 47.6819 15.5006C34.6001 25.276 27.1056 34.7848 22.8147 43.0851C28.7063 41.5741 34.924 41.9293 40.6036 44.1014C46.2832 46.2736 51.1425 50.1547 54.5062 55.2053C57.8698 60.2559 59.5706 66.2251 59.3722 72.2833C59.1739 78.3414 57.0861 84.1875 53.3992 89.0089C49.7123 93.8303 44.6094 97.3876 38.7997 99.1862C32.9901 100.985 26.7624 100.936 20.9822 99.0451C15.202 97.1546 10.1565 93.517 6.54703 88.6378C2.93753 83.7585 0.94335 77.8801 0.84167 71.8196C-0.230115 61.5853 1.22869 51.2451 5.09074 41.7017C10.0842 29.1512 19.8454 15.4673 37.6447 2.16674ZM112.924 2.16674C113.802 1.5101 114.802 1.03234 115.866 0.760731C116.93 0.489123 118.038 0.428987 119.125 0.583758C120.212 0.738528 121.259 1.10517 122.204 1.66276C123.149 2.22035 123.975 2.95796 124.634 3.83347C125.293 4.70899 125.772 5.70527 126.045 6.76542C126.317 7.82558 126.378 8.92885 126.222 10.0122C126.067 11.0956 125.699 12.1379 125.139 13.0796C124.58 14.0213 123.839 14.844 122.961 15.5006C109.879 25.276 102.384 34.7848 98.0936 43.0851C103.985 41.5741 110.203 41.9293 115.882 44.1014C121.562 46.2736 126.421 50.1547 129.785 55.2053C133.149 60.2559 134.849 66.2251 134.651 72.2833C134.453 78.3414 132.365 84.1875 128.678 89.0089C124.991 93.8303 119.888 97.3876 114.079 99.1862C108.269 100.985 102.041 100.936 96.2611 99.0451C90.4809 97.1546 85.4354 93.517 81.8259 88.6378C78.2164 83.7585 76.2222 77.8801 76.1205 71.8196C75.0487 61.5853 76.5075 51.2451 80.3696 41.7017C85.3715 29.1512 95.1243 15.4673 112.924 2.16674Z" fill="#ff1849"/>
</svg>
