<svg width="43" height="43" viewBox="0 0 43 43" fill="none" xmlns="http://www.w3.org/2000/svg">
<path d="M42.9632 42.648C41.1772 42.648 39.3912 42.648 37.4485 42.648C38.2318 42.1153 38.8898 41.6453 39.5792 41.238C40.1118 40.9247 40.3312 40.5173 40.2998 39.8907C40.2685 39.264 40.2998 38.6373 40.2998 37.948C41.2085 37.948 42.0858 37.948 42.9632 37.948C42.9632 37.9793 42.9632 38.0107 42.9632 38.042C42.6185 38.7 42.2738 39.358 41.9605 40.0473C41.8978 40.1727 41.8665 40.392 41.9292 40.5173C42.2738 41.2067 42.6185 41.896 42.9632 42.5853C42.9632 42.5853 42.9632 42.6167 42.9632 42.648Z" fill="#25C16F"/>
<path d="M15.5466 6.14452C14.9826 6.89652 14.45 7.58585 13.9486 8.27518C13.698 8.58852 13.5726 8.90185 13.7606 9.27785C13.9486 9.65385 14.2933 9.71652 14.6693 9.71652C15.6093 9.71652 16.5806 9.71652 17.5833 9.71652C17.5833 9.90452 17.5833 10.0298 17.5833 10.1865C17.5833 11.7845 17.5833 13.3825 17.5833 14.9805C17.5833 15.5445 17.8026 15.8578 18.1786 15.9518C18.7113 16.0772 19.1186 15.7012 19.15 15.0745C19.15 14.1972 19.15 13.3512 19.15 12.4739C19.15 11.3772 19.15 10.2805 19.15 9.15252C19.15 8.40052 18.868 8.11852 18.116 8.11852C17.458 8.11852 16.7686 8.11852 16.0166 8.11852C17.8653 5.70585 19.6513 3.32452 21.5 0.849182C23.3173 3.29318 25.1346 5.67452 26.9833 8.18118C26.2626 8.18118 25.636 8.18118 25.0093 8.18118C24.0693 8.18118 23.85 8.40052 23.85 9.34052C23.85 11.2519 23.85 13.1318 23.85 15.0432C23.85 15.7325 24.2573 16.1085 24.8213 15.9832C25.1973 15.8892 25.4166 15.5758 25.4166 15.0118C25.4166 13.4452 25.4166 11.8472 25.4166 10.2805C25.4166 10.1238 25.4166 9.96718 25.4166 9.77918C26.2313 9.77918 27.0146 9.77918 27.798 9.77918C28.0486 9.77918 28.268 9.77918 28.5186 9.77918C29.2706 9.71652 29.584 9.05852 29.1453 8.46318C28.6753 7.80518 28.2053 7.17852 27.704 6.55185C27.6413 6.45785 27.5473 6.36385 27.4846 6.23852C36.446 9.21518 42.086 20.7772 36.5713 30.6785C26.5446 26.7932 16.518 26.7932 6.4913 30.6785C1.2273 21.6232 5.70797 9.71652 15.5466 6.14452ZM15.202 22.2498C15.202 23.0332 15.202 23.7852 15.202 24.5685C15.2333 25.5398 15.86 26.1978 16.8626 26.1978C17.5833 26.1978 18.2726 26.1978 18.9933 26.1978C20.0586 26.1978 20.6853 25.5712 20.7166 24.5058C20.7166 23.0332 20.7166 21.5292 20.7166 20.0565C20.7166 18.9912 20.09 18.3958 19.056 18.3645C18.3353 18.3332 17.646 18.3332 16.9253 18.3645C15.86 18.3958 15.2333 19.0225 15.2333 20.0878C15.202 20.8085 15.202 21.5292 15.202 22.2498ZM21.5 22.2498C21.5 23.0332 21.5 23.7852 21.5 24.5685C21.5 25.5398 22.158 26.1978 23.1293 26.1978C23.85 26.1978 24.5706 26.1978 25.3226 26.1978C26.3253 26.1978 26.952 25.5712 26.9833 24.5998C27.0146 23.0645 27.0146 21.5292 26.9833 19.9939C26.9833 19.0225 26.388 18.4272 25.4166 18.3959C24.6646 18.3645 23.8813 18.3645 23.098 18.3959C22.0953 18.4272 21.5 19.0539 21.5 20.0565C21.5 20.7772 21.5 21.5292 21.5 22.2498ZM12.852 24.6312C12.852 24.4432 12.852 24.2865 12.852 24.1298C12.852 22.5005 12.852 20.9025 12.852 19.2732C12.852 18.5212 12.288 18.1765 11.63 18.4898C11.16 18.7092 10.7213 18.9285 10.2826 19.1478C9.7813 19.3985 9.5933 19.8058 9.81264 20.2445C10.0006 20.6832 10.4393 20.7772 10.972 20.5578C11.066 20.5265 11.16 20.4952 11.2853 20.4639C11.2853 21.8738 11.2853 23.2212 11.2853 24.5998C11.0346 24.5998 10.8466 24.5998 10.6273 24.5998C10.0946 24.6312 9.7813 24.9445 9.74997 25.3832C9.74997 25.8532 10.0946 26.1665 10.6586 26.1665C11.63 26.1665 12.6013 26.1665 13.5413 26.1665C14.074 26.1665 14.45 25.8218 14.45 25.3832C14.45 24.9445 14.1053 24.6312 13.5726 24.5998C13.3533 24.6312 13.134 24.6312 12.852 24.6312ZM34.9106 19.8998C34.7226 19.6805 34.566 19.3985 34.3466 19.2732C34.0333 19.0539 33.6886 19.2105 33.438 19.4612C31.9026 20.9652 30.3986 22.5005 28.8633 24.0358C28.4873 24.4118 28.4873 24.8818 28.8006 25.1952C29.114 25.5398 29.6153 25.5085 29.9913 25.1325C31.4953 23.6285 33.0306 22.1245 34.5346 20.5892C34.66 20.4012 34.754 20.1505 34.9106 19.8998ZM34.8166 24.6312C34.8166 24.2238 34.4406 23.8478 34.0333 23.8792C33.626 23.8792 33.2813 24.2238 33.25 24.5998C33.25 25.0385 33.5946 25.4145 34.0333 25.4145C34.472 25.4145 34.8166 25.0385 34.8166 24.6312ZM29.3333 20.7145C29.7406 20.7145 30.1166 20.3698 30.1166 19.9312C30.1166 19.5238 29.7406 19.1792 29.3333 19.1792C28.926 19.1792 28.55 19.5552 28.55 19.9625C28.5813 20.3699 28.926 20.7145 29.3333 20.7145Z" fill="#25C16F"/>
<path d="M38.7646 38.8561C33.3439 35.9107 27.5473 34.8454 21.5313 34.8454C15.5153 34.8454 9.7186 35.9107 4.29794 38.8561C4.29794 38.6681 4.2666 38.5427 4.2666 38.4174C4.2666 36.9761 4.2666 35.5347 4.2666 34.0934C4.2666 33.7801 4.3606 33.6234 4.61127 33.4667C7.11793 31.9627 9.8126 30.9914 12.6639 30.3334C16.5493 29.4247 20.4973 29.2054 24.4766 29.4561C28.1739 29.7067 31.7459 30.3961 35.1613 31.8374C36.2893 32.3074 37.3859 32.9341 38.4826 33.4981C38.6079 33.5607 38.7646 33.7487 38.7646 33.9054C38.7646 35.5347 38.7646 37.1327 38.7646 38.8561Z" fill="#25C16F"/>
<path d="M13.04 37.2898C18.7114 36.1305 24.2574 36.1305 29.8974 37.2898C25.2914 40.0472 18.5547 40.4545 13.04 37.2898Z" fill="#25C16F"/>
<path d="M0.0366211 42.6167C0.255954 42.1467 0.443955 41.708 0.694621 41.332C1.16462 40.6427 1.13329 39.9847 0.694621 39.2954C0.443955 38.9194 0.255954 38.4494 0.0366211 37.9794C0.945288 37.9794 1.79129 37.9794 2.66862 37.9794C2.66862 38.6687 2.69995 39.3267 2.66862 39.9847C2.63729 40.5174 2.85662 40.862 3.29529 41.144C4.01595 41.5827 4.70529 42.084 5.48862 42.6167C3.63995 42.6167 1.88529 42.6167 0.0366211 42.6167Z" fill="#25C16F"/>
<path d="M7.36864 41.9573C6.52264 41.3933 5.73931 40.8606 4.89331 40.2966C5.73931 39.8579 6.52264 39.4819 7.36864 39.0433C7.36864 40.0459 7.36864 40.9859 7.36864 41.9573Z" fill="#25C16F"/>
<path d="M38.1067 40.2966C37.2607 40.8606 36.446 41.3933 35.6313 41.9573C35.6313 40.9859 35.6313 40.0773 35.6313 39.0433C36.4773 39.4819 37.2607 39.8893 38.1067 40.2966Z" fill="#25C16F"/>
<path d="M19.1186 24.5996C18.3666 24.5996 17.6146 24.5996 16.8313 24.5996C16.8313 23.0329 16.8313 21.4976 16.8313 19.9309C17.5833 19.9309 18.3353 19.9309 19.1186 19.9309C19.1186 21.4976 19.1186 23.0329 19.1186 24.5996Z" fill="#25C16F"/>
<path d="M23.0979 19.9623C23.8499 19.9623 24.6019 19.9623 25.3852 19.9623C25.3852 21.4977 25.3852 23.0643 25.3852 24.631C24.6332 24.631 23.8812 24.631 23.0979 24.631C23.0979 23.0643 23.0979 21.529 23.0979 19.9623Z" fill="#25C16F"/>
<rect x="7.89478" y="16.8011" width="27.2105" height="9.89474" fill="#25C16F"/>
<path d="M10.611 25C10.557 25 10.512 24.982 10.476 24.946C10.44 24.904 10.422 24.856 10.422 24.802C10.422 24.772 10.425 24.748 10.431 24.73C10.443 24.712 10.452 24.697 10.458 24.685L11.763 22.903C11.655 22.927 11.547 22.936 11.439 22.93C11.151 22.918 10.878 22.861 10.62 22.759C10.362 22.651 10.131 22.504 9.927 22.318C9.723 22.132 9.564 21.913 9.45 21.661C9.336 21.409 9.279 21.13 9.279 20.824C9.279 20.548 9.33 20.278 9.432 20.014C9.54 19.75 9.699 19.513 9.909 19.303C10.119 19.093 10.38 18.925 10.692 18.799C11.004 18.673 11.367 18.61 11.781 18.61C12.195 18.61 12.558 18.667 12.87 18.781C13.188 18.895 13.455 19.054 13.671 19.258C13.887 19.456 14.049 19.687 14.157 19.951C14.265 20.209 14.319 20.485 14.319 20.779C14.319 21.043 14.274 21.289 14.184 21.517C14.094 21.745 13.983 21.958 13.851 22.156C13.719 22.354 13.587 22.546 13.455 22.732L11.943 24.82C11.919 24.85 11.883 24.889 11.835 24.937C11.787 24.979 11.718 25 11.628 25H10.611ZM11.79 21.868C11.988 21.868 12.168 21.826 12.33 21.742C12.492 21.658 12.618 21.538 12.708 21.382C12.804 21.226 12.852 21.04 12.852 20.824C12.852 20.602 12.804 20.413 12.708 20.257C12.618 20.101 12.492 19.981 12.33 19.897C12.168 19.813 11.988 19.771 11.79 19.771C11.598 19.771 11.421 19.813 11.259 19.897C11.097 19.981 10.968 20.101 10.872 20.257C10.782 20.413 10.737 20.602 10.737 20.824C10.737 21.04 10.782 21.226 10.872 21.382C10.968 21.538 11.097 21.658 11.259 21.742C11.421 21.826 11.598 21.868 11.79 21.868ZM16.2712 25C16.2172 25 16.1722 24.982 16.1362 24.946C16.1002 24.904 16.0822 24.856 16.0822 24.802C16.0822 24.772 16.0852 24.748 16.0912 24.73C16.1032 24.712 16.1122 24.697 16.1182 24.685L17.4232 22.903C17.3152 22.927 17.2072 22.936 17.0992 22.93C16.8112 22.918 16.5382 22.861 16.2802 22.759C16.0222 22.651 15.7912 22.504 15.5872 22.318C15.3832 22.132 15.2242 21.913 15.1102 21.661C14.9962 21.409 14.9392 21.13 14.9392 20.824C14.9392 20.548 14.9902 20.278 15.0922 20.014C15.2002 19.75 15.3592 19.513 15.5692 19.303C15.7792 19.093 16.0402 18.925 16.3522 18.799C16.6642 18.673 17.0272 18.61 17.4412 18.61C17.8552 18.61 18.2182 18.667 18.5302 18.781C18.8482 18.895 19.1152 19.054 19.3312 19.258C19.5472 19.456 19.7092 19.687 19.8172 19.951C19.9252 20.209 19.9792 20.485 19.9792 20.779C19.9792 21.043 19.9342 21.289 19.8442 21.517C19.7542 21.745 19.6432 21.958 19.5112 22.156C19.3792 22.354 19.2472 22.546 19.1152 22.732L17.6032 24.82C17.5792 24.85 17.5432 24.889 17.4952 24.937C17.4472 24.979 17.3782 25 17.2882 25H16.2712ZM17.4502 21.868C17.6482 21.868 17.8282 21.826 17.9902 21.742C18.1522 21.658 18.2782 21.538 18.3682 21.382C18.4642 21.226 18.5122 21.04 18.5122 20.824C18.5122 20.602 18.4642 20.413 18.3682 20.257C18.2782 20.101 18.1522 19.981 17.9902 19.897C17.8282 19.813 17.6482 19.771 17.4502 19.771C17.2582 19.771 17.0812 19.813 16.9192 19.897C16.7572 19.981 16.6282 20.101 16.5322 20.257C16.4422 20.413 16.3972 20.602 16.3972 20.824C16.3972 21.04 16.4422 21.226 16.5322 21.382C16.6282 21.538 16.7572 21.658 16.9192 21.742C17.0812 21.826 17.2582 21.868 17.4502 21.868ZM20.5661 25C20.5001 25 20.4461 24.979 20.4041 24.937C20.3621 24.895 20.3411 24.841 20.3411 24.775V23.767C20.3411 23.701 20.3621 23.647 20.4041 23.605C20.4461 23.563 20.5001 23.542 20.5661 23.542H21.5741C21.6401 23.542 21.6941 23.563 21.7361 23.605C21.7781 23.647 21.7991 23.701 21.7991 23.767V24.775C21.7991 24.841 21.7781 24.895 21.7361 24.937C21.6941 24.979 21.6401 25 21.5741 25H20.5661ZM23.5573 25C23.5033 25 23.4583 24.982 23.4223 24.946C23.3863 24.904 23.3683 24.856 23.3683 24.802C23.3683 24.772 23.3713 24.748 23.3773 24.73C23.3893 24.712 23.3983 24.697 23.4043 24.685L24.7093 22.903C24.6013 22.927 24.4933 22.936 24.3853 22.93C24.0973 22.918 23.8243 22.861 23.5663 22.759C23.3083 22.651 23.0773 22.504 22.8733 22.318C22.6693 22.132 22.5103 21.913 22.3963 21.661C22.2823 21.409 22.2253 21.13 22.2253 20.824C22.2253 20.548 22.2763 20.278 22.3783 20.014C22.4863 19.75 22.6453 19.513 22.8553 19.303C23.0653 19.093 23.3263 18.925 23.6383 18.799C23.9503 18.673 24.3133 18.61 24.7273 18.61C25.1413 18.61 25.5043 18.667 25.8163 18.781C26.1343 18.895 26.4013 19.054 26.6173 19.258C26.8333 19.456 26.9953 19.687 27.1033 19.951C27.2113 20.209 27.2653 20.485 27.2653 20.779C27.2653 21.043 27.2203 21.289 27.1303 21.517C27.0403 21.745 26.9293 21.958 26.7973 22.156C26.6653 22.354 26.5333 22.546 26.4013 22.732L24.8893 24.82C24.8653 24.85 24.8293 24.889 24.7813 24.937C24.7333 24.979 24.6643 25 24.5743 25H23.5573ZM24.7363 21.868C24.9343 21.868 25.1143 21.826 25.2763 21.742C25.4383 21.658 25.5643 21.538 25.6543 21.382C25.7503 21.226 25.7983 21.04 25.7983 20.824C25.7983 20.602 25.7503 20.413 25.6543 20.257C25.5643 20.101 25.4383 19.981 25.2763 19.897C25.1143 19.813 24.9343 19.771 24.7363 19.771C24.5443 19.771 24.3673 19.813 24.2053 19.897C24.0433 19.981 23.9143 20.101 23.8183 20.257C23.7283 20.413 23.6833 20.602 23.6833 20.824C23.6833 21.04 23.7283 21.226 23.8183 21.382C23.9143 21.538 24.0433 21.658 24.2053 21.742C24.3673 21.826 24.5443 21.868 24.7363 21.868ZM28.6054 25C28.4734 25 28.4074 24.94 28.4074 24.82C28.4074 24.784 28.4194 24.751 28.4434 24.721L32.8894 18.871C32.9314 18.817 32.9734 18.775 33.0154 18.745C33.0574 18.715 33.1174 18.7 33.1954 18.7H33.7534C33.8854 18.7 33.9514 18.76 33.9514 18.88C33.9514 18.916 33.9394 18.949 33.9154 18.979L29.4694 24.829C29.4274 24.883 29.3854 24.925 29.3434 24.955C29.3074 24.985 29.2474 25 29.1634 25H28.6054ZM33.0334 25.045C32.6254 25.045 32.3014 24.937 32.0614 24.721C31.8274 24.505 31.6984 24.217 31.6744 23.857C31.6624 23.701 31.6564 23.563 31.6564 23.443C31.6624 23.323 31.6684 23.179 31.6744 23.011C31.6924 22.651 31.8154 22.36 32.0434 22.138C32.2774 21.916 32.6074 21.805 33.0334 21.805C33.4594 21.805 33.7864 21.916 34.0144 22.138C34.2484 22.36 34.3744 22.651 34.3924 23.011C34.4044 23.179 34.4104 23.323 34.4104 23.443C34.4104 23.563 34.4044 23.701 34.3924 23.857C34.3744 24.217 34.2424 24.505 33.9964 24.721C33.7564 24.937 33.4354 25.045 33.0334 25.045ZM33.0334 24.307C33.1474 24.307 33.2374 24.283 33.3034 24.235C33.3694 24.187 33.4174 24.124 33.4474 24.046C33.4834 23.968 33.5044 23.887 33.5104 23.803C33.5224 23.665 33.5284 23.542 33.5284 23.434C33.5284 23.32 33.5224 23.194 33.5104 23.056C33.5044 22.93 33.4654 22.816 33.3934 22.714C33.3214 22.612 33.2014 22.561 33.0334 22.561C32.8654 22.561 32.7454 22.612 32.6734 22.714C32.6074 22.816 32.5684 22.93 32.5564 23.056C32.5504 23.194 32.5474 23.32 32.5474 23.434C32.5474 23.542 32.5504 23.665 32.5564 23.803C32.5684 23.887 32.5864 23.968 32.6104 24.046C32.6404 24.124 32.6884 24.187 32.7544 24.235C32.8264 24.283 32.9194 24.307 33.0334 24.307ZM29.3344 21.877C28.9264 21.877 28.6024 21.772 28.3624 21.562C28.1284 21.346 27.9994 21.058 27.9754 20.698C27.9634 20.542 27.9574 20.407 27.9574 20.293C27.9634 20.173 27.9694 20.029 27.9754 19.861C27.9934 19.495 28.1164 19.204 28.3444 18.988C28.5784 18.766 28.9084 18.655 29.3344 18.655C29.7664 18.655 30.0964 18.766 30.3244 18.988C30.5524 19.204 30.6754 19.495 30.6934 19.861C30.7054 20.029 30.7114 20.173 30.7114 20.293C30.7114 20.407 30.7054 20.542 30.6934 20.698C30.6754 21.058 30.5464 21.346 30.3064 21.562C30.0664 21.772 29.7424 21.877 29.3344 21.877ZM29.3344 21.148C29.4484 21.148 29.5384 21.124 29.6044 21.076C29.6704 21.028 29.7184 20.965 29.7484 20.887C29.7844 20.809 29.8054 20.731 29.8114 20.653C29.8234 20.509 29.8294 20.383 29.8294 20.275C29.8294 20.161 29.8234 20.038 29.8114 19.906C29.8054 19.78 29.7664 19.666 29.6944 19.564C29.6224 19.456 29.5024 19.402 29.3344 19.402C29.1664 19.402 29.0464 19.456 28.9744 19.564C28.9084 19.666 28.8694 19.78 28.8574 19.906C28.8514 20.038 28.8484 20.161 28.8484 20.275C28.8484 20.383 28.8514 20.509 28.8574 20.653C28.8694 20.731 28.8904 20.809 28.9204 20.887C28.9504 20.965 28.9984 21.028 29.0644 21.076C29.1304 21.124 29.2204 21.148 29.3344 21.148Z" fill="white"/>
</svg>
