<?xml version="1.0" encoding="utf-8"?>
<!-- Generator: Adobe Illustrator 24.3.0, SVG Export Plug-In . SVG Version: 6.00 Build 0)  -->
<svg version="1.1" id="Capa_1" xmlns="http://www.w3.org/2000/svg" xmlns:xlink="http://www.w3.org/1999/xlink" x="0px" y="0px"
	 viewBox="0 0 469.3 469.3" style="enable-background:new 0 0 469.3 469.3;" xml:space="preserve">
<style type="text/css">
	.st0{fill:#FFFFFF;}
</style>
<g>
	<g>
		<g>
			<path class="st0" d="M362.7,85.3c23.6,0,42.7-19.1,42.7-42.7c0-23.6-19.1-42.7-42.7-42.7C339.1,0,320,19.1,320,42.7
				C320,66.2,339.1,85.3,362.7,85.3z"/>
			<path class="st0" d="M106.7,128C83.1,128,64,147.1,64,170.7s19.1,42.7,42.7,42.7c23.6,0,42.7-19.1,42.7-42.7S130.2,128,106.7,128
				z"/>
			<path class="st0" d="M106.7,0C83.1,0,64,19.1,64,42.7c0,23.6,19.1,42.7,42.7,42.7c23.6,0,42.7-19.1,42.7-42.7
				C149.3,19.1,130.2,0,106.7,0z"/>
			<path class="st0" d="M106.7,256C83.1,256,64,275.1,64,298.7c0,23.6,19.1,42.7,42.7,42.7c23.6,0,42.7-19.1,42.7-42.7
				C149.3,275.1,130.2,256,106.7,256z"/>
			<path class="st0" d="M234.7,384c-23.6,0-42.7,19.1-42.7,42.7c0,23.6,19.1,42.7,42.7,42.7s42.7-19.1,42.7-42.7
				C277.3,403.1,258.2,384,234.7,384z"/>
			<path class="st0" d="M362.7,128c-23.6,0-42.7,19.1-42.7,42.7s19.1,42.7,42.7,42.7c23.6,0,42.7-19.1,42.7-42.7
				S386.2,128,362.7,128z"/>
			<path class="st0" d="M234.7,256c-23.6,0-42.7,19.1-42.7,42.7c0,23.6,19.1,42.7,42.7,42.7s42.7-19.1,42.7-42.7
				C277.3,275.1,258.2,256,234.7,256z"/>
			<path class="st0" d="M362.7,256c-23.6,0-42.7,19.1-42.7,42.7c0,23.6,19.1,42.7,42.7,42.7c23.6,0,42.7-19.1,42.7-42.7
				C405.3,275.1,386.2,256,362.7,256z"/>
			<path class="st0" d="M234.7,128c-23.6,0-42.7,19.1-42.7,42.7s19.1,42.7,42.7,42.7s42.7-19.1,42.7-42.7S258.2,128,234.7,128z"/>
			<path class="st0" d="M234.7,0C211.1,0,192,19.1,192,42.7c0,23.6,19.1,42.7,42.7,42.7s42.7-19.1,42.7-42.7
				C277.3,19.1,258.2,0,234.7,0z"/>
		</g>
	</g>
</g>
</svg>
