<?xml version="1.0" encoding="utf-8"?>
<!-- Generator: Adobe Illustrator 27.7.0, SVG Export Plug-In . SVG Version: 6.00 Build 0)  -->
<svg version="1.1" id="Layer_1" xmlns="http://www.w3.org/2000/svg" xmlns:xlink="http://www.w3.org/1999/xlink" x="0px" y="0px"
	 viewBox="0 0 24 24" style="enable-background:new 0 0 24 24;" xml:space="preserve">
<style type="text/css">
	.st0{fill:none;}
	.st1{fill:#FFFFFF;}
</style>
<g>
	<g>
		<path class="st0" d="M1.9,1.9h20.2v20.2H1.9V1.9z"/>
		<path class="st1" d="M18.7,14.8c-1,0-2-0.2-3-0.5c-0.3-0.1-0.6,0-0.9,0.2l-1.3,1.7C11.2,15.1,9,13,7.8,10.5l1.6-1.4
			c0.2-0.2,0.3-0.6,0.2-0.9c-0.3-0.9-0.5-1.9-0.5-3c0-0.5-0.4-0.8-0.8-0.8H5.4c-0.5,0-1,0.2-1,0.8c0,7.8,6.5,14.3,14.3,14.3
			c0.6,0,0.8-0.5,0.8-1v-2.9C19.6,15.2,19.2,14.8,18.7,14.8z"/>
	</g>
	<g>
		<path class="st0" d="M12.5,3.1h9.2v9.2h-9.2V3.1z"/>
		<path class="st1" d="M17.1,3.9c-1.5,0-2.7,1.2-2.7,2.7c0,2,2.7,5,2.7,5s2.7-3,2.7-5C19.8,5.1,18.6,3.9,17.1,3.9z M17.1,7.6
			c-0.5,0-1-0.4-1-1s0.4-1,1-1s1,0.4,1,1S17.6,7.6,17.1,7.6z"/>
	</g>
</g>
</svg>
