<?xml version="1.0" encoding="UTF-8"?>
<svg id="Layer_1" data-name="Layer 1" xmlns="http://www.w3.org/2000/svg" viewBox="0 0 50 50">
  <defs>
    <style>
      .cls-1 {
        fill: #fff;
        stroke-width: 0px;
      }
    </style>
  </defs>
  <path class="cls-1" d="m16.91,2.65c11.82-.03,19.47,12.28,14.41,22.69-.34.69-.53,1.19-.04,1.99.3.49.13,1.64-.28,2.11-1.15,1.32-2.5,2.48-3.83,3.63-.68.59-1.58.65-2.28.05-.58-.51-1.03-.39-1.64-.16-6.21,2.34-11.99,1.49-16.86-3.02C1.67,25.58.17,20,2.05,13.83,3.98,7.48,8.59,3.97,15.03,2.79c.72-.13,1.48-.11,1.88-.14Zm.12,27.59c6.53,0,11.94-5.36,11.94-11.8,0-6.56-5.31-11.86-11.85-11.84-6.6.02-11.84,5.26-11.85,11.84,0,6.47,5.31,11.81,11.76,11.8Z"/>
  <path class="cls-1" d="m40.36,47.51c-.46-.28-1.34-.6-1.93-1.21-2.14-2.17-4.16-4.44-6.26-6.65-.66-.69-.63-1.24.07-1.87,1.05-.93,2.07-1.89,3.06-2.87.69-.68,1.27-.75,1.97.02,2.05,2.25,4.15,4.46,6.21,6.7.98,1.07,1.26,2.3.61,3.64-.66,1.38-1.79,2.1-3.74,2.24Z"/>
  <path class="cls-1" d="m44.77,10.39c-2.13-.01-3.92-1.8-3.93-3.94,0-2.19,1.85-4.01,4.03-3.96,2.13.04,3.89,1.87,3.87,4-.03,2.14-1.83,3.91-3.97,3.9Z"/>
  <path class="cls-1" d="m36.33,23.67c0-2.17,1.72-3.92,3.88-3.94,2.2-.02,4.04,1.81,4,3.98-.04,2.11-1.88,3.93-3.98,3.92-2.13-.01-3.9-1.81-3.91-3.95Z"/>
  <path class="cls-1" d="m5.22,35.03c2.16-.02,3.96,1.71,4,3.85.04,2.18-1.79,4.04-3.96,4.03-2.13,0-3.93-1.81-3.94-3.94-.01-2.14,1.75-3.92,3.9-3.95Z"/>
  <path class="cls-1" d="m42.71,18.19c-.72-.19-1.26-.33-1.9-.5.5-1.92,1-3.8,1.51-5.78.63.17,1.2.32,1.9.5-.5,1.92-.99,3.79-1.51,5.77Z"/>
  <path class="cls-1" d="m32.03,31.51c.7.75,1.26,1.35,1.89,2.02-.96.9-1.89,1.76-2.88,2.69-.64-.68-1.22-1.3-1.89-2,.97-.91,1.9-1.78,2.89-2.7Z"/>
  <path class="cls-1" d="m21.07,18.48c-.03,2.13-1.84,3.89-3.98,3.87-2.14-.02-3.92-1.8-3.92-3.94,0-2.18,1.86-4,4.04-3.94,2.14.05,3.89,1.86,3.86,4Z"/>
  <path class="cls-1" d="m13.06,27.43c-.58-.33-1.09-.62-1.72-.97.67-1.16,1.3-2.24,1.97-3.41.57.33,1.08.63,1.7.98-.66,1.14-1.28,2.22-1.95,3.39Z"/>
  <path class="cls-1" d="m22.67,20.69c.16-.7.29-1.25.44-1.91,1.25.28,2.46.56,3.79.86-.13.65-.24,1.23-.37,1.92-1.32-.3-2.53-.57-3.86-.87Z"/>
</svg>