<?xml version="1.0" encoding="utf-8"?>
<!-- Generator: Adobe Illustrator 27.7.0, SVG Export Plug-In . SVG Version: 6.00 Build 0)  -->
<svg version="1.1" id="Layer_1" xmlns="http://www.w3.org/2000/svg" xmlns:xlink="http://www.w3.org/1999/xlink" x="0px" y="0px"
	 viewBox="0 0 24 24" style="enable-background:new 0 0 24 24;" xml:space="preserve">
<style type="text/css">
	.st0{fill:#FFFFFF;}
</style>
<g>
	<path class="st0" d="M20.8,4.1H3.2c-1,0-1.8,0.8-1.8,1.8v12.3c0,1,0.8,1.8,1.8,1.8h17.6c1,0,1.8-0.8,1.8-1.8V5.9
		C22.6,4.9,21.8,4.1,20.8,4.1z M8.5,6.6c1.5,0,2.6,1.2,2.6,2.6s-1.2,2.7-2.6,2.7s-2.6-1.2-2.6-2.6S7,6.6,8.5,6.6z M13.8,17.2H3.2
		v-0.9c0-1.8,3.5-2.7,5.3-2.7s5.3,1,5.3,2.7V17.2z M17.2,13.8h1.4l1.3,1.8l-1.8,1.8c-1.2-0.9-2-2.1-2.4-3.5
		c-0.2-0.6-0.2-1.2-0.2-1.8s0.1-1.2,0.2-1.8c0.4-1.4,1.3-2.7,2.4-3.5l1.8,1.8l-1.3,1.8h-1.4c-0.2,0.6-0.3,1.1-0.3,1.8
		S17,13.1,17.2,13.8z"/>
</g>
</svg>
