<svg width="22" height="17" viewBox="0 0 22 17" fill="none" xmlns="http://www.w3.org/2000/svg">
<path d="M12.33 12.4101C10.04 12.4101 9.40003 11.1101 7.95004 13.5901C5.92004 12.6201 4.02003 10.8001 3.02003 8.70008C5.44003 7.18008 4.21003 6.55008 4.19003 4.25008C4.24003 3.04008 1.64003 3.70008 1.01003 3.54008C0.620035 3.54008 0.160034 3.71008 0.160034 4.25008C0.160034 10.9001 5.69003 16.4301 12.34 16.4301C13.59 16.4201 12.87 13.8101 13.05 13.1201C13.05 12.7301 12.73 12.4101 12.34 12.4101H12.33Z" fill="white"/>
<path d="M19.32 11.0301C19.35 13.0601 16.16 13.0601 16.19 11.0301C16.16 9.00007 19.34 9.00007 19.32 11.0301Z" fill="white"/>
<path d="M20.1 14.16C20.02 14.82 20.44 16.53 19.32 16.5C18.62 16.29 15.33 17.11 15.41 15.72C15.39 14.69 15.19 12.83 16.72 12.85C17.99 13.58 19.83 11.94 20.1 14.16Z" fill="white"/>
<path d="M20.1201 10.22C19.4101 9.95004 18.2701 8.06004 19.6901 7.99004C19.5701 6.39004 18.7301 4.91004 17.3801 3.99004C16.5501 0.0500383 21.8901 6.40004 21.0301 8.31004C22.6601 8.42004 21.4501 9.82004 20.6001 10.13C20.4501 10.22 20.2801 10.26 20.1101 10.22H20.1201Z" fill="white"/>
<path d="M10.7 3.80005C10.7 4.04005 10.53 4.25005 10.33 4.36005C9.75001 4.69005 8.35001 5.53005 8.31001 4.25005C7.66001 4.15005 5.79 5.52005 5.63 4.09005C6.02 2.97005 7.58001 2.92005 8.85001 2.91005C8.65001 2.19005 9.70001 1.75005 10.07 2.41005C10.17 2.65005 10.76 3.52005 10.7 3.79005V3.80005Z" fill="white"/>
<path d="M15.2401 2.43009C15.2701 4.46009 12.0801 4.46009 12.1101 2.43009C12.0801 0.400093 15.2601 0.400093 15.2401 2.43009Z" fill="white"/>
<path d="M16.02 5.56004C15.94 6.22004 16.36 7.93004 15.24 7.90004C14.54 7.69004 11.25 8.51004 11.33 7.12004C11.31 6.09004 11.11 4.23004 12.64 4.25004C13.9 4.98004 15.76 3.34004 16.02 5.56004Z" fill="white"/>
</svg>
