<svg width="36" height="36" viewBox="0 0 36 36" fill="none" xmlns="http://www.w3.org/2000/svg">
<g clip-path="url(#clip0_2_629)">
<path d="M33.1897 33.1932L32.423 30.939C30.9833 26.6986 27.0846 23.8088 22.643 23.6191C22.252 23.9229 21.8399 24.1839 21.4128 24.4121C20.776 26.0841 18.6365 26.5371 17.383 25.2566C15.9001 25.1256 14.5424 24.5398 13.3567 23.6192C8.91501 23.8082 5.01742 26.6981 3.57668 30.9391L2.81124 33.1932C2.58996 33.8416 2.69653 34.5562 3.09568 35.1128C3.49355 35.6698 4.13734 36 4.82206 36H31.1778C31.8624 36 32.5062 35.6699 32.9042 35.1128C33.3032 34.5562 33.4097 33.8416 33.1897 33.1932Z" fill="#9256FF"/>
<path d="M20.9341 21.9034C23.5126 20.091 25.3161 16.0887 25.3161 12.2193C25.3161 1.22251 10.6846 1.23419 10.6846 12.2193C10.6846 16.922 13.3474 21.8139 16.8306 22.7373C17.1665 21.7857 18.0653 21.0976 19.1305 21.0976C19.8468 21.0975 20.4858 21.4117 20.9341 21.9034Z" fill="#9256FF"/>
<path d="M7.4742 16.8103C7.83694 18.2352 9.81393 17.8431 9.81393 16.5235C9.81393 11.2343 10.0667 10.7404 9.35863 10.1663C10.9796 0.177948 24.9428 0.252865 26.6423 10.1675C25.9353 10.7434 26.1882 11.2349 26.1882 16.5235C26.1882 16.9372 26.4105 17.2843 26.73 17.4997C26.73 21.6143 25.061 21.3737 20.0421 22.704C19.2662 21.8618 17.8804 22.4101 17.8804 23.5461C17.8804 24.9687 19.9193 25.3016 20.3149 23.8715C24.3668 22.7971 27.9284 22.4582 27.9284 18.4085V17.5775C28.2292 17.4217 28.4422 17.1457 28.5277 16.8103C32.4334 16.7307 32.4346 10.8774 28.5277 10.7978C28.4469 10.4782 28.248 10.2172 27.9682 10.058C28.0689 8.85954 27.822 7.28411 27.1349 5.76318C22.3562 -4.09762 8.2419 -0.239366 8.02084 9.31717C7.99039 9.6408 8.01496 9.87022 8.03366 10.058C7.75389 10.2172 7.55499 10.4782 7.4742 10.7978C5.83795 10.8294 4.51886 12.1607 4.51886 13.8041C4.51886 15.4473 5.83795 16.7786 7.4742 16.8103Z" fill="#9256FF"/>
</g>
<defs>
<clipPath id="clip0_2_629">
<rect width="36" height="36" fill="white"/>
</clipPath>
</defs>
</svg>
