<svg width="34" height="34" viewBox="0 0 34 34" fill="none" xmlns="http://www.w3.org/2000/svg">
<g clip-path="url(#clip0_2_611)">
<path d="M30.3308 16.405L17.5808 3.65504C17.0708 3.14504 16.3625 2.83337 15.5833 2.83337H5.66666C4.10833 2.83337 2.83333 4.10837 2.83333 5.66671V15.5834C2.83333 16.3625 3.14499 17.0709 3.66916 17.595L16.4192 30.345C16.9292 30.855 17.6375 31.1667 18.4167 31.1667C19.1958 31.1667 19.9042 30.855 20.4142 30.3309L30.3308 20.4142C30.855 19.9042 31.1667 19.1959 31.1667 18.4167C31.1667 17.6375 30.8408 16.915 30.3308 16.405ZM7.79166 9.91671C6.61583 9.91671 5.66666 8.96754 5.66666 7.79171C5.66666 6.61587 6.61583 5.66671 7.79166 5.66671C8.9675 5.66671 9.91666 6.61587 9.91666 7.79171C9.91666 8.96754 8.9675 9.91671 7.79166 9.91671Z" fill="#ED4252"/>
</g>
<defs>
<clipPath id="clip0_2_611">
<rect width="34" height="34" fill="white"/>
</clipPath>
</defs>
</svg>
