<svg width="28" height="28" viewBox="0 0 28 28" fill="none" xmlns="http://www.w3.org/2000/svg">
<g clip-path="url(#clip0_2_9914)">
<path d="M8.45775 24.6477C8.63521 24.5283 8.8394 24.4546 9.05219 24.4331C9.26498 24.4116 9.47979 24.443 9.67754 24.5244C11.3454 25.2082 13.1518 25.486 14.9479 25.3348C16.7441 25.1836 18.4787 24.6079 20.0088 23.655C20.359 23.4402 20.696 23.2045 21.0179 22.9492L19.8157 21.7467C19.7545 21.6855 19.7128 21.6076 19.6959 21.5227C19.6791 21.4378 19.6877 21.3499 19.7208 21.2699C19.7539 21.19 19.81 21.1217 19.882 21.0736C19.9539 21.0255 20.0385 20.9999 20.125 20.9999H24.5C24.5575 20.9999 24.6144 21.0112 24.6674 21.0331C24.7205 21.0551 24.7688 21.0874 24.8094 21.128C24.85 21.1686 24.8822 21.2168 24.9042 21.2699C24.9262 21.323 24.9375 21.3799 24.9375 21.4374V25.8124C24.9375 25.8989 24.9118 25.9835 24.8638 26.0554C24.8157 26.1274 24.7474 26.1834 24.6674 26.2165C24.5875 26.2497 24.4995 26.2583 24.4147 26.2414C24.3298 26.2245 24.2519 26.1829 24.1907 26.1217L22.8871 24.8182C22.5291 25.1115 22.148 25.3937 21.7502 25.6603C19.8412 26.9284 17.6501 27.7087 15.3692 27.9328C13.0883 28.1568 10.7873 27.8178 8.66796 26.9454C8.4311 26.8458 8.22923 26.6779 8.08802 26.4633C7.94682 26.2486 7.87267 25.9967 7.875 25.7397C7.87482 25.5238 7.92791 25.3112 8.02956 25.1207C8.13122 24.9302 8.27829 24.7678 8.45775 24.6477Z" fill="white"/>
<path d="M3.35174 8.45743C3.47116 8.63494 3.54492 8.8392 3.56646 9.05206C3.588 9.26492 3.55666 9.4798 3.47522 9.67764C2.79159 11.3454 2.51392 13.1518 2.66508 14.9479C2.81624 16.744 3.39191 18.4786 4.34466 20.0087C4.55972 20.3588 4.79555 20.6958 5.0509 21.0178L6.25319 19.8156C6.31437 19.7544 6.39231 19.7127 6.47717 19.6958C6.56204 19.6789 6.65 19.6876 6.72994 19.7207C6.80988 19.7538 6.8782 19.8099 6.92627 19.8818C6.97434 19.9538 7 20.0384 7 20.1249V24.4999C7.00002 24.5573 6.98871 24.6142 6.96673 24.6673C6.94475 24.7204 6.91252 24.7686 6.87189 24.8093C6.83126 24.8499 6.78303 24.8821 6.72994 24.9041C6.67686 24.9261 6.61996 24.9374 6.5625 24.9374H2.1875C2.10098 24.9374 2.01639 24.9117 1.94445 24.8636C1.87251 24.8156 1.81644 24.7473 1.78333 24.6673C1.75022 24.5874 1.74156 24.4994 1.75845 24.4146C1.77533 24.3297 1.817 24.2517 1.87819 24.1906L3.18171 22.8868C2.88777 22.5279 2.60536 22.147 2.33961 21.7499C1.0715 19.8409 0.291181 17.6499 0.0671121 15.3691C-0.156957 13.0883 0.182066 10.7873 1.05444 8.66807C1.15406 8.43116 1.32189 8.22925 1.53659 8.088C1.75128 7.94676 2.00314 7.87257 2.26012 7.87488C2.47597 7.87464 2.68854 7.92769 2.87896 8.02931C3.06939 8.13093 3.23179 8.27798 3.35174 8.45743Z" fill="white"/>
<path d="M19.5422 3.35205C19.3648 3.47143 19.1606 3.54515 18.9478 3.56665C18.735 3.58815 18.5202 3.55678 18.3225 3.47531C16.6546 2.79154 14.8482 2.51379 13.0521 2.66496C11.2559 2.81612 9.5213 3.39186 7.99123 4.34476C7.641 4.55959 7.304 4.79529 6.98206 5.05057L8.18431 6.25307C8.2455 6.31424 8.28717 6.39219 8.30405 6.47705C8.32094 6.56191 8.31228 6.64987 8.27917 6.72981C8.24606 6.80975 8.18999 6.87808 8.11805 6.92615C8.04611 6.97422 7.96152 6.99988 7.875 6.99988H3.5C3.44254 6.99989 3.38565 6.98859 3.33256 6.96661C3.27947 6.94462 3.23124 6.9124 3.19061 6.87177C3.14998 6.83114 3.11775 6.78291 3.09577 6.72982C3.07379 6.67673 3.06249 6.61984 3.0625 6.56238V2.18738C3.0625 2.10085 3.08816 2.01627 3.13623 1.94433C3.1843 1.87239 3.25263 1.81632 3.33256 1.78321C3.4125 1.7501 3.50046 1.74144 3.58533 1.75833C3.67019 1.77521 3.74813 1.81688 3.80931 1.87807L5.11284 3.18159C5.47087 2.88829 5.85198 2.60609 6.24974 2.33949C8.15881 1.07137 10.3499 0.291061 12.6308 0.0669942C14.9116 -0.157072 17.2127 0.181955 19.332 1.05434C19.5689 1.15397 19.7708 1.32181 19.912 1.53651C20.0532 1.7512 20.1273 2.00304 20.125 2.26C20.1252 2.47592 20.0721 2.68854 19.9704 2.87903C19.8688 3.06952 19.7217 3.232 19.5422 3.35205Z" fill="white"/>
<path d="M24.8183 5.11294C25.1122 5.4714 25.3942 5.85229 25.6604 6.24984C26.9285 8.15883 27.7088 10.3498 27.9329 12.6306C28.157 14.9115 27.8179 17.2124 26.9456 19.3317C26.8459 19.5686 26.6781 19.7705 26.4634 19.9118C26.2487 20.053 25.9969 20.1272 25.7399 20.1249C25.525 20.1253 25.3134 20.0729 25.1236 19.9722C24.9338 19.8715 24.7718 19.7256 24.6517 19.5474C24.5316 19.3693 24.4572 19.1643 24.4351 18.9506C24.413 18.7369 24.4438 18.5211 24.5248 18.3221C25.2084 16.6543 25.4861 14.848 25.3349 13.0518C25.1838 11.2557 24.6081 9.52118 23.6553 7.99109C23.4403 7.64091 23.2044 7.30392 22.9491 6.98194L21.7468 8.18419C21.6856 8.24538 21.6077 8.28705 21.5228 8.30393C21.438 8.32082 21.35 8.31216 21.2701 8.27905C21.1901 8.24594 21.1218 8.18987 21.0737 8.11792C21.0257 8.04598 21 7.9614 21 7.87488V3.49988C21 3.44242 21.0113 3.38552 21.0333 3.33244C21.0553 3.27935 21.0875 3.23112 21.1281 3.19049C21.1687 3.14986 21.217 3.11763 21.2701 3.09565C21.3231 3.07367 21.38 3.06236 21.4375 3.06238H25.8125C25.899 3.06238 25.9836 3.08804 26.0555 3.13611C26.1275 3.18418 26.1836 3.2525 26.2167 3.33244C26.2498 3.41238 26.2584 3.50035 26.2416 3.58521C26.2247 3.67007 26.183 3.74801 26.1218 3.80919L24.8183 5.11294Z" fill="white"/>
<path d="M14 11.3749C15.4497 11.3749 16.625 12.5501 16.625 13.9999C16.625 15.4496 15.4497 16.6249 14 16.6249C12.5503 16.6249 11.375 15.4496 11.375 13.9999C11.375 12.5501 12.5503 11.3749 14 11.3749Z" fill="white"/>
<path d="M21 14.9614C21.001 15.1607 20.9334 15.3544 20.8087 15.5098C20.6839 15.6653 20.5095 15.7732 20.3147 15.8155L19.2799 16.0455L19.1799 16.2869L19.749 17.1811C19.8569 17.3488 19.9038 17.5484 19.8821 17.7466C19.8604 17.9447 19.7714 18.1294 19.6298 18.2698L18.2699 19.6297C18.1295 19.7711 17.9448 19.8602 17.7467 19.8819C17.5486 19.9036 17.349 19.8568 17.1813 19.7491L16.287 19.18L16.0457 19.2798L15.8158 20.3146C15.7735 20.5094 15.6656 20.6837 15.5101 20.8085C15.3547 20.9332 15.1611 21.0008 14.9617 20.9999H13.0383C12.8389 21.0008 12.6453 20.9332 12.4899 20.8085C12.3344 20.6837 12.2265 20.5094 12.1842 20.3146L11.9543 19.2798L11.713 19.18L10.8183 19.7491C10.6507 19.8569 10.4511 19.9038 10.253 19.882C10.0549 19.8603 9.87032 19.7711 9.7301 19.6295L8.36975 18.2696C8.22835 18.1292 8.1394 17.9445 8.11779 17.7464C8.09617 17.5483 8.14319 17.3488 8.25098 17.1812L8.82007 16.2869L8.72009 16.0455L7.68531 15.8155C7.49048 15.7732 7.31608 15.6653 7.19132 15.5099C7.06656 15.3544 6.99902 15.1607 7 14.9614V13.0384C6.99902 12.839 7.06657 12.6454 7.19133 12.4899C7.31609 12.3344 7.49048 12.2265 7.68531 12.1843L8.72009 11.9542L8.82007 11.7128L8.25098 10.8186C8.14315 10.6509 8.09616 10.4513 8.11786 10.2532C8.13955 10.055 8.22863 9.87033 8.37018 9.72998L9.7301 8.37006C9.87043 8.22846 10.0551 8.13934 10.2533 8.1176C10.4514 8.09587 10.651 8.14283 10.8187 8.25064L11.713 8.81973L11.9543 8.71998L12.1842 7.68519C12.2265 7.49039 12.3344 7.31603 12.4899 7.19127C12.6453 7.06652 12.8389 6.99895 13.0383 6.99987H14.9617C15.1611 6.99895 15.3547 7.06652 15.5101 7.19127C15.6656 7.31602 15.7735 7.49038 15.8158 7.68518L16.0457 8.71997L16.287 8.81972L17.1817 8.25063C17.3494 8.14299 17.5489 8.09614 17.747 8.11792C17.945 8.13969 18.1296 8.22876 18.2699 8.37025L19.6302 9.73018C19.7717 9.87059 19.8606 10.0553 19.8822 10.2534C19.9038 10.4515 19.8568 10.651 19.749 10.8186L19.1799 11.7128L19.2799 11.9542L20.3147 12.1843C20.5095 12.2265 20.6839 12.3344 20.8087 12.4899C20.9334 12.6454 21.001 12.839 21 13.0384V14.9614ZM14 10.4999C13.3078 10.4999 12.6311 10.7051 12.0555 11.0897C11.4799 11.4743 11.0313 12.0209 10.7664 12.6605C10.5015 13.3 10.4322 14.0038 10.5673 14.6827C10.7023 15.3616 11.0356 15.9853 11.5251 16.4748C12.0146 16.9642 12.6383 17.2976 13.3172 17.4326C13.9961 17.5677 14.6999 17.4984 15.3394 17.2335C15.9789 16.9685 16.5256 16.5199 16.9101 15.9444C17.2947 15.3688 17.5 14.6921 17.5 13.9999C17.4989 13.0719 17.1298 12.1823 16.4737 11.5262C15.8176 10.87 14.9279 10.5009 14 10.4999Z" fill="white"/>
</g>
<defs>
<clipPath id="clip0_2_9914">
<rect width="28" height="28" fill="white" transform="matrix(1 0 0 -1 0 27.9999)"/>
</clipPath>
</defs>
</svg>
