<?xml version="1.0" encoding="UTF-8"?>
<svg id="Layer_13" data-name="Layer 13" xmlns="http://www.w3.org/2000/svg" viewBox="0 0 90 90">
  <defs>
    <style>
      .cls-1 {
        fill: #fff;
        stroke-width: 0px;
      }
    </style>
  </defs>
  <path class="cls-1" d="m24.74,49.86c4.3-1.95,8.56-3.07,13.11-1.75,1.26.37,2.6.76,3.65,1.51,2.89,2.06,6.18,2.78,9.57,3.28.91.13,1.83.28,2.72.52,2.27.62,3.68,2.96,3.2,5.23-.49,2.34-2.76,3.96-5.11,3.56-3.68-.62-7.35-1.28-11.02-1.93-.24-.04-.47-.1-.71-.13-1.29-.14-2.18.45-2.33,1.52-.13.99.58,1.83,1.77,2.05,1.7.31,3.4.6,5.09.89,2.13.37,4.26.77,6.4,1.1,4.74.74,8.77-2.16,9.49-6.86.12-.75.42-1.09,1.06-1.38,2.41-1.09,4.8-2.24,7.2-3.34,2.61-1.2,5.23-.39,6.39,1.94,1.17,2.35.24,4.92-2.31,6.26-6.49,3.42-13.02,6.79-19.48,10.25-2.68,1.44-5.42,1.15-8.22.75-3.89-.56-7.79-1.07-11.68-1.65-.39-.06-.95-.36-1.07-.69-2.6-7.02-5.16-14.06-7.74-21.14Z"/>
  <path class="cls-1" d="m43.56,23.15c-.81-1.16-2.89-2.16-1.23-3.86,1.68-1.72,2.69.37,3.56.98,2.27-.83,4.32-1.56,6.35-2.35.25-.1.5-.46.56-.74.1-.5,0-1.05.09-1.55.16-.96.79-1.5,1.75-1.5.96,0,1.83.58,1.7,1.49-.28,2.11,1,2.39,2.54,2.83,1.44.41,2.76,1.23,4.31,1.95.16-.15.48-.43.78-.73,1.16-1.13,2.19-1.28,3.02-.42.8.82.63,1.9-.5,3.03-.25.25-.57.45-.92.72,2.69,3.76,3.56,7.76,2.46,12.08-.8,3.18-2.6,5.75-5.26,7.69-5.31,3.87-12.57,3.46-17.42-.91-4.59-4.13-6.6-11.84-1.8-18.71Zm9.3,6.36c-.7,2.33.59,3.9,2.98,4.85.33.13.62.36.95.52,1.02.51,2.04.27,2.53-.58.49-.85.28-2.11-.71-2.47-2.11-.76-2.4-2.27-2.17-4.16.04-.32.02-.64-.02-.96-.11-1.07-.82-1.76-1.78-1.75-.96,0-1.69.69-1.77,1.76-.06.8-.01,1.6-.01,2.78Z"/>
  <path class="cls-1" d="m14.28,63.21c0-3.37.03-6.74-.01-10.11-.02-1.3.44-2.14,1.73-2.52.88-.26,1.73-.64,2.6-.93,1.35-.45,2.19-.08,2.67,1.23,2.56,7,5.11,14,7.64,21.01.48,1.33.07,2.14-1.23,2.67-2.05.83-4.13,1.47-6.41,1.26-1.35-.12-2.73-.02-4.09-.02-2.5,0-2.9-.41-2.9-2.96,0-3.21,0-6.42,0-9.63Z"/>
</svg>