<?xml version="1.0" encoding="utf-8"?>
<!-- Generator: Adobe Illustrator 27.7.0, SVG Export Plug-In . SVG Version: 6.00 Build 0)  -->
<svg version="1.1" id="Layer_1" xmlns="http://www.w3.org/2000/svg" xmlns:xlink="http://www.w3.org/1999/xlink" x="0px" y="0px"
	 viewBox="0 0 24 24" style="enable-background:new 0 0 24 24;" xml:space="preserve">
<style type="text/css">
	.st0{fill:#FFFFFF;}
</style>
<g>
	<path class="st0" d="M13.4,0.3c3.1,0,6.3,0,9.4,0c0.6,0,0.9,0.3,0.9,0.9c0,6.3,0,12.5,0,18.8c0,0.7-0.3,0.9-0.9,0.9
		c-4.1,0-8.2,0-12.3,0c-0.4,0-0.4,0-0.4-0.4c0-1.8,0-3.6,0-5.4c0-0.2,0.1-0.3,0.2-0.5c2-2,4-4,6-6c0.1-0.1,0.1-0.2,0.2-0.1
		c0.1,0,0,0.1,0,0.2c0,1,0,2,0,3.1c0,0.5,0.3,0.8,0.8,0.7c0.4,0,0.6-0.3,0.6-0.8c0-0.6,0-1.2,0-1.7c0-1.1,0-2.1,0-3.2
		c0-0.6-0.3-0.9-0.9-0.9c-1.6,0-3.3,0-4.9,0c-0.5,0-0.8,0.3-0.8,0.7c0,0.4,0.3,0.7,0.8,0.7c1,0,2,0,3,0c0.1,0,0.3-0.1,0.3,0
		c0.1,0.1-0.1,0.2-0.2,0.3c-2,2-3.9,3.9-5.9,5.9c-0.2,0.2-0.3,0.2-0.6,0.2c-1.8,0-3.6,0-5.4,0c-0.3,0-0.3,0-0.3-0.3
		C3,9.5,3,5.3,3,1.2c0-0.6,0.3-0.9,0.9-0.9C7,0.3,10.2,0.3,13.4,0.3z"/>
	<path class="st0" d="M4.5,23.7c-1.1,0-2.2,0-3.3,0c-0.6,0-0.9-0.3-0.9-0.9c0-2.2,0-4.4,0-6.6c0-0.6,0.3-0.9,0.9-0.9
		c2,0,4.1,0,6.1,0c0.1,0,0.2,0,0.2,0c0,0.1-0.1,0.1-0.1,0.2C6.2,16.8,5,18,3.8,19.2c-0.2,0.2-0.3,0.4-0.3,0.6c0,0.5,0.6,0.9,1.1,0.6
		c0.1-0.1,0.2-0.2,0.3-0.2c1.2-1.2,2.3-2.3,3.5-3.5c0.1-0.1,0.1-0.2,0.2-0.1c0.1,0,0,0.1,0,0.2c0,2,0,4.1,0,6.1
		c0,0.6-0.3,0.9-0.9,0.9C6.7,23.7,5.6,23.7,4.5,23.7z"/>
</g>
</svg>
