<svg width="36" height="36" viewBox="0 0 36 36" fill="none" xmlns="http://www.w3.org/2000/svg">
<path fill-rule="evenodd" clip-rule="evenodd" d="M28.0502 33.7836C27.1142 33.7836 26.1782 33.7836 25.2422 33.7836C24.8531 33.7836 24.5294 33.4967 24.4826 33.1104L24.2935 31.5471C23.577 31.2808 22.9178 30.8965 22.3398 30.4176L20.8898 31.0363C20.5319 31.189 20.1216 31.0521 19.927 30.7151C19.459 29.9044 18.991 29.0939 18.523 28.2832C18.3284 27.9462 18.415 27.5225 18.7263 27.2888L19.9864 26.3428C19.861 25.5973 19.861 24.8318 19.9864 24.0864L18.7263 23.1404C18.415 22.9068 18.3284 22.483 18.523 22.1459C18.991 21.3353 19.459 20.5247 19.927 19.7141C20.1215 19.3771 20.5319 19.2402 20.8898 19.3929L22.3397 20.0115C22.9176 19.5325 23.5769 19.1483 24.2935 18.882L24.4825 17.3187C24.5291 16.9324 24.8529 16.6455 25.242 16.6455H28.0501C28.4392 16.6455 28.7629 16.9324 28.8097 17.3187L28.9988 18.882C29.7153 19.1483 30.3745 19.5326 30.9525 20.0115L32.4025 19.3929C32.7603 19.2401 33.1708 19.377 33.3653 19.714C33.8333 20.5247 34.3013 21.3353 34.7693 22.1459C34.9639 22.4829 34.8772 22.9067 34.566 23.1403L33.3059 24.0863C33.4313 24.8318 33.4313 25.5973 33.3059 26.3428L34.566 27.2887C34.8772 27.5223 34.9639 27.9462 34.7693 28.2832C34.3013 29.0938 33.8333 29.9044 33.3653 30.715C33.1708 31.052 32.7604 31.1889 32.4025 31.0362L30.9526 30.4176C30.3746 30.8966 29.7154 31.2808 28.9988 31.5471L28.8098 33.1104C28.763 33.4967 28.4393 33.7836 28.0502 33.7836ZM10.0162 26.5857V25.0888C10.0162 25.0048 10.0604 24.9327 10.1354 24.8947C10.2104 24.8568 10.2946 24.8637 10.3624 24.9134L14.8671 28.2183C14.9228 28.2591 14.9536 28.3176 14.9558 28.3867C14.958 28.4558 14.931 28.5162 14.878 28.5605L10.3733 32.3307C10.307 32.3863 10.22 32.3976 10.1416 32.361C10.0633 32.3245 10.0161 32.2504 10.0161 32.1639V30.7779C2.9335 30.7779 0.610446 25.5708 2.66821 21.8678C3.80657 26.3002 7.52322 26.5857 10.0162 26.5857ZM9.24834 2.21643C13.7335 2.21643 17.3694 5.85236 17.3694 10.3375C17.3694 14.8227 13.7335 18.4586 9.24834 18.4586C4.76317 18.4586 1.12724 14.8227 1.12724 10.3375C1.12724 5.85236 4.76317 2.21643 9.24834 2.21643ZM12.4002 7.59492C12.2053 6.97701 11.77 6.44741 11.185 6.0801C10.845 5.86663 10.4538 5.70738 10.0314 5.61822V5.11668C10.0314 4.68419 9.68076 4.33354 9.24827 4.33354C8.81577 4.33354 8.46513 4.68419 8.46513 5.11668V5.61752C7.90572 5.7348 7.40228 5.97435 7.00038 6.29955C6.37157 6.80833 5.98267 7.52495 5.98267 8.3287C5.98267 9.13244 6.37164 9.84906 7.00038 10.3578C7.58277 10.8291 8.37815 11.1205 9.24827 11.1205C9.7491 11.1205 10.195 11.2787 10.5111 11.5345C10.7808 11.7527 10.9476 12.0405 10.9476 12.3461C10.9476 12.6517 10.7808 12.9395 10.5111 13.1577C10.1951 13.4134 9.7491 13.5717 9.24827 13.5717C8.85937 13.5717 8.50366 13.4766 8.21531 13.3144C7.94376 13.1617 7.73732 12.9549 7.63002 12.721C7.45094 12.3291 6.988 12.1565 6.59601 12.3356C6.20402 12.5147 6.03147 12.9776 6.21056 13.3696C6.45911 13.9112 6.89603 14.3669 7.45045 14.6788C7.75588 14.8505 8.09838 14.9802 8.46506 15.0572V15.5582C8.46506 15.9906 8.8157 16.3413 9.2482 16.3413C9.68069 16.3413 10.0313 15.9906 10.0313 15.5582V15.0573C10.5907 14.94 11.0942 14.7005 11.4961 14.3752C12.1249 13.8664 12.5138 13.1498 12.5138 12.3461C12.5138 11.5423 12.1249 10.8257 11.4961 10.3169C10.9138 9.84569 10.1184 9.55424 9.2482 9.55424C8.74736 9.55424 8.30144 9.39604 7.98531 9.14024C7.71566 8.92206 7.54881 8.6342 7.54881 8.32863C7.54881 8.02305 7.71566 7.73519 7.98531 7.51701C8.30144 7.26128 8.74736 7.10301 9.2482 7.10301C9.67211 7.10301 10.0548 7.21438 10.3527 7.40148C10.6264 7.57326 10.8253 7.80599 10.9072 8.06587C11.0373 8.47811 11.477 8.70684 11.8891 8.57676C12.3017 8.44682 12.5304 8.00716 12.4002 7.59492ZM26.1635 8.75577V10.2804C26.1635 10.3588 26.1222 10.4258 26.0523 10.4613C25.9824 10.4966 25.9039 10.4902 25.8407 10.4439L21.301 7.11335C21.2491 7.07524 21.2204 7.02067 21.2183 6.95627C21.2162 6.89186 21.2414 6.83561 21.2908 6.79427L25.8305 2.99472C25.8924 2.94297 25.9734 2.93235 26.0465 2.96652C26.1195 3.00063 26.1635 3.0696 26.1635 3.15025V4.56656C33.2412 4.56656 35.5626 9.77003 33.5064 13.4704C32.3688 9.04103 28.6547 8.75577 26.1635 8.75577ZM26.6462 21.3473C24.5104 21.3473 22.779 23.0787 22.779 25.2145C22.779 27.3503 24.5104 29.0817 26.6462 29.0817C28.782 29.0817 30.5134 27.3503 30.5134 25.2145C30.5134 23.0787 28.7819 21.3473 26.6462 21.3473Z" fill="#ED4252"/>
</svg>
