<svg width="35" height="31" viewBox="0 0 35 31" fill="none" xmlns="http://www.w3.org/2000/svg">
<path d="M17.5781 16.0929C18.1761 15.2092 18.5986 14.1961 18.8024 13.1116H21.806V13.1101V10.056H18.8024C18.5941 8.96408 18.1746 7.95545 17.5766 7.0733L19.6935 4.95487L17.532 2.79182L15.4121 4.91025C14.5314 4.30921 13.5183 3.88969 12.4294 3.67997V0.679321H9.37525V3.6799C8.28627 3.89266 7.27468 4.30914 6.3955 4.91018L4.27548 2.79175L2.11098 4.95184L4.23086 7.07323C3.63286 7.95538 3.21182 8.96256 3.00354 10.0559H0V13.1116H3.00354C3.21478 14.196 3.6343 15.2092 4.23086 16.0928L2.11098 18.2127L4.27548 20.3728L6.3924 18.2514C7.27454 18.8494 8.2862 19.2749 9.37511 19.4832V22.4867H12.4322V19.4832C13.5182 19.2735 14.5328 18.8495 15.4149 18.2544L17.5348 20.3729L19.6964 18.2128L17.5781 16.0929ZM10.9015 14.9147C9.06283 14.9147 7.56916 13.4196 7.56916 11.5793C7.56916 9.7376 9.06276 8.24697 10.9015 8.24697C12.7418 8.24697 14.2369 9.7376 14.2369 11.5793C14.2368 13.4196 12.7418 14.9147 10.9015 14.9147Z" fill="#1F65D1"/>
<path d="M35 23.1919V20.8682H32.7179C32.5632 20.0396 32.2434 19.2734 31.7851 18.6025L33.3948 16.9929L31.7509 15.349L30.1428 16.9586C29.4719 16.502 28.6997 16.1836 27.8771 16.0229V13.7394H25.5534V16.0215C24.7247 16.1836 23.9571 16.5005 23.2891 16.9572L21.6735 15.3475L20.0297 16.9899L21.6393 18.6025C21.1826 19.2734 20.8643 20.0456 20.7036 20.8697H18.423V23.1935H20.7036C20.8628 24.0176 21.1826 24.7912 21.6393 25.4591L20.0297 27.0688L21.6735 28.7112L23.2832 27.0985C23.9511 27.5582 24.7232 27.8766 25.5474 28.0372V30.3208H27.8712V28.0372C28.6983 27.8795 29.4659 27.5582 30.1354 27.1045L31.7451 28.7111L33.3874 27.0687L31.7778 25.4591C32.2374 24.7911 32.5528 24.013 32.7105 23.1934L35 23.1919ZM26.7108 24.565C25.3138 24.565 24.1758 23.4284 24.1758 22.0286C24.1758 20.6301 25.3138 19.4951 26.7108 19.4951C28.1106 19.4951 29.2457 20.6301 29.2457 22.0286C29.2457 23.4299 28.1107 24.565 26.7108 24.565Z" fill="#1F65D1"/>
</svg>
