<?xml version="1.0" encoding="utf-8"?>
<!-- Generator: Adobe Illustrator 27.7.0, SVG Export Plug-In . SVG Version: 6.00 Build 0)  -->
<svg version="1.1" id="Layer_1" xmlns="http://www.w3.org/2000/svg" xmlns:xlink="http://www.w3.org/1999/xlink" x="0px" y="0px"
	 viewBox="0 0 24 24" style="enable-background:new 0 0 24 24;" xml:space="preserve">
<style type="text/css">
	.st0{fill:#FFFFFF;}
</style>
<g>
	<path class="st0" d="M20,12.4c-0.3-0.2-0.7-0.3-1-0.4c-0.8-0.3-1.6-0.3-2.4-0.3c-1.4,0.2-2.6,0.8-3.6,1.9c-0.7,0.8-1.1,1.7-1.3,2.7
		c-0.1,0.6-0.1,1.2,0,1.9c0.1,0.6,0.3,1.2,0.6,1.7c0.1,0.1,0.1,0.1-0.1,0.1c-1.1,0-2.2,0-3.3,0c-1.4,0-2.8,0-4.2,0
		c-0.4,0-0.9-0.1-1.2-0.4c-0.5-0.4-0.8-0.9-0.9-1.5c0-0.2,0-0.4,0-0.5c0-2.6,0-5.2,0-7.8c0-0.1,0-0.1,0.1-0.1c5.7,0,11.3,0,17,0
		c0.1,0,0.1,0,0.1,0.1c0,0.8,0,1.7,0,2.5C20,12.3,20,12.3,20,12.4z M10.3,12.4c-0.2,0-0.5,0-0.7,0c-0.3,0-0.7,0.3-0.6,0.7
		c0,0.4,0.3,0.7,0.7,0.7c0.5,0,1,0,1.5,0c0.4,0,0.7-0.3,0.7-0.7c0-0.4-0.3-0.7-0.7-0.7C10.8,12.3,10.5,12.4,10.3,12.4z M6.1,13.7
		c0.2,0,0.5,0,0.7,0c0.3,0,0.6-0.3,0.6-0.7c0-0.4-0.3-0.7-0.7-0.7c-0.5,0-1,0-1.4,0c-0.4,0-0.7,0.3-0.7,0.7c0,0.4,0.3,0.7,0.7,0.7
		C5.6,13.7,5.9,13.7,6.1,13.7z M6.1,15.8c-0.2,0-0.5,0-0.7,0c-0.4,0-0.7,0.3-0.7,0.7c0,0.4,0.3,0.7,0.7,0.7c0.5,0,1,0,1.5,0
		c0.4,0,0.7-0.3,0.7-0.7c0-0.4-0.3-0.7-0.7-0.7C6.6,15.8,6.4,15.8,6.1,15.8z"/>
	<path class="st0" d="M11.3,8.2c-2.8,0-5.7,0-8.5,0c-0.1,0-0.1,0-0.1-0.2c0-0.6,0-1.3,0-1.9c0-1.1,0.9-1.9,1.7-2c0.2,0,0.3,0,0.5,0
		c0.6,0,1.2,0,1.8,0c0.1,0,0.1,0,0.1-0.1c0-0.2,0-0.5,0-0.7c0.1-0.3,0.3-0.6,0.7-0.6c0.3,0,0.6,0.2,0.7,0.6c0,0.2,0,0.5,0,0.7
		c0,0.1,0,0.1,0.1,0.1c2,0,4,0,6,0c0.1,0,0.1,0,0.1-0.1c0-0.2,0-0.5,0-0.7c0.1-0.3,0.3-0.6,0.7-0.6c0.3,0,0.6,0.2,0.7,0.6
		c0,0.2,0,0.5,0,0.7c0,0.1,0,0.1,0.1,0.1c0.6,0,1.3,0,1.9,0c0.4,0,0.8,0.1,1.1,0.3c0.7,0.4,1,1,1,1.8c0,0.6,0,1.3,0,1.9
		c0,0.1,0,0.1-0.1,0.1c-0.6,0-1.2,0-1.8,0C15.8,8.2,13.6,8.2,11.3,8.2z"/>
	<path class="st0" d="M21.3,17.2c0,2.3-1.8,4.2-4.2,4.1c-2.2,0-4.1-1.8-4.1-4.2c0-2.5,2.1-4.1,4.2-4.1C19.6,13.1,21.3,15,21.3,17.2z
		 M16.5,16.1c0,0.3,0,0.7,0,1c0,0.3,0.1,0.5,0.4,0.6c0.5,0.2,0.9,0.5,1.4,0.7c0.2,0.1,0.3,0.1,0.5,0.1c0.3-0.1,0.5-0.3,0.5-0.6
		c0-0.3-0.1-0.6-0.4-0.7c-0.3-0.2-0.6-0.3-0.9-0.5c-0.1,0-0.1-0.1-0.1-0.1c0-0.5,0-1,0-1.5c0-0.1,0-0.2,0-0.3
		c-0.1-0.3-0.4-0.5-0.8-0.5c-0.3,0-0.6,0.3-0.6,0.7C16.5,15.5,16.5,15.8,16.5,16.1z"/>
</g>
</svg>
