<?xml version="1.0" encoding="UTF-8"?>
<svg id="Layer_7" data-name="Layer 7" xmlns="http://www.w3.org/2000/svg" viewBox="0 0 90 90">
  <defs>
    <style>
      .cls-1 {
        fill: #1f65d1;
        stroke-width: 0px;
      }
    </style>
  </defs>
  <path class="cls-1" d="m38.75,18.21c2.09,0,4.19-.02,6.28,0,4.2.05,7.58,3.16,7.76,7.36.15,3.48.15,6.98,0,10.46-.19,4.14-3.57,7.23-7.72,7.29-1.6.02-3.21-.04-4.81.03-.49.02-1.08.25-1.44.58-1.67,1.58-3.28,3.23-4.9,4.86-.56.57-1.16,1.03-2.03.68-.85-.35-1.01-1.07-1.01-1.89,0-1.22-.03-2.44.01-3.66.02-.55-.19-.78-.7-.96-3.66-1.29-5.55-3.93-5.59-7.82-.03-2.93-.04-5.86,0-8.79.06-4.9,3.38-8.14,8.29-8.15,1.95,0,3.91,0,5.86,0Zm-1.65,12c-.73-.78-1.31-1.47-1.97-2.09-.72-.68-1.61-.64-2.23,0-.59.62-.62,1.48.02,2.16,1.03,1.09,2.09,2.15,3.18,3.17.64.61,1.43.66,2.07.04,2.17-2.11,4.31-4.26,6.43-6.43.62-.64.56-1.4-.04-2.07-.57-.64-1.44-.67-2.15-.09-.24.2-.46.43-.68.65-1.5,1.5-2.99,3.01-4.63,4.66Z"/>
  <path class="cls-1" d="m26.35,57.61c-2.8-1.5-3.84-3.44-3.29-5.77.49-2.04,2.35-3.53,4.49-3.57,2.13-.04,4.01,1.35,4.6,3.41.66,2.33-.31,4.23-3.29,6.01.97,0,1.65-.04,2.32,0,3.35.26,5.81,2.86,5.86,6.21.03,2.02.02,4.05,0,6.07-.01,1.22-.59,1.81-1.8,1.81-5.09.01-10.18.01-15.28,0-1.15,0-1.74-.6-1.75-1.75-.02-2.13-.05-4.26.01-6.38.09-3.08,2.52-5.63,5.58-5.93.76-.07,1.52-.08,2.54-.12Z"/>
  <path class="cls-1" d="m63.66,57.61c1.01.05,1.77.05,2.53.12,3.06.3,5.49,2.85,5.58,5.93.06,2.13.03,4.25.01,6.38-.01,1.15-.6,1.74-1.76,1.75-5.09.01-10.18.01-15.28,0-1.21,0-1.78-.59-1.8-1.81-.02-1.95-.02-3.91,0-5.86.03-3.64,2.53-6.25,6.18-6.44.55-.03,1.11,0,1.74-.08-2.75-1.48-3.92-3.62-2.74-6.59.78-1.96,2.78-2.95,4.95-2.67,1.9.24,3.57,1.84,3.89,3.72.4,2.33-.58,4.07-3.32,5.56Z"/>
  <path class="cls-1" d="m51.75,44.44c1.04-1.37,2.25-2.55,2.93-3.99.7-1.47,1.14-3.17,1.23-4.79.18-3.27.13-6.55.02-9.83-.05-1.47-.49-2.92-.75-4.39,4.67-.93,8.92,1.54,10,5.93.09.37.17.75.17,1.13.02,2.51.14,5.03-.02,7.53-.21,3.4-2.1,5.69-5.28,6.84-.72.26-.97.57-.94,1.32.06,1.15.01,2.3.01,3.45,0,.78-.17,1.46-.97,1.81-.81.36-1.41,0-1.96-.56-1.53-1.53-3.05-3.05-4.46-4.46Z"/>
</svg>