<svg width="45" height="44" viewBox="0 0 45 44" fill="none" xmlns="http://www.w3.org/2000/svg">
<path d="M26 31.4C23.7 31.4 21.4 31.4 19.1 31.4C18.5 31.4 18.2 31.7 18.2 32.3C18.2 33 18.2 33.6 18.2 34.2C18.2 34.8 18.5 35.1 19.1 35.1C20.2 35.1 21.3 35.1 22.4 35.1C23.6 35.1 24.6999 35.1 25.9 35.1C26.4 35.1 26.7999 34.8 26.7999 34.3C26.7999 33.6 26.7999 32.9 26.7999 32.2C26.8999 31.7 26.5 31.4 26 31.4Z" fill="#3972E6"/>
<path d="M22.2001 21.2C22.5001 21.3 23.0001 21.2 23.2001 20.9C23.5001 20.4 23.7001 19.9 23.9001 19.3C24.0001 19 23.8001 18.5 23.4001 18.4C23.1001 18.2 22.6001 18.3 22.4001 18.6C22.2001 18.9 22.1001 19.2 21.9001 19.6C21.8001 19.9 21.7001 20.2 21.6001 20.3C21.7001 20.7 21.9001 21.1 22.2001 21.2Z" fill="#3972E6"/>
<path d="M22.1 0.100023C10.4 0.300023 0.800022 9.70002 0.600022 21.6C0.300022 34 10.4 43.8 22.3 43.9C34.4 44 44.4 34.2 44.5 22C44.4 9.80002 34.4 -0.199977 22.1 0.100023ZM27.7 8.80002C27.7 11.6 27.8 14.4 27.8 17.1C27.8 18.1 27.8 19.1 27.8 20C27.8 23.1 25.2 25.5 22.1 25.2C20.5 25 19.3 24.3 18.3 23C16.8 20.8 17.2 17.8 19.2 16.1C21.7 13.9 24.2 11.6 26.8 9.40002C27.1 9.30002 27.4 9.00002 27.7 8.80002ZM11.4 20C11.3 20.6 11.3 21.2 11.2 21.8C11.2 22.4 10.8 22.8 10.3 22.8C9.80002 22.8 9.40002 22.4 9.40002 21.8C9.40002 19.7 9.90002 17.7 10.9 15.9C12.7 12.5 15.6 10.2 19.3 9.30002C21 8.80002 22.8 8.80002 24.5 9.10002C24.6 9.10002 24.6 9.10002 24.7 9.10002C24.2 9.60002 23.6 10.1 23.1 10.5C23 10.6 22.9 10.6 22.7 10.6C19.8 10.6 17.3 11.4 15.1 13.3C13.1 15 11.8 17.3 11.4 20ZM28.6 34.3C28.6 35.8 27.4 37 25.9 37C24.7 37 23.6 37 22.4 37C21.3 37 20.1 37 19 37C17.4 37 16.3 35.9 16.3 34.3C16.3 33.7 16.3 33 16.3 32.4C16.2 31.2 17.2 29.7 19 29.7C21.3 29.7 23.6 29.7 25.9 29.7C27.5 29.7 28.6 30.9 28.6 32.4C28.6 33 28.6 33.6 28.6 34.3ZM34.3 22.6C33.9 22.4 33.8 22.1 33.8 21.7C33.8 19.9 33.3 18.2 32.5 16.5C31.8 15.2 30.9 14 29.7 13.1C29.5 13 29.5 12.8 29.5 12.6C29.5 12 29.5 11.4 29.5 10.8C32.2 12.5 34 14.9 35 17.8C35.4 19.1 35.6 20.4 35.6 21.7C35.5 22.4 34.9 22.9 34.3 22.6Z" fill="#3972E6"/>
</svg>
