<svg width="34" height="38" viewBox="0 0 34 38" fill="none" xmlns="http://www.w3.org/2000/svg">
<path d="M33.0864 32.2875C33.0864 32.2875 28.8688 25.0387 28.1123 23.7386C28.973 23.476 29.89 23.2441 30.2709 22.5863C30.9059 21.4902 29.7757 19.692 30.0724 18.5171C30.3781 17.3079 32.1829 16.2616 32.1829 15.0325C32.1829 13.835 30.317 12.4361 30.0111 11.2339C29.7123 10.0593 30.8391 8.25918 30.2021 7.16438C29.5651 6.06948 27.4434 6.15944 26.57 5.31901C25.6714 4.45415 25.6742 2.33808 24.5902 1.75849C23.5019 1.17674 21.7332 2.35246 20.5248 2.07396C19.3302 1.79864 18.2629 0 17.0151 0C15.7488 0 13.7347 2.04028 13.4188 2.1137C12.2111 2.39446 10.4401 1.22162 9.35287 1.80583C8.26999 2.38737 8.27666 4.50364 7.37965 5.36995C6.50769 6.21192 4.38588 6.12586 3.75084 7.22199C3.11589 8.31792 4.24612 10.1156 3.94944 11.2911C3.65194 12.4696 1.78439 13.6637 1.78439 15.0267C1.78439 16.2559 3.59362 17.2989 3.90118 18.5075C4.20011 19.6822 3.07328 21.4821 3.71027 22.5773C4.05706 23.1734 4.84388 23.4181 5.62968 23.6534C5.72138 23.6808 5.89483 23.7834 5.77735 23.9546C5.23976 24.8825 0.912851 32.3501 0.912851 32.3501C0.568629 32.9441 0.848156 33.4532 1.53383 33.4821L4.8901 33.6221C5.57577 33.6509 6.43591 34.1492 6.80191 34.7297L8.59285 37.5716C8.95884 38.1521 9.53956 38.1412 9.88368 37.5473C9.88368 37.5473 14.8947 28.896 14.8968 28.8935C14.9973 28.776 15.0984 28.8002 15.1467 28.8412C15.695 29.3081 16.4593 29.7738 17.0973 29.7738C17.7228 29.7738 18.3021 29.3354 18.8752 28.8465C18.9218 28.8067 19.0352 28.7253 19.1182 28.8943C19.1196 28.897 24.1251 37.501 24.1251 37.501C24.4701 38.0942 25.0509 38.1042 25.4158 37.523L27.2017 34.6777C27.5667 34.0968 28.4259 33.5966 29.1116 33.5667L32.4675 33.4205C33.1529 33.3904 33.4315 32.8805 33.0864 32.2875ZM22.5618 24.5054C18.8509 26.6643 14.3967 26.4329 10.9945 24.287C6.00933 21.0938 4.36904 14.4882 7.36589 9.31577C10.3969 4.08363 17.0599 2.23744 22.3391 5.11271C22.3669 5.1278 22.3943 5.14341 22.4218 5.15881C22.4609 5.18048 22.5 5.20246 22.5389 5.22464C24.1676 6.16365 25.5799 7.52647 26.5912 9.26473C29.682 14.5776 27.8745 21.4146 22.5618 24.5054Z" fill="#9256FF"/>
<path d="M21.7131 6.78825C21.6977 6.77932 21.6821 6.771 21.6667 6.76217C18.8466 5.12999 15.2522 5.01066 12.2397 6.7633C7.76936 9.36407 6.24819 15.1167 8.84895 19.587C9.64256 20.9512 10.7301 22.0401 11.9847 22.8216C12.0914 22.8892 12.1994 22.9556 12.3097 23.0195C16.7849 25.6121 22.5345 24.0806 25.127 19.6056C27.7195 15.1304 26.1883 9.38091 21.7131 6.78825ZM22.8327 14.1041L21.2657 15.6314C20.7804 16.1044 20.477 17.0381 20.5917 17.7061L20.9616 19.8627C21.0762 20.5308 20.6792 20.8192 20.0793 20.5038L18.1424 19.4856C17.5425 19.1702 16.5609 19.1702 15.961 19.4856L14.0242 20.5038C13.4243 20.8192 13.0272 20.5308 13.1418 19.8627L13.5117 17.7061C13.6263 17.0381 13.3229 16.1044 12.8376 15.6314L11.2707 14.1041C10.7853 13.6311 10.9371 13.1643 11.6078 13.0667L13.7731 12.7521C14.4438 12.6546 15.238 12.0776 15.538 11.4699L16.5064 9.50773C16.8063 8.9 17.2972 8.9 17.597 9.50773L18.5655 11.4699C18.8655 12.0776 19.6596 12.6546 20.3304 12.7521L22.4957 13.0667C23.1663 13.1643 23.318 13.6311 22.8327 14.1041Z" fill="#9256FF"/>
</svg>
