<?xml version="1.0" encoding="UTF-8"?>
<svg id="Layer_5" data-name="Layer 5" xmlns="http://www.w3.org/2000/svg" viewBox="0 0 90 90">
  <defs>
    <style>
      .cls-1 {
        fill: #fff;
        stroke-width: 0px;
      }
    </style>
  </defs>
  <path class="cls-1" d="m30.41,43.83v-9.13c-1.49-.33-2.83-.49-4.08-.91-5.8-1.96-9.25-7.84-8.26-13.94.95-5.84,6.17-10.32,12.19-10.35,9.72-.04,19.44-.03,29.16,0,6.91.02,12.27,5.14,12.62,12.01.34,6.56-4.64,12.24-11.37,12.95-.31.03-.63.05-1.12.09v9.29c-3.59-3-6.9-5.81-10.27-8.54-.55-.44-1.36-.65-2.08-.78-4-.72-7.18.66-9.99,3.57-1.98,2.05-4.35,3.71-6.8,5.76Zm4.23-19.9h3.96v-3.91h-3.96v3.91Zm12.34-3.89h-3.96v3.92h3.96v-3.92Zm8.31,0h-3.95v3.92h3.95v-3.92Z"/>
  <path class="cls-1" d="m26.34,63.92c-4.52-1.83-6.95-5.42-6.29-9.51.66-4.12,4.07-7.11,8.14-7.15,4.07-.04,7.47,2.74,8.29,6.79.86,4.22-1.44,7.82-6.54,9.87,2.36,0,4.42-.02,6.47,0,3.6.03,6.27,2.4,6.41,5.93.14,3.5.03,7.02.03,10.63H13.87c0-3.89-.2-7.78.07-11.64.19-2.77,2.97-4.85,5.88-4.92,2.17-.05,4.35,0,6.52,0Z"/>
  <path class="cls-1" d="m63.23,63.92c2.53,0,4.66-.03,6.79,0,3.22.06,5.93,2.35,6.09,5.5.19,3.68.04,7.38.04,11.1h-28.93c0-3.97-.22-7.91.08-11.81.21-2.72,2.99-4.73,5.84-4.79,2.17-.05,4.35-.01,6.57-.1-2.24-.75-4.09-2-5.27-4.07-1.19-2.07-1.45-4.27-.79-6.56,1.07-3.69,4.67-6.18,8.55-5.94,3.89.24,7.09,3.22,7.7,7.18.63,4.06-1.74,7.56-6.67,9.48Z"/>
</svg>