<?xml version="1.0" encoding="utf-8"?>
<!-- Generator: Adobe Illustrator 27.7.0, SVG Export Plug-In . SVG Version: 6.00 Build 0)  -->
<svg version="1.1" id="Layer_1" xmlns="http://www.w3.org/2000/svg" xmlns:xlink="http://www.w3.org/1999/xlink" x="0px" y="0px"
	 viewBox="0 0 24 24" style="enable-background:new 0 0 24 24;" xml:space="preserve">
<style type="text/css">
	.st0{fill:#FFFFFF;}
</style>
<g>
	<path class="st0" d="M19.4,2.9c0.2,0,0.6,0,0.9,0C20.7,3,21,3.4,21,3.9c0,0.8,0,1.5-0.1,2.2c-0.1,1.2-0.4,2.5-0.8,3.6
		c-0.3,0.8-0.7,1.5-1.1,2.2c-0.4,0.6-0.9,1.2-1.4,1.8c-0.3,0.3-0.6,0.7-1,1c-0.5,0.4-1,0.8-1.6,1.2c-0.4,0.3-0.9,0.6-1.3,0.8
		c-0.1,0-0.1,0-0.1,0c-1-1-2-2-3-3c-1-1-1.9-1.9-2.9-2.9c-0.2-0.2-0.4-0.4-0.5-0.5c-0.1,0,0-0.1,0-0.1c0.4-0.7,0.8-1.3,1.2-1.9
		C9.2,7.4,9.9,6.6,10.7,6c0.7-0.6,1.5-1.1,2.3-1.6c0.9-0.5,1.9-0.8,3-1.1C16.7,3.1,17.4,3,18.2,3C18.6,2.9,18.9,2.9,19.4,2.9z
		 M12.7,8.6c0,1.4,1.1,2.6,2.6,2.7c1.3,0,2.7-1,2.7-2.7C18,7.2,16.8,6,15.4,6C13.9,6,12.6,7.3,12.7,8.6z"/>
	<path class="st0" d="M6.2,13.6c0-0.2,0.1-0.5,0.1-0.7c0.1-0.5,0.3-1,0.5-1.5c0-0.1,0-0.1,0.1,0c1.9,1.9,3.8,3.8,5.8,5.8
		c0.1,0.1,0.1,0.1,0,0.1c-0.5,0.2-1.1,0.4-1.7,0.5c-0.1,0-0.2,0-0.3,0.1c-0.4,0.1-0.7,0-0.9-0.3c-0.4-0.4-0.7-0.7-1.1-1.1
		c-0.7-0.7-1.4-1.4-2.1-2.1c-0.2-0.2-0.3-0.4-0.3-0.6C6.2,13.7,6.2,13.6,6.2,13.6z"/>
	<path class="st0" d="M16.2,16.5c0,0.3,0,0.5-0.1,0.8c0,0.3,0,0.5-0.1,0.8c-0.1,0.4-0.3,0.8-0.6,1c-0.9,0.6-1.8,1.2-2.7,1.8
		c-0.6,0.4-1.4,0-1.5-0.7c-0.1-0.4-0.1-0.9-0.2-1.3c0-0.1,0-0.1,0.1-0.1c1.3-0.3,2.5-0.8,3.7-1.4C15.2,17.1,15.7,16.8,16.2,16.5
		C16.1,16.5,16.1,16.5,16.2,16.5z"/>
	<path class="st0" d="M2.9,11.8c0-0.1,0.1-0.3,0.2-0.5C3.4,10.9,3.7,10.5,4,10c0.3-0.5,0.6-1,0.9-1.4C5.2,8.2,5.6,8,6.1,7.9
		c0.5,0,0.9-0.1,1.4-0.1c0,0,0.1,0,0.1,0c0,0,0,0,0,0.1c-0.7,1-1.3,2.1-1.8,3.2c-0.2,0.6-0.4,1.2-0.5,1.8c0,0.1,0,0.1-0.1,0.1
		c-0.4-0.1-0.9-0.1-1.3-0.2C3.3,12.7,2.9,12.3,2.9,11.8z"/>
	<path class="st0" d="M3.5,21.1c-0.2,0-0.4-0.1-0.5-0.3c-0.1-0.2,0-0.4,0.1-0.6c0.1-0.1,0.2-0.2,0.3-0.3c1-1,2-2,3-3
		c0.1-0.1,0.1-0.1,0.2-0.2c0.2-0.1,0.5,0,0.6,0.2c0.1,0.2,0.2,0.4,0,0.6c0,0-0.1,0.1-0.1,0.1C6,18.7,5,19.8,3.9,20.9
		C3.8,21,3.6,21.1,3.5,21.1z"/>
	<path class="st0" d="M5.7,15.7c0,0.1-0.1,0.3-0.2,0.4c-0.5,0.5-1,1-1.5,1.5c-0.1,0.1-0.1,0.1-0.2,0.2c-0.2,0.2-0.5,0.2-0.7,0
		c-0.2-0.2-0.2-0.5,0-0.7c0.1-0.1,0.2-0.2,0.3-0.3c0.5-0.5,0.9-0.9,1.4-1.4c0,0,0.1-0.1,0.1-0.1c0.2-0.1,0.4-0.1,0.5,0
		C5.6,15.2,5.7,15.4,5.7,15.7z"/>
	<path class="st0" d="M6.6,21.1c-0.1,0-0.3-0.1-0.4-0.3c-0.1-0.2-0.1-0.4,0.1-0.6c0.3-0.3,0.5-0.6,0.8-0.8c0.3-0.3,0.6-0.6,0.9-0.9
		c0.2-0.2,0.3-0.2,0.6-0.1c0.3,0.1,0.5,0.5,0.3,0.8c0,0.1-0.1,0.1-0.1,0.2c-0.5,0.5-1.1,1.1-1.6,1.6C6.9,21,6.8,21.1,6.6,21.1z"/>
	<path class="st0" d="M13.8,8.6c0-0.9,0.7-1.6,1.6-1.6c0.9,0,1.6,0.7,1.6,1.6c0,0.9-0.7,1.6-1.5,1.6C14.5,10.2,13.8,9.5,13.8,8.6z"
		/>
</g>
</svg>
