<?xml version="1.0" encoding="UTF-8"?>
<svg id="Layer_4" data-name="Layer 4" xmlns="http://www.w3.org/2000/svg" viewBox="0 0 90 90">
  <defs>
    <style>
      .cls-1 {
        fill: #fff;
        stroke-width: 0px;
      }
    </style>
  </defs>
  <path class="cls-1" d="m58.34,53.44c-10.7-.02-19.35-8.71-19.3-19.41.05-10.68,8.76-19.39,19.38-19.38,10.7,0,19.4,8.75,19.36,19.45-.05,10.63-8.82,19.35-19.44,19.33Zm1.27-26.06h0c0-.82.02-1.63,0-2.45-.02-.88-.41-1.31-1.12-1.29-.7.02-1.08.47-1.08,1.34,0,1.36-.05,2.72.02,4.08.04.86-.04,1.54-1.01,1.79-.19.05-.36.24-.52.39-1.18,1.13-1.52,2.48-1.04,4.03.46,1.45,1.81,2.5,3.34,2.6,1.63.11,2.88-.57,3.63-2,.31-.59.65-.75,1.25-.72.81.04,1.63.03,2.45,0,.77-.03,1.22-.48,1.18-1.16-.05-.73-.5-1.04-1.2-1.05-.9,0-1.8-.02-2.69,0-.44.01-.61-.18-.87-.53-.51-.67-1.13-1.29-1.8-1.8-.34-.26-.55-.43-.53-.87.03-.79,0-1.58,0-2.37Zm-2.38-7.53c.06.03.11.06.17.09,0,.13,0,.27,0,.4.02.7.36,1.13,1.08,1.15.73.02,1.08-.41,1.11-1.11.02-.38.03-.76-.04-1.13-.15-.76-1.04-1.16-1.62-.66-.34.29-.47.82-.7,1.25Zm15.43,12.92c-.03.06-.06.11-.08.17-.14,0-.27,0-.41,0-.72.06-1.16.49-1.13,1.13.03.69.43,1.03,1.09,1.07.35.02.71.03,1.06-.02.8-.13,1.25-1.06.74-1.67-.28-.34-.84-.46-1.27-.68Zm-13.06,15.35c-.01-.63.03-1.36-.79-1.47-.38-.06-1.12.17-1.17.39-.16.67-.16,1.42-.02,2.1.05.23.71.48,1.07.45.86-.07.91-.78.91-1.46Zm-9.74-23.87c-.02-.65-1.07-1.64-1.7-1.61-.58.03-1.06.53-1.05,1.12,0,.65,1.05,1.64,1.69,1.61.58-.03,1.08-.56,1.06-1.12Zm19.92,19.94c-.02-.66-1.05-1.65-1.69-1.63-.56.03-1.06.58-1.04,1.14.02.67,1.04,1.64,1.69,1.62.57-.02,1.06-.55,1.04-1.13Zm-19.92-.38c.01-.56-.5-1.09-1.07-1.11-.65-.02-1.69.97-1.68,1.61,0,.58.49,1.11,1.06,1.13.63.03,1.68-.99,1.7-1.63Zm19.92-19.97c0-.59-.5-1.09-1.09-1.08-.68,0-1.68,1.01-1.63,1.68.05.62.41,1,1.05,1.03.68.04,1.68-.95,1.67-1.63Z"/>
  <path class="cls-1" d="m27.61,73.76v-20.61c2.73-.15,5.41-.14,7.93.97,2.59,1.13,5.13,2.37,7.72,3.5.6.26,1.29.42,1.94.43,3.4.04,6.8.02,10.19.02,3.45,0,4.34.61,5.52,3.83,1.81-.65,3.62-1.29,5.43-1.94,2.4-.87,4.79-1.78,7.2-2.61,1.81-.63,3.63-.8,5.31.39,1.35.96,1.86,2.49,1.46,4.1-.47,1.85-1.68,3.06-3.32,3.9-2.25,1.15-4.5,2.31-6.74,3.46-5.29,2.72-10.62,5.37-15.86,8.19-3.79,2.04-7.61,2.2-11.57.79-2.92-1.04-5.81-2.13-8.71-3.22-1.94-.73-3.89-1.39-6.02-1.15-.13.01-.26-.03-.48-.06Z"/>
  <path class="cls-1" d="m37.06,36.94c.36,1.4.59,2.76,1.07,4.02.58,1.54,1.32,3.03,2.06,4.51.45.9.14,1.7-.88,1.73-1.74.06-3.48.04-5.22,0-.72-.02-1.26-.48-1.16-1.2.29-1.9-.55-2.79-2.33-3.31-1.53-.45-1.48-.63-2.65.45-.2.18-.4.37-.6.55-.64.57-1.11.59-1.71,0-1.21-1.17-2.4-2.37-3.58-3.57-.58-.59-.63-1.23.01-1.78,1.24-1.07,1.46-2.03.68-3.64-.64-1.33-1.17-1.99-2.7-1.89-1.42.09-1.67-.31-1.67-1.76,0-1.41,0-2.83,0-4.24,0-.97.41-1.48,1.37-1.42,1.63.11,2.76-.32,2.99-2.12,0-.05.03-.11.06-.15,1.06-1.19.44-2.06-.47-2.98-1.04-1.05-.99-1.36.07-2.42,1.04-1.04,2.07-2.09,3.12-3.11.71-.7,1.23-.78,1.88-.04,1.1,1.24,2.21,1.67,3.62.54.06-.05.15-.09.22-.09,1.47-.16,1.71-1.09,1.66-2.37-.05-1.55.25-1.78,1.81-1.78,1.44,0,2.88,0,4.32,0,.94,0,1.45.4,1.37,1.31-.15,1.7.5,2.5,2.14,3.13,1.34.52,2.13.56,3.12-.5,1.04-1.11,1.47-1,2.57.27-3.1,1.75-5.7,4.04-7.66,7.03-3.52-1.5-6.79-1.32-9.54,1.51-2.27,2.34-2.86,5.16-1.68,8.21,1.34,3.46,4,5.08,7.68,5.08Z"/>
  <path class="cls-1" d="m25.39,64.09c0,3.59,0,7.18,0,10.76,0,1.33-.29,1.62-1.64,1.62-4.27,0-8.53,0-12.8,0-1.19,0-1.53-.39-1.36-1.54,1.07-7.26,2.14-14.51,3.22-21.77.17-1.13.52-1.42,1.68-1.42,3.1,0,6.2,0,9.3,0,1.28,0,1.6.31,1.6,1.58,0,3.59,0,7.18,0,10.76Zm-9.4,8.26c.57-.06.98-.36,1.02-1,.05-.64-.46-1.19-1.06-1.19-.56,0-1.09.54-1.1,1.09,0,.56.52,1.09,1.13,1.1Zm5.25-1.13c-.02-.59-.54-1.08-1.11-1.06-.56.03-1.06.57-1.04,1.14.02.58.55,1.07,1.12,1.05.58-.02,1.04-.54,1.03-1.13Z"/>
  <path class="cls-1" d="m56.87,34.06c-.01-1.03.75-1.78,1.8-1.79.9,0,1.58.67,1.61,1.59.04,1.04-.78,1.85-1.86,1.84-.89,0-1.55-.7-1.56-1.64Z"/>
</svg>