<?xml version="1.0" encoding="UTF-8"?>
<svg id="Layer_1" data-name="Layer 1" xmlns="http://www.w3.org/2000/svg" viewBox="0 0 70 70">
  <defs>
    <style>
      .cls-1 {
        fill: #1f65d1;
        stroke-width: 0px;
      }
    </style>
  </defs>
  <path class="cls-1" d="m31.26,35.71c0-3.52-.01-7.04,0-10.56.01-1.7,1.29-2.85,2.81-2.57,1.19.21,1.8.95,1.8,2.22,0,4.73,0,9.47,0,14.2,0,.28-.09.62.04.83.22.35.62.88.88.85.37-.05.9-.5.96-.85.15-.81.04-1.67.07-2.51.03-.99.49-1.73,1.43-2.1.82-.32,1.88-.08,2.35.66.31.49.49,1.14.51,1.73.07,1.71.02,3.42.02,5.14,0,.59.09,1.14.74,1.36.63.21,1.23-.32,1.25-1.12.03-1.06,0-2.12,0-3.18,0-1.43.79-2.36,2.02-2.43,1.33-.07,2.59.88,2.67,2.21.11,1.89.06,3.8.08,5.69,0,.34,0,.69.04,1.02.08.58.48.99,1.02.81.37-.12.82-.61.86-.98.12-1.05.04-2.11.05-3.17.01-1.52.86-2.51,2.15-2.53,1.29-.02,2.45,1.02,2.45,2.43.02,4.45.14,8.91-.13,13.35-.29,4.75-4.46,8.54-9.21,8.66-3.42.08-6.85.05-10.28,0-1.85-.02-3.32-.89-4.17-2.54-2.81-5.48-5.57-10.97-8.33-16.48-.62-1.25-.16-2.62.97-3.21,1.16-.61,2.45-.19,3.17,1.06.6,1.05,1.18,2.12,1.75,3.19.27.5.68.99,1.23.69.36-.19.72-.79.73-1.21.06-3.55.03-7.1.03-10.65Z"/>
  <path class="cls-1" d="m22.92,13.51c2,1.85,4,3.71,6.03,5.59,2.75-2.2,5.78-2.31,8.93-.05,2.67-2.17,5.35-4.34,8.06-6.54-.52-1.29-.71-2.58-.27-3.92.81-2.46,3.27-3.91,5.8-3.4,2.52.51,4.3,2.88,4.05,5.38-.27,2.67-2.34,4.68-4.96,4.61-.92-.02-1.83-.47-2.75-.69-.29-.07-.71-.18-.88-.05-2.58,2.05-5.13,4.13-7.49,6.05.26,1.46.45,2.73.74,3.98.06.25.45.53.73.59,3.55.76,7.11,1.48,10.75,2.22.11-.23.23-.47.35-.71.98-1.97,3.1-2.93,5.25-2.38,1.91.49,3.39,2.48,3.32,4.46-.08,2.19-1.62,3.96-3.79,4.36-2.03.38-4.07-.77-4.9-2.74-.19-.45-.26-.87-.92-1-3.66-.7-7.31-1.48-10.96-2.23-.12-.02-.24-.03-.35-.05-.5.68-.99,1.34-1.48,2.01-.09-.02-.17-.04-.26-.07,0-1.44,0-2.88,0-4.32,0-1.34-.51-2.42-1.59-3.22-1.43-1.06-2.98-1.23-4.57-.45-1.63.79-2.45,2.18-2.53,3.96-.06,1.42-.01,2.85-.21,4.4-.47-.54-.95-1.08-1.49-1.69-.26.13-.57.26-.86.42-2.11,1.12-4.22,2.27-6.35,3.37-.65.33-.92.68-.85,1.48.21,2.6-1.49,4.82-3.96,5.34-2.45.51-4.88-.82-5.78-3.18-.83-2.19-.03-4.71,1.91-6.02,1.92-1.29,4.49-1.09,6.21.48.18.17.36.34.58.54,2.63-1.41,5.27-2.8,7.88-4.23.21-.11.36-.45.4-.71.21-1.21.38-2.43.52-3.65.03-.26-.06-.62-.24-.8-1.79-1.87-3.59-3.72-5.43-5.53-.23-.23-.77-.27-1.14-.21-1.96.35-3.82-.43-4.83-2.09-.99-1.63-.86-3.66.32-5.16,1.18-1.49,3.12-2.08,4.95-1.49,2.61.84,3.85,3.95,2.55,6.4-.14.27-.31.53-.54.92Z"/>
</svg>