<svg width="22" height="23" viewBox="0 0 22 23" fill="none" xmlns="http://www.w3.org/2000/svg">
<path d="M9.83001 20.6863C9.00001 20.2363 7.72001 20.2563 6.83001 19.6263C6.37001 17.6763 8.01001 16.7263 8.77001 15.2063C10.39 11.0563 6.11001 9.11626 2.58001 9.72626C2.71001 4.42626 10.78 0.776259 15.31 4.06626C15.29 4.16626 15.38 4.35626 15.22 4.33626C14.11 4.65626 12.03 4.00626 11.15 5.13626C9.04001 7.68626 11.79 9.19626 14.07 9.55626C16.69 9.00626 19.47 9.87626 21.23 11.8563C21.46 11.9063 21.52 11.7563 21.58 11.5863C18.09 -12.0337 -13.54 9.22626 7.09001 21.4863C8.36001 21.9563 9.94001 22.4663 11.24 22.1963C11.4 22.1263 11.36 21.8763 11.24 21.7563C10.44 21.5763 10.09 21.1363 9.83001 20.6963V20.6863Z" fill="white"/>
<path d="M19.64 12.5563C14.45 7.2163 6.14997 15.5163 11.51 20.6863C16.72 26.0663 24.95 17.7363 19.64 12.5563ZM14.25 14.8563C14.25 13.1463 16.9 13.1463 16.9 14.8563C17.02 15.7963 16.76 17.0663 15.57 17.0663C14.39 17.0663 14.12 15.7963 14.24 14.8563H14.25ZM18.4 19.7163H12.66C11.64 18.7263 13.65 17.5963 14.6 17.4163C14.68 17.4163 16.37 17.4163 16.46 17.4163C17.38 17.4663 19.63 18.8563 18.4 19.7163Z" fill="white"/>
</svg>
