<svg width="20" height="18" viewBox="0 0 20 18" fill="none" xmlns="http://www.w3.org/2000/svg">
<path d="M0.666559 15.6267C0.813226 15.3067 0.946559 14.9733 1.11989 14.6667C3.63989 10.2933 6.17323 5.93333 8.67989 1.56C8.91989 1.13333 9.23989 0.839999 9.73322 0.746665C10.3199 0.639999 10.8932 0.879999 11.1999 1.4C11.6799 2.18667 12.1332 3 12.5866 3.8C14.7466 7.54667 16.9066 11.28 19.0666 15.0267C19.3732 15.5467 19.4132 16.0667 19.0932 16.6C18.8399 17.0267 18.4399 17.24 17.9466 17.28C17.8666 17.28 17.7732 17.28 17.6932 17.28C12.5599 17.28 7.43989 17.2667 2.30656 17.2933C1.43989 17.2933 0.813226 16.8533 0.653226 16.0933L0.639893 16.08C0.666559 15.92 0.666559 15.7733 0.666559 15.6267ZM9.99989 2.14667C7.35989 6.73333 4.73323 11.2667 2.10656 15.8267C7.38656 15.8267 12.6266 15.8267 17.9066 15.8267C15.2666 11.2667 12.6399 6.72 9.99989 2.14667Z" fill="#E3970E"/>
<path d="M9.01327 7.14667C8.99994 6.49334 9.38661 6.04 9.91994 6C10.4399 5.96 10.9199 6.33334 10.9733 6.85334C10.9999 7.14667 10.9599 7.45334 10.9333 7.76C10.8266 8.94667 10.7199 10.1467 10.6266 11.3333C10.6133 11.48 10.5999 11.64 10.5866 11.7867C10.5466 12.1067 10.2933 12.32 9.98661 12.3067C9.69327 12.3067 9.45327 12.0667 9.42661 11.76C9.31994 10.48 9.19994 9.21334 9.09327 7.93334C9.06661 7.65334 9.03994 7.36 9.01327 7.14667Z" fill="#E3970E"/>
<path d="M10.0132 14.24C9.55986 14.24 9.18652 13.88 9.18652 13.4267C9.18652 12.9733 9.55986 12.6 9.99986 12.6C10.4399 12.6 10.8132 12.96 10.8132 13.4133C10.8265 13.8667 10.4665 14.24 10.0132 14.24Z" fill="#E3970E"/>
</svg>
