<svg width="46" height="46" viewBox="0 0 46 46" fill="none" xmlns="http://www.w3.org/2000/svg">
<path d="M22.9681 0.600296C35.3521 0.568296 45.4001 10.6163 45.4001 23.0003C45.4001 35.4163 35.3521 45.3683 22.8081 45.3683C10.7121 45.4003 0.632098 35.2563 0.600098 23.1283C0.600098 10.6483 10.5841 0.600296 22.9681 0.600296ZM23.0321 14.1683C18.5841 14.2323 14.7121 15.7363 11.4481 18.8083C10.8401 19.3523 10.7441 19.8323 11.0961 20.2163C11.4801 20.6323 11.9281 20.5683 12.5361 19.9603C17.7201 15.0003 25.7521 14.3923 31.6081 18.4883C32.3441 19.0003 32.9841 19.6403 33.6881 20.2163C34.2321 20.6643 34.9361 20.4723 35.0641 19.8643C35.1601 19.4803 34.9361 19.1923 34.6801 18.9363C31.4481 15.8003 27.5441 14.2643 23.0321 14.1683ZM23.1601 18.9043C20.8241 18.9363 18.7761 19.4483 16.8881 20.6003C16.0881 21.0803 15.3521 21.7203 14.6161 22.3283C14.1041 22.7443 14.0721 23.2243 14.4241 23.5763C14.7441 23.9283 15.2561 23.8963 15.7041 23.4803C15.7681 23.4163 15.8321 23.3523 15.8961 23.3203C17.8801 21.4963 20.2481 20.5683 22.9361 20.5363C25.7201 20.5043 28.1521 21.4643 30.2001 23.3523C30.2641 23.4163 30.3281 23.4803 30.3921 23.5123C30.8081 23.8643 31.2561 23.8963 31.6081 23.5763C31.9601 23.2243 31.9281 22.7443 31.5121 22.3603C29.1121 20.0883 26.2641 18.9683 23.1601 18.9043ZM23.0001 22.7123C22.2641 22.8403 21.4961 22.9363 20.7601 23.1283C19.4161 23.4803 18.2961 24.1523 17.3041 25.1123C16.9201 25.4963 16.8881 25.9763 17.2081 26.2963C17.5281 26.6163 18.0081 26.6163 18.4241 26.2643C18.4881 26.2003 18.5521 26.1363 18.6161 26.1043C20.3761 24.6003 22.3601 24.0883 24.6001 24.6003C25.7841 24.8563 26.8081 25.4643 27.6721 26.2963C27.9921 26.6163 28.3761 26.6803 28.7601 26.4243C29.0801 26.2003 29.1761 25.8483 29.0161 25.4963C28.9521 25.3043 28.7601 25.1443 28.6321 24.9843C27.0001 23.5123 25.1441 22.8083 23.0001 22.7123ZM25.8161 28.9843C25.8161 27.4483 24.5681 26.2003 23.0001 26.2003C21.4641 26.2003 20.1841 27.4483 20.1841 28.9843C20.1841 30.5523 21.4321 31.8003 23.0001 31.8003C24.5681 31.7683 25.8161 30.5203 25.8161 28.9843Z" fill="#1595DF"/>
<path d="M21.8162 28.9847C21.8162 28.3127 22.3602 27.8007 23.0322 27.8007C23.7042 27.8007 24.2482 28.3447 24.2162 29.0167C24.2162 29.6887 23.6722 30.2327 23.0002 30.2007C22.3602 30.1687 21.8162 29.6247 21.8162 28.9847Z" fill="#1595DF"/>
</svg>
