<svg width="26" height="26" viewBox="0 0 26 26" fill="none" xmlns="http://www.w3.org/2000/svg">
<g clip-path="url(#clip0_5_609)">
<path d="M0 13.2119C0 2.50641 2.2945 0.211914 13 0.211914C23.7055 0.211914 26 2.50641 26 13.2119C26 23.9174 23.7055 26.2119 13 26.2119C2.2945 26.2119 0 23.9174 0 13.2119Z" fill="#006BFF"/>
<path fill-rule="evenodd" clip-rule="evenodd" d="M19.5 8.3335C19.5 7.42653 18.7854 6.71191 17.8784 6.71191H8.12159C7.21457 6.71191 6.5 7.454 6.5 8.3335V18.0905C6.5 18.9976 7.24208 19.7119 8.12159 19.7119H17.8784C18.7854 19.7119 19.5 18.97 19.5 18.0905V8.3335ZM8.23149 9.95509V13.8579C8.23149 14.1056 8.42389 14.298 8.67127 14.298C8.9186 14.298 9.111 14.1053 9.111 13.8579V9.95509C9.111 9.70776 8.9186 9.51536 8.67127 9.51536C8.42389 9.51536 8.23149 9.70776 8.23149 9.95509ZM10.4028 14.8749V9.07559C10.4028 8.82826 10.5951 8.63586 10.8425 8.63586C11.0899 8.63586 11.2823 8.82826 11.2823 9.07559V14.8749C11.2823 15.1223 11.0899 15.3147 10.8425 15.3147C10.5951 15.3147 10.4028 15.1225 10.4028 14.8749ZM12.574 8.85572V15.1497C12.574 15.3974 12.7664 15.5895 13.0137 15.5895C13.2611 15.5895 13.4534 15.3971 13.4534 15.1497V8.85572C13.4534 8.60834 13.2611 8.41594 13.0137 8.41594C12.7664 8.41594 12.574 8.60834 12.574 8.85572ZM14.7453 14.8749V9.07559C14.7453 8.82826 14.9376 8.63586 15.185 8.63586C15.4324 8.63586 15.6248 8.82826 15.6248 9.07559V14.8749C15.6248 15.1223 15.4324 15.3147 15.185 15.3147C14.9376 15.3147 14.7453 15.1225 14.7453 14.8749ZM17.7685 13.8579V9.95509C17.7685 9.70776 17.5761 9.51536 17.3288 9.51536C17.0814 9.51536 16.889 9.70776 16.889 9.95509V13.8579C16.889 14.1056 17.0814 14.298 17.3288 14.298C17.5761 14.298 17.7685 14.1053 17.7685 13.8579ZM17.6585 15.9743C17.8234 16.1391 17.796 16.414 17.6036 16.5789C17.5486 16.6339 15.9271 17.9807 12.9862 17.9807C10.0455 17.9807 8.42389 16.6341 8.36891 16.5789C8.17651 16.4138 8.17651 16.1389 8.31393 15.9743C8.47887 15.7819 8.75371 15.7819 8.9186 15.9192C8.94611 15.947 10.3752 17.1287 12.9862 17.1287C15.6248 17.1287 17.0265 15.9468 17.0539 15.9192C17.2463 15.7544 17.5212 15.7819 17.6585 15.9743Z" fill="white"/>
</g>
<defs>
<clipPath id="clip0_5_609">
<rect width="26" height="26" fill="white"/>
</clipPath>
</defs>
</svg>
