<svg width="26" height="27" viewBox="0 0 26 27" fill="none" xmlns="http://www.w3.org/2000/svg">
<g clip-path="url(#clip0_5_665)">
<path d="M26 13.2119C26 6.03221 20.1797 0.211914 13 0.211914C5.8203 0.211914 0 6.03221 0 13.2119C0 20.3916 5.8203 26.2119 13 26.2119C20.1797 26.2119 26 20.3916 26 13.2119Z" fill="#006BFF"/>
<path d="M0 13.2119C0 2.50641 2.2945 0.211914 13 0.211914C23.7055 0.211914 26 2.50641 26 13.2119C26 23.9174 23.7055 26.2119 13 26.2119C2.2945 26.2119 0 23.9174 0 13.2119Z" fill="#E27849"/>
<path d="M4.28 13.2C4.28 12.6507 4.40267 12.16 4.648 11.728C4.89867 11.2907 5.23733 10.952 5.664 10.712C6.096 10.4667 6.57867 10.344 7.112 10.344C7.736 10.344 8.28267 10.504 8.752 10.824C9.22133 11.144 9.54933 11.5867 9.736 12.152H8.448C8.32 11.8853 8.13867 11.6853 7.904 11.552C7.67467 11.4187 7.408 11.352 7.104 11.352C6.77867 11.352 6.488 11.4293 6.232 11.584C5.98133 11.7333 5.784 11.9467 5.64 12.224C5.50133 12.5013 5.432 12.8267 5.432 13.2C5.432 13.568 5.50133 13.8933 5.64 14.176C5.784 14.4533 5.98133 14.6693 6.232 14.824C6.488 14.9733 6.77867 15.048 7.104 15.048C7.408 15.048 7.67467 14.9813 7.904 14.848C8.13867 14.7093 8.32 14.5067 8.448 14.24H9.736C9.54933 14.8107 9.22133 15.256 8.752 15.576C8.288 15.8907 7.74133 16.048 7.112 16.048C6.57867 16.048 6.096 15.928 5.664 15.688C5.23733 15.4427 4.89867 15.104 4.648 14.672C4.40267 14.24 4.28 13.7493 4.28 13.2ZM13.5726 16L12.3406 13.824H11.8126V16H10.6926V10.416H12.7886C13.2206 10.416 13.5886 10.4933 13.8926 10.648C14.1966 10.7973 14.4233 11.0027 14.5726 11.264C14.7273 11.52 14.8046 11.808 14.8046 12.128C14.8046 12.496 14.698 12.8293 14.4846 13.128C14.2713 13.4213 13.954 13.624 13.5326 13.736L14.8686 16H13.5726ZM11.8126 12.984H12.7486C13.0526 12.984 13.2793 12.912 13.4286 12.768C13.578 12.6187 13.6526 12.4133 13.6526 12.152C13.6526 11.896 13.578 11.6987 13.4286 11.56C13.2793 11.416 13.0526 11.344 12.7486 11.344H11.8126V12.984ZM21.9056 10.416V16H20.7856V12.368L19.2896 16H18.4416L16.9376 12.368V16H15.8176V10.416H17.0896L18.8656 14.568L20.6416 10.416H21.9056Z" fill="white"/>
</g>
<defs>
<clipPath id="clip0_5_665">
<rect width="26" height="26" fill="white" transform="translate(0 0.0367432)"/>
</clipPath>
</defs>
</svg>
