<svg width="26" height="27" viewBox="0 0 26 27" fill="none" xmlns="http://www.w3.org/2000/svg">
<g clip-path="url(#clip0_5_637)">
<path d="M0 13.2119C0 2.50641 2.2945 0.211914 13 0.211914C23.7055 0.211914 26 2.50641 26 13.2119C26 23.9174 23.7055 26.2119 13 26.2119C2.2945 26.2119 0 23.9174 0 13.2119Z" fill="#25C16F"/>
<path d="M12.9758 6.03681H18.2339C18.4664 6.0348 18.6969 6.0791 18.9121 6.16714C19.1273 6.25517 19.3228 6.38518 19.4872 6.54957C19.6516 6.71396 19.7816 6.90945 19.8696 7.12462C19.9576 7.33979 20.0019 7.57033 19.9999 7.80281V13.0607C19.9995 14.9107 19.2643 16.6848 17.9561 17.993C16.6479 19.3012 14.8738 20.0363 13.0237 20.0367H12.984C12.0673 20.0378 11.1593 19.8581 10.312 19.5081C9.46472 19.1581 8.6947 18.6446 8.04595 17.9969C7.39725 17.3491 6.88265 16.5798 6.53158 15.7329C6.18052 14.8861 5.99988 13.9783 6 13.0616C6 9.19577 9.11809 6.07778 12.9762 6.0381L12.9758 6.03681Z" fill="white"/>
<path d="M12.9759 9.15479C12.1257 9.15479 11.3103 9.49251 10.7092 10.0937C10.108 10.6948 9.77026 11.5102 9.77026 12.3603V14.5399C9.77663 14.8206 9.89099 15.0881 10.0896 15.2867C10.2881 15.4852 10.5556 15.5996 10.8364 15.606H11.7433V13.1047H10.5185V12.4047C10.5931 11.0864 11.6838 10.0557 13.0044 10.0557C14.3249 10.0557 15.4195 11.0907 15.4902 12.4047V13.1047H14.2494V15.606H15.0689V15.6456C15.0648 15.9059 14.9595 16.1544 14.7754 16.3385C14.5913 16.5226 14.3429 16.6278 14.0825 16.6319H13.1036C13.0242 16.6319 12.9367 16.6716 12.9367 16.7514C12.941 16.8376 13.013 16.9144 13.1036 16.9183H14.0899C14.4268 16.9161 14.7492 16.7814 14.9874 16.5432C15.2256 16.305 15.3604 15.9825 15.3626 15.6456V15.5663C15.5964 15.5129 15.8051 15.3813 15.9541 15.1933C16.1031 15.0053 16.1835 14.772 16.182 14.5321V12.4004C16.2264 10.5943 14.7946 9.15479 12.9759 9.15479Z" fill="#25C16F"/>
</g>
<defs>
<clipPath id="clip0_5_637">
<rect width="26" height="26" fill="white" transform="translate(0 0.0367432)"/>
</clipPath>
</defs>
</svg>
