<svg width="26" height="27" viewBox="0 0 26 27" fill="none" xmlns="http://www.w3.org/2000/svg">
<g clip-path="url(#clip0_5_699)">
<path d="M0 13.2119C0 2.50641 2.2945 0.211914 13 0.211914C23.7055 0.211914 26 2.50641 26 13.2119C26 23.9174 23.7055 26.2119 13 26.2119C2.2945 26.2119 0 23.9174 0 13.2119Z" fill="#FF641D"/>
<path d="M20.0609 12.8059C19.7008 12.1866 19.1942 11.6902 18.5608 11.3165C18.0875 11.0411 17.5968 10.8663 17.0437 10.7913V8.82366C17.5968 8.58895 17.94 8.06955 17.94 7.46353C17.94 6.6376 17.2772 5.96826 16.4514 5.96826C15.6249 5.96826 14.9505 6.6376 14.9505 7.46353C14.9505 8.06955 15.2739 8.58895 15.827 8.82366V10.7922C15.3846 10.856 14.9257 10.9939 14.5067 11.2057C13.6509 10.5562 10.8447 8.42526 9.20316 7.18067C9.24205 7.04038 9.27206 6.89581 9.27206 6.74328C9.27206 5.8284 8.53074 5.08691 7.61499 5.08691C6.69925 5.08691 5.95825 5.8284 5.95825 6.74328C5.95825 7.65799 6.70001 8.39975 7.61575 8.39975C7.92813 8.39975 8.21706 8.30842 8.46633 8.15833L8.81278 8.42093L13.5731 11.8486C13.3214 12.0795 13.087 12.3422 12.8995 12.6369C12.5196 13.2376 12.2874 13.8987 12.2874 14.6198V14.7702C12.2874 15.2764 12.3837 15.7542 12.5476 16.2032C12.6919 16.5951 12.903 16.9515 13.1644 17.2738L11.5845 18.8565C11.3555 18.7713 11.1068 18.7538 10.8682 18.8061C10.6296 18.8584 10.4111 18.9783 10.2388 19.1514C10.1195 19.27 10.025 19.4111 9.96063 19.5665C9.89628 19.7219 9.86345 19.8886 9.86405 20.0567C9.86416 20.3986 9.99746 20.72 10.2395 20.9618C10.3581 21.081 10.4992 21.1756 10.6547 21.24C10.8101 21.3044 10.9768 21.3373 11.1451 21.3369C11.3135 21.3373 11.4802 21.3044 11.6357 21.24C11.7912 21.1756 11.9325 21.081 12.0511 20.9618C12.1704 20.8431 12.2649 20.7021 12.3292 20.5467C12.3936 20.3914 12.4265 20.2249 12.4261 20.0567C12.4261 19.9244 12.4057 19.7953 12.3672 19.6726L14.0001 18.0404C14.224 18.195 14.4658 18.3251 14.7257 18.4373C15.2384 18.6588 15.8043 18.7938 16.4236 18.7938H16.5371C17.2218 18.7938 17.8677 18.6331 18.4748 18.3043C19.1146 17.9569 19.6153 17.4818 19.9936 16.8753C20.3738 16.267 20.5833 15.5951 20.5833 14.8558V14.8188C20.5833 14.0916 20.4148 13.4206 20.0609 12.8059ZM18.0657 16.2297C17.6225 16.7219 17.1131 17.0251 16.5371 17.0251H16.4422C16.1133 17.0251 15.7915 16.9343 15.4765 16.769C15.1214 16.587 14.8515 16.3275 14.6306 15.9989C14.4023 15.6763 14.2784 15.3241 14.2784 14.9507V14.8373C14.2784 14.4702 14.3489 14.1221 14.5265 13.7933C14.7165 13.434 14.9729 13.1546 15.3141 12.9324C15.649 12.7117 16.0067 12.6035 16.4052 12.6035H16.4422C16.8034 12.6035 17.1455 12.6747 17.4682 12.8397C17.7971 13.0157 18.0657 13.2561 18.274 13.5724C18.4763 13.8888 18.5967 14.23 18.6354 14.6017C18.6415 14.679 18.6446 14.7582 18.6446 14.8338C18.6446 15.3383 18.4517 15.8055 18.0657 16.2297Z" fill="white"/>
</g>
<defs>
<clipPath id="clip0_5_699">
<rect width="26" height="26" fill="white" transform="translate(0 0.0367432)"/>
</clipPath>
</defs>
</svg>
