<svg width="26" height="27" viewBox="0 0 26 27" fill="none" xmlns="http://www.w3.org/2000/svg">
<g clip-path="url(#clip0_5_628)">
<path d="M19.6015 0.77112C18.1352 0.432709 15.7249 0.211914 13 0.211914C10.2751 0.211914 7.86484 0.432709 6.39855 0.77112C3.47497 1.38461 1.17269 3.68688 0.559206 6.61046C0.220795 8.07675 0 10.4871 0 13.2119C0 15.9368 0.220795 18.3471 0.559206 19.8134C1.17269 22.737 3.47497 25.0392 6.39855 25.6527C7.86484 25.9911 10.2751 26.2119 13 26.2119C15.7249 26.2119 18.1352 25.9911 19.6015 25.6527C22.525 25.0392 24.8273 22.737 25.4408 19.8134C25.7792 18.3471 26 15.9368 26 13.2119C26 10.4871 25.7792 8.07675 25.4408 6.61046C24.8273 3.68688 22.525 1.38461 19.6015 0.77112Z" fill="#5558AF"/>
<path fill-rule="evenodd" clip-rule="evenodd" d="M5.99988 18.4636L14.1797 19.8792V6.03674L5.99988 7.4524V18.4636ZM14.6518 17.2594C14.8091 17.2936 14.8658 17.3204 14.9777 17.3353C15.0997 17.3527 15.2234 17.362 15.3466 17.362C15.5369 17.3614 15.7279 17.3415 15.9138 17.3011C16.1041 17.2631 16.2864 17.1922 16.4518 17.0915C16.6148 16.9913 16.7516 16.8551 16.853 16.6934C16.9644 16.5049 17.0191 16.2872 17.011 16.0677V11.6994H14.6518V17.2594ZM15.4442 10.9039C15.6115 10.9045 15.777 10.871 15.9312 10.805C16.2323 10.6769 16.4711 10.4381 16.5993 10.137C16.7292 9.82538 16.7292 9.47458 16.5986 9.16234C16.4699 8.86131 16.231 8.62121 15.93 8.49371C15.7757 8.42776 15.6103 8.39479 15.4424 8.39542C15.2763 8.39479 15.1114 8.42776 14.9584 8.49371C14.8446 8.54221 14.8086 8.60567 14.6518 8.68218V10.6166C14.8091 10.6937 14.8446 10.7565 14.9584 10.805C15.1121 10.8716 15.2775 10.9045 15.4442 10.9039ZM17.4831 12.4862V16.2611H18.112C18.3284 16.2605 18.5436 16.24 18.7557 16.2002C18.9697 16.1622 19.1749 16.0907 19.3659 15.9874C19.5457 15.8898 19.7005 15.7523 19.82 15.5863C19.945 15.4022 20.0078 15.1832 19.9991 14.9605V12.4862H17.4831ZM17.8501 11.3237C17.9645 11.4382 18.1001 11.529 18.2488 11.5925C18.5604 11.7231 18.9118 11.7231 19.2241 11.5925C19.5251 11.4643 19.7646 11.2248 19.8921 10.9238C20.0227 10.6122 20.0227 10.2614 19.8921 9.94977C19.7639 9.64869 19.5251 9.40863 19.2241 9.28113C18.9125 9.15051 18.561 9.15051 18.2488 9.28113C17.9477 9.40922 17.7083 9.64869 17.5808 9.94977C17.4501 10.2607 17.4501 10.6115 17.5808 10.9238C17.6442 11.0731 17.7363 11.2087 17.8501 11.3237Z" fill="white"/>
<path fill-rule="evenodd" clip-rule="evenodd" d="M11.8715 10.3944L8.25818 10.6271V11.5078L9.61325 11.4499V15.5325L10.5164 15.5885V11.4122L11.8715 11.3487V10.3944Z" fill="#5558AF"/>
</g>
<defs>
<clipPath id="clip0_5_628">
<rect width="26" height="26" fill="white" transform="translate(0 0.0367432)"/>
</clipPath>
</defs>
</svg>
