<svg width="26" height="27" viewBox="0 0 26 27" fill="none" xmlns="http://www.w3.org/2000/svg">
<g clip-path="url(#clip0_164_1418)">
<path d="M0 13.0367C0 2.33118 2.2945 0.0366821 13 0.0366821C23.7055 0.0366821 26 2.33118 26 13.0367C26 23.7422 23.7055 26.0367 13 26.0367C2.2945 26.0367 0 23.7422 0 13.0367Z" fill="#5952FF"/>
<path d="M12.1067 6C14.56 6 18.2533 6.75597 19.9867 8.46684C20.4267 8.90451 21 9.75331 21 11.0133C21 13.2414 19.2 16.6499 17.2267 18.6393C16.2 19.6605 14.5733 21 12.3733 21C10.2267 21 8.58667 19.5411 8.12 19.0769C6.30667 17.2599 5 14.5146 5 11.9416C5 10.3236 5.46667 8.90451 6.64 7.72414C7.73333 6.62334 9.61333 6 12.1067 6ZM15.1467 14.8727C15.9733 14.0504 16.2 13.0292 16.2 12.4721C16.2 12.061 16.0933 11.4642 15.5867 10.9602C14.8 10.1777 13.9467 9.96552 13 9.96552C11.8133 9.96552 11.0133 10.3369 10.48 10.8674C10.0667 11.2785 9.70667 11.9284 9.70667 12.8435C9.70667 13.7586 10.1867 14.634 10.72 15.1645C11.2133 15.6552 11.9733 16.0133 12.76 16.0133C13.5467 16.0133 14.32 15.695 15.1467 14.8727Z" fill="white"/>
</g>
<defs>
<clipPath id="clip0_164_1418">
<rect width="26" height="26" fill="white" transform="translate(0 0.0366821)"/>
</clipPath>
</defs>
</svg>
