<svg width="26" height="27" viewBox="0 0 26 27" fill="none" xmlns="http://www.w3.org/2000/svg">
<g clip-path="url(#clip0_5_672)">
<path d="M0 13.2119C0 2.50641 2.2945 0.211914 13 0.211914C23.7055 0.211914 26 2.50641 26 13.2119C26 23.9174 23.7055 26.2119 13 26.2119C2.2945 26.2119 0 23.9174 0 13.2119Z" fill="#007737"/>
<path d="M13.7431 6.71191C12.2973 6.71191 11.4589 7.36798 11.058 7.80538C11.0094 7.41657 10.7543 6.91845 9.75804 6.91845H7.58325V9.17829H8.47018C8.61594 9.17829 8.66458 9.22687 8.66458 9.37263V19.7119H11.2403V15.8484V15.5568C11.6412 15.9213 12.4066 16.4315 13.6094 16.4315C16.1244 16.4315 17.8861 14.439 17.8861 11.5717C17.8982 8.66798 16.2216 6.71191 13.7431 6.71191ZM13.2206 14.1839C11.8356 14.1839 11.2038 12.8596 11.2038 11.6203C11.2038 9.6764 12.2608 8.98388 13.2571 8.98388C14.4721 8.98388 15.2982 10.0288 15.2982 11.596C15.2861 13.3941 14.2412 14.1839 13.2206 14.1839Z" fill="#FDFDFD"/>
</g>
<defs>
<clipPath id="clip0_5_672">
<rect width="26" height="26" fill="white" transform="translate(0 0.0367432)"/>
</clipPath>
</defs>
</svg>
