<svg width="26" height="26" viewBox="0 0 26 26" fill="none" xmlns="http://www.w3.org/2000/svg">
<g clip-path="url(#clip0_5_556)">
<path d="M26 13.2119C26 6.03221 20.1797 0.211914 13 0.211914C5.8203 0.211914 0 6.03221 0 13.2119C0 20.3916 5.8203 26.2119 13 26.2119C20.1797 26.2119 26 20.3916 26 13.2119Z" fill="#006BFF"/>
<path d="M0 13.2119C0 2.50641 2.2945 0.211914 13 0.211914C23.7055 0.211914 26 2.50641 26 13.2119C26 23.9174 23.7055 26.2119 13 26.2119C2.2945 26.2119 0 23.9174 0 13.2119Z" fill="#00A1E0"/>
<path d="M11.4557 8.95357C12.0496 8.36418 12.8765 7.99867 13.791 7.99867C15.0067 7.99867 16.0674 8.64428 16.6322 9.6027C17.1231 9.39384 17.6665 9.27765 18.2381 9.27765C20.4307 9.27765 22.2084 10.9854 22.2084 13.0919C22.2084 15.1987 20.4307 16.9064 18.2381 16.9064C17.9754 16.9066 17.7135 16.8817 17.456 16.8322C16.9587 17.6772 16.0107 18.2481 14.9228 18.2481C14.4674 18.2481 14.0366 18.1479 13.653 17.9698C13.1489 19.0994 11.9741 19.8913 10.6049 19.8913C9.179 19.8913 7.96383 19.0321 7.4974 17.827C7.29357 17.8683 7.08237 17.8898 6.86565 17.8898C5.16803 17.8898 3.79175 16.5656 3.79175 14.9318C3.79175 13.837 4.41009 12.881 5.32883 12.3696C5.13969 11.9551 5.03448 11.4976 5.03448 11.0166C5.03448 9.13774 6.63609 7.61462 8.61155 7.61462C9.77137 7.61462 10.8022 8.13982 11.4557 8.95357Z" fill="white"/>
<path d="M6.45875 13.981C6.44721 14.0098 6.46297 14.0157 6.4666 14.0208C6.50121 14.0447 6.53642 14.0619 6.57185 14.0812C6.75964 14.1762 6.93704 14.2038 7.1225 14.2038C7.50026 14.2038 7.7348 14.0125 7.7348 13.7043V13.6984C7.7348 13.4135 7.47009 13.3101 7.22168 13.2354L7.1894 13.2254C7.00209 13.1674 6.84046 13.1175 6.84046 13V12.9938C6.84046 12.8934 6.93492 12.8194 7.08134 12.8194C7.24395 12.8194 7.43705 12.8708 7.56142 12.9363C7.56142 12.9363 7.59787 12.9588 7.61125 12.9251C7.61856 12.9071 7.68156 12.7457 7.68811 12.7282C7.69521 12.7092 7.68264 12.6952 7.66975 12.6877C7.52783 12.6055 7.33159 12.5493 7.12857 12.5493L7.09076 12.5495C6.74502 12.5495 6.50365 12.7484 6.50365 13.0335V13.0395C6.50365 13.3401 6.76993 13.4375 7.01942 13.5054L7.05956 13.5172C7.2414 13.5705 7.398 13.6162 7.398 13.7381V13.7441C7.398 13.8555 7.29622 13.9384 7.13198 13.9384C7.06823 13.9384 6.86489 13.9372 6.64535 13.805C6.61881 13.7903 6.60337 13.7795 6.5829 13.7678C6.57212 13.7613 6.54514 13.75 6.53333 13.7841L6.45875 13.981ZM11.9893 13.981C11.9777 14.0098 11.9934 14.0157 11.9971 14.0208C12.0317 14.0447 12.0669 14.0619 12.1023 14.0812C12.2901 14.1762 12.4675 14.2038 12.653 14.2038C13.0307 14.2038 13.2653 14.0125 13.2653 13.7043V13.6984C13.2653 13.4135 13.0006 13.3101 12.7522 13.2354L12.7199 13.2254C12.5326 13.1674 12.3709 13.1175 12.3709 13V12.9938C12.3709 12.8934 12.4654 12.8194 12.6118 12.8194C12.7744 12.8194 12.9675 12.8708 13.0919 12.9363C13.0919 12.9363 13.1283 12.9588 13.1417 12.9251C13.149 12.9071 13.212 12.7457 13.2186 12.7282C13.2257 12.7092 13.2131 12.6952 13.2002 12.6877C13.0582 12.6055 12.8621 12.5493 12.659 12.5493L12.6212 12.5495C12.2754 12.5495 12.0341 12.7484 12.0341 13.0335V13.0395C12.0341 13.3401 12.3003 13.4375 12.5499 13.5054L12.59 13.5172C12.7718 13.5705 12.9287 13.6162 12.9287 13.7381V13.7441C12.9287 13.8555 12.8266 13.9384 12.6624 13.9384C12.5987 13.9384 12.3954 13.9372 12.1758 13.805C12.1493 13.7903 12.1336 13.7801 12.1136 13.7678C12.1068 13.7636 12.0748 13.7518 12.0638 13.7841L11.9893 13.981ZM15.7648 13.3775C15.7648 13.5517 15.7306 13.6888 15.6635 13.7858C15.5972 13.8817 15.4966 13.9285 15.3565 13.9285C15.2162 13.9285 15.1163 13.8819 15.0509 13.7858C14.9847 13.6891 14.9513 13.5517 14.9513 13.3775C14.9513 13.2037 14.9847 13.0667 15.0509 12.9707C15.1163 12.8758 15.2162 12.8296 15.3565 12.8296C15.4966 12.8296 15.5972 12.8758 15.6637 12.9707C15.7306 13.0667 15.7648 13.2036 15.7648 13.3775ZM16.08 13.0547C16.0491 12.955 16.0009 12.8671 15.9367 12.7939C15.8723 12.7204 15.7911 12.6614 15.6944 12.6185C15.5982 12.5758 15.4843 12.554 15.3565 12.554C15.2286 12.554 15.1147 12.5758 15.0184 12.6185C14.9219 12.6614 14.8405 12.7204 14.776 12.7939C14.712 12.8673 14.6637 12.9553 14.6325 13.0547C14.6018 13.1539 14.5863 13.2623 14.5863 13.3775C14.5863 13.4927 14.6018 13.6014 14.6325 13.7004C14.6637 13.7998 14.7117 13.8878 14.7763 13.9612C14.8405 14.0347 14.9221 14.0933 15.0184 14.1351C15.1149 14.1769 15.2286 14.198 15.3567 14.198C15.4843 14.198 15.5979 14.1769 15.6944 14.1351C15.7908 14.0933 15.8723 14.0347 15.9367 13.9612C16.0009 13.8879 16.0491 13.8 16.0802 13.7004C16.1111 13.6012 16.1266 13.4925 16.1266 13.3775C16.1266 13.2626 16.1111 13.1539 16.08 13.0547ZM18.6697 13.8819C18.6591 13.8527 18.6296 13.8637 18.6296 13.8637C18.5836 13.8804 18.5348 13.896 18.4828 13.9037C18.4302 13.9114 18.3721 13.9154 18.31 13.9154C18.1573 13.9154 18.0361 13.8722 17.9492 13.7868C17.8622 13.7013 17.8133 13.5632 17.8138 13.3762C17.8144 13.2061 17.8574 13.0781 17.9349 12.9808C18.0117 12.8838 18.1287 12.8341 18.2848 12.8341C18.415 12.8341 18.5141 12.8483 18.618 12.8795C18.618 12.8795 18.6429 12.8898 18.6547 12.8588C18.6822 12.7858 18.7027 12.7336 18.732 12.6534C18.7404 12.6307 18.72 12.6209 18.7127 12.6182C18.6718 12.6029 18.5752 12.5782 18.5022 12.5677C18.4341 12.5577 18.3543 12.5525 18.2656 12.5525C18.1332 12.5525 18.015 12.574 17.9141 12.617C17.8133 12.6597 17.7279 12.7186 17.6601 12.7921C17.5924 12.8655 17.541 12.9535 17.5066 13.0529C17.4726 13.1521 17.4553 13.2611 17.4553 13.3762C17.4553 13.6254 17.5258 13.8267 17.6651 13.9741C17.8047 14.122 18.0143 14.1973 18.2877 14.1973C18.4493 14.1973 18.615 14.1661 18.7342 14.1213C18.7342 14.1213 18.757 14.1108 18.747 14.0856L18.6697 13.8819ZM19.2213 13.2107C19.2363 13.114 19.2645 13.0336 19.3076 12.9708C19.3731 12.8757 19.4727 12.8235 19.6128 12.8235C19.753 12.8235 19.8456 12.8759 19.9119 12.9708C19.9559 13.0336 19.9751 13.1175 19.9827 13.2107H19.2213ZM20.2831 12.9981C20.2563 12.9019 20.1899 12.8047 20.1464 12.7602C20.0777 12.6897 20.0105 12.6405 19.9439 12.613C19.8568 12.5775 19.7523 12.5541 19.638 12.5541C19.5047 12.5541 19.3838 12.5753 19.2857 12.6193C19.1873 12.6633 19.1047 12.7232 19.0399 12.7979C18.975 12.8724 18.9263 12.9611 18.8953 13.0618C18.8641 13.162 18.8483 13.2712 18.8483 13.3863C18.8483 13.5036 18.8646 13.6127 18.8968 13.7109C18.9294 13.8098 18.9813 13.897 19.0516 13.9692C19.1216 14.0419 19.212 14.099 19.32 14.1386C19.4273 14.1781 19.5578 14.1986 19.7075 14.1984C20.0159 14.1973 20.1781 14.1318 20.245 14.0966C20.2568 14.0904 20.2682 14.0794 20.254 14.048L20.1841 13.8617C20.1737 13.834 20.144 13.8443 20.144 13.8443C20.0677 13.8713 19.9591 13.9197 19.706 13.9192C19.5404 13.919 19.4176 13.8726 19.3408 13.7999C19.2617 13.7254 19.2232 13.6159 19.2164 13.4615L20.2839 13.4625C20.2839 13.4625 20.312 13.462 20.3148 13.436C20.3159 13.4251 20.3516 13.2272 20.2831 12.9981ZM10.6724 13.2107C10.6876 13.114 10.7154 13.0336 10.7587 12.9708C10.824 12.8757 10.9237 12.8235 11.0638 12.8235C11.2039 12.8235 11.2965 12.8759 11.3631 12.9708C11.4069 13.0336 11.4261 13.1175 11.4337 13.2107H10.6724ZM11.7338 12.9981C11.7071 12.9019 11.641 12.8047 11.5974 12.7602C11.5287 12.6897 11.4615 12.6405 11.3949 12.613C11.3078 12.5775 11.2034 12.5541 11.089 12.5541C10.956 12.5541 10.8348 12.5753 10.7367 12.6193C10.6383 12.6633 10.5556 12.7232 10.4909 12.7979C10.4261 12.8724 10.3773 12.9611 10.3463 13.0618C10.3154 13.162 10.2994 13.2712 10.2994 13.3863C10.2994 13.5036 10.3156 13.6127 10.3479 13.7109C10.3804 13.8098 10.4324 13.897 10.5027 13.9692C10.5727 14.0419 10.6629 14.099 10.7711 14.1386C10.8784 14.1781 11.0087 14.1986 11.1585 14.1984C11.4668 14.1973 11.6292 14.1318 11.6961 14.0966C11.7079 14.0904 11.7192 14.0794 11.705 14.048L11.6355 13.8617C11.6247 13.834 11.5951 13.8443 11.5951 13.8443C11.5188 13.8713 11.4104 13.9197 11.1567 13.9192C10.9915 13.919 10.8687 13.8726 10.7918 13.7999C10.7128 13.7254 10.6743 13.6159 10.6674 13.4615L11.7349 13.4625C11.7349 13.4625 11.763 13.462 11.7659 13.436C11.7669 13.4251 11.8026 13.2272 11.7338 12.9981ZM8.36503 13.8763C8.32332 13.8447 8.31753 13.8367 8.30339 13.8161C8.28237 13.7849 8.27165 13.7404 8.27165 13.684C8.27165 13.5945 8.30258 13.5303 8.36687 13.4871C8.36612 13.4874 8.45869 13.4109 8.67644 13.4137C8.82935 13.4156 8.96607 13.4372 8.96607 13.4372V13.8994C8.96607 13.8994 8.8307 13.9271 8.67801 13.9359C8.4608 13.9484 8.36422 13.8761 8.36503 13.8763ZM8.78975 13.1621C8.74647 13.159 8.6903 13.1573 8.62314 13.1573C8.5316 13.1573 8.4432 13.1683 8.36027 13.1895C8.27685 13.2107 8.20183 13.2439 8.13732 13.2879C8.07286 13.3318 8.01988 13.3891 7.98251 13.4556C7.94475 13.5226 7.92558 13.6016 7.92558 13.69C7.92558 13.7799 7.94183 13.8581 7.97438 13.9221C8.00694 13.9862 8.0539 14.0398 8.1137 14.081C8.17296 14.1223 8.24619 14.1524 8.33118 14.1706C8.41487 14.1889 8.50982 14.1981 8.61371 14.1981C8.72313 14.1981 8.83222 14.1897 8.93795 14.1724C9.04266 14.1555 9.1712 14.1307 9.20689 14.123C9.23186 14.1172 9.25683 14.1111 9.28164 14.1047C9.30813 14.0985 9.30607 14.0715 9.30607 14.0715L9.30553 13.1418C9.30553 12.9379 9.24833 12.7867 9.13577 12.6931C9.02375 12.5996 8.85876 12.5523 8.64545 12.5523C8.56545 12.5523 8.43664 12.5629 8.35951 12.5776C8.35951 12.5776 8.12627 12.6206 8.03023 12.692C8.03023 12.692 8.00927 12.7046 8.0208 12.7326L8.09637 12.9259C8.10579 12.9509 8.13125 12.9424 8.13125 12.9424C8.13125 12.9424 8.13937 12.9394 8.14885 12.9342C8.35431 12.8277 8.61398 12.831 8.61398 12.831C8.72941 12.831 8.81814 12.853 8.87788 12.8967C8.93617 12.9392 8.9658 13.0033 8.9658 13.1388V13.1818C8.87398 13.1693 8.78975 13.1621 8.78975 13.1621ZM17.3994 12.6382C17.4076 12.6152 17.3906 12.6042 17.3835 12.6017C17.3654 12.595 17.2746 12.5767 17.2046 12.5725C17.0705 12.5648 16.996 12.5863 16.9293 12.6147C16.8632 12.6432 16.7898 12.6892 16.7488 12.7414V12.6177C16.7488 12.6005 16.736 12.5867 16.7181 12.5867H16.4445C16.4267 12.5867 16.4139 12.6005 16.4139 12.6177V14.1341C16.4139 14.151 16.4285 14.1651 16.4463 14.1651H16.7269C16.7355 14.1651 16.7437 14.1618 16.7497 14.1559C16.7557 14.1501 16.7591 14.1423 16.759 14.1341V13.3766C16.759 13.2748 16.7709 13.1734 16.7945 13.1097C16.8176 13.0467 16.8492 12.9962 16.8879 12.96C16.927 12.924 16.9713 12.8988 17.0199 12.8846C17.0694 12.8701 17.1243 12.8653 17.1631 12.8653C17.219 12.8653 17.2803 12.8791 17.2803 12.8791C17.3009 12.8813 17.3124 12.8693 17.3192 12.8516C17.3376 12.8051 17.3895 12.6659 17.3994 12.6382Z" fill="#00A1E0"/>
<path d="M14.7668 11.9351C14.7327 11.9251 14.7017 11.9183 14.6613 11.9111C14.6204 11.9042 14.5717 11.9006 14.5163 11.9006C14.3231 11.9006 14.171 11.9526 14.0642 12.055C13.958 12.157 13.8858 12.3121 13.8496 12.5163L13.8365 12.585H13.5941C13.5941 12.585 13.5648 12.584 13.5584 12.6145L13.5188 12.8261C13.5159 12.8461 13.5251 12.8588 13.5535 12.8588H13.7893L13.55 14.1311C13.5314 14.2335 13.5099 14.3177 13.4859 14.3816C13.4626 14.4447 13.4399 14.4918 13.4115 14.5263C13.3843 14.5594 13.3585 14.5838 13.3139 14.5981C13.2772 14.6098 13.2346 14.6153 13.1882 14.6153C13.1625 14.6153 13.1282 14.6113 13.1028 14.6063C13.0776 14.6015 13.0642 14.5963 13.045 14.5885C13.045 14.5885 13.0174 14.5786 13.0063 14.6047C12.9977 14.6265 12.9348 14.7911 12.9272 14.8114C12.9198 14.8316 12.9304 14.8474 12.9437 14.8522C12.9752 14.8626 12.9985 14.8696 13.0413 14.8793C13.1007 14.8926 13.1508 14.8933 13.1977 14.8933C13.2958 14.8933 13.3855 14.8801 13.4598 14.8546C13.5343 14.8289 13.5993 14.7841 13.6569 14.7237C13.7192 14.6582 13.7582 14.5898 13.7956 14.4961C13.8326 14.4036 13.8643 14.2887 13.8895 14.1548L14.13 12.8588H14.4815C14.4815 12.8588 14.5113 12.8598 14.5173 12.8291L14.5572 12.6177C14.5597 12.5975 14.5508 12.585 14.5222 12.585H14.181C14.1828 12.5778 14.1983 12.4633 14.2373 12.3556C14.2541 12.3099 14.2856 12.2727 14.3121 12.2472C14.3384 12.2222 14.3685 12.2045 14.4016 12.1942C14.4354 12.1837 14.474 12.1787 14.5163 12.1787C14.5482 12.1787 14.58 12.1822 14.6038 12.187C14.6369 12.1937 14.6498 12.1973 14.6585 12.1997C14.6933 12.2097 14.698 12.2 14.7049 12.184L14.7865 11.9706C14.7949 11.9476 14.7741 11.9378 14.7668 11.9351ZM9.99798 14.1339C9.99798 14.1508 9.98515 14.1646 9.96733 14.1646H9.68425C9.66638 14.1646 9.65381 14.1508 9.65381 14.1339V11.9641C9.65381 11.9471 9.66638 11.9334 9.68425 11.9334H9.96733C9.98515 11.9334 9.99798 11.9471 9.99798 11.9641V14.1339Z" fill="#00A1E0"/>
</g>
<defs>
<clipPath id="clip0_5_556">
<rect width="26" height="26" fill="white"/>
</clipPath>
</defs>
</svg>
