<svg width="26" height="26" viewBox="0 0 26 26" fill="none" xmlns="http://www.w3.org/2000/svg">
<g clip-path="url(#clip0_5_565)">
<path d="M19.489 1.25831L19.489 1.25841L19.4988 1.26046C22.2282 1.8332 24.3787 3.98376 24.9514 6.71315L24.9513 6.71317L24.9536 6.72291C25.2799 8.13672 25.5 10.5046 25.5 13.2119C25.5 15.9192 25.2799 18.2871 24.9536 19.7009L24.9535 19.7009L24.9514 19.7107C24.3787 22.4401 22.2282 24.5906 19.4988 25.1634L19.4988 25.1633L19.489 25.1655C18.0752 25.4918 15.7073 25.7119 13 25.7119C10.2927 25.7119 7.92481 25.4918 6.51099 25.1655L6.51102 25.1654L6.50123 25.1634C3.77184 24.5906 1.62129 22.4401 1.04855 19.7107L1.04865 19.7107L1.0464 19.7009C0.720098 18.2871 0.5 15.9192 0.5 13.2119C0.5 10.5046 0.720098 8.13672 1.0464 6.7229L1.0465 6.72292L1.04855 6.71314C1.62129 3.98376 3.77184 1.8332 6.50123 1.26046L6.50125 1.26056L6.51099 1.25831C7.92481 0.932012 10.2927 0.711914 13 0.711914C15.7073 0.711914 18.0752 0.932012 19.489 1.25831Z" fill="white" stroke="#E1E1E1"/>
<mask id="mask0_5_565" style="mask-type:luminance" maskUnits="userSpaceOnUse" x="7" y="6" width="13" height="14">
<path d="M19.354 6H7V20H19.354V6Z" fill="white"/>
</mask>
<g mask="url(#mask0_5_565)">
<path d="M17.8187 8.69575C17.8153 8.66775 17.8031 8.64157 17.7839 8.62104C17.7646 8.60046 17.7393 8.5866 17.7115 8.58147L16.6404 8.56364C16.6404 8.56364 15.8049 7.75313 15.7263 7.671C15.6814 7.64183 15.6304 7.62317 15.5773 7.61635C15.5241 7.60954 15.4701 7.61481 15.4193 7.63171L15.0015 7.76382C14.9496 7.59344 14.8814 7.42847 14.798 7.27111C14.6953 7.02084 14.5223 6.80571 14.2998 6.65171C14.0774 6.49771 13.8152 6.4115 13.5448 6.40346H13.4269L13.3948 6.35704C13.2844 6.23666 13.1487 6.14222 12.9974 6.08049C12.8462 6.01876 12.6832 5.99127 12.52 5.99999C11.8416 6.01784 11.1668 6.51059 10.6205 7.37821C10.2387 7.98115 9.97911 8.65324 9.85642 9.35627L8.5246 9.77044C8.13185 9.89541 8.11757 9.90615 8.06759 10.2739C8.0283 10.556 7 18.4968 7 18.4968L15.6192 19.9893L19.354 19.0681L17.8187 8.69575ZM14.5767 7.89593L13.909 8.10304C13.9118 7.68234 13.8417 7.26439 13.7018 6.86763C14.2196 6.96405 14.4695 7.54603 14.5767 7.89593ZM13.4591 8.25298L12.0309 8.6993C12.1561 8.18009 12.4006 7.69723 12.7449 7.28894C12.8822 7.13811 13.0487 7.01669 13.2341 6.93189C13.3991 7.34839 13.4757 7.79462 13.4591 8.24229V8.25298ZM12.5343 6.46775C12.6782 6.45617 12.8218 6.49393 12.9413 6.57485C12.745 6.68041 12.5676 6.81798 12.4165 6.98187C11.9588 7.51705 11.6508 8.16375 11.5239 8.85643L10.342 9.21347C10.5705 8.11732 11.4881 6.48203 12.5343 6.45345V6.46775Z" fill="#95BF47"/>
<path d="M17.7119 8.58147L16.6407 8.56364C16.6407 8.56364 15.8052 7.75314 15.7267 7.671C15.6939 7.64123 15.6527 7.62247 15.6088 7.61743V20L19.3436 19.0717L17.819 8.69576C17.8162 8.66757 17.8042 8.64106 17.7848 8.62039C17.7654 8.59976 17.7398 8.58604 17.7119 8.58147Z" fill="#5E8E3E"/>
<path d="M13.548 10.5024L13.116 12.1271C12.7771 11.9865 12.4112 11.9231 12.0448 11.9414C11.2057 11.9949 11.195 12.5269 11.2022 12.6555C11.2486 13.3696 13.1588 13.5374 13.2659 15.2405C13.3516 16.5759 12.5518 17.4935 11.4128 17.5649C11.0257 17.6021 10.635 17.5577 10.266 17.4347C9.89705 17.3118 9.55797 17.1128 9.27051 16.8508L9.56329 15.6118C9.56329 15.6118 10.3203 16.1831 10.9308 16.1474C11.0041 16.1462 11.0765 16.13 11.1433 16.0998C11.2101 16.0696 11.2701 16.0261 11.3196 15.972C11.3691 15.9179 11.407 15.8542 11.431 15.7849C11.455 15.7156 11.4646 15.6422 11.4593 15.569C11.3986 14.6228 9.84539 14.68 9.74539 13.1232C9.6633 11.8128 10.5238 10.4882 12.4197 10.3668C12.8013 10.3187 13.1887 10.3653 13.548 10.5024Z" fill="white"/>
</g>
</g>
<defs>
<clipPath id="clip0_5_565">
<rect width="26" height="26" fill="white"/>
</clipPath>
</defs>
</svg>
