<svg width="26" height="27" viewBox="0 0 26 27" fill="none" xmlns="http://www.w3.org/2000/svg">
<g clip-path="url(#clip0_5_705)">
<path d="M19.6015 0.595946C18.1352 0.257538 15.7249 0.0367432 13 0.0367432C10.2751 0.0367432 7.86484 0.257538 6.39852 0.595946C3.47497 1.20944 1.17269 3.51172 0.559203 6.43526C0.220795 7.90158 0 10.3119 0 13.0367C0 15.7616 0.220795 18.1719 0.559203 19.6382C1.17269 22.5618 3.47497 24.8641 6.39852 25.4775C7.86484 25.8159 10.2751 26.0367 13 26.0367C15.7249 26.0367 18.1352 25.8159 19.6015 25.4775C22.525 24.8641 24.8273 22.5618 25.4408 19.6382C25.7792 18.1719 26 15.7616 26 13.0367C26 10.3119 25.7792 7.90158 25.4408 6.43526C24.8273 3.51172 22.525 1.20944 19.6015 0.595946Z" fill="#4D164E"/>
<g clip-path="url(#clip1_5_705)">
<path d="M8.42675 15.1155C8.42675 16.0352 7.68345 16.7785 6.76376 16.7785C5.84408 16.7785 5.10077 16.0352 5.10077 15.1155C5.10077 14.1958 5.84408 13.4525 6.76376 13.4525H8.42675V15.1155ZM9.25825 15.1155C9.25825 14.1958 10.0016 13.4525 10.9212 13.4525C11.8409 13.4525 12.5842 14.1958 12.5842 15.1155V19.273C12.5842 20.1927 11.8409 20.936 10.9212 20.936C10.0016 20.936 9.25825 20.1927 9.25825 19.273V15.1155Z" fill="#E01E5A"/>
<path d="M10.9213 8.43829C10.0016 8.43829 9.25827 7.69498 9.25827 6.7753C9.25827 5.85561 10.0016 5.1123 10.9213 5.1123C11.841 5.1123 12.5843 5.85561 12.5843 6.7753V8.43829H10.9213ZM10.9213 9.28238C11.841 9.28238 12.5843 10.0257 12.5843 10.9454C12.5843 11.8651 11.841 12.6084 10.9213 12.6084H6.75119C5.8315 12.6084 5.0882 11.8651 5.0882 10.9454C5.0882 10.0257 5.8315 9.28238 6.75119 9.28238H10.9213Z" fill="#36C5F0"/>
<path d="M17.5858 10.9454C17.5858 10.0257 18.3291 9.28238 19.2488 9.28238C20.1685 9.28238 20.9118 10.0257 20.9118 10.9454C20.9118 11.8651 20.1685 12.6084 19.2488 12.6084H17.5858V10.9454ZM16.7543 10.9454C16.7543 11.8651 16.011 12.6084 15.0913 12.6084C14.1717 12.6084 13.4283 11.8651 13.4283 10.9454V6.7753C13.4283 5.85561 14.1717 5.1123 15.0913 5.1123C16.011 5.1123 16.7543 5.85561 16.7543 6.7753V10.9454Z" fill="#2EB67D"/>
<path d="M15.0913 17.61C16.011 17.61 16.7543 18.3533 16.7543 19.273C16.7543 20.1927 16.011 20.936 15.0913 20.936C14.1717 20.936 13.4283 20.1927 13.4283 19.273V17.61H15.0913ZM15.0913 16.7785C14.1717 16.7785 13.4283 16.0352 13.4283 15.1155C13.4283 14.1958 14.1717 13.4525 15.0913 13.4525H19.2614C20.1811 13.4525 20.9244 14.1958 20.9244 15.1155C20.9244 16.0352 20.1811 16.7785 19.2614 16.7785H15.0913Z" fill="#ECB22E"/>
</g>
</g>
<defs>
<clipPath id="clip0_5_705">
<rect y="0.0367432" width="26" height="26" rx="7" fill="white"/>
</clipPath>
<clipPath id="clip1_5_705">
<rect width="16" height="16" fill="white" transform="translate(5 5.03674)"/>
</clipPath>
</defs>
</svg>
