<svg width="26" height="27" viewBox="0 0 26 27" fill="none" xmlns="http://www.w3.org/2000/svg">
<g clip-path="url(#clip0_5_693)">
<path d="M0 13.0367C0 2.33124 2.2945 0.0367432 13 0.0367432C23.7055 0.0367432 26 2.33124 26 13.0367C26 23.7422 23.7055 26.0367 13 26.0367C2.2945 26.0367 0 23.7422 0 13.0367Z" fill="#FF4A00"/>
<path d="M15.0003 13.0405C15.0004 13.6173 14.8962 14.1894 14.6929 14.7292C14.1529 14.9326 13.5807 15.0368 13.0036 15.0369H12.9966C12.4196 15.037 11.8473 14.9329 11.3073 14.7295C11.1037 14.1896 10.9994 13.6173 10.9994 13.0403V13.0327C10.9994 12.4382 11.1085 11.8689 11.3061 11.3435C11.8462 11.1398 12.4187 11.0357 12.9958 11.0361H13.0024C13.5971 11.0361 14.1663 11.1451 14.6917 11.3435C14.8952 11.8834 14.9994 12.4557 14.9991 13.0327V13.0403H14.9998L15.0003 13.0405ZM20.8891 11.7032H16.2195L19.5211 8.40139C19.002 7.67228 18.3646 7.03506 17.6353 6.51608L14.3332 9.81789V5.1481C13.8941 5.07424 13.4496 5.037 13.0044 5.03674H12.9958C12.5429 5.03674 12.0992 5.07545 11.6668 5.1481V9.81789L8.36395 6.51583C8.00021 6.77472 7.65882 7.06364 7.34335 7.37956L7.34185 7.38106C7.02639 7.69675 6.73773 8.03812 6.47886 8.40164L9.78173 11.7032H5.11111C5.11111 11.7032 5 12.5805 5 13.034V13.0395C5 13.493 5.03846 13.9374 5.11136 14.37H9.78197L6.47861 17.6713C6.99816 18.4004 7.6356 19.0377 8.36471 19.5572L11.6671 16.2556V20.9256C12.0989 20.998 12.5419 21.0362 12.9943 21.0367H13.0057C13.4504 21.0363 13.8943 20.9992 14.3329 20.9256V16.2556L17.6355 19.5579C17.9993 19.2988 18.341 19.0099 18.6569 18.6942H18.6577C18.973 18.3782 19.2615 18.0365 19.5204 17.6728L16.2188 14.3703H20.8894C20.9618 13.9379 21 13.495 21 13.0425V13.031C21 12.586 20.9628 12.1424 20.8894 11.7037L20.8891 11.7032Z" fill="white"/>
</g>
<defs>
<clipPath id="clip0_5_693">
<rect width="26" height="26" fill="white" transform="translate(0 0.0367432)"/>
</clipPath>
</defs>
</svg>
