<svg width="26" height="26" viewBox="0 0 26 26" fill="none" xmlns="http://www.w3.org/2000/svg">
<g clip-path="url(#clip0_5_578)">
<mask id="mask0_5_578" style="mask-type:luminance" maskUnits="userSpaceOnUse" x="0" y="0" width="26" height="27">
<path d="M26 0.211914H0V26.2119H26V0.211914Z" fill="white"/>
</mask>
<g mask="url(#mask0_5_578)">
<path d="M19.6015 0.77112C18.1352 0.432709 15.7249 0.211914 13 0.211914C10.2751 0.211914 7.86484 0.432709 6.39855 0.77112C3.47497 1.38461 1.17269 3.68688 0.559206 6.61046C0.220795 8.07675 0 10.4871 0 13.2119C0 15.9368 0.220795 18.3471 0.559206 19.8134C1.17269 22.737 3.47497 25.0392 6.39855 25.6527C7.86484 25.9911 10.2751 26.2119 13 26.2119C15.7249 26.2119 18.1352 25.9911 19.6015 25.6527C22.525 25.0392 24.8273 22.737 25.4408 19.8134C25.7792 18.3471 26 15.9368 26 13.2119C26 10.4871 25.7792 8.07675 25.4408 6.61046C24.8273 3.68688 22.525 1.38461 19.6015 0.77112Z" fill="#F4F4F5"/>
<path d="M12.3809 19.4321V10.3701L4.875 19.4321H12.3809Z" fill="#03363D"/>
<path d="M11.2817 9.7719C11.9855 9.06811 12.3809 8.11353 12.3809 7.11816H4.875C4.875 8.11353 5.2704 9.06811 5.9742 9.7719C6.67805 10.4757 7.63263 10.8712 8.62799 10.8712C9.6233 10.8712 10.5779 10.4757 11.2817 9.7719Z" fill="#03363D"/>
<path d="M14.7167 16.7791C14.0128 17.483 13.6174 18.4376 13.6174 19.4329H21.1234C21.1234 18.4376 20.728 17.483 20.0242 16.7791C19.3204 16.0753 18.3658 15.6799 17.3704 15.6799C16.3751 15.6799 15.4205 16.0753 14.7167 16.7791Z" fill="#03363D"/>
<path d="M13.6174 7.11816V16.1802L21.125 7.11816H13.6174Z" fill="#03363D"/>
</g>
</g>
<defs>
<clipPath id="clip0_5_578">
<rect width="26" height="26" fill="white"/>
</clipPath>
</defs>
</svg>
