<svg width="26" height="27" viewBox="0 0 26 27" fill="none" xmlns="http://www.w3.org/2000/svg">
<g clip-path="url(#clip0_5_678)">
<path d="M19.489 1.08314L19.489 1.08324L19.4988 1.08529C22.2281 1.65803 24.3787 3.80859 24.9515 6.53795L24.9514 6.53797L24.9536 6.5477C25.2799 7.96155 25.5 10.3294 25.5 13.0367C25.5 15.7441 25.2799 18.1119 24.9536 19.5258L24.9535 19.5258L24.9515 19.5355C24.3787 22.2649 22.2281 24.4155 19.4988 24.9882L19.4988 24.9881L19.489 24.9903C18.0752 25.3166 15.7074 25.5367 13 25.5367C10.2926 25.5367 7.92481 25.3166 6.51096 24.9903L6.51098 24.9902L6.5012 24.9882C3.77185 24.4155 1.62129 22.2649 1.04855 19.5355L1.04864 19.5355L1.0464 19.5258C0.720098 18.1119 0.5 15.7441 0.5 13.0367C0.5 10.3294 0.720098 7.96155 1.0464 6.5477L1.04649 6.54772L1.04855 6.53795C1.62129 3.80859 3.77185 1.65803 6.5012 1.08529L6.50122 1.08539L6.51096 1.08314C7.92481 0.756841 10.2926 0.536743 13 0.536743C15.7074 0.536743 18.0752 0.756841 19.489 1.08314Z" fill="white" stroke="#E1E1E1"/>
<path d="M12.039 14.644C11.9017 14.644 11.7626 14.6155 11.6289 14.5566L8.77608 13.2853C8.26613 13.0589 8.03614 12.458 8.26257 11.9481L9.53385 9.09529C9.76031 8.58537 10.3612 8.35535 10.8711 8.58178L13.7239 9.85309C14.2338 10.0795 14.4638 10.6804 14.2374 11.1903L12.9661 14.0431C12.7967 14.4211 12.4259 14.644 12.039 14.644ZM11.866 14.0217C12.0818 14.118 12.3349 14.0199 12.4312 13.806L13.7025 10.9532C13.7988 10.7375 13.7007 10.4843 13.4867 10.388L10.6322 9.11671C10.4165 9.0204 10.1633 9.11847 10.067 9.33244L8.7957 12.1852C8.69943 12.401 8.79746 12.6542 9.01144 12.7505L11.866 14.0217Z" fill="#089949"/>
<path d="M20.9879 14.6457H17.8641C17.306 14.6457 16.8514 14.1911 16.8514 13.633V10.5092C16.8514 9.95111 17.306 9.49646 17.8641 9.49646H20.9879C21.546 9.49646 22.0007 9.95111 22.0007 10.5092V13.633C22.0007 14.1911 21.546 14.6457 20.9879 14.6457ZM17.8641 10.0813C17.6288 10.0813 17.4362 10.2738 17.4362 10.5092V13.633C17.4362 13.8683 17.6288 14.0609 17.8641 14.0609H20.9879C21.2233 14.0609 21.4159 13.8683 21.4159 13.633V10.5092C21.4159 10.2738 21.2233 10.0813 20.9879 10.0813H17.8641Z" fill="#F9B21D"/>
<path d="M9.2897 11.0815L8.86892 12.0229C8.86357 12.0337 8.85822 12.0426 8.85284 12.0515L9.01691 13.0642C9.05433 13.2978 8.89565 13.5171 8.66388 13.5545L5.57927 14.0538C5.46695 14.0716 5.35283 14.0449 5.26012 13.9789C5.1674 13.9129 5.10678 13.8131 5.08895 13.7007L4.58971 10.6162C4.57188 10.5038 4.59863 10.3897 4.6646 10.297C4.73057 10.2043 4.83042 10.1437 4.94275 10.1258L8.02733 9.62658C8.05051 9.62302 8.07369 9.62123 8.09508 9.62123C8.30012 9.62123 8.48377 9.77101 8.51765 9.9814L8.68347 11.0013L9.11853 10.026L9.09535 9.88868C9.00621 9.33774 8.48557 8.96153 7.9346 9.05067L4.85003 9.54993C4.58436 9.59094 4.34901 9.73534 4.1921 9.95467C4.03342 10.174 3.97101 10.4414 4.0138 10.7089L4.51304 13.7935C4.55583 14.0609 4.70026 14.2945 4.91957 14.4532C5.09252 14.5798 5.29756 14.6439 5.50974 14.6439C5.56323 14.6439 5.6185 14.6404 5.67378 14.6315L8.75836 14.1322C9.30929 14.0431 9.68554 13.5225 9.59637 12.9715L9.2897 11.0815Z" fill="#E42527"/>
<path d="M12.9893 12.5542L13.4422 11.5397L13.3138 10.5965C13.2978 10.4842 13.3281 10.3718 13.3976 10.2809C13.4672 10.19 13.567 10.1311 13.6811 10.1169L16.7764 9.69609C16.796 9.6943 16.8156 9.69253 16.8352 9.69253C16.9279 9.69253 17.0171 9.72282 17.0938 9.77988C17.108 9.79057 17.1205 9.80306 17.133 9.81375C17.2703 9.66935 17.4504 9.56594 17.6518 9.52137C17.5948 9.44289 17.527 9.37335 17.4468 9.31274C17.2311 9.14871 16.9654 9.07917 16.698 9.11483L13.5991 9.53561C13.3317 9.57128 13.0927 9.71034 12.9305 9.92611C12.7664 10.1418 12.6969 10.4075 12.7326 10.6749L12.9893 12.5542Z" fill="#226DB4"/>
<path d="M18.2564 13.0767L17.8499 10.0813C17.6217 10.0884 17.438 10.2774 17.438 10.5074V11.3864L17.6787 13.1552C17.6948 13.2675 17.6645 13.3798 17.5949 13.4708C17.5254 13.5617 17.4255 13.6205 17.3114 13.6348L14.2162 14.0556C14.1038 14.0716 13.9915 14.0413 13.9006 13.9718C13.8096 13.9023 13.7508 13.8024 13.7365 13.6883L13.5939 12.6381L13.141 13.6526L13.157 13.7668C13.1927 14.0342 13.3318 14.2731 13.5475 14.4354C13.7258 14.5709 13.938 14.6422 14.1591 14.6422C14.2055 14.6422 14.2518 14.6386 14.2982 14.6333L17.3899 14.2161C17.6573 14.1804 17.8963 14.0413 18.0585 13.8256C18.2226 13.6098 18.2921 13.3442 18.2564 13.0767Z" fill="#226DB4"/>
<path d="M7.28528 17.6379L8.01201 16.5654H7.41423C7.38198 16.5654 7.3556 16.539 7.3556 16.5068V16.3632C7.3556 16.3309 7.38198 16.3046 7.41423 16.3046H8.39591C8.42813 16.3046 8.4545 16.3309 8.4545 16.3632V16.4189C8.4545 16.4306 8.45157 16.4423 8.44573 16.4511L7.73364 17.5236H8.37247C8.40468 17.5236 8.43106 17.55 8.43106 17.5822V17.7258C8.43106 17.7581 8.40468 17.7844 8.37247 17.7844H7.3351C7.30285 17.7844 7.27648 17.7581 7.27648 17.7258V17.6731C7.27354 17.6584 7.27941 17.6467 7.28528 17.6379Z" fill="black"/>
<path d="M10.3446 17.0344C10.3446 16.5948 10.667 16.2783 11.1065 16.2783C11.5607 16.2783 11.8684 16.5889 11.8684 17.0373C11.8684 17.4915 11.5549 17.8051 11.1006 17.8051C10.6435 17.8051 10.3446 17.4915 10.3446 17.0344ZM11.5197 17.0402C11.5197 16.7736 11.3908 16.545 11.1006 16.545C10.8076 16.545 10.6963 16.7824 10.6963 17.052C10.6963 17.3069 10.834 17.5413 11.1153 17.5413C11.4054 17.5384 11.5197 17.2893 11.5197 17.0402Z" fill="black"/>
<path d="M13.952 16.3016H14.1689C14.2011 16.3016 14.2275 16.328 14.2275 16.3603V16.9053H14.8429V16.3603C14.8429 16.328 14.8693 16.3016 14.9015 16.3016H15.1183C15.1506 16.3016 15.1769 16.328 15.1769 16.3603V17.7229C15.1769 17.7551 15.1506 17.7815 15.1183 17.7815H14.9044C14.8722 17.7815 14.8458 17.7551 14.8458 17.7229V17.172H14.2304V17.7229C14.2304 17.7551 14.2041 17.7815 14.1718 17.7815H13.955C13.9227 17.7815 13.8963 17.7551 13.8963 17.7229V16.3603C13.8934 16.328 13.9198 16.3016 13.952 16.3016Z" fill="black"/>
<path d="M17.2019 17.0344C17.2019 16.5948 17.5242 16.2783 17.9638 16.2783C18.418 16.2783 18.7257 16.5889 18.7257 17.0373C18.7257 17.4915 18.4121 17.8051 17.9579 17.8051C17.5008 17.8051 17.2019 17.4915 17.2019 17.0344ZM18.3741 17.0402C18.3741 16.7736 18.2451 16.545 17.955 16.545C17.662 16.545 17.5506 16.7824 17.5506 17.052C17.5506 17.3069 17.6883 17.5413 17.9696 17.5413C18.2598 17.5384 18.3741 17.2893 18.3741 17.0402Z" fill="black"/>
</g>
<defs>
<clipPath id="clip0_5_678">
<rect y="0.0367432" width="26" height="26" rx="7" fill="white"/>
</clipPath>
</defs>
</svg>
