<svg width="88" height="28" viewBox="0 0 88 28" fill="none" xmlns="http://www.w3.org/2000/svg">
<g clip-path="url(#clip0_1_3434)">
<path fill-rule="evenodd" clip-rule="evenodd" d="M54.455 21.4762C49.4081 25.2439 42.0927 27.2542 35.7943 27.2542C26.963 27.2542 19.0125 23.9459 12.9976 18.4436C12.5251 18.0108 12.9485 17.4212 13.5155 17.7582C20.0068 21.5834 28.0329 23.8846 36.3236 23.8846C41.9151 23.8846 48.066 22.713 53.7217 20.2815C54.576 19.9139 55.2906 20.8482 54.455 21.4762Z" fill="#959DB9"/>
<path fill-rule="evenodd" clip-rule="evenodd" d="M56.5537 19.0447C55.911 18.2099 52.2891 18.6503 50.6635 18.8456C50.1682 18.9069 50.0927 18.4703 50.5387 18.1564C53.4233 16.1002 58.1566 16.6937 58.7085 17.3829C59.2604 18.076 58.5649 22.8813 55.8542 25.1749C55.4383 25.5272 55.0413 25.3396 55.2266 24.8724C55.8353 23.3332 57.2001 19.8833 56.5537 19.0447Z" fill="#959DB9"/>
<path fill-rule="evenodd" clip-rule="evenodd" d="M50.777 3.64056V1.64185C50.777 1.33934 51.0039 1.13641 51.2761 1.13641H60.1112C60.3948 1.13641 60.6216 1.34312 60.6216 1.64185V3.35336C60.6178 3.64056 60.3797 4.01582 59.9563 4.60931L55.378 11.2296C57.0793 11.1876 58.875 11.4441 60.4174 12.3248C60.7653 12.5239 60.8598 12.8149 60.8863 13.102V15.2348C60.8863 15.5258 60.5687 15.8666 60.236 15.6905C57.5178 14.247 53.9074 14.09 50.9018 15.7058C50.5956 15.8743 50.2743 15.5373 50.2743 15.2463V13.2208C50.2743 12.8953 50.278 12.3401 50.5993 11.8462L55.9035 4.14222H51.2874C51.0039 4.14222 50.777 3.93929 50.777 3.64056ZM18.548 16.1116H15.8599C15.6029 16.0925 15.3988 15.8973 15.3798 15.6483V1.67633C15.3798 1.39678 15.6104 1.17467 15.8977 1.17467H18.4042C18.6651 1.18611 18.873 1.38913 18.892 1.64176V3.46833H18.9411C19.5951 1.70316 20.8238 0.879994 22.4797 0.879994C24.162 0.879994 25.213 1.70316 25.9692 3.46833C26.6194 1.70316 28.0976 0.879994 29.6817 0.879994C30.8082 0.879994 32.0407 1.35095 32.793 2.40775C33.6436 3.58321 33.4697 5.29094 33.4697 6.78808L33.4659 15.6063C33.4659 15.8858 33.2353 16.1117 32.948 16.1117H30.2638C29.9955 16.0926 29.7799 15.8744 29.7799 15.6063V8.20096C29.7799 7.61125 29.8329 6.14085 29.7043 5.58192C29.504 4.64379 28.9029 4.37955 28.124 4.37955C27.4738 4.37955 26.7933 4.81989 26.5173 5.52448C26.2413 6.22907 26.2678 7.40832 26.2678 8.20096V15.6062C26.2678 15.8857 26.0372 16.1116 25.7499 16.1116H23.0657C22.7935 16.0925 22.5817 15.8743 22.5817 15.6062L22.578 8.20096C22.578 6.6425 22.8312 4.34902 20.9221 4.34902C18.9903 4.34902 19.0658 6.58506 19.0658 8.20096V15.6062C19.0658 15.8857 18.8353 16.1116 18.548 16.1116ZM68.2281 0.879906C72.2165 0.879906 74.3753 4.34894 74.3753 8.75997C74.3753 13.0216 71.9898 16.4027 68.228 16.4027C64.3114 16.4027 62.1792 12.9336 62.1792 8.61061C62.1792 4.26088 64.3379 0.879906 68.2281 0.879906ZM68.2508 3.73248C66.2697 3.73248 66.145 6.4664 66.145 8.17026C66.145 9.87808 66.1186 13.5232 68.2281 13.5232C70.3112 13.5232 70.4094 10.5826 70.4094 8.79058C70.4094 7.61125 70.3603 6.20216 70.0087 5.08414C69.7063 4.11152 69.1051 3.73248 68.2508 3.73248ZM79.5471 16.1116H76.8704C76.602 16.0925 76.3865 15.8743 76.3865 15.6062L76.3827 1.63033C76.4053 1.37382 76.6285 1.17467 76.9006 1.17467H79.392C79.6264 1.18611 79.8192 1.34708 79.8721 1.56523V3.70187H79.9213C80.6737 1.79121 81.7284 0.879906 83.5846 0.879906C84.7906 0.879906 85.9664 1.32017 86.7226 2.52632C87.4257 3.64434 87.4257 5.52448 87.4257 6.87614V15.6713C87.3955 15.9164 87.1724 16.1116 86.9078 16.1116H84.2122C83.9664 16.0925 83.7623 15.9087 83.7359 15.6713V8.08221C83.7359 6.55445 83.9098 4.31824 82.0536 4.31824C81.3996 4.31824 80.7984 4.76245 80.4998 5.43634C80.1217 6.2903 80.0725 7.14029 80.0725 8.08229V15.6062C80.0688 15.8857 79.8344 16.1116 79.5471 16.1116ZM43.7339 9.43773C43.7339 10.4983 43.7604 11.3829 43.231 12.3247C42.8039 13.0906 42.1234 13.5615 41.371 13.5615C40.339 13.5615 39.7341 12.7651 39.7341 11.5896C39.7341 9.26919 41.787 8.84802 43.7339 8.84802V9.43773ZM46.4445 16.0734C46.2669 16.2342 46.0098 16.2457 45.8095 16.1385C44.9172 15.388 44.7547 15.0395 44.267 14.3235C42.7925 15.8475 41.7454 16.3031 39.8361 16.3031C37.5716 16.3031 35.8137 14.8902 35.8137 12.0606C35.8137 9.85125 36.9932 8.34645 38.6793 7.61125C40.1386 6.96032 42.1763 6.84544 43.734 6.66546V6.31325C43.734 5.6661 43.7831 4.90029 43.405 4.34128C43.0799 3.83971 42.4522 3.63291 41.8966 3.63291C40.872 3.63291 39.9609 4.16509 39.7379 5.26789C39.6925 5.51296 39.5148 5.75416 39.2691 5.76568L36.6643 5.48235C36.4451 5.43256 36.1993 5.25259 36.2635 4.91182C36.8609 1.71081 39.719 0.74585 42.2747 0.74585C43.5828 0.74585 45.2916 1.09814 46.3237 2.10137C47.6317 3.33814 47.507 4.98834 47.507 6.78421V11.0267C47.507 12.3018 48.0287 12.8608 48.5201 13.55C48.6904 13.7951 48.7281 14.09 48.5089 14.2737C47.9607 14.737 46.9852 15.5985 46.4484 16.081L46.4447 16.0734M8.49544 9.43773C8.49544 10.4983 8.52193 11.3829 7.99258 12.3247C7.56544 13.0906 6.88871 13.5615 6.13259 13.5615C5.10054 13.5615 4.49936 12.7651 4.49936 11.5896C4.49936 9.26919 6.55225 8.84802 8.49544 8.84802V9.43773ZM11.206 16.0734C11.0284 16.2342 10.7714 16.2457 10.571 16.1385C9.67878 15.388 9.51993 15.0395 9.02853 14.3235C7.55407 15.8475 6.51073 16.3031 4.59768 16.3031C2.33696 16.3031 0.575195 14.8902 0.575195 12.0606C0.575195 9.85125 1.75853 8.34645 3.44083 7.61125C4.90018 6.96032 6.93786 6.84544 8.49544 6.66546V6.31325C8.49544 5.6661 8.5446 4.90029 8.17027 4.34128C7.84137 3.83971 7.21387 3.63291 6.66185 3.63291C5.63736 3.63291 4.72248 4.16509 4.49936 5.26789C4.45403 5.51296 4.27633 5.75416 4.03436 5.76568L1.42581 5.48235C1.20651 5.43256 0.964633 5.25259 1.02508 4.91182C1.62617 1.71081 4.48051 0.74585 7.03618 0.74585C8.34415 0.74585 10.053 1.09814 11.0851 2.10137C12.3931 3.33814 12.2684 4.98834 12.2684 6.78421V11.0267C12.2684 12.3018 12.7901 12.8608 13.2816 13.55C13.4556 13.7951 13.4933 14.09 13.274 14.2737C12.7258 14.737 11.7505 15.5985 11.2137 16.081L11.206 16.0734Z" fill="#959DB9"/>
</g>
<defs>
<clipPath id="clip0_1_3434">
<rect width="88" height="27" fill="white" transform="translate(0 0.5)"/>
</clipPath>
</defs>
</svg>