<svg width="88" height="30" viewBox="0 0 88 30" fill="none" xmlns="http://www.w3.org/2000/svg">
<g clip-path="url(#clip0_1_3537)">
<path d="M16.4843 9.17829C16.6691 9.25244 16.8759 9.25346 17.0614 9.18112C17.2469 9.10879 17.3966 8.96874 17.4791 8.79039C17.7396 8.24176 17.8156 7.62606 17.6959 7.03231C17.655 6.82638 17.5665 6.63242 17.4372 6.46537C17.3078 6.29832 17.1411 6.16265 16.9498 6.06881C16.9498 6.06881 16.1719 5.54952 15.6043 6.06881C15.0368 6.5881 15.1579 7.35765 15.2217 7.98955C15.2787 8.2925 15.4313 8.57023 15.6578 8.78352C15.8844 8.99682 16.1735 9.1349 16.4843 9.17829Z" fill="#959DB9"/>
<path d="M52.8707 13.22C53.7054 13.22 54.382 12.374 54.382 11.3305C54.382 10.287 53.7054 9.44104 52.8707 9.44104C52.036 9.44104 51.3594 10.287 51.3594 11.3305C51.3594 12.374 52.036 13.22 52.8707 13.22Z" fill="#959DB9"/>
<path d="M13.1167 22.4984C14.3437 20.8281 15.4476 19.0739 16.4198 17.2492C16.4198 17.2492 16.7514 16.5923 16.8407 17.2492C16.8692 18.1882 16.7178 19.1241 16.3944 20.0083C16.0819 20.9155 15.6036 22.611 15.6036 22.611C15.6036 22.611 15.2465 23.1804 15.8013 23.4494C16.3561 23.7184 16.5346 22.9802 16.5346 22.9802C16.5346 22.9802 19.0854 17.8185 20.1439 9.11572C20.1439 9.11572 20.0546 1.35138 20.0546 0.88214C20.0546 0.412901 19.9143 -2.87946e-05 19.4871 0.0124842C19.0598 0.0249973 18.9578 0.419158 18.9961 0.950962C18.9932 3.13094 18.8718 5.30921 18.6326 7.47651C18.4158 8.44627 18.1225 9.35346 17.6825 9.60998C17.4941 9.73294 17.2905 9.83176 17.0767 9.90404C16.8147 10.2117 16.5197 10.4907 16.1967 10.7362C15.9319 11.0029 15.5923 11.1864 15.221 11.2633C14.8497 11.3401 14.4635 11.3069 14.1114 11.1679C13.3654 10.8237 13.5439 9.91655 13.5567 9.71009V9.50988C13.5567 9.50988 13.6587 9.01562 13.1932 8.99059C12.7277 8.96556 12.6575 9.16577 12.6448 9.61624C12.632 10.0667 12.3706 12.5881 13.4036 12.9822C14.1711 13.2451 14.9672 13.4194 15.7758 13.5015L15.0106 15.5975C15.0106 15.5975 13.9712 17.9124 13.3143 19.026C12.4317 20.4856 11.4361 21.8766 10.3364 23.1866L9.92188 23.6183C10.5596 23.7184 11.1972 23.8248 11.7775 23.9374C12.2588 23.4902 12.7064 23.0092 13.1167 22.4984Z" fill="#959DB9"/>
<path d="M8.75538 24.7883L8.01567 25.4953C8.01567 25.4953 7.46089 26.121 7.87538 26.4713C8.28987 26.8217 8.88929 26.3587 8.88929 26.3587C8.88929 26.3587 9.41857 25.9833 10.1647 25.4015C9.73674 25.1148 9.2592 24.907 8.75538 24.7883Z" fill="#959DB9"/>
<path d="M20.6859 27.6476C18.2442 26.3121 15.6957 25.1738 13.0656 24.244C12.7149 24.1439 12.2749 24.0438 11.7903 23.9437C11.2227 24.5006 10.6361 25.0011 10.1387 25.4015C11.5926 26.39 12.3259 27.2347 13.5822 27.9854C14.8384 28.7362 16.6239 29.6684 17.37 29.7811C18.1161 29.8937 20.2714 30.2002 21.279 29.7811C22.2865 29.3619 21.8656 28.4046 20.6859 27.6476Z" fill="#959DB9"/>
<path d="M9.93464 23.6246C8.49986 23.4056 6.95666 23.2241 5.78333 23.0928C3.60884 22.855 1.37695 22.88 0.68188 23.0928C-0.013192 23.3055 -0.261888 23.7622 0.20362 24.0187C0.602686 24.1308 1.01345 24.1979 1.42798 24.2189C2.18682 24.269 2.92014 24.3691 3.20709 24.6882C3.49405 25.0073 4.84594 25.0385 5.64304 24.7758C6.65454 24.514 7.71791 24.514 8.72941 24.7758C9.11202 24.4379 9.55203 24.0125 9.93464 23.6246Z" fill="#959DB9"/>
<path d="M9.93557 23.6246C9.55296 24.0125 9.11934 24.438 8.75586 24.7883C9.24273 24.9165 9.7026 25.1284 10.1141 25.414C10.6115 25.0136 11.1982 24.5131 11.7657 23.9562C11.2301 23.8311 10.5924 23.7247 9.93557 23.6246Z" fill="#959DB9"/>
<path d="M25.367 14.3337C25.367 14.3337 23.8238 14.1335 23.3073 15.4098H23.033V14.5339H20.5907V23.5746H23.371V17.8248C23.371 17.8248 23.1988 16.9802 24.3722 16.9802C25.5455 16.9802 25.367 17.9625 25.367 17.9625V23.5933H28.0388V16.0167C28.0388 16.0167 27.8794 14.3337 25.367 14.3337Z" fill="#959DB9"/>
<path d="M32.4514 11.9374H29.9071L29.9772 14.6715L29.1163 14.6339V17.2992L29.9071 17.2366V23.5745H32.7639L32.7256 17.5682H33.7905V14.6339H32.4514V11.9374Z" fill="#959DB9"/>
<path d="M38.3113 21.5162C37.3293 21.5162 36.8829 20.8905 37.0359 19.6955H41.9524C41.9524 19.6955 42.2585 16.0855 40.371 14.9718C39.719 14.618 38.9862 14.4324 38.2411 14.4324C37.4961 14.4324 36.7632 14.618 36.1113 14.9718C35.6968 15.2096 33.771 16.3921 33.9751 19.5579C34.1791 22.7237 36.2452 23.8749 38.2922 23.8123C40.3391 23.7497 41.6081 22.7299 41.9716 20.7404H39.204C39.204 20.7404 39.2869 21.5162 38.3113 21.5162ZM38.3113 16.292C39.3954 16.292 39.5867 17.756 39.5867 17.756H37.0742C37.0742 17.756 37.2272 16.292 38.3113 16.292Z" fill="#959DB9"/>
<path d="M46.098 9.20959H43.0754V23.8123H46.098V9.20959Z" fill="#959DB9"/>
<path d="M50.256 9.20959H47.2334V23.8123H50.256V9.20959Z" fill="#959DB9"/>
<path d="M54.382 14.4213H51.3594V23.8123H54.382V14.4213Z" fill="#959DB9"/>
<path d="M61.0516 10.6235H55.7206V24.0125H58.7815V19.4577H61.4597C61.4597 19.4577 63.6597 18.8321 63.7618 16.7424C63.8638 14.6527 64.3867 11.0302 61.0516 10.6235ZM58.5009 16.5109V13.22C60.8731 12.9134 61.0516 14.7028 61.0516 14.7028C61.0835 17.3681 58.5072 16.5109 58.5072 16.5109H58.5009Z" fill="#959DB9"/>
<path d="M70.3299 15.3785C70.2916 15.6475 70.0493 15.3785 70.0493 15.3785C69.8133 14.3023 68.3339 14.3023 68.3339 14.3023C65.8214 14.1021 64.5844 16.9301 64.5525 18.0563C64.5206 19.1824 64.5525 22.8112 66.9246 23.587C69.2968 24.3628 69.9154 23.2492 70.0174 23.0802C70.1194 22.9113 70.3299 23.0802 70.3299 23.0802V23.587H73.0783V14.5151H70.3299C70.3475 14.8026 70.3475 15.0909 70.3299 15.3785ZM68.8504 20.8717C68.4818 20.9422 68.1 20.8998 67.7568 20.7502C67.4136 20.6006 67.1257 20.351 66.932 20.0353C66.7383 19.7196 66.6484 19.3531 66.6742 18.9855C66.7001 18.6179 66.8407 18.267 67.0767 17.9805C67.3128 17.6939 67.6331 17.4856 67.994 17.3837C68.3549 17.2818 68.739 17.2913 69.0942 17.4109C69.4494 17.5306 69.7585 17.7545 69.9796 18.0524C70.2006 18.3503 70.3229 18.7077 70.3299 19.0761C70.351 19.2914 70.3286 19.5086 70.264 19.7154C70.1995 19.9222 70.094 20.1145 69.9536 20.2813C69.8133 20.4481 69.6408 20.5861 69.446 20.6874C69.2512 20.7887 69.038 20.8513 68.8186 20.8717H68.8504Z" fill="#959DB9"/>
<path d="M79.6778 15.5099C79.6459 15.7789 79.4036 15.5474 79.4036 15.5474C79.1613 14.465 77.6819 14.465 77.6819 14.465C75.1758 14.2648 73.9387 17.099 73.9068 18.219C73.8749 19.3389 73.9068 22.9739 76.2726 23.7497C78.6384 24.5255 79.2633 23.4181 79.3717 23.2492C79.4801 23.0803 79.6778 23.2492 79.6778 23.2492V23.7497H82.4453V14.6965H79.6969C79.7094 14.9678 79.703 15.2395 79.6778 15.5099ZM78.1984 21.0031C77.8286 21.066 77.4481 21.0158 77.1083 20.8593C76.7686 20.7029 76.4861 20.4477 76.2991 20.1285C76.1121 19.8092 76.0297 19.4413 76.063 19.0745C76.0963 18.7078 76.2437 18.3599 76.4853 18.0781C76.7268 17.7963 77.0508 17.5942 77.4134 17.4991C77.776 17.404 78.1595 17.4206 78.5122 17.5466C78.8648 17.6726 79.1694 17.9019 79.3848 18.2035C79.6001 18.5051 79.7158 18.8643 79.7161 19.2325C79.7515 19.6642 79.612 20.0922 79.3279 20.4237C79.0438 20.7551 78.6379 20.9633 78.1984 21.0031Z" fill="#959DB9"/>
<path d="M88.0004 14.6715H86.6612V11.975H84.1169L84.187 14.7028L83.3262 14.6715V17.3368L84.1169 17.268V23.6058H86.9673L86.9354 17.6058H88.0004V14.6715Z" fill="#959DB9"/>
</g>
<defs>
<clipPath id="clip0_1_3537">
<rect width="88" height="30" fill="white"/>
</clipPath>
</defs>
</svg>