<svg width="99" height="32" viewBox="0 0 99 32" fill="none" xmlns="http://www.w3.org/2000/svg">
<path opacity="0.6" d="M3.77973 13.2038C4.10526 12.8465 4.28787 12.3883 4.28787 11.9067C4.28787 11.5339 4.16084 11.1689 3.91471 10.8893C3.90677 10.8815 3.89089 10.866 3.88295 10.8582C3.83531 10.8504 3.77973 10.8427 3.73209 10.8427C3.21601 10.8427 2.73169 11.0757 2.42205 11.4795C2.12034 11.8368 1.9536 12.2873 1.94566 12.7533C1.93772 13.1184 2.06476 13.4757 2.29501 13.763C2.31089 13.7786 2.32677 13.7941 2.33471 13.8096C2.38235 13.8096 2.42205 13.8252 2.46968 13.8252C2.98576 13.8174 3.46214 13.5922 3.77973 13.2038Z" fill="#959DB9"/>
<path d="M3.77973 13.2038C4.10526 12.8465 4.28787 12.3883 4.28787 11.9067C4.28787 11.5339 4.16084 11.1689 3.91471 10.8893C3.90677 10.8815 3.89089 10.866 3.88295 10.8582C3.83531 10.8504 3.77973 10.8427 3.73209 10.8427C3.21601 10.8427 2.73169 11.0757 2.42205 11.4795C2.12034 11.8368 1.9536 12.2873 1.94566 12.7533C1.93772 13.1184 2.06476 13.4757 2.29501 13.763C2.31089 13.7786 2.32677 13.7941 2.33471 13.8096C2.38235 13.8096 2.42205 13.8252 2.46968 13.8252C2.98576 13.8174 3.46214 13.5922 3.77973 13.2038Z" fill="#959DB9"/>
<path d="M44.1997 28.9554L44.0965 29.5146C44.033 29.4991 43.9695 29.4835 43.898 29.4835C43.6281 29.4835 43.501 29.6777 43.4216 30.0272V31.1534H42.8262V28.9787H43.3423L43.3978 29.4059C43.501 29.103 43.7154 28.9243 43.9774 28.9243C44.0568 28.9243 44.1283 28.9321 44.1997 28.9554Z" fill="#959DB9"/>
<path d="M46.4078 30.2525H45.0184C45.0581 30.6719 45.2645 30.7962 45.5503 30.7962C45.7488 30.7962 45.9394 30.7263 46.0902 30.6098L46.3364 30.936C46.0982 31.1301 45.7965 31.2311 45.4948 31.2311C44.7802 31.2311 44.407 30.7729 44.407 30.0894C44.407 29.4292 44.7643 28.9243 45.4233 28.9243C46.0505 28.9243 46.4316 29.336 46.4316 30.0272C46.4237 30.0971 46.4158 30.1903 46.4078 30.2525ZM45.8282 29.8641C45.8282 29.5379 45.7171 29.3204 45.4312 29.3204C45.193 29.3204 45.0501 29.4758 45.0184 29.8874H45.8282V29.8641Z" fill="#959DB9"/>
<path d="M48.5668 29.1806L48.3366 29.5146C48.1698 29.4058 47.9793 29.3437 47.7808 29.3437C47.5823 29.3437 47.4712 29.4214 47.4712 29.5379C47.4712 29.6544 47.5506 29.7243 47.9396 29.833C48.3842 29.9495 48.6383 30.1359 48.6383 30.5165C48.6383 30.967 48.2016 31.2233 47.6776 31.2233C47.3441 31.2311 47.0186 31.1223 46.7725 30.9049L47.0662 30.5864C47.233 30.7184 47.4473 30.7961 47.6617 30.8039C47.884 30.8039 48.0269 30.7107 48.0269 30.5631C48.0269 30.4 47.9475 30.3456 47.5347 30.2369C47.0821 30.1126 46.8757 29.8951 46.8757 29.5689C46.8757 29.1961 47.2171 28.9165 47.757 28.9165C48.0508 28.9165 48.3366 29.0097 48.5668 29.1806Z" fill="#959DB9"/>
<path d="M51.076 30.2524H49.6866C49.7263 30.6718 49.9327 30.796 50.2185 30.796C50.417 30.796 50.6076 30.7261 50.7584 30.6096L51.0046 30.9358C50.7664 31.13 50.4647 31.231 50.163 31.231C49.4484 31.231 49.0752 30.7727 49.0752 30.0892C49.0752 29.429 49.4325 28.9242 50.0915 28.9242C50.7187 28.9242 51.0919 29.3358 51.0919 30.0271C51.084 30.097 51.076 30.1902 51.076 30.2524ZM50.4964 29.864C50.4964 29.5378 50.3853 29.3203 50.0994 29.3203C49.8613 29.3203 49.7183 29.4757 49.6866 29.8873H50.4964V29.864Z" fill="#959DB9"/>
<path d="M53.5131 30.835L53.3861 31.2233C53.132 31.2 52.9653 31.1223 52.87 30.9049C52.7192 31.1223 52.4651 31.2466 52.2031 31.2311C51.7585 31.2311 51.4806 30.9515 51.4806 30.5553C51.4806 30.0816 51.8458 29.8175 52.5048 29.8175H52.7589V29.7087C52.7589 29.4369 52.6398 29.3515 52.3619 29.3515C52.1634 29.3592 51.9649 29.3981 51.7744 29.468L51.6394 29.0796C51.9014 28.9786 52.1793 28.9243 52.4651 28.9165C53.0844 28.9165 53.3464 29.1806 53.3464 29.6777V30.5553C53.3464 30.734 53.402 30.7961 53.5131 30.835ZM52.7668 30.5631V30.1515H52.5683C52.2428 30.1515 52.084 30.268 52.084 30.501C52.084 30.6951 52.1872 30.8039 52.3698 30.8039C52.5366 30.8117 52.6874 30.7107 52.7668 30.5631Z" fill="#959DB9"/>
<path d="M55.482 28.9554L55.3787 29.5146C55.3152 29.4991 55.2517 29.4835 55.1803 29.4835C54.9103 29.4835 54.7833 29.6777 54.7039 30.0272V31.1534H54.1084V28.9787H54.6245L54.6801 29.4059C54.7833 29.103 54.9976 28.9243 55.2597 28.9243C55.3391 28.9243 55.4105 28.9321 55.482 28.9554Z" fill="#959DB9"/>
<path d="M57.4916 29.1805L57.2296 29.5223C57.1105 29.4213 56.9517 29.3669 56.7929 29.3669C56.4912 29.3669 56.3165 29.5767 56.3165 30.0815C56.3165 30.5864 56.5071 30.7572 56.7849 30.7572C56.9517 30.7572 57.0628 30.7106 57.2296 30.6019L57.4916 30.9669C57.2851 31.1378 57.0311 31.2233 56.7611 31.2233C56.0942 31.2233 55.6893 30.7805 55.6893 30.0815C55.6893 29.3825 56.1021 28.9087 56.7532 28.9087C57.0231 28.9087 57.2851 29.0019 57.4916 29.1805Z" fill="#959DB9"/>
<path d="M59.8656 29.5768V31.1612H59.2702V29.67C59.2702 29.4214 59.1749 29.3515 59.024 29.3515C58.8573 29.3515 58.7144 29.4603 58.5953 29.6544V31.1612H57.9998V28.1166L58.5953 28.0544V29.2273C58.7461 29.0331 58.9923 28.9166 59.2463 28.9166C59.6275 28.9166 59.8656 29.1651 59.8656 29.5768Z" fill="#959DB9"/>
<path d="M63.1285 31.0602C62.9538 31.169 62.7553 31.2311 62.5489 31.2311C62.0884 31.2311 61.8502 30.967 61.8502 30.4855V29.3981H61.5167V28.9864H61.8502V28.5127L62.4457 28.4427V28.9864H62.9617L62.9062 29.3981H62.4536V30.4699C62.4536 30.6874 62.5251 30.7651 62.6759 30.7651C62.7633 30.7651 62.8506 30.734 62.93 30.6874L63.1285 31.0602Z" fill="#959DB9"/>
<path d="M65.4866 30.0738C65.4866 30.765 65.0896 31.2311 64.4227 31.2311C63.7557 31.2311 63.3508 30.8039 63.3508 30.0738C63.3508 29.3825 63.7478 28.9165 64.4227 28.9165C65.0975 28.9165 65.4866 29.3515 65.4866 30.0738ZM63.978 30.0738C63.978 30.5786 64.1289 30.7961 64.4227 30.7961C64.7164 30.7961 64.8673 30.5709 64.8673 30.0738C64.8673 29.5767 64.7164 29.3515 64.4227 29.3515C64.1289 29.3515 63.978 29.5767 63.978 30.0738Z" fill="#959DB9"/>
<path d="M68.6783 28.9554L68.575 29.5146C68.5115 29.4991 68.448 29.4835 68.3765 29.4835C68.1066 29.4835 67.9796 29.6777 67.9002 30.0272V31.1534H67.3047V28.9787H67.8208L67.8763 29.4059C67.9796 29.103 68.1939 28.9243 68.4559 28.9243C68.5353 28.9243 68.6068 28.9321 68.6783 28.9554Z" fill="#959DB9"/>
<path d="M70.8856 30.2524H69.4961C69.5358 30.6718 69.7423 30.796 70.0281 30.796C70.2266 30.796 70.4171 30.7261 70.568 30.6096L70.8141 30.9358C70.5759 31.13 70.2742 31.231 69.9725 31.231C69.2579 31.231 68.8848 30.7727 68.8848 30.0892C68.8848 29.429 69.2421 28.9242 69.901 28.9242C70.5283 28.9242 70.9094 29.3358 70.9094 30.0271C70.8935 30.097 70.8856 30.1902 70.8856 30.2524ZM70.306 29.864C70.306 29.5378 70.1948 29.3203 69.909 29.3203C69.6708 29.3203 69.5279 29.4757 69.4961 29.8873H70.306V29.864Z" fill="#959DB9"/>
<path d="M71.4727 30.633V28.1165L72.0681 28.0466V30.6175C72.0681 30.7107 72.1078 30.7651 72.1872 30.7651C72.2269 30.7651 72.2666 30.7573 72.3063 30.7418L72.4254 31.1534C72.3063 31.2 72.1714 31.2311 72.0443 31.2311C71.687 31.2311 71.4727 31.0136 71.4727 30.633Z" fill="#959DB9"/>
<path d="M74.7523 30.835L74.6253 31.2233C74.3712 31.2 74.2044 31.1223 74.1092 30.9049C73.9583 31.1223 73.7042 31.2466 73.4422 31.2311C72.9976 31.2311 72.7197 30.9515 72.7197 30.5553C72.7197 30.0816 73.0849 29.8175 73.7439 29.8175H73.998V29.7087C73.998 29.4369 73.8789 29.3515 73.601 29.3515C73.4025 29.3592 73.204 29.3981 73.0135 29.468L72.8785 29.0796C73.1405 28.9786 73.4184 28.9243 73.7042 28.9165C74.3235 28.9165 74.5856 29.1806 74.5856 29.6777V30.5553C74.5935 30.734 74.6411 30.7961 74.7523 30.835ZM74.006 30.5631V30.1515H73.8075C73.4819 30.1515 73.3231 30.268 73.3231 30.501C73.3231 30.6951 73.4264 30.8039 73.609 30.8039C73.7757 30.8117 73.9345 30.7184 74.006 30.5631Z" fill="#959DB9"/>
<path d="M76.6899 31.0602C76.5152 31.169 76.3167 31.2311 76.1103 31.2311C75.6498 31.2311 75.4116 30.967 75.4116 30.4855V29.3981H75.0781V28.9864H75.4116V28.5127L76.0071 28.4427V28.9864H76.5231L76.4676 29.3981H76.015V30.4699C76.015 30.6874 76.0865 30.7651 76.2373 30.7651C76.3247 30.7651 76.412 30.734 76.4914 30.6874L76.6899 31.0602Z" fill="#959DB9"/>
<path d="M77.7772 28.2019C77.7772 28.3883 77.6263 28.5437 77.4358 28.5437C77.4278 28.5437 77.4199 28.5437 77.412 28.5437C77.2214 28.5437 77.0626 28.3883 77.0626 28.2019C77.0626 28.0155 77.2214 27.8602 77.412 27.8602C77.6025 27.8524 77.7693 27.9922 77.7772 28.1786C77.7772 28.1864 77.7772 28.1942 77.7772 28.2019ZM77.7137 31.1611H77.1182V28.9786H77.7137V31.1611Z" fill="#959DB9"/>
<path d="M80.4685 30.0738C80.4685 30.765 80.0715 31.2311 79.4046 31.2311C78.7377 31.2311 78.3407 30.8039 78.3407 30.0738C78.3407 29.3825 78.7377 28.9165 79.4126 28.9165C80.0874 28.9165 80.4685 29.3515 80.4685 30.0738ZM78.96 30.0738C78.96 30.5786 79.1108 30.7961 79.4046 30.7961C79.6984 30.7961 79.8492 30.5709 79.8492 30.0738C79.8492 29.5767 79.6984 29.3515 79.4046 29.3515C79.1108 29.3515 78.96 29.5767 78.96 30.0738Z" fill="#959DB9"/>
<path d="M82.9615 29.5767V31.1611H82.366V29.6699C82.366 29.4213 82.2707 29.3514 82.1199 29.3514C81.9452 29.3514 81.8102 29.4601 81.6911 29.6543V31.1611H81.0956V28.9786H81.6117L81.6594 29.2504C81.842 29.033 82.0563 28.9087 82.3422 28.9087C82.7312 28.9165 82.9615 29.165 82.9615 29.5767Z" fill="#959DB9"/>
<path d="M85.2408 29.1805L85.0105 29.5145C84.8438 29.4058 84.6532 29.3436 84.4548 29.3436C84.2563 29.3436 84.1451 29.4213 84.1451 29.5378C84.1451 29.6543 84.2166 29.7242 84.6135 29.833C85.0582 29.9495 85.3122 30.1359 85.3122 30.5165C85.3122 30.967 84.8835 31.2233 84.3515 31.2233C84.0181 31.231 83.6925 31.1223 83.4385 30.9048L83.7322 30.5864C83.899 30.7184 84.1133 30.7961 84.3277 30.8038C84.55 30.8038 84.6929 30.7106 84.6929 30.5631C84.6929 30.4 84.6135 30.3456 84.2007 30.2369C83.7481 30.1126 83.5417 29.8951 83.5417 29.5689C83.5417 29.1961 83.8831 28.9165 84.423 28.9165C84.7247 28.9087 85.0105 29.0019 85.2408 29.1805Z" fill="#959DB9"/>
<path d="M87.7418 29.5766V31.1611H87.1463V29.6699C87.1463 29.4213 87.0511 29.3514 86.9002 29.3514C86.7335 29.3514 86.5905 29.4601 86.4715 29.6543V31.1611H85.876V28.1165L86.4715 28.0543V29.2271C86.6223 29.033 86.8684 28.9165 87.1225 28.9165C87.5116 28.9165 87.7418 29.165 87.7418 29.5766Z" fill="#959DB9"/>
<path d="M89.1389 28.2019C89.1469 28.3961 88.9881 28.567 88.7896 28.5747C88.5911 28.5825 88.4164 28.4272 88.4085 28.233C88.4005 28.0388 88.5593 27.8679 88.7578 27.8602C88.7658 27.8602 88.7658 27.8602 88.7737 27.8602C88.9643 27.8524 89.131 27.9922 89.1389 28.1786C89.1389 28.1864 89.1389 28.1942 89.1389 28.2019ZM89.0754 31.1611H88.4799V28.9786H89.0754V31.1611Z" fill="#959DB9"/>
<path d="M91.8625 30.066C91.8625 30.734 91.537 31.2233 90.9812 31.2233C90.7748 31.2311 90.5683 31.1457 90.4334 30.9903V32L89.8379 32.0699V28.9864H90.3619L90.3937 29.2427C90.5445 29.0408 90.7827 28.9243 91.0447 28.9243C91.6164 28.9165 91.8625 29.367 91.8625 30.066ZM91.2432 30.0738C91.2432 29.5301 91.1003 29.3515 90.8542 29.3515C90.6795 29.3515 90.5366 29.468 90.4334 29.6311V30.5787C90.5128 30.7107 90.6557 30.7961 90.8065 30.7961C91.0765 30.7961 91.2432 30.5864 91.2432 30.0738Z" fill="#959DB9"/>
<path d="M94.0532 29.1806L93.8229 29.5146C93.6562 29.4058 93.4656 29.3437 93.2671 29.3437C93.0686 29.3437 92.9575 29.4214 92.9575 29.5379C92.9575 29.6544 93.0369 29.7243 93.4259 29.833C93.8705 29.9495 94.1246 30.1359 94.1246 30.5165C94.1246 30.967 93.6959 31.2233 93.1639 31.2233C92.8304 31.2311 92.5129 31.1223 92.2588 30.9049L92.5526 30.5864C92.7193 30.7184 92.9337 30.7961 93.148 30.8039C93.3703 30.8039 93.5133 30.7107 93.5133 30.5631C93.5133 30.4 93.4339 30.3456 93.021 30.2369C92.5684 30.1126 92.362 29.8951 92.362 29.5689C92.362 29.1961 92.7034 28.9165 93.2433 28.9165C93.5371 28.9165 93.8229 29.0097 94.0532 29.1806Z" fill="#959DB9"/>
<path d="M16.856 17.1805C17.7611 16.4582 18.5471 15.5961 19.1823 14.6329C19.8095 13.7009 20.143 12.6213 20.143 11.5106C20.143 10.3689 19.8333 9.36692 19.222 8.52809C18.6265 7.71255 17.8643 7.02906 16.9909 6.50867C16.1017 5.97275 15.1331 5.55333 14.1247 5.27372C13.1799 5.00187 12.2112 4.79993 11.2267 4.67566C11.0679 4.66013 10.9091 4.64459 10.7424 4.62906C10.5757 4.61353 10.4169 4.61353 10.2581 4.61353C9.80552 4.61353 9.48793 4.66013 9.26562 4.76887C8.98773 4.89314 8.76542 5.17275 8.56693 5.64653C8.47959 5.84071 8.43195 6.04265 8.42401 6.25236C8.41607 6.59411 8.60663 6.91255 8.92421 7.07566C9.15446 7.19993 9.40059 7.28537 9.6626 7.33197C9.76582 7.35527 9.86904 7.37081 9.97225 7.38634C9.76582 7.54168 9.59115 7.73586 9.47205 7.9611C9.3212 8.23294 9.18622 8.51256 9.06713 8.79993C8.94803 9.09508 8.85276 9.39799 8.77336 9.70867C8.7019 9.99605 8.63838 10.2213 8.58281 10.4077C8.23346 11.7281 7.93175 13.0096 7.69356 14.2135C7.45537 15.4174 7.25688 16.6368 7.10602 17.8329C7.01075 18.6485 6.93135 19.4873 6.86783 20.3339C6.85195 20.3572 6.83607 20.3805 6.81226 20.4116C6.47879 20.8931 6.10562 21.3514 5.71658 21.7863C5.35135 22.198 4.94643 22.5786 4.50974 22.9203C4.16834 23.1844 3.86663 23.3164 3.60462 23.3164C3.5411 23.3242 3.48552 23.2931 3.46171 23.2388C3.35055 23.0679 3.27909 22.8815 3.23145 22.6795C3.17588 22.4465 3.14412 22.2058 3.13618 21.9572C3.12824 21.6931 3.1203 21.4834 3.1203 21.3203C3.1203 20.5514 3.1997 19.7747 3.35849 19.0213C3.41407 18.8349 3.47758 18.6174 3.56492 18.3766L3.84281 17.5922C3.93809 17.3281 4.01748 17.0562 4.08894 16.7999C4.1604 16.5514 4.2001 16.3028 4.2001 16.0465C4.2001 15.3863 3.77135 14.9747 3.0806 14.9747C2.34221 14.9747 1.77849 15.1999 1.39739 15.6427C1.05598 16.0543 0.793969 16.5281 0.627236 17.0407C0.460502 17.5922 0.317588 18.1592 0.214372 18.7339C0.0714572 19.332 0.00793969 19.9223 0 20.5203C0 21.0019 0.0317588 21.4834 0.0873366 21.965C0.142914 22.5242 0.277889 23.0757 0.476381 23.6038C0.666934 24.1164 0.960703 24.5825 1.34181 24.9786C1.75467 25.4058 2.31839 25.631 3.00914 25.631C3.59668 25.631 4.19216 25.4446 4.78763 25.0873C5.35929 24.7378 5.89125 24.3339 6.37557 23.8834C6.49467 23.7747 6.60582 23.666 6.72492 23.5495C6.71698 24.1553 6.70904 24.7766 6.70904 25.4058C6.70904 25.7009 6.76462 25.9883 6.88371 26.2601C6.97899 26.4854 7.24894 26.8582 7.90793 26.8582C8.2017 26.8504 8.48753 26.7961 8.74954 26.6795C9.09889 26.5242 9.34502 26.3456 9.51969 26.1436C9.68642 25.9495 9.79758 25.7164 9.85316 25.4679C9.90079 25.2349 9.90873 24.9941 9.89285 24.7611C9.87698 24.5669 9.86904 24.3572 9.86904 24.1397C9.86904 23.9456 9.86904 23.7203 9.88492 23.464C9.90079 23.2077 9.90873 22.9592 9.94049 22.6951C9.96431 22.4543 9.99607 22.2135 10.0358 21.9883C10.3295 22.1592 10.6868 22.3456 11.1156 22.563C11.8937 22.9436 12.7273 23.332 13.6086 23.697C14.4899 24.0621 15.3395 24.3961 16.1493 24.6679C16.9989 24.963 17.6261 25.1028 18.0549 25.1028C18.6106 25.1028 19.0711 24.932 19.4284 24.5902C19.7857 24.2485 19.9763 23.798 19.9763 23.2465C19.9763 22.9592 19.8016 22.6951 19.5396 22.5708C19.357 22.4776 19.1664 22.4155 18.96 22.3844C18.7694 22.3533 18.5789 22.3378 18.3804 22.3378C18.301 22.3378 18.2216 22.3378 18.1422 22.3223L18.1184 22.3145H18.0946C17.9913 22.299 17.8961 22.2757 17.7928 22.2524C17.6738 22.2135 17.5467 22.1747 17.4197 22.1436C16.2764 21.8019 15.1489 21.398 14.0612 20.932C13.3149 20.6135 12.5924 20.2329 11.9016 19.8058C12.5765 19.6038 13.2434 19.3553 13.8786 19.0601C14.9346 18.5475 15.9429 17.9184 16.856 17.1805ZM10.528 18.0504C10.7662 15.9844 11.1711 13.9417 11.7428 11.93C11.7984 11.7436 11.8778 11.5028 11.981 11.2077C12.0921 10.897 12.2033 10.5786 12.3065 10.2601C12.4097 9.94168 12.505 9.631 12.5844 9.34362C12.6717 9.07178 12.7194 8.79217 12.7273 8.51255C12.7353 8.26401 12.6797 8.01547 12.5685 7.79022C12.7353 7.83683 12.8941 7.88343 13.0608 7.9378C13.8151 8.17081 14.5376 8.50479 15.1966 8.92421C15.8159 9.31255 16.3558 9.81741 16.7845 10.3999C17.1815 10.9514 17.3879 11.6038 17.372 12.2718C17.3879 13.0562 17.1339 13.8252 16.6654 14.4543C16.1573 15.1378 15.5221 15.7359 14.8075 16.2096C14.0374 16.7223 13.2116 17.1417 12.3462 17.4601C11.711 17.6931 11.0997 17.8873 10.528 18.0504Z" fill="#959DB9"/>
<path d="M98.7142 19.1689C98.5792 18.8971 98.3013 18.7417 97.944 18.7417C97.7138 18.7417 97.3803 18.8194 97.1183 19.2078C96.9992 19.3786 96.896 19.5262 96.8166 19.6427C96.6419 19.9145 96.3799 20.2796 96.0385 20.7145C95.6971 21.1573 95.3318 21.5767 94.9428 21.9728C94.5776 22.3456 94.1806 22.6951 93.7519 22.998C93.4025 23.2466 93.0849 23.3709 92.807 23.3709C92.7673 23.3709 92.7276 23.3709 92.6879 23.3553C92.6482 23.332 92.6244 23.2932 92.6085 23.2544C92.5768 23.1767 92.5609 23.0912 92.5609 23.0058C92.553 22.8738 92.545 22.7495 92.545 22.633C92.545 21.5223 92.6324 20.4116 92.7991 19.3087C92.9738 18.1592 93.069 17.0019 93.069 15.8446C93.069 15.5495 93.0452 15.2621 92.9976 14.967C92.9499 14.6485 92.8467 14.3456 92.7038 14.0505C92.5609 13.7553 92.3465 13.4912 92.0925 13.2815C91.7828 13.0408 91.4017 12.9165 91.0127 12.932C90.4966 12.932 89.9567 13.1107 89.4088 13.4524C88.861 13.8097 88.3687 14.2291 87.9321 14.7107C87.4477 15.2388 86.9872 15.798 86.5664 16.3806C86.1297 16.9864 85.7169 17.6 85.3437 18.2136C85.2326 18.4 85.1214 18.5864 85.0102 18.765C85.0658 18.4699 85.1135 18.1903 85.169 17.9262C85.2723 17.4058 85.3278 17.2815 85.3278 17.2815C85.5501 16.8699 85.7804 16.4505 86.0107 16.0466C86.2568 15.6272 86.487 15.1922 86.7093 14.7573C87.6462 12.9476 88.4243 11.0679 89.0516 9.14173C89.6867 7.18445 90.0043 5.1495 90.0043 3.09901C90.0043 2.8194 89.9805 2.54755 89.9487 2.26794C89.909 1.93396 89.8217 1.61552 89.6947 1.30484C89.5676 0.994157 89.3691 0.714545 89.123 0.481535C88.8292 0.209691 88.4323 0.0621179 88.0273 0.0776519C87.6939 0.0776519 87.3604 0.155322 87.0666 0.302895C86.7808 0.4427 86.5188 0.629108 86.2885 0.854351C86.0742 1.06406 85.8836 1.2893 85.7089 1.52231C85.5422 1.74755 85.3993 1.98056 85.2723 2.22911C84.7721 3.22328 84.3751 4.26406 84.0972 5.34367C83.7796 6.50872 83.5096 7.74367 83.2873 9.00969C83.065 10.2757 82.8745 11.534 82.7157 12.7534C82.5569 13.9728 82.4219 15.0835 82.3107 16.0621C82.2155 16.9243 82.1202 17.7786 82.0249 18.6252C82.0011 18.8272 81.9773 19.0369 81.9455 19.2388C81.8503 19.3631 81.7629 19.4796 81.6835 19.5961C81.3977 20.0777 81.0642 20.5359 80.699 20.9631C80.3338 21.3903 79.9209 21.7709 79.4763 22.1126C79.0396 22.4388 78.5632 22.7029 78.0551 22.8971C77.5549 23.0912 77.0309 23.1922 76.491 23.1922C76.2131 23.2 75.9431 23.1378 75.697 23.0136C75.4826 22.8971 75.3 22.7262 75.173 22.5165C75.0221 22.2835 74.9189 22.0272 74.8633 21.7631C74.7998 21.4602 74.7601 21.1573 74.7601 20.8466C74.7601 20.4815 74.8316 19.9845 74.9745 19.3476C75.1174 18.7029 75.3238 18.066 75.5858 17.4524C75.8161 16.8932 76.1337 16.365 76.5307 15.899C76.8403 15.5417 77.1738 15.3631 77.5469 15.3631C77.5787 15.3631 77.6184 15.3631 77.6502 15.3709C77.6978 15.5573 77.7216 15.7514 77.7216 15.9456C77.7296 16.2408 77.6581 16.5359 77.5231 16.8C77.3167 17.1883 77.2214 17.5145 77.2214 17.7864C77.2214 18.2291 77.539 18.532 78.0154 18.532C78.3885 18.5398 78.7538 18.4078 79.0317 18.1592C79.2699 17.9495 79.4604 17.6777 79.5716 17.3825C79.6827 17.1107 79.7542 16.8233 79.7939 16.5281C79.8336 16.2718 79.8494 16.0078 79.8574 15.7437C79.8574 14.8815 79.5954 14.2291 79.0872 13.8097C78.6029 13.4136 77.9439 13.2116 77.1261 13.2116C76.229 13.2039 75.3556 13.4679 74.6331 13.9806C73.9344 14.4699 73.3389 15.0912 72.8705 15.8058C72.3941 16.5359 72.0368 17.3281 71.8145 18.167C71.6716 18.6951 71.5684 19.2311 71.5128 19.7747C71.5048 19.7825 71.5048 19.7825 71.4969 19.7903C71.3699 19.9456 71.2666 20.0932 71.1555 20.2408C70.9252 20.5747 70.6791 20.901 70.4092 21.2116C70.0677 21.6233 69.6946 22.0349 69.2976 22.4388C68.9324 22.8116 68.5433 23.1611 68.1225 23.4718C67.7335 23.7592 67.4874 23.8291 67.3365 23.8369C67.3047 23.666 67.2809 23.4874 67.2809 23.3087C67.2809 22.6951 67.3365 22.0738 67.4397 21.4679C67.5509 20.8466 67.6779 20.2175 67.8208 19.5961C67.9161 19.2155 67.9637 18.8272 67.9717 18.4311C67.9717 17.7398 67.8129 17.165 67.4953 16.7301C67.2095 16.334 66.8522 15.9922 66.4473 15.7204C66.082 15.4718 65.7009 15.2388 65.3198 15.0213C65.0816 14.8893 64.8673 14.7184 64.7005 14.5087C64.7402 14.1204 64.764 13.732 64.764 13.3359C64.764 13.1883 64.7561 12.9864 64.7323 12.7301C64.7085 12.4582 64.6608 12.1942 64.5735 11.9301C64.4941 11.6815 64.3829 11.4485 64.248 11.2233C64.0653 10.9204 63.7239 10.7417 63.3666 10.7417C62.9379 10.7417 62.5409 10.9359 62.2789 11.2621C62.0328 11.5495 61.8343 11.8757 61.6914 12.2252C61.5405 12.5825 61.4294 12.9476 61.3579 13.3204C61.2944 13.6233 61.2626 13.934 61.2547 14.2446C61.2547 14.6951 61.3103 15.1456 61.4373 15.5806C61.5485 15.9611 61.7231 16.3262 61.9534 16.6524C61.8343 17.4291 61.5723 18.1825 61.1674 18.8582C60.7704 19.5262 60.3416 20.1942 59.897 20.8466L59.7541 21.0252C59.4286 21.4291 59.0792 21.8175 58.7061 22.1903C58.3567 22.5398 57.9835 22.866 57.5786 23.1534C57.261 23.3786 56.9831 23.4951 56.7608 23.4951C56.745 23.4951 56.7211 23.4951 56.6814 23.4097C56.5782 23.2078 56.5068 22.9825 56.4671 22.7573C56.4194 22.4932 56.3877 22.2213 56.3797 21.9495C56.3718 21.6699 56.3638 21.4524 56.3638 21.3126C56.3638 20.8311 56.3956 20.3495 56.4591 19.8679C56.5147 19.3942 56.61 18.9281 56.7529 18.4699C56.8243 18.2757 56.9276 18.0116 57.0546 17.6932C57.2055 17.3048 57.2769 16.9942 57.2769 16.7378C57.2769 16.365 57.0943 16.0699 56.7608 15.9456C56.5703 15.8679 56.3638 15.8291 56.1495 15.8291C55.7684 15.8136 55.4111 15.9767 55.1729 16.2641C55.0141 16.4582 54.8791 16.6757 54.7759 16.901C54.6806 17.0874 54.5457 17.367 54.371 17.7398C54.2043 18.0971 53.9978 18.4932 53.7596 18.9204C53.5214 19.3476 53.2674 19.7903 53.0054 20.2485C52.7672 20.6602 52.5052 21.0641 52.2193 21.4446C51.997 21.7476 51.7429 22.0349 51.473 22.3068C51.4095 22.3689 51.3301 22.4311 51.2507 22.4777C51.2427 22.4388 51.2427 22.4 51.2427 22.3611C51.2348 21.4369 51.4412 20.5204 51.8382 19.6815C52.2431 18.8349 52.791 18.0582 53.4659 17.3903C53.839 17.0097 54.2439 16.6602 54.6806 16.3495C55.1173 16.0466 55.5778 15.7514 56.0542 15.4718C56.1495 15.4252 56.2368 15.3631 56.3242 15.301C56.4909 15.1611 56.5862 14.9514 56.5862 14.734C56.5862 14.4 56.4274 14.0893 56.1257 13.8097C55.8319 13.5456 55.5143 13.4136 55.1888 13.4136C54.2757 13.4136 53.3865 13.7165 52.5607 14.3145C51.7509 14.9126 51.0443 15.6272 50.4567 16.4427C49.8612 17.266 49.369 18.167 49.0038 19.1068C48.845 19.5107 48.7179 19.9223 48.6147 20.3417C48.4718 20.5359 48.3209 20.7301 48.1621 20.9243C47.8207 21.3437 47.4396 21.7243 47.0188 22.0582C46.6139 22.3845 46.1693 22.6485 45.685 22.8582C45.2245 23.0602 44.7243 23.1611 44.2241 23.1534C43.7318 23.1534 43.4063 23.0369 43.2237 22.8116C43.0172 22.5476 42.9061 22.1514 42.9061 21.6466C42.9061 21.3825 42.9378 21.1184 42.9855 20.8544C43.438 20.6446 43.8668 20.3806 44.2479 20.0621C44.7798 19.6349 45.2721 19.1534 45.7167 18.6252C46.1613 18.1048 46.5424 17.5378 46.8521 16.9398C47.1697 16.3262 47.3364 15.7437 47.3364 15.2155C47.3364 14.633 47.1617 14.1359 46.8203 13.7398C46.4551 13.3204 45.947 13.1107 45.3039 13.1107C44.4464 13.1107 43.6524 13.4369 42.9378 14.0738C42.255 14.7029 41.6834 15.433 41.2467 16.2408C40.7941 17.0641 40.4368 17.9417 40.1828 18.8505C40.0716 19.2388 39.9843 19.6349 39.9128 20.0388L39.7699 20.233C39.5396 20.567 39.2776 20.8932 39.0077 21.1961C38.6345 21.6233 38.2455 22.0272 37.8247 22.4078C37.4436 22.7573 37.0386 23.0835 36.6099 23.3786L36.6178 23.3553C36.729 22.9592 36.7846 22.5553 36.7846 22.1437C36.7846 21.5145 36.6814 20.8932 36.4829 20.2951C36.2923 19.7048 36.0462 19.1378 35.7604 18.5864C35.4825 18.0582 35.1966 17.5223 34.8949 16.9864C34.6409 16.5359 34.4185 16.0854 34.2201 15.6349C34.363 15.2621 34.49 14.866 34.6091 14.4544C34.7441 13.965 34.8155 13.4679 34.8235 12.9631C34.8235 12.7844 34.8076 12.6058 34.7758 12.4272C34.7441 12.233 34.6885 12.0388 34.6091 11.8524C34.5218 11.6349 34.3788 11.4408 34.1962 11.2932C33.9898 11.1223 33.7278 11.0291 33.4578 11.0291C33.0053 11.0291 32.5686 11.2 32.2431 11.5029C31.9414 11.7825 31.6873 12.1087 31.5047 12.4738C31.3221 12.8311 31.1791 13.2116 31.0839 13.6C30.9886 13.9495 30.941 14.3068 30.933 14.6641C30.933 15.1534 31.0124 15.6349 31.1553 16.101C30.7345 17.3437 30.1549 18.532 29.4404 19.6427C29.3689 19.7437 29.3054 19.8524 29.2339 19.9534C28.9957 20.3029 28.7417 20.6446 28.4717 20.9709C28.44 21.0097 28.4082 21.0485 28.3844 21.0874C28.0827 21.4369 27.7413 21.7631 27.384 22.0582C26.9791 22.3845 26.5344 22.6485 26.0501 22.8582C25.5896 23.0602 25.0894 23.1611 24.5892 23.1534C24.0969 23.1534 23.7714 23.0369 23.5888 22.8116C23.3824 22.5476 23.2712 22.1514 23.2712 21.6466C23.2712 21.3825 23.303 21.1184 23.3506 20.8544C23.8032 20.6446 24.2319 20.3806 24.613 20.0621C25.145 19.6272 25.6372 19.1534 26.0819 18.6252C26.5186 18.1048 26.8997 17.5378 27.2172 16.9398C27.5348 16.3262 27.7016 15.7437 27.7016 15.2155C27.7016 14.633 27.5269 14.1359 27.1855 13.7398C26.8203 13.3204 26.3121 13.1107 25.669 13.1107C24.8115 13.1107 24.0096 13.4369 23.303 14.0738C22.6202 14.7029 22.0485 15.433 21.6198 16.2408C21.1672 17.0641 20.802 17.9417 20.5558 18.8427C20.3097 19.7437 20.1827 20.5359 20.1827 21.1883C20.1827 21.6932 20.2383 22.198 20.3653 22.6951C20.4844 23.1767 20.6908 23.6272 20.9846 24.0233C21.2784 24.4194 21.6595 24.7378 22.0961 24.9709C22.5566 25.2194 23.1045 25.3437 23.7397 25.3437C24.5416 25.3437 25.3355 25.2116 26.0898 24.9476C26.8282 24.6835 27.5269 24.334 28.17 23.8912C28.8131 23.4485 29.4007 22.9281 29.9247 22.3456C30.0676 22.1903 30.2026 22.0272 30.3296 21.8718C30.5122 21.6544 30.6869 21.4213 30.8457 21.1883C31.1236 20.7844 31.3856 20.3495 31.6317 19.9068C31.8778 19.4641 32.1081 19.0058 32.2986 18.5553C32.3463 18.4466 32.386 18.3456 32.4336 18.2446C32.4813 18.3378 32.5368 18.4311 32.5845 18.5243C32.8068 18.9514 33.0053 19.3942 33.1879 19.8446C33.3626 20.2874 33.5055 20.7378 33.6246 21.1961C33.7278 21.5922 33.7834 21.9961 33.7913 22.4078C33.7913 22.9825 33.6405 23.4408 33.3387 23.798C33.0529 24.132 32.6321 24.2951 32.0366 24.2951C31.727 24.2951 31.4253 24.2641 31.1236 24.2019C30.8377 24.132 30.5678 24.0155 30.3217 23.8524C30.2264 23.798 30.147 23.7514 30.0755 23.7126C29.9247 23.6349 29.75 23.5961 29.5753 23.5961C29.0116 23.5961 28.6464 23.9456 28.6464 24.4815C28.6464 24.6835 28.694 24.8777 28.7972 25.0485C28.8846 25.1806 28.9799 25.3048 29.099 25.4213C29.5912 25.8718 30.2184 26.1747 30.8854 26.2757C31.4809 26.3845 32.0922 26.4388 32.7036 26.4466C33.6722 26.4544 34.6329 26.3378 35.5619 26.0893C36.4035 25.8641 37.2054 25.5068 37.9358 25.0408C38.6663 24.567 39.3253 24.0078 39.8969 23.3631C39.9763 23.2777 40.0478 23.1922 40.1192 23.1068C40.2383 23.4408 40.4051 23.7592 40.6194 24.0466C40.9132 24.4427 41.2943 24.7611 41.731 24.9942C42.1915 25.2427 42.7393 25.367 43.3745 25.367C44.1764 25.367 44.9704 25.2349 45.7247 24.9709C46.4631 24.7068 47.1617 24.3573 47.8049 23.9145C48.0986 23.7048 48.3845 23.4874 48.6623 23.2544C48.702 23.3942 48.7497 23.534 48.8053 23.6738C48.9482 24.0155 49.1625 24.3262 49.4404 24.5747C49.758 24.8544 50.1709 25.0097 50.5996 25.0019C51.076 25.0019 51.5445 24.8311 52.005 24.5048C52.4258 24.1942 52.8227 23.8524 53.1721 23.4641C53.4817 23.1301 53.7676 22.7806 54.0375 22.4155C54.0852 22.8427 54.1804 23.2699 54.3154 23.6815C54.4663 24.1553 54.7203 24.598 55.0459 24.9786C55.419 25.4058 55.9113 25.6155 56.5226 25.6155C57.1181 25.6078 57.7057 25.4446 58.2138 25.1495C58.7458 24.8544 59.246 24.4971 59.6906 24.0777C60.1431 23.666 60.556 23.2233 60.945 22.7573C61.088 22.5786 61.2309 22.4078 61.3579 22.2446C61.6834 21.9184 61.9693 21.5611 62.2233 21.1728C62.4933 20.7534 62.7394 20.3262 62.9697 19.8835C63.192 19.4408 63.3984 18.9903 63.581 18.5476C63.6922 18.2757 63.7954 18.0116 63.8986 17.7553C64.0892 17.8485 64.2638 17.965 64.4306 18.0971C64.6529 18.2679 64.7799 18.532 64.764 18.8116C64.764 19.2932 64.7402 19.7825 64.7005 20.2563C64.6529 20.7534 64.6291 21.2738 64.6291 21.7864C64.6291 22.1204 64.6449 22.5165 64.6688 22.9514C64.6926 23.4097 64.7799 23.8602 64.9228 24.2951C65.0657 24.7301 65.296 25.1262 65.6056 25.4602C65.955 25.833 66.4393 26.0194 67.0427 26.0194C67.5747 26.0194 68.1622 25.8175 68.7895 25.4291C69.3849 25.0485 69.9407 24.6136 70.4409 24.1243C70.9252 23.666 71.3778 23.1767 71.8065 22.6718C71.9415 23.1068 72.14 23.5184 72.3941 23.899C72.7196 24.3961 73.1563 24.8078 73.6644 25.1262C74.1884 25.4524 74.8236 25.6155 75.5382 25.6155C76.3957 25.6155 77.2452 25.4757 78.0551 25.1961C78.849 24.9243 79.5954 24.5437 80.2782 24.0699C80.699 23.7747 81.096 23.4485 81.4691 23.0912C81.4374 23.4019 81.4215 23.7204 81.4215 24.0311C81.4215 24.1942 81.4295 24.3728 81.4533 24.5747C81.4771 24.8078 81.5327 25.033 81.6279 25.2505C81.7232 25.4602 81.8503 25.6544 82.017 25.8097C82.2393 26.0194 82.5331 26.1359 82.8427 26.1281C83.1365 26.1281 83.4223 26.0427 83.6684 25.8874C83.8828 25.7476 84.0734 25.5689 84.2242 25.367C84.3592 25.1883 84.4783 25.0019 84.5894 24.8078C84.6927 24.6136 84.7879 24.4349 84.8673 24.2641C84.9785 24.0311 85.169 23.6505 85.4469 23.1378C85.7328 22.6019 86.0662 22.0039 86.4394 21.3514C86.8126 20.699 87.2254 20 87.6621 19.301C88.0988 18.6019 88.5275 17.934 88.9245 17.3514C89.25 16.8544 89.6153 16.3883 90.0123 15.9456C90.0916 15.8524 90.179 15.767 90.2743 15.6893V15.9068C90.179 16.8699 90.0837 17.8408 89.9884 18.8039C89.8852 19.7903 89.8296 20.7845 89.8296 21.7786C89.8296 22.0349 89.8376 22.3767 89.8455 22.8039C89.8535 23.2466 89.909 23.6971 90.0123 24.132C90.1075 24.5514 90.2743 24.9553 90.5045 25.3126C90.7903 25.7398 91.235 25.9573 91.7828 25.9573C92.5053 25.9573 93.2437 25.7631 93.9662 25.3747C94.6729 24.9942 95.3239 24.5204 95.9035 23.9767C97.0071 22.9437 97.9361 21.7398 98.6586 20.4194C98.6903 20.3573 98.7221 20.2951 98.7539 20.2408C98.8333 20.101 98.873 19.9378 98.873 19.7747C98.8491 19.5573 98.8015 19.3553 98.7142 19.1689ZM85.7725 10.6485C85.9233 9.71649 86.1139 8.73008 86.3203 7.72037C86.5267 6.71843 86.757 5.79416 87.0031 4.95532C87.1937 4.26406 87.4398 3.5961 87.7415 2.94367C87.805 2.81163 87.8765 2.68736 87.9638 2.57086C87.9797 2.67959 87.9956 2.78833 87.9956 2.89707V3.19222C87.9797 4.09319 87.8685 4.99416 87.6462 5.87183C87.408 6.88154 87.1143 7.91455 86.757 8.93979C86.3997 9.96503 86.0027 10.9747 85.566 11.9301L85.5422 11.9844C85.6137 11.565 85.6851 11.1223 85.7725 10.6485ZM43.9859 17.0097C44.1923 16.5592 44.4384 16.132 44.7163 15.7204C44.891 15.4796 45.026 15.3709 45.1133 15.3476C45.1292 15.3942 45.1371 15.4408 45.1371 15.4951C45.1292 15.8136 45.0418 16.132 44.8831 16.4116C44.5258 17.0874 44.0573 17.701 43.4936 18.2291C43.6365 17.8175 43.8033 17.4058 43.9859 17.0097ZM24.1446 16.901C24.351 16.4505 24.5971 16.0233 24.875 15.6116C25.0418 15.3709 25.1847 15.2621 25.272 15.2388C25.2879 15.2854 25.2958 15.332 25.2958 15.3864C25.2879 15.7048 25.2006 16.0233 25.0418 16.3029C24.6845 16.9786 24.216 17.5922 23.6523 18.1204C23.7952 17.7087 23.962 17.3048 24.1446 16.901Z" fill="#959DB9"/>
<path d="M4.80323 11.3243C4.57298 11.0525 4.23951 10.8816 3.87428 10.8583C3.88222 10.866 3.8981 10.8738 3.90604 10.8893C4.15217 11.1767 4.28715 11.534 4.28715 11.9068C4.28715 12.3806 4.10454 12.8466 3.78695 13.2039C3.46936 13.5923 2.98504 13.8175 2.46896 13.8175C2.42132 13.8175 2.38162 13.8097 2.33398 13.802C2.58805 14.0971 2.96916 14.2602 3.36614 14.2525C3.87428 14.2525 4.35861 14.0272 4.67619 13.6389C5.00172 13.2816 5.17639 12.8233 5.17639 12.3418C5.17639 11.969 5.04936 11.6117 4.80323 11.3243Z" fill="#959DB9"/>
<path d="M1.93758 12.7534C1.94551 12.2873 2.11225 11.8369 2.41396 11.4796C2.7236 11.0757 3.20793 10.8427 3.72401 10.8427C3.77164 10.8427 3.82722 10.8505 3.87486 10.8582C3.61285 10.5631 3.23174 10.4 2.82682 10.4077C2.31074 10.4077 1.82642 10.6407 1.51677 11.0446C1.21506 11.4019 1.04833 11.8524 1.04039 12.3184C1.03245 12.6835 1.15949 13.0407 1.38974 13.3281C1.61999 13.6077 1.96139 13.7864 2.32662 13.8097C2.31074 13.7941 2.29486 13.7864 2.28692 13.7631C2.05667 13.4757 1.92964 13.1184 1.93758 12.7534Z" fill="#959DB9"/>
<path d="M97.2687 0.706767C97.6022 0.893174 97.8642 1.14949 98.0468 1.46793C98.2374 1.79415 98.3327 2.15143 98.3327 2.54754C98.3327 2.94366 98.2374 3.30094 98.0389 3.63492C97.8483 3.96114 97.5784 4.22521 97.2449 4.41162C96.9114 4.59803 96.5462 4.699 96.1413 4.699C95.7364 4.699 95.3711 4.6058 95.0377 4.41162C94.7042 4.22521 94.4422 3.96114 94.2516 3.63492C94.0611 3.30871 93.9658 2.95143 93.9658 2.55531C93.9658 2.16696 94.0611 1.80968 94.2516 1.4757C94.4422 1.14949 94.7042 0.893174 95.0377 0.699C95.3711 0.512592 95.7443 0.411621 96.1492 0.411621C96.5542 0.411621 96.9353 0.520359 97.2687 0.706767ZM97.0782 4.11648C97.3561 3.95337 97.5784 3.73589 97.7372 3.46405C97.896 3.18444 97.9754 2.88152 97.9754 2.54754C97.9754 2.21356 97.896 1.91065 97.7372 1.63881C97.5784 1.36696 97.364 1.14949 97.0861 0.994145C96.8082 0.838806 96.4986 0.761136 96.1492 0.761136C95.7999 0.761136 95.4902 0.838805 95.2123 1.00191C94.9345 1.16502 94.7122 1.37473 94.5534 1.65434C94.3946 1.92618 94.3152 2.2291 94.3152 2.57084C94.3152 2.90482 94.3946 3.20774 94.5534 3.48735C94.7122 3.75919 94.9265 3.97667 95.2044 4.13978C95.4823 4.29512 95.792 4.38055 96.1334 4.38055C96.4906 4.35725 96.8003 4.27958 97.0782 4.11648ZM97.1496 2.64851C97.0623 2.77279 96.9432 2.86599 96.7844 2.93589L97.3243 3.75143H96.7923L96.308 3.0291H96.2366H95.7523V3.75143H95.2203V1.36696H96.2366C96.5542 1.36696 96.8003 1.44463 96.9908 1.5922C97.1735 1.73978 97.2687 1.94172 97.2687 2.19803C97.2767 2.37667 97.237 2.52424 97.1496 2.64851ZM96.2207 2.61745C96.3954 2.61745 96.5303 2.57861 96.6256 2.50871C96.7209 2.43104 96.7685 2.33007 96.7685 2.19803C96.7685 2.06599 96.7209 1.96502 96.6256 1.88735C96.5303 1.81745 96.3954 1.77861 96.2207 1.77861H95.7602V2.61745H96.2207Z" fill="#959DB9"/>
</svg>