<svg width="98" height="30" viewBox="0 0 98 30" fill="none" xmlns="http://www.w3.org/2000/svg">
<path d="M43.9359 8.13111H48.7815L46.2226 3.96038L41.5132 11.4878H39.3717L45.0974 2.46038C45.533 1.83843 46.3769 1.68294 46.9939 2.12196C47.1209 2.21343 47.2298 2.32318 47.3206 2.44209L53.0645 11.497H50.923L49.9158 9.81404H45.0067L43.9359 8.14026M66.1946 9.81404V1.96648H64.3708V10.5915C64.3708 10.8293 64.4706 11.0671 64.643 11.2317C64.8154 11.4146 65.0513 11.5153 65.3054 11.5153H73.5809L74.6608 9.83233H66.1856M36.105 8.41465C37.8745 8.41465 39.2991 6.96952 39.2991 5.19513C39.2991 3.42074 37.8654 1.97562 36.105 1.97562H28.1471V11.5061H29.9619V3.6494H35.9871C36.8309 3.6494 37.5206 4.34452 37.5206 5.19513C37.5206 6.04574 36.8309 6.74087 35.9871 6.74087H30.8602L36.2865 11.497H38.9271L35.2883 8.41465H36.105ZM16.9769 11.497H22.4758C25.0891 11.4329 27.1489 9.23782 27.0763 6.61282C27.0128 4.07928 24.9893 2.03965 22.4758 1.97562H16.9769C14.3635 1.9116 12.1948 3.98782 12.1313 6.61282C12.0678 9.24696 14.1276 11.4329 16.7319 11.497C16.8135 11.497 16.8952 11.497 16.9769 11.497ZM22.3487 9.81404H17.0948C15.4071 9.75916 14.0822 8.33233 14.1367 6.63111C14.1911 5.00306 15.4887 3.69513 17.0948 3.6494H22.3487C24.0365 3.59453 25.4521 4.92989 25.5065 6.63111C25.5609 8.33233 24.2361 9.75916 22.5483 9.81404C22.4758 9.82318 22.4122 9.82318 22.3487 9.81404ZM56.8665 11.497H62.4743L63.5359 9.82318H56.9845C55.2967 9.87806 53.8811 8.5427 53.8267 6.84148C53.7722 5.14026 55.097 3.71343 56.7848 3.65855C56.8483 3.65855 56.9209 3.65855 56.9845 3.65855H62.3109L63.3908 1.97562H56.8574C54.2441 1.9116 52.0754 3.98782 52.0119 6.61282C51.9483 9.23782 54.0082 11.4329 56.6124 11.497C56.7032 11.497 56.7848 11.497 56.8665 11.497ZM79.098 9.81404C77.7278 9.81404 76.5209 8.8994 76.1489 7.57318H83.9163L84.987 5.89026H76.1489C76.5209 4.56404 77.7278 3.64026 79.098 3.6494H84.4335L85.4952 1.96648H78.9709C76.3576 2.0305 74.2978 4.22562 74.3704 6.85062C74.4339 9.38416 76.4574 11.4238 78.9709 11.4878H84.5787L85.6404 9.81404H79.098Z" fill="#959DB9"/>
<path d="M1.5332 28.0153V21.5305H5.9432V22.6281H2.8308V24.1647H5.51672V25.2622H2.8308V28.0153H1.5332Z" fill="#959DB9"/>
<path d="M6.96857 28.0153V21.5305H8.26616V28.0153H6.96857Z" fill="#959DB9"/>
<path d="M9.51839 28.0153V21.5305H10.7797L13.4112 25.8567V21.5305H14.618V28.0153H13.3113L10.7252 23.7805V28.0061H9.51839V28.0153Z" fill="#959DB9"/>
<path d="M21.7956 28.0153H20.3801L19.8175 26.5427H17.2495L16.7141 28.0153H15.3349L17.8393 21.5305H19.2095L21.7956 28.0153ZM19.4091 25.4452L18.5199 23.0397L17.6488 25.4452H19.4091Z" fill="#959DB9"/>
<path d="M22.5029 28.0153V21.5305H23.7642L26.3957 25.8567V21.5305H27.6026V28.0153H26.2959L23.7098 23.7805V28.0061H22.5029V28.0153Z" fill="#959DB9"/>
<path d="M33.0933 25.6281L34.3546 26.0305C34.164 26.7348 33.8373 27.2653 33.3927 27.6037C32.9481 27.9513 32.3764 28.1159 31.6868 28.1159C30.8338 28.1159 30.126 27.8232 29.5816 27.2378C29.0281 26.6525 28.7559 25.8476 28.7559 24.8232C28.7559 23.7439 29.0281 22.9025 29.5816 22.308C30.1351 21.7134 30.861 21.4116 31.7594 21.4116C32.5488 21.4116 33.184 21.6494 33.674 22.1159C33.9644 22.3903 34.1822 22.7927 34.3364 23.3141L33.0479 23.625C32.9753 23.2866 32.812 23.0214 32.576 22.8293C32.331 22.6372 32.0407 22.5366 31.6959 22.5366C31.2149 22.5366 30.8338 22.7104 30.5344 23.058C30.2349 23.4055 30.0897 23.9634 30.0897 24.7317C30.0897 25.5549 30.2349 26.1311 30.5253 26.4787C30.8157 26.8263 31.1968 27 31.6686 27C32.0135 27 32.3129 26.8903 32.5579 26.6708C32.8029 26.4513 32.9844 26.1037 33.0933 25.6281Z" fill="#959DB9"/>
<path d="M35.4249 28.0153V21.5305H36.7225V28.0153H35.4249Z" fill="#959DB9"/>
<path d="M43.7635 28.0153H42.3479L41.7853 26.5427H39.2174L38.682 28.0153H37.3027L39.8072 21.5305H41.1774L43.7635 28.0153ZM41.377 25.4452L40.4877 23.0397L39.6166 25.4452H41.377Z" fill="#959DB9"/>
<path d="M44.4902 28.0153V21.5854H45.7878V26.9269H49.0182V28.0153H44.4902Z" fill="#959DB9"/>
<path d="M51.9492 25.9025L53.2105 25.7744C53.2831 26.2043 53.4374 26.5153 53.6733 26.7165C53.9092 26.9177 54.2177 27.0183 54.617 27.0183C55.0344 27.0183 55.352 26.9269 55.5607 26.7531C55.7694 26.5702 55.8783 26.3689 55.8783 26.1311C55.8783 25.9756 55.8329 25.8476 55.7422 25.7378C55.6514 25.6281 55.4972 25.5366 55.2703 25.4543C55.1161 25.3994 54.7713 25.308 54.2268 25.1708C53.5281 24.997 53.0381 24.7866 52.7568 24.5305C52.3576 24.1738 52.167 23.7348 52.167 23.2226C52.167 22.8933 52.2577 22.5824 52.4483 22.2988C52.6298 22.0153 52.902 21.7958 53.2468 21.6403C53.6007 21.4939 54.0181 21.4116 54.5172 21.4116C55.3248 21.4116 55.9327 21.5945 56.3411 21.9513C56.7494 22.308 56.9672 22.7836 56.9853 23.3781L55.6877 23.433C55.6333 23.1037 55.5153 22.8567 55.3338 22.7104C55.1524 22.5641 54.8801 22.4909 54.5081 22.4909C54.127 22.4909 53.8366 22.5732 53.6189 22.7287C53.4827 22.8293 53.4101 22.9665 53.4101 23.1311C53.4101 23.2866 53.4737 23.4147 53.6007 23.5244C53.764 23.6616 54.1633 23.808 54.7985 23.9543C55.4337 24.1006 55.8964 24.2561 56.1959 24.4208C56.4953 24.5854 56.7313 24.8049 56.9037 25.0793C57.0761 25.3537 57.1577 25.7013 57.1577 26.1128C57.1577 26.4878 57.0579 26.8354 56.8492 27.1555C56.6405 27.4756 56.3592 27.7226 55.9781 27.8781C55.6061 28.0336 55.1342 28.1159 54.5807 28.1159C53.764 28.1159 53.147 27.9238 52.7114 27.5488C52.294 27.183 52.0309 26.625 51.9492 25.9025Z" fill="#959DB9"/>
<path d="M58.2734 28.0153V21.5305H63.0464V22.6281H59.571V24.0641H62.8014V25.1525H59.571V26.9177H63.1643V28.0061H58.2734V28.0153Z" fill="#959DB9"/>
<path d="M64.2714 28.0153V21.5305H67.0027C67.6923 21.5305 68.1914 21.5854 68.4999 21.7043C68.8084 21.8232 69.0625 22.0244 69.2439 22.3263C69.4345 22.6281 69.5252 22.9665 69.5252 23.3506C69.5252 23.8354 69.3801 24.2378 69.0988 24.558C68.8175 24.8781 68.391 25.0793 67.8284 25.1616C68.1097 25.3263 68.3365 25.5092 68.5271 25.7012C68.7086 25.9025 68.9536 26.25 69.2621 26.7531L70.0515 28.0153H68.4999L67.5652 26.6067C67.2295 26.1037 67.0027 25.7836 66.8847 25.6555C66.7667 25.5275 66.6306 25.436 66.4945 25.3903C66.3584 25.3445 66.1406 25.3171 65.8412 25.3171H65.578V28.0244H64.2714V28.0153ZM65.5689 24.2744H66.5308C67.1569 24.2744 67.5471 24.247 67.7014 24.1921C67.8556 24.1372 67.9736 24.0458 68.0643 23.9177C68.1551 23.7897 68.2004 23.625 68.2004 23.433C68.2004 23.2134 68.146 23.0397 68.028 22.9025C67.9101 22.7653 67.7467 22.683 67.538 22.6464C67.4291 22.6281 67.1206 22.6281 66.5943 22.6281H65.578V24.2744H65.5689Z" fill="#959DB9"/>
<path d="M72.2381 28.0153L69.9424 21.5305H71.3489L72.9731 26.3323L74.552 21.5305H75.9313L73.6265 28.0153H72.2381Z" fill="#959DB9"/>
<path d="M76.5488 28.0153V21.5305H77.8464V28.0153H76.5488Z" fill="#959DB9"/>
<path d="M83.1999 25.6281L84.4612 26.0305C84.2706 26.7348 83.9439 27.2653 83.4993 27.6037C83.0547 27.9513 82.483 28.1159 81.7934 28.1159C80.9404 28.1159 80.2326 27.8232 79.6882 27.2378C79.1347 26.6525 78.8625 25.8476 78.8625 24.8232C78.8625 23.7439 79.1347 22.9025 79.6882 22.308C80.2417 21.7134 80.9676 21.4116 81.866 21.4116C82.6554 21.4116 83.2906 21.6494 83.7806 22.1159C84.071 22.3903 84.2888 22.7927 84.443 23.3141L83.1545 23.625C83.0819 23.2866 82.9186 23.0214 82.6826 22.8293C82.4376 22.6372 82.1473 22.5366 81.8025 22.5366C81.3215 22.5366 80.9404 22.7104 80.641 23.058C80.3415 23.4055 80.1963 23.9634 80.1963 24.7317C80.1963 25.5549 80.3415 26.1311 80.6319 26.4787C80.9223 26.8263 81.3034 27 81.7752 27C82.1201 27 82.4195 26.8903 82.6645 26.6708C82.9095 26.4513 83.091 26.1037 83.1999 25.6281Z" fill="#959DB9"/>
<path d="M85.5773 28.0153V21.5305H90.3502V22.6281H86.8749V24.0641H90.1052V25.1525H86.8749V26.9177H90.4682V28.0061H85.5773V28.0153Z" fill="#959DB9"/>
<path d="M91.2395 25.9025L92.5008 25.7744C92.5734 26.2043 92.7276 26.5153 92.9636 26.7165C93.1995 26.9177 93.508 27.0183 93.9073 27.0183C94.3247 27.0183 94.6423 26.9269 94.851 26.7531C95.0597 26.5702 95.1686 26.3689 95.1686 26.1311C95.1686 25.9756 95.1232 25.8476 95.0325 25.7378C94.9417 25.6281 94.7875 25.5366 94.5606 25.4543C94.4063 25.3994 94.0615 25.308 93.5171 25.1708C92.8184 24.997 92.3284 24.7866 92.0471 24.5305C91.6478 24.1738 91.4573 23.7348 91.4573 23.2226C91.4573 22.8933 91.548 22.5824 91.7386 22.2988C91.92 22.0153 92.1923 21.7958 92.5371 21.6403C92.891 21.4939 93.3084 21.4116 93.8075 21.4116C94.6151 21.4116 95.223 21.5945 95.6313 21.9513C96.0397 22.308 96.2575 22.7836 96.2756 23.3781L94.978 23.433C94.9236 23.1037 94.8056 22.8567 94.6241 22.7104C94.4426 22.5641 94.1704 22.4909 93.7984 22.4909C93.4173 22.4909 93.1269 22.5732 92.9091 22.7287C92.773 22.8293 92.7004 22.9665 92.7004 23.1311C92.7004 23.2866 92.7639 23.4147 92.891 23.5244C93.0543 23.6616 93.4536 23.808 94.0888 23.9543C94.7239 24.1006 95.1867 24.2561 95.4862 24.4208C95.7856 24.5854 96.0215 24.8049 96.1939 25.0793C96.3663 25.3537 96.448 25.7013 96.448 26.1128C96.448 26.4878 96.3482 26.8354 96.1395 27.1555C95.9308 27.4756 95.6495 27.7226 95.2684 27.8781C94.8963 28.0336 94.4245 28.1159 93.871 28.1159C93.0543 28.1159 92.4373 27.9238 92.0017 27.5488C91.5843 27.183 91.3212 26.625 91.2395 25.9025Z" fill="#959DB9"/>
<path d="M96.1028 16.3903H1.66895V16.9939H96.1028V16.3903Z" fill="#959DB9"/>
<path d="M87.2923 2.15858C87.7913 2.15858 88.2087 2.57017 88.2087 3.08236C88.2087 3.59456 87.8004 4.00614 87.2923 4.00614C86.7932 4.00614 86.3758 3.59456 86.3758 3.08236C86.3758 2.57017 86.7841 2.15858 87.2923 2.15858ZM87.2923 1.92078C86.6571 1.92078 86.1399 2.44212 86.1399 3.08236C86.1399 3.72261 86.6571 4.2348 87.2923 4.2348C87.9275 4.2348 88.4447 3.71346 88.4447 3.07322C88.4447 2.43297 87.9275 1.92078 87.2923 1.92078Z" fill="#959DB9"/>
<path d="M86.917 3.76465V2.61934H87.4037C87.5261 2.61934 87.6149 2.62975 87.6701 2.65059C87.7259 2.6709 87.7704 2.70736 87.8037 2.75996C87.8371 2.81257 87.8537 2.87272 87.8537 2.94043C87.8537 3.02637 87.8285 3.09746 87.7779 3.15371C87.7274 3.20944 87.6519 3.2446 87.5514 3.25918C87.6014 3.28835 87.6425 3.32038 87.6748 3.35527C87.7076 3.39017 87.7516 3.45215 87.8068 3.54121L87.9467 3.76465H87.6701L87.5029 3.51543C87.4436 3.42637 87.4029 3.37038 87.3811 3.34746C87.3592 3.32402 87.336 3.30814 87.3115 3.2998C87.2871 3.29095 87.2482 3.28652 87.1951 3.28652H87.1482V3.76465H86.917ZM87.1482 3.10371H87.3193C87.4303 3.10371 87.4996 3.09902 87.5272 3.08965C87.5548 3.08027 87.5764 3.06413 87.592 3.04121C87.6076 3.01829 87.6154 2.98965 87.6154 2.95527C87.6154 2.91673 87.605 2.88574 87.5842 2.8623C87.5639 2.83835 87.535 2.82324 87.4975 2.81699C87.4787 2.81439 87.4225 2.81309 87.3287 2.81309H87.1482V3.10371Z" fill="#959DB9"/>
</svg>