<svg width="79" height="28" viewBox="0 0 79 28" fill="none" xmlns="http://www.w3.org/2000/svg">
<path fill-rule="evenodd" clip-rule="evenodd" d="M9.79525 4.99727H15.6123V0.991714H0V4.99727H5.8171V21.0584H9.81401L9.79525 4.99727ZM15.8375 7.38893V15.9834C15.8375 16.6639 15.9313 17.3639 16.1378 18.0056C16.3254 18.6278 16.6256 19.2112 17.0197 19.7167C17.4325 20.2417 17.958 20.65 18.5397 20.9223C19.2152 21.2334 19.947 21.3695 20.6789 21.3695C22.2551 21.3695 23.4936 20.7084 24.3568 19.3862H24.3943V21.0778H28.2036V7.38893H24.3568V15.0112C24.3755 15.6917 24.1691 16.3723 23.7563 16.8973C23.3435 17.3834 22.7618 17.6362 21.9924 17.6362C21.223 17.6362 20.6413 17.4028 20.266 16.9167C19.8907 16.45 19.7031 15.8084 19.7031 15.0112V7.38893H15.8375ZM38.8995 7.23338C38.2052 7.23338 37.5109 7.40838 36.8917 7.75838C36.2724 8.12782 35.7658 8.69171 35.4655 9.39171H35.428V7.38893H31.7689V21.0778H35.5406V15.0695C35.5406 13.825 35.8221 12.8723 36.4038 12.1917C36.9667 11.5112 37.7361 11.1806 38.6931 11.1806C39.1059 11.1806 39.5188 11.2 39.9316 11.2778V7.35005C39.6126 7.27227 39.2561 7.23338 38.8995 7.23338ZM44.1537 5.07505C44.4727 5.07505 44.7917 5.01671 45.0919 4.90004C45.3922 4.78338 45.6549 4.58893 45.88 4.3556C46.1052 4.12227 46.2741 3.85005 46.4055 3.55838C46.518 3.24727 46.5931 2.93616 46.5931 2.6056C46.5931 2.27504 46.5368 1.96393 46.4055 1.65282C46.2929 1.34171 46.1052 1.06949 45.88 0.8556C45.6549 0.622267 45.3922 0.427825 45.0919 0.311158C44.7917 0.194492 44.4727 0.116712 44.1537 0.136156C43.8347 0.136156 43.5344 0.19449 43.253 0.330601C42.9715 0.447268 42.7088 0.641713 42.4836 0.875046C42.0332 1.34171 41.7893 1.96393 41.7893 2.62505C41.7893 3.28616 42.0332 3.90838 42.4836 4.37505C42.69 4.60838 42.9527 4.78338 43.253 4.91949C43.5344 5.01671 43.8534 5.07505 44.1537 5.07505ZM46.124 7.38893V21.0778H42.2584V7.38893H46.124ZM62.0741 21.0584V12.5417C62.0741 11.8417 61.9803 11.1612 61.7926 10.5C61.605 9.87782 61.3235 9.29449 60.9482 8.76949C60.5541 8.24449 60.0475 7.81671 59.447 7.54449C58.7715 7.23338 58.0397 7.07782 57.2891 7.09727C57.0639 7.09727 56.8387 7.11671 56.6135 7.17504C56.2758 7.23338 55.9568 7.3306 55.6378 7.42782C55.2249 7.56393 54.8309 7.77782 54.4743 8.06949C54.099 8.36116 53.78 8.7306 53.5549 9.15838H53.5173V7.38893H49.6893V21.0778H53.5361V13.475C53.5173 12.7945 53.7237 12.1139 54.1366 11.5889C54.5494 11.0834 55.1311 10.8306 55.9005 10.8306C56.6698 10.8306 57.2515 11.0639 57.6268 11.55C58.0021 12.0362 58.2085 12.6778 58.2085 13.475V21.0778L62.0741 21.0584ZM74.9843 7.38893V9.04171H74.928C74.6278 8.65282 74.2712 8.32227 73.8772 8.05004C73.5207 7.79727 73.1266 7.60282 72.7325 7.46671C72.4135 7.36949 72.0945 7.29171 71.7568 7.23338C71.494 7.19449 71.2313 7.17504 70.9499 7.17504C70.0492 7.17504 69.1672 7.36949 68.3791 7.77782C67.6097 8.14727 66.9342 8.69171 66.39 9.37227C65.8646 10.0334 65.433 10.7917 65.1515 11.6084C64.8513 12.425 64.7012 13.3 64.7012 14.175C64.6824 15.3806 64.9639 16.5862 65.4893 17.675C65.9959 18.7056 66.7841 19.5806 67.7411 20.1834C68.7356 20.8056 69.899 21.1362 71.0625 21.1167C72.695 21.1167 73.971 20.5139 74.8717 19.2889H74.928V20.8445C74.9468 21.4084 74.8342 21.9528 74.6465 22.4778C74.4777 22.925 74.1962 23.3139 73.8584 23.6056C73.5207 23.8973 73.1454 24.1112 72.7325 24.2473C72.3009 24.3834 71.8506 24.4612 71.4002 24.4612C70.5558 24.4612 69.8615 24.2084 69.3361 23.7223C68.8294 23.2556 68.4729 22.6139 68.3603 21.9334L64.795 23.0028C64.9076 23.6639 65.1515 24.2862 65.5081 24.8306C66.315 26.1139 67.5347 27.0667 68.942 27.5139C69.7865 27.7862 70.6872 27.9417 71.5691 27.9223C72.5449 27.9417 73.5394 27.7667 74.4589 27.4362C75.3033 27.125 76.0914 26.6584 76.7482 26.0362C77.4237 25.375 77.9492 24.5584 78.2682 23.6639C78.6435 22.6139 78.8311 21.4862 78.8123 20.3778V7.38893H74.9843ZM74.1024 16.625C73.4831 17.2473 72.6762 17.5778 71.813 17.5778C70.9499 17.5778 70.143 17.2278 69.5237 16.625C68.9045 15.9834 68.6043 15.1667 68.6043 14.1556C68.5855 13.7084 68.6606 13.2417 68.8294 12.8334C68.9983 12.425 69.2235 12.0167 69.5425 11.7056C70.1618 11.0834 70.9686 10.7334 71.8318 10.7334C72.695 10.7334 73.5019 11.0834 74.1211 11.7056C74.4214 12.0362 74.6653 12.4056 74.8342 12.8334C75.0031 13.2612 75.0594 13.7084 75.0594 14.1556C75.0406 15.1473 74.7404 15.9834 74.1024 16.625Z" fill="#959DB9"/>
</svg>