<svg width="122" height="24" viewBox="0 0 122 24" fill="none" xmlns="http://www.w3.org/2000/svg">
<g clip-path="url(#clip0_1_3486)">
<path d="M11.0319 0.000425009L5.70947 9.2305C5.26815 9.97398 4.33254 10.2097 3.61759 9.75638C3.40576 9.62944 3.22922 9.4481 3.10565 9.2305L0.395916 4.52479C-0.416123 3.08316 0.0605082 1.24259 1.46392 0.408434C1.93173 0.127361 2.46132 -0.00864186 2.99974 0.000425009H11.0319Z" fill="#959DB9"/>
<path d="M4.41197 11.4881L10.2375 21.5886C11.1113 23.0665 12.9913 23.538 14.4301 22.6404C14.8449 22.3774 15.198 22.0147 15.4539 21.5886L25.2867 4.52475C26.0987 3.08312 25.6132 1.24255 24.2098 0.408394C23.742 0.136388 23.2124 -0.00868174 22.674 0.00945199H12.8589L6.83044 10.4545C6.30967 11.3884 5.14457 11.7148 4.23544 11.1798L4.41197 11.4881Z" fill="#959DB9"/>
<path d="M28.3106 7.516H29.9347C30.0936 7.50693 30.2525 7.56133 30.376 7.652C30.4908 7.74267 30.579 7.8696 30.632 8.00561L34.8687 18.8768C34.9746 19.1397 35.0629 19.4027 35.1335 19.6747C35.213 19.9648 35.2924 20.2549 35.3718 20.5632C35.4336 20.2549 35.5042 19.9557 35.5748 19.6747C35.6455 19.4027 35.7249 19.1397 35.8308 18.8768L40.0499 8.00561C40.1028 7.8696 40.1911 7.7608 40.3058 7.67013C40.4294 7.56133 40.5883 7.50693 40.7472 7.516H42.3801L36.2545 22.9206H34.4186L28.3106 7.516Z" fill="#959DB9"/>
<path d="M50.5714 22.9206H49.7417C49.5916 22.9297 49.4416 22.8934 49.3003 22.8299C49.1768 22.7483 49.0973 22.6214 49.0797 22.4673L48.8678 21.4518C48.5854 21.7057 48.3206 21.9414 48.0558 22.1499C47.791 22.3494 47.5174 22.5217 47.2173 22.6667C46.9172 22.8118 46.5994 22.9115 46.2817 22.9841C45.9198 23.0566 45.5491 23.0929 45.1784 23.0929C44.79 23.0929 44.3928 23.0294 44.0221 22.9115C43.6779 22.8027 43.3601 22.6214 43.0865 22.3766C42.8129 22.1318 42.601 21.8235 42.451 21.479C42.2833 21.071 42.2038 20.6358 42.2127 20.1915C42.2127 19.7472 42.3362 19.3211 42.5569 18.9493C42.8305 18.505 43.2189 18.1333 43.669 17.8885C44.3045 17.5349 44.9753 17.281 45.6815 17.1269C46.6789 16.9093 47.7027 16.8095 48.7266 16.8277V15.9663C48.7707 15.2772 48.5854 14.5972 48.197 14.0351C47.7998 13.5817 47.2261 13.3369 46.6347 13.3823C46.2464 13.3732 45.858 13.4367 45.4873 13.5636C45.2048 13.6633 44.94 13.7993 44.6841 13.9625C44.4546 14.1076 44.2604 14.2436 44.1015 14.3615C43.9603 14.4703 43.7926 14.5338 43.6161 14.5428C43.5013 14.5428 43.3866 14.5066 43.2895 14.4431C43.2012 14.3796 43.1218 14.289 43.06 14.1892L42.7246 13.5727C43.2718 13.0196 43.9162 12.5753 44.6223 12.2761C45.3372 11.986 46.1051 11.8318 46.873 11.8409C47.4115 11.8318 47.9499 11.9316 48.453 12.1401C48.8943 12.3305 49.2915 12.6116 49.6181 12.9833C49.9447 13.3641 50.183 13.7993 50.333 14.2799C50.5007 14.8239 50.5802 15.386 50.5714 15.9573V22.9206ZM45.7344 21.751C46.0345 21.751 46.3435 21.7238 46.6347 21.6512C46.8995 21.5878 47.1555 21.488 47.4026 21.3611C47.6498 21.2342 47.8793 21.08 48.0911 20.9078C48.3206 20.7174 48.5324 20.5179 48.7354 20.2912V18.0426C48.0028 18.0336 47.2702 18.088 46.5465 18.2058C46.0434 18.2874 45.5491 18.4325 45.0813 18.6411C44.7635 18.7771 44.4811 18.9947 44.2604 19.2757C44.0927 19.5115 44.0044 19.8016 44.0044 20.1008C43.9956 20.3547 44.0486 20.6086 44.1368 20.8443C44.2163 21.0438 44.3487 21.216 44.5075 21.3611C44.6664 21.4971 44.8518 21.5968 45.0548 21.6512C45.2755 21.7147 45.5049 21.751 45.7344 21.751Z" fill="#959DB9"/>
<path d="M55.4698 7.08081V22.9206H53.6074V7.08081H55.4698Z" fill="#959DB9"/>
<path d="M60.3685 12.0314V18.9766C60.3244 19.6657 60.5185 20.3366 60.9246 20.8897C61.3571 21.3702 61.9749 21.6151 62.6016 21.5697C63.14 21.5697 63.6696 21.4337 64.1374 21.1708C64.6405 20.8897 65.0907 20.5089 65.4702 20.0646V12.0314H67.3326V22.9207H66.2205C65.9822 22.9388 65.7615 22.7665 65.7174 22.5217L65.5673 21.3521C65.126 21.8599 64.5964 22.286 64.0138 22.6124C63.4048 22.9388 62.734 23.102 62.0455 23.093C61.5159 23.102 60.9952 23.0023 60.5097 22.7937C60.0772 22.6033 59.6977 22.3223 59.3976 21.9596C59.0887 21.5788 58.8592 21.1345 58.7179 20.663C58.5591 20.119 58.4884 19.5478 58.4884 18.9766V12.0314H60.3685Z" fill="#959DB9"/>
<path d="M74.588 11.8591C75.1882 11.85 75.7884 11.9679 76.3445 12.1855C76.8653 12.394 77.3419 12.7204 77.7391 13.1284C78.1451 13.5636 78.454 14.0895 78.657 14.6517C78.8865 15.3135 79.0013 16.0208 78.9836 16.7189C79.0013 16.9274 78.966 17.1269 78.8865 17.3173C78.7983 17.4261 78.6659 17.4805 78.5335 17.4715H71.4811C71.4811 18.0789 71.5782 18.6864 71.7547 19.2667C71.8959 19.7382 72.1342 20.1643 72.4432 20.5361C72.7256 20.8715 73.0875 21.1345 73.4935 21.2977C73.926 21.4699 74.385 21.5606 74.8528 21.5515C75.2588 21.5606 75.6648 21.5062 76.062 21.3883C76.3621 21.2886 76.6534 21.1707 76.9359 21.0257C77.1477 20.9169 77.3507 20.799 77.5449 20.663C77.6685 20.5633 77.8185 20.5089 77.9686 20.4998C78.1098 20.4907 78.2422 20.5633 78.3216 20.6811L78.8424 21.3793C78.6041 21.6694 78.3305 21.9233 78.0127 22.1228C77.6861 22.3313 77.3419 22.5126 76.98 22.6396C76.6093 22.7756 76.2297 22.8753 75.8414 22.9478C75.4618 23.0113 75.0646 23.0476 74.6763 23.0476C73.9878 23.0566 73.2993 22.9297 72.655 22.6668C72.046 22.422 71.4987 22.0412 71.0574 21.5515C70.5896 21.0257 70.2277 20.4091 70.0071 19.7291C69.7423 18.9222 69.6187 18.0789 69.6275 17.2357C69.6187 16.5104 69.7334 15.7941 69.9718 15.105C70.1836 14.4703 70.519 13.89 70.9515 13.3914C71.384 12.9018 71.9136 12.5209 72.5138 12.258C73.1758 11.986 73.8819 11.8409 74.588 11.8591ZM74.6321 13.2644C73.8466 13.2191 73.0787 13.5092 72.505 14.0623C71.9577 14.6698 71.6135 15.4495 71.5429 16.2837H77.3066C77.3154 15.8666 77.2536 15.4586 77.13 15.0597C77.0241 14.7061 76.8388 14.3797 76.6093 14.0986C76.3798 13.8266 76.0885 13.618 75.7708 13.473C75.4089 13.3279 75.0205 13.2554 74.6321 13.2644Z" fill="#959DB9"/>
<path d="M83.6881 21.1707H90.1756V22.9206H81.658V7.51599H83.6881V21.1707Z" fill="#959DB9"/>
<path d="M99.9112 22.9206H99.0816C98.9315 22.9297 98.7815 22.8934 98.6402 22.8299C98.5167 22.7483 98.4372 22.6214 98.4196 22.4673L98.2077 21.4518C97.9253 21.7057 97.6517 21.9414 97.3869 22.1499C97.1221 22.3494 96.8485 22.5217 96.5484 22.6667C96.2483 22.8118 95.9305 22.9115 95.6127 22.9841C95.2509 23.0566 94.8801 23.0929 94.5094 23.0929C94.1211 23.0929 93.7239 23.0294 93.3532 22.9115C93.0089 22.8027 92.6912 22.6214 92.4175 22.3766C92.1439 22.1318 91.9321 21.8235 91.782 21.479C91.6143 21.071 91.5349 20.6358 91.5437 20.1915C91.5437 19.7472 91.6673 19.3211 91.888 18.9493C92.1616 18.505 92.5499 18.1333 93.0001 17.8885C93.6268 17.5349 94.3064 17.281 95.0125 17.1269C96.0099 16.9093 97.0338 16.8095 98.0577 16.8277V15.9663C98.1018 15.2772 97.9165 14.5972 97.5281 14.0351C97.1309 13.5817 96.5572 13.3369 95.9658 13.3823C95.5774 13.3732 95.1891 13.4367 94.8184 13.5636C94.5359 13.6633 94.2711 13.7993 94.0151 13.9625C93.7857 14.1076 93.5915 14.2436 93.4238 14.3615C93.2825 14.4703 93.1148 14.5338 92.9383 14.5428C92.8236 14.5428 92.7088 14.5066 92.6117 14.4431C92.5235 14.3796 92.444 14.289 92.3822 14.1892L92.0468 13.5727C92.5941 13.0196 93.2384 12.5753 93.9445 12.2761C94.6595 11.986 95.4274 11.8318 96.1953 11.8409C96.7337 11.8318 97.2721 11.9316 97.7752 12.1401C98.2166 12.3305 98.6138 12.6116 98.9403 12.9833C99.2669 13.3641 99.5052 13.7993 99.6553 14.2799C99.823 14.8239 99.9024 15.386 99.8936 15.9573L99.9112 22.9206ZM95.0743 21.751C95.3744 21.751 95.6834 21.7238 95.9746 21.6512C96.2394 21.5878 96.4954 21.488 96.7425 21.3611C96.9897 21.2342 97.2192 21.08 97.431 20.9078C97.6605 20.7174 97.8723 20.5179 98.0753 20.2912V18.0426C97.3427 18.0336 96.6101 18.088 95.8864 18.2058C95.3833 18.2874 94.889 18.4325 94.4212 18.6411C94.0946 18.7771 93.8121 18.9947 93.6003 19.2757C93.4326 19.5115 93.3443 19.8016 93.3443 20.1008C93.3355 20.3547 93.3885 20.6086 93.4767 20.8443C93.5562 21.0438 93.6886 21.216 93.8474 21.3611C94.0063 21.4971 94.1917 21.5968 94.3947 21.6512C94.6153 21.7147 94.8448 21.751 95.0743 21.751Z" fill="#959DB9"/>
<path d="M102.798 22.9206V7.08081H104.669V13.5999C105.093 13.0921 105.605 12.6569 106.178 12.3396C106.779 12.0132 107.449 11.85 108.129 11.8591C108.703 11.85 109.268 11.9679 109.797 12.2127C110.3 12.4575 110.733 12.8201 111.06 13.2735C111.43 13.7994 111.704 14.3887 111.863 15.0143C112.066 15.7941 112.154 16.601 112.145 17.408C112.154 18.1696 112.048 18.9221 111.827 19.6475C111.642 20.3003 111.333 20.9078 110.918 21.4427C110.106 22.4945 108.862 23.102 107.555 23.0748C106.946 23.0929 106.346 22.9569 105.808 22.6668C105.313 22.3857 104.89 21.9958 104.554 21.5243L104.457 22.5126C104.431 22.7574 104.219 22.9388 103.972 22.9206H102.798ZM107.529 13.3823C106.964 13.3732 106.417 13.5183 105.931 13.8084C105.437 14.1258 105.013 14.5428 104.669 15.0234V20.2912C104.952 20.7174 105.331 21.0619 105.781 21.2886C106.214 21.4881 106.673 21.5878 107.149 21.5787C108.041 21.6241 108.897 21.2161 109.427 20.4907C110.009 19.575 110.292 18.4869 110.221 17.3989C110.23 16.7824 110.168 16.1749 110.036 15.5674C109.939 15.1231 109.762 14.697 109.506 14.3162C109.294 14.0079 108.994 13.754 108.659 13.5999C108.306 13.4548 107.917 13.3732 107.529 13.3823Z" fill="#959DB9"/>
<path d="M120.512 13.8265C120.441 13.9807 120.291 14.0713 120.124 14.0623C120 14.0532 119.876 14.0169 119.771 13.9444C119.638 13.8628 119.479 13.7812 119.285 13.6815C119.064 13.5727 118.835 13.482 118.597 13.4095C118.288 13.3188 117.97 13.2825 117.652 13.2825C117.361 13.2825 117.078 13.3188 116.805 13.4095C116.575 13.482 116.355 13.5999 116.161 13.7449C115.993 13.8809 115.852 14.0532 115.754 14.2436C115.657 14.434 115.613 14.6516 115.613 14.8602C115.604 15.114 115.693 15.3679 115.852 15.5583C116.028 15.7578 116.24 15.921 116.478 16.0388C116.761 16.1839 117.061 16.3108 117.361 16.4015C117.687 16.5013 118.023 16.6191 118.367 16.737C118.711 16.8549 119.047 16.9818 119.373 17.1269C119.691 17.2629 119.991 17.4442 120.256 17.6618C120.512 17.8794 120.724 18.1514 120.883 18.4506C121.05 18.8042 121.13 19.185 121.121 19.5749C121.121 20.0555 121.033 20.5269 120.856 20.9712C120.68 21.3974 120.415 21.7782 120.079 22.0774C119.709 22.4038 119.285 22.6577 118.826 22.8118C118.27 23.0022 117.696 23.0929 117.105 23.0838C116.416 23.0929 115.737 22.9659 115.092 22.7121C114.536 22.4854 114.016 22.168 113.566 21.76L114.007 21.0256C114.06 20.935 114.122 20.8624 114.21 20.808C114.298 20.7536 114.404 20.7264 114.519 20.7355C114.66 20.7445 114.801 20.7989 114.916 20.8896C115.057 20.9894 115.225 21.0982 115.428 21.2251C115.657 21.3611 115.896 21.4699 116.152 21.5606C116.496 21.6694 116.849 21.7238 117.211 21.7147C117.537 21.7238 117.855 21.6694 118.164 21.5696C118.411 21.488 118.641 21.352 118.844 21.1798C119.02 21.0256 119.153 20.8261 119.25 20.6085C119.338 20.3909 119.382 20.1552 119.382 19.9195C119.391 19.6475 119.312 19.3845 119.144 19.176C118.967 18.9674 118.755 18.7952 118.517 18.6682C118.235 18.5232 117.943 18.3962 117.635 18.3056C117.299 18.1968 116.964 18.088 116.619 17.9792C116.275 17.8613 115.94 17.7343 115.604 17.5893C115.287 17.4533 114.987 17.2629 114.722 17.0362C114.457 16.8095 114.245 16.5285 114.095 16.2111C113.927 15.8394 113.848 15.4314 113.857 15.0234C113.857 14.6063 113.945 14.1983 114.113 13.8265C114.28 13.4367 114.536 13.0921 114.845 12.811C115.19 12.5028 115.596 12.267 116.028 12.122C116.54 11.9406 117.087 11.85 117.626 11.859C118.27 11.85 118.906 11.9678 119.506 12.1945C120.035 12.403 120.53 12.7204 120.944 13.1284L120.512 13.8265Z" fill="#959DB9"/>
</g>
<defs>
<clipPath id="clip0_1_3486">
<rect width="122" height="24" fill="white"/>
</clipPath>
</defs>
</svg>