<svg width="46" height="46" viewBox="0 0 46 46" fill="none" xmlns="http://www.w3.org/2000/svg">
<circle cx="23" cy="23" r="19" fill="#3972E6"/>
<path d="M22.0417 32.6792C22.0417 32.5833 21.9458 32.5833 21.9458 32.5833C21.85 32.5833 21.85 32.4875 21.7542 32.4875C20.7958 32.3917 19.8375 32.0083 18.8792 31.625L18.7833 31.5292V31.4334V30.3792C18.7833 29.9959 18.8792 29.7083 18.975 29.325C19.1667 29.0375 19.3583 28.75 19.6458 28.4625C20.2208 27.9834 20.6042 27.4083 20.8917 26.7375C20.9875 26.45 21.0833 26.1625 21.1792 25.7792C21.1792 25.5875 21.275 25.3 21.275 25.1084C21.275 23.9584 20.7958 22.9042 20.0292 22.0417C19.2625 21.275 18.1125 20.7959 16.9625 20.7959H14.1833H14.0875C14.0875 20.7959 13.9917 20.7959 13.9917 20.7V20.6042V20.5083C14.375 19.0708 15.0458 17.825 16.0042 16.675C16.9625 15.525 18.1125 14.6625 19.55 14.0875C20.8917 13.5125 22.3292 13.225 23.7667 13.3208C25.2042 13.4167 26.6417 13.8 27.8875 14.5667L27.9833 14.6625C27.9833 14.7584 27.9833 14.7583 27.9833 14.8542C27.9833 14.95 27.9833 14.95 27.8875 14.95C27.8875 14.95 27.7917 15.0459 27.6958 15.0459H25.3C24.6292 15.0459 23.9583 15.3333 23.4792 15.8125C23 16.2917 22.7125 16.9625 22.7125 17.6333C22.7125 18.3042 23 18.975 23.4792 19.4542C23.9583 19.9334 24.6292 20.2209 25.3 20.2209C25.7792 20.2209 26.2583 20.3167 26.6417 20.6042H26.7375H26.8333C28.175 20.3167 29.5167 20.4125 30.8583 20.7959C32.2 21.1792 33.35 21.9458 34.2125 23C34.2125 23 34.3083 23.0959 34.4042 23.0959C34.5 23.0959 34.5 23.0959 34.5958 23.0959C34.6917 23.0959 34.6917 23 34.6917 23C34.6917 22.9042 34.7875 22.9042 34.7875 22.8084C34.7875 20.7 34.2125 18.6875 33.1583 16.8667C32.1042 15.0458 30.5708 13.6084 28.75 12.65C26.9292 11.6917 24.8208 11.2125 22.8083 11.3084C20.7958 11.4042 18.6875 12.075 16.9625 13.225C15.2375 14.375 13.8 16.0042 12.9375 17.825C12.075 19.7417 11.6917 21.7542 11.8833 23.8625C12.075 25.9708 12.8417 27.8875 14.0875 29.6125C15.3333 31.2417 16.9625 32.5833 18.8792 33.4458L19.0708 33.5417C20.4125 34.1167 21.9458 34.4042 23.3833 34.4042C23.4792 34.4042 23.4792 34.4042 23.575 34.3084C23.6708 34.3084 23.6708 34.2125 23.6708 34.2125C23.6708 34.1167 23.6708 34.1167 23.6708 34.0208C23.6708 33.925 23.6708 33.925 23.575 33.8292C22.7125 33.6375 22.3292 33.1583 22.0417 32.6792Z" fill="white"/>
<path d="M32.6792 23.8625C31.5292 22.7125 29.9 22.0417 28.2708 22.0417C27.025 22.0417 25.875 22.425 24.8208 23.0959C23.7667 23.7667 23 24.725 22.5208 25.875C22.0417 27.025 21.9458 28.2709 22.1375 29.5167C22.425 30.7625 23 31.8167 23.8625 32.6792C24.725 33.5417 25.875 34.1167 27.025 34.4042C28.2708 34.6917 29.5167 34.5 30.6667 34.0209C31.8167 33.5417 32.775 32.775 33.4458 31.7209C34.1167 30.6667 34.5 29.5167 34.5 28.2709C34.5 26.6417 33.8292 25.0125 32.6792 23.8625ZM26.8333 26.3542C26.8333 25.5875 27.5042 24.9167 28.2708 24.9167C29.0375 24.9167 29.7083 25.5875 29.7083 26.3542V27.3125C29.7083 28.0792 29.0375 28.75 28.2708 28.75C27.5042 28.75 26.8333 28.0792 26.8333 27.3125V26.3542ZM31.3375 31.625H25.1083C25.0125 31.625 24.8208 31.5292 24.8208 31.3375C24.8208 30.475 25.3 29.8042 26.1625 29.5167L27.2167 29.1333H27.3125H29.2292H29.325L30.3792 29.5167C31.1458 29.8042 31.7208 30.475 31.7208 31.3375C31.625 31.5292 31.5292 31.625 31.3375 31.625Z" fill="white"/>
</svg>
