<svg width="42" height="42" viewBox="0 0 42 42" fill="none" xmlns="http://www.w3.org/2000/svg">
<circle cx="21" cy="21" r="21" fill="#DA72D4"/>
<g clip-path="url(#clip0_4_10351)">
<path d="M27.6734 25.2081C26.3536 25.2692 25.0765 25.1112 23.8754 24.7651C23.5003 24.663 23.0925 24.7688 22.8104 25.0751L20.598 27.5668C17.5376 26.1448 14.972 23.7552 13.3094 20.759L15.5213 18.2565C15.8034 17.9502 15.8683 17.5237 15.7346 17.1498C15.2876 15.9542 15.0162 14.6636 14.9534 13.3091C14.9258 12.7131 14.428 12.2475 13.8473 12.2744L10.1518 12.4457C9.57108 12.4726 9.11854 12.9823 9.14617 13.5783C9.61778 23.7536 18.0351 31.6276 27.9497 31.168C28.5304 31.1411 28.9829 30.6315 28.9553 30.0355L28.7795 26.2428C28.7519 25.6468 28.2541 25.1812 27.6734 25.2081ZM18.5987 12.0542L19.101 22.8905L22.1179 19.4928L28.453 19.1992L28.1015 11.6137L18.5987 12.0542Z" fill="white"/>
</g>
<defs>
<clipPath id="clip0_4_10351">
<rect width="24" height="24" fill="white" transform="translate(9 9)"/>
</clipPath>
</defs>
</svg>
