<svg width="42" height="42" viewBox="0 0 42 42" fill="none" xmlns="http://www.w3.org/2000/svg">
<circle cx="21" cy="21" r="21" fill="#D11C3D"/>
<path d="M20.296 32.584C19.976 32.52 19.592 32.456 19.272 32.328C17.608 31.752 16.648 30.6 16.264 28.936C16.2 28.552 16.136 28.168 16.136 27.72C16.136 27.272 16.456 26.952 16.84 26.952C17.288 26.952 17.608 27.272 17.608 27.72C17.608 28.488 17.736 29.192 18.184 29.768C18.76 30.6 19.528 31.048 20.488 31.112C21.96 31.176 23.048 30.536 23.624 29.192C23.816 28.68 24.008 28.168 24.136 27.592C24.456 25.992 25.288 24.776 26.504 23.752C27.08 23.24 27.72 22.792 28.296 22.28C29.576 21.256 30.152 19.912 30.344 18.312C30.408 17.288 30.408 16.328 30.152 15.368C29.704 13.768 28.744 12.552 27.272 11.784C24.904 10.568 22.536 10.568 20.168 11.784C18.376 12.68 17.352 14.216 17.032 16.2C16.968 16.648 16.968 17.096 16.904 17.48C16.84 17.864 16.52 18.12 16.136 18.12C15.752 18.12 15.432 17.8 15.432 17.416C15.432 14.984 16.264 12.808 18.184 11.272C20.104 9.73598 22.344 9.22398 24.776 9.47998C26.248 9.67198 27.656 10.184 28.872 11.08C30.344 12.168 31.24 13.64 31.624 15.496C31.944 17.16 31.88 18.824 31.368 20.424C30.984 21.576 30.344 22.536 29.384 23.368C28.744 23.944 28.04 24.456 27.4 24.968C26.632 25.544 26.056 26.248 25.736 27.208C25.544 27.784 25.48 28.296 25.288 28.872C24.904 30.088 24.328 31.112 23.304 31.88C22.728 32.264 22.088 32.52 21.384 32.648C21.32 32.648 21.256 32.648 21.192 32.712C21 32.584 20.68 32.584 20.296 32.584Z" fill="white"/>
<path d="M19.976 17.7359C20.36 17.6719 20.744 17.5439 21.064 17.4799C22.024 17.3519 22.792 17.6079 23.304 18.4399C23.88 19.2719 23.816 20.1679 23.24 20.9999C22.728 21.8959 21.896 22.4719 21.064 22.9839C20.808 23.1759 20.488 23.3039 20.168 23.4959C19.72 23.7519 19.272 23.6239 19.08 23.2399C18.888 22.8559 19.08 22.4719 19.528 22.2159C20.296 21.8319 21.064 21.3199 21.704 20.6799C21.896 20.4879 22.088 20.2319 22.152 19.9759C22.344 19.4639 21.96 18.9519 21.384 19.0159C20.872 19.0159 20.36 19.2719 19.912 19.5279C19.784 19.5919 19.656 19.7199 19.464 19.7839C19.016 19.9759 18.504 19.7839 18.44 19.2719C18.44 19.2079 18.44 19.2079 18.44 19.1439C18.44 18.3119 18.44 17.4799 18.504 16.5839C18.696 15.0479 19.528 13.8959 20.872 13.1919C22.792 12.1679 24.712 12.2319 26.568 13.3839C27.72 14.1519 28.424 15.2399 28.616 16.5839C28.68 16.8399 28.68 17.0959 28.68 17.4159C28.68 17.8639 28.424 18.1839 27.976 18.1839C27.528 18.1839 27.208 17.9279 27.208 17.4799C27.208 16.7759 27.08 16.1359 26.696 15.4959C26.12 14.5999 25.288 14.1519 24.264 14.0239C23.112 13.8319 22.024 14.0879 21.128 14.8559C20.36 15.4959 20.04 16.2639 19.976 17.2239C19.976 17.2879 19.976 17.5439 19.976 17.7359Z" fill="white"/>
<path d="M15.88 22.984C15.88 24.968 15.048 27.016 13.384 28.68C13.064 29 12.616 29 12.36 28.744C12.04 28.488 12.04 28.04 12.36 27.72C12.936 27.144 13.384 26.504 13.768 25.8C14.536 24.2 14.664 22.536 14.216 20.872C13.96 19.784 13.384 18.824 12.68 17.928C12.552 17.8 12.488 17.736 12.36 17.608C12.04 17.224 12.04 16.776 12.36 16.52C12.68 16.264 13.128 16.264 13.384 16.584C14.152 17.416 14.792 18.312 15.24 19.4C15.688 20.36 15.88 21.512 15.88 22.984Z" fill="white"/>
<path d="M12.872 22.6C12.872 23.944 12.36 25.16 11.4 26.12C11.08 26.44 10.632 26.504 10.312 26.184C9.992 25.864 9.992 25.48 10.312 25.096C10.76 24.584 11.144 24.008 11.272 23.304C11.528 22.152 11.272 21.064 10.504 20.168C10.44 20.104 10.376 19.976 10.248 19.912C9.992 19.592 9.992 19.144 10.312 18.888C10.632 18.632 11.08 18.632 11.336 18.952C11.784 19.4 12.168 19.976 12.424 20.552C12.744 21.256 12.872 21.96 12.872 22.6Z" fill="white"/>
</svg>
