<svg width="42" height="42" viewBox="0 0 42 42" fill="none" xmlns="http://www.w3.org/2000/svg">
<circle cx="21" cy="21" r="21" fill="#7C98F9"/>
<g clip-path="url(#clip0_2_269)">
<path d="M28.3844 25.4913C27.1047 25.4913 25.8672 25.2804 24.707 24.9077C24.3414 24.7812 23.9336 24.8796 23.6523 25.1608L22.0211 27.214C19.075 25.8077 16.3188 23.1569 14.8492 20.1054L16.8812 18.3757C17.1625 18.0874 17.2469 17.6796 17.1344 17.314C16.7477 16.1608 16.5508 14.9233 16.5508 13.6366C16.5508 13.0741 16.0797 12.603 15.5172 12.603H11.9172C11.3547 12.603 10.6797 12.8562 10.6797 13.6366C10.6797 23.3046 18.7234 31.3343 28.3844 31.3343C29.1227 31.3343 29.418 30.6804 29.418 30.1038V26.5108C29.4109 25.9554 28.9469 25.4913 28.3844 25.4913Z" fill="white"/>
<path d="M23.463 15.114V20H22.483V15.114H23.463ZM26.1392 15.114C26.6526 15.114 27.1029 15.2143 27.4902 15.415C27.8822 15.6157 28.1832 15.9027 28.3932 16.276C28.6079 16.6447 28.7152 17.074 28.7152 17.564C28.7152 18.054 28.6079 18.4833 28.3932 18.852C28.1832 19.216 27.8822 19.4983 27.4902 19.699C27.1029 19.8997 26.6526 20 26.1392 20H24.4312V15.114H26.1392ZM26.1042 19.167C26.6176 19.167 27.0142 19.027 27.2942 18.747C27.5742 18.467 27.7142 18.0727 27.7142 17.564C27.7142 17.0553 27.5742 16.6587 27.2942 16.374C27.0142 16.0847 26.6176 15.94 26.1042 15.94H25.4112V19.167H26.1042Z" fill="white"/>
</g>
<defs>
<clipPath id="clip0_2_269">
<rect width="36" height="36" fill="white" transform="translate(3 3)"/>
</clipPath>
</defs>
</svg>
