<svg width="38" height="38" viewBox="0 0 38 38" fill="none" xmlns="http://www.w3.org/2000/svg">
<circle cx="19" cy="19" r="19" fill="#9059FF"/>
<g clip-path="url(#clip0_4_10339)">
<path d="M8.13201 20.5048C8.13201 20.1088 8.11441 19.7128 8.13201 19.3256C8.16721 18.7008 8.46641 18.1992 8.98561 17.856C9.09121 17.7856 9.12641 17.7152 9.12641 17.5832C9.13521 17.1608 9.17041 16.7472 9.20561 16.3248C9.26721 15.6824 9.39041 15.0488 9.56641 14.4328C10.1296 12.532 11.1768 10.992 12.8488 9.9008C13.6936 9.3464 14.6088 8.9768 15.5856 8.7304C16.2016 8.572 16.8264 8.4664 17.4512 8.4048C18.1992 8.3344 18.956 8.2992 19.7128 8.3432C20.5224 8.3872 21.332 8.4752 22.124 8.66C23.444 8.968 24.676 9.4872 25.7408 10.3408C26.9728 11.3264 27.8 12.5848 28.2928 14.072C28.4688 14.6176 28.6008 15.172 28.6888 15.7352C28.7944 16.3776 28.8296 17.02 28.8472 17.6712C28.8472 17.7328 28.8736 17.768 28.9264 17.8032C29.4456 18.12 29.7536 18.5776 29.8416 19.176C29.868 19.352 29.8768 19.528 29.8768 19.704C29.8768 20.2848 29.8856 20.8656 29.8768 21.4464C29.868 21.8688 29.7888 22.2648 29.5424 22.6256C29.1816 23.1448 28.6976 23.4528 28.064 23.4792C27.5888 23.4968 27.1136 23.488 26.6296 23.488C26.5592 23.488 26.5328 23.5056 26.4976 23.576C26.3392 23.9456 26.1808 24.3152 26.0224 24.676C25.864 25.0456 25.6264 25.3624 25.4064 25.688C24.4032 27.184 23.1008 28.3192 21.464 29.076C20.848 29.3576 20.2056 29.56 19.5368 29.6304C18.9648 29.692 18.4016 29.6568 17.8384 29.5248C16.976 29.3224 16.184 28.9616 15.436 28.4952C14.952 28.1872 14.4944 27.8528 14.072 27.4568C13.2272 26.656 12.5144 25.7496 11.9864 24.72C11.7928 24.3416 11.6344 23.9368 11.4672 23.5408C11.4408 23.488 11.4144 23.488 11.3704 23.488C10.8864 23.488 10.4112 23.4968 9.92721 23.4792C9.35521 23.4616 8.88881 23.1976 8.53681 22.7576C8.26401 22.4232 8.11441 22.036 8.11441 21.596C8.12321 21.2352 8.12321 20.8744 8.13201 20.5048ZM13.6672 24.9224C13.6672 24.9312 13.6584 24.94 13.6584 24.9488C13.6936 25.0016 13.7376 25.0456 13.7728 25.0984C14.5208 26.1368 15.4448 26.9816 16.5712 27.6064C17.1696 27.932 17.7856 28.196 18.4632 28.3016C18.9208 28.372 19.3784 28.3544 19.8272 28.2488C20.5136 28.0816 21.156 27.7912 21.7632 27.4128C22.6784 26.8408 23.4528 26.128 24.104 25.2656C25.0192 24.0512 25.556 22.6872 25.732 21.1736C25.82 20.3992 25.8024 19.616 25.7496 18.8328C25.7408 18.7008 25.688 18.6128 25.5912 18.5336C24.9224 18.0144 24.1656 17.6888 23.356 17.4512C22.7312 17.2752 22.0976 17.1696 21.4552 17.064C21.4288 17.0552 21.3936 17.064 21.3408 17.064C21.6488 17.4072 21.8336 17.7944 21.9656 18.208C21.7984 18.1112 21.6488 18.0056 21.4904 17.9352C20.9976 17.6976 20.4784 17.5568 19.968 17.3984C19.2112 17.1608 18.472 16.888 17.8032 16.448C17.68 16.36 17.5568 16.2632 17.4336 16.1752C17.1168 15.9464 16.844 15.6736 16.6064 15.3656C16.4216 15.128 16.2544 14.8816 16.0696 14.644C16.0344 14.6 15.9904 14.5736 15.9376 14.5296C15.9112 14.7848 15.9024 15.0048 15.876 15.2336C15.8232 15.6648 15.7264 16.0784 15.5592 16.4744C15.2952 17.0904 14.9696 17.6624 14.468 18.1288C14.0984 18.472 13.72 18.7888 13.2448 18.9824C12.9368 19.1056 12.62 19.2288 12.2856 19.264C12.268 19.264 12.2416 19.308 12.2328 19.3344C12.224 19.4488 12.2328 19.5632 12.224 19.6688C12.18 20.6456 12.2768 21.6048 12.5408 22.5464C12.5936 22.7224 12.6288 22.9072 12.7608 23.048C13.1568 23.4704 13.6144 23.796 14.1336 24.0336C15.0576 24.456 16.0344 24.6144 17.0376 24.676C17.0728 24.676 17.1168 24.6584 17.1344 24.6232C17.284 24.4208 17.4688 24.2712 17.6888 24.1568C18.3312 23.84 18.9824 23.8048 19.66 24.0424C19.9416 24.1392 20.188 24.2888 20.3904 24.5176C20.6632 24.8344 20.7512 25.1864 20.6016 25.5824C20.4872 25.8728 20.2672 26.084 20.0032 26.2336C19.4664 26.5328 18.8944 26.6208 18.296 26.4888C17.812 26.3832 17.3808 26.172 17.0992 25.7408C17.0816 25.7144 17.0376 25.6968 16.9936 25.688C16.5536 25.6352 16.1224 25.6 15.6824 25.5296C15.0488 25.424 14.424 25.2568 13.8344 24.9928C13.7728 24.9576 13.72 24.94 13.6672 24.9224ZM18.8592 9.4608C18.8592 9.4696 18.8592 9.4784 18.8592 9.4872C18.1112 9.4696 17.372 9.5488 16.6416 9.672C15.568 9.848 14.5472 10.1824 13.6232 10.7544C12.9368 11.168 12.356 11.696 11.8632 12.3296C11.3704 12.9632 11.0184 13.6848 10.772 14.4416C10.5696 15.0664 10.4376 15.7 10.3672 16.3512C10.332 16.712 10.3144 17.0816 10.2968 17.4424C10.2968 17.504 10.3144 17.5216 10.376 17.5216C10.5608 17.5128 10.7456 17.5128 10.9304 17.5128C11.0184 17.5128 11.0536 17.4952 11.0712 17.3896C11.168 16.756 11.3264 16.1312 11.5288 15.5152C11.8368 14.6176 12.2592 13.7816 12.8664 13.0424C13.28 12.532 13.764 12.092 14.3096 11.7224C15.0752 11.212 15.92 10.8864 16.8088 10.6928C17.4688 10.5432 18.1376 10.4816 18.8064 10.4728C19.5808 10.4552 20.3552 10.5256 21.1208 10.6752C22.1768 10.8864 23.1448 11.2912 24.0072 11.9424C24.764 12.5144 25.3624 13.2184 25.8288 14.0456C26.304 14.8904 26.612 15.7968 26.8144 16.7384C26.8584 16.9584 26.8936 17.1784 26.9376 17.3896C26.9464 17.4424 26.9464 17.5128 27.0432 17.504C27.228 17.4952 27.404 17.4952 27.5888 17.4952C27.712 17.4952 27.7208 17.4952 27.712 17.372C27.6856 16.976 27.6592 16.5888 27.6152 16.1928C27.536 15.4888 27.3776 14.8024 27.1312 14.1336C26.788 13.2096 26.2952 12.3824 25.5824 11.6784C25.1688 11.2736 24.7288 10.9216 24.2272 10.6312C23.1008 9.9888 21.8776 9.6632 20.6016 9.54C20.012 9.5048 19.4312 9.496 18.8592 9.4608Z" fill="white"/>
<path d="M17.2752 20.0384C17.3016 20.5576 16.8968 21.1472 16.184 21.1824C15.5592 21.2088 15.0928 20.7072 15.0488 20.1352C15.0048 19.5368 15.4888 18.9912 16.1136 18.9648C16.7032 18.9384 17.2576 19.4048 17.2752 20.0384Z" fill="white"/>
<path d="M20.7072 20.1C20.716 19.3696 21.2968 18.9736 21.7896 18.9648C22.4144 18.956 22.9424 19.4576 22.9336 20.0736C22.9248 20.7776 22.3616 21.1824 21.8512 21.2C21.2352 21.2088 20.7072 20.6896 20.7072 20.1Z" fill="white"/>
</g>
<defs>
<clipPath id="clip0_4_10339">
<rect width="22" height="22" fill="white" transform="translate(8 8)"/>
</clipPath>
</defs>
</svg>
