<svg width="42" height="42" viewBox="0 0 42 42" fill="none" xmlns="http://www.w3.org/2000/svg">
<circle cx="21" cy="21" r="21" fill="#FD659C"/>
<g clip-path="url(#clip0_2_10323)">
<path d="M28.5833 12.25H27.5V10.0833H25.3333V12.25H16.6667V10.0833H14.5V12.25H13.4167C12.2142 12.25 11.25 13.225 11.25 14.4166V29.5833C11.25 30.775 12.2142 31.75 13.4167 31.75H28.5833C29.775 31.75 30.75 30.775 30.75 29.5833V14.4166C30.75 13.225 29.775 12.25 28.5833 12.25ZM21 15.5C22.7983 15.5 24.25 16.9516 24.25 18.75C24.25 20.5483 22.7983 22 21 22C19.2017 22 17.75 20.5483 17.75 18.75C17.75 16.9516 19.2017 15.5 21 15.5ZM27.5 28.5H14.5V27.4166C14.5 25.25 18.8333 24.0583 21 24.0583C23.1667 24.0583 27.5 25.25 27.5 27.4166V28.5Z" fill="white"/>
</g>
<defs>
<clipPath id="clip0_2_10323">
<rect width="26" height="26" fill="white" transform="translate(8 9)"/>
</clipPath>
</defs>
</svg>
