<svg width="42" height="42" viewBox="0 0 42 42" fill="none" xmlns="http://www.w3.org/2000/svg">
<circle cx="21" cy="21" r="21" fill="#6B73FF"/>
<path d="M27.6113 17.6141H26.1743C26.3207 18.0152 26.4008 18.448 26.4008 18.8991V24.3304C26.4008 24.5184 26.368 24.699 26.3085 24.8668H28.6842C29.5717 24.8668 30.2937 24.1448 30.2937 23.2574V20.2966C30.2938 18.8174 29.0904 17.6141 27.6113 17.6141Z" fill="white"/>
<path d="M15.6047 24.3304V18.8991C15.6047 18.448 15.6847 18.0152 15.8312 17.6141H14.3941C12.915 17.6141 11.7117 18.8175 11.7117 20.2966V23.2574C11.7117 24.1448 12.4337 24.8668 13.3211 24.8668H15.697C15.6374 24.6989 15.6047 24.5184 15.6047 24.3304Z" fill="white"/>
<path d="M17.2141 24.8669H24.7913C25.0876 24.8669 25.3278 24.6267 25.3278 24.3304V18.8991C25.3278 17.42 24.1245 16.2167 22.6454 16.2167H19.36C17.881 16.2167 16.6776 17.42 16.6776 18.8991V24.3304C16.6776 24.6266 16.9178 24.8669 17.2141 24.8669Z" fill="white"/>
<path d="M22.5792 15.1437C23.5627 14.5904 24.2287 13.5367 24.2287 12.3301C24.2287 10.5513 22.7815 9.10406 21.0027 9.10406C19.2239 9.10406 17.7767 10.5512 17.7767 12.3301C17.7767 13.5367 18.4427 14.5904 19.4262 15.1437C19.8926 15.4061 20.4304 15.556 21.0027 15.556C21.575 15.556 22.1127 15.4061 22.5792 15.1437Z" fill="white"/>
<path d="M17.467 15.6569C17.6478 15.3188 17.7506 14.933 17.7506 14.5236C17.7506 13.1933 16.6683 12.111 15.338 12.111C14.0077 12.111 12.9254 13.1932 12.9254 14.5236C12.9254 15.8539 14.0077 16.9361 15.338 16.9361C15.6755 16.9361 15.9968 16.8663 16.2887 16.7406C16.7934 16.5233 17.2095 16.1387 17.467 15.6569Z" fill="white"/>
<path d="M25.7167 16.7406C26.0086 16.8663 26.33 16.9361 26.6674 16.9361C27.9977 16.9361 29.08 15.8539 29.08 14.5236C29.08 13.1933 27.9977 12.111 26.6674 12.111C25.3371 12.111 24.2548 13.1932 24.2548 14.5236C24.2548 14.933 24.3576 15.3188 24.5383 15.6569C24.7959 16.1387 25.212 16.5233 25.7167 16.7406Z" fill="white"/>
<path d="M27.1385 26.1174C26.4759 26.78 25.7272 27.3132 24.9353 27.7172C24.6821 27.8412 24.5205 28.0997 24.5205 28.3906L24.736 30.2975C22.4843 31.0947 19.6832 31.1486 17.3453 30.3298L17.5016 28.3852C17.4962 28.0889 17.3292 27.8358 17.0814 27.7065C16.2842 27.3079 15.5408 26.7692 14.8782 26.1066C14.5873 25.8157 14.1025 25.8157 13.8117 26.1066L11.9479 27.9704C11.657 28.2613 11.4361 28.7407 11.8401 29.1447C16.8444 34.149 25.167 34.1436 30.166 29.1447C30.5484 28.7622 30.3599 28.2721 30.0636 27.9758L28.2051 26.1173C27.9142 25.8265 27.4294 25.8265 27.1385 26.1174Z" fill="white"/>
</svg>
