<svg width="42" height="42" viewBox="0 0 42 42" fill="none" xmlns="http://www.w3.org/2000/svg">
<circle cx="21" cy="21" r="21" fill="#58C2DA"/>
<path d="M27.3844 26.4914C26.1047 26.4914 24.8672 26.2805 23.707 25.9078C23.3414 25.7813 22.9336 25.8797 22.6523 26.161L21.0211 28.2141C18.075 26.8078 15.3188 24.1571 13.8492 21.1055L15.8812 19.3758C16.1625 19.0875 16.2469 18.6797 16.1344 18.3141C15.7477 17.161 15.5508 15.9235 15.5508 14.6367C15.5508 14.0742 15.0797 13.6031 14.5172 13.6031H10.9172C10.3547 13.6031 9.67969 13.8563 9.67969 14.6367C9.67969 24.3047 17.7234 32.3344 27.3844 32.3344C28.1227 32.3344 28.418 31.6805 28.418 31.1039V27.511C28.4109 26.9555 27.9469 26.4914 27.3844 26.4914Z" fill="white"/>
<path d="M20.6203 15.7336H26.2453V17.5547C26.2453 17.7867 26.3789 17.9977 26.5828 18.0961C26.6672 18.1383 26.7586 18.1594 26.857 18.1594C26.9836 18.1594 27.1172 18.1172 27.2227 18.0398L32.0812 14.3977C32.2359 14.2852 32.3273 14.1023 32.3273 13.9125C32.3273 13.7227 32.2359 13.5398 32.0812 13.4273L27.2227 9.78516C27.0398 9.64454 26.7937 9.62344 26.5898 9.72891C26.3859 9.83438 26.2523 10.0453 26.2523 10.2703V12.0914H20.6273C20.2898 12.0914 20.0227 12.3656 20.0227 12.6961V15.1219C20.0156 15.4594 20.2898 15.7336 20.6203 15.7336Z" fill="white"/>
</svg>
