<svg width="42" height="42" viewBox="0 0 42 42" fill="none" xmlns="http://www.w3.org/2000/svg">
<circle cx="21" cy="21" r="21" fill="#1D6E9D"/>
<path d="M21.924 21.3C22.104 21.156 22.284 21 22.464 20.856C23.016 20.412 23.556 19.968 24 19.416C24.396 18.924 24.684 18.372 24.828 17.76C24.84 17.7 24.852 17.64 24.876 17.556C24.684 17.556 24.492 17.556 24.312 17.556C23.04 17.556 22.104 16.632 22.104 15.348C22.104 14.652 22.104 13.968 22.104 13.272C22.104 12.036 23.052 11.1 24.276 11.1C27.192 11.1 30.108 11.1 33.012 11.1C34.212 11.1 35.16 12.048 35.16 13.248C35.16 13.968 35.16 14.688 35.16 15.408C35.16 16.62 34.224 17.568 33 17.568C31.14 17.568 29.268 17.568 27.408 17.568C27.324 17.568 27.252 17.556 27.204 17.664C26.124 19.62 24.444 20.772 22.284 21.276C22.164 21.3 22.044 21.324 21.924 21.36C21.936 21.312 21.924 21.3 21.924 21.3Z" fill="white"/>
<path d="M25.116 20.364C25.236 20.28 25.332 20.22 25.416 20.136C25.776 19.8 26.148 19.476 26.496 19.128C26.568 19.056 26.616 19.032 26.712 19.08C28.56 19.992 29.628 22.068 29.328 24.12C29.016 26.22 27.408 27.876 25.344 28.2C25.092 28.236 24.828 28.26 24.576 28.26C20.592 28.26 16.62 28.26 12.636 28.26C10.152 28.26 8.05203 26.316 7.84803 23.844C7.64403 21.324 9.31203 19.104 11.784 18.636C12.048 18.588 12.312 18.564 12.576 18.564C16.392 18.564 20.22 18.564 24.048 18.564C24.084 18.564 24.132 18.564 24.192 18.564C24.168 18.624 24.144 18.66 24.12 18.708C23.76 19.332 23.256 19.812 22.716 20.268C22.668 20.316 22.572 20.316 22.5 20.316C19.452 20.316 16.404 20.316 13.368 20.316C12.96 20.316 12.54 20.304 12.144 20.364C10.632 20.592 9.51603 21.972 9.56403 23.544C9.61203 25.068 10.812 26.364 12.336 26.508C12.456 26.52 12.564 26.532 12.684 26.532C16.644 26.532 20.604 26.532 24.564 26.532C25.98 26.532 27.192 25.596 27.564 24.24C28.02 22.56 26.988 20.82 25.284 20.4C25.224 20.4 25.188 20.388 25.116 20.364Z" fill="white"/>
<path d="M12.888 28.572C16.704 28.572 20.508 28.572 24.324 28.572C24.324 28.632 24.336 28.68 24.336 28.728C24.336 29.148 24.336 29.556 24.336 29.976C24.336 30.54 23.952 30.924 23.388 30.924C20.208 30.924 17.016 30.924 13.836 30.924C13.32 30.924 12.924 30.612 12.9 30.12C12.864 29.604 12.888 29.1 12.888 28.572Z" fill="white"/>
<path d="M24.528 17.832C24.468 17.988 24.432 18.12 24.372 18.252C24.36 18.276 24.312 18.3 24.276 18.3C24.192 18.312 24.096 18.3 24.012 18.3C20.28 18.3 16.548 18.3 12.816 18.3C12.756 18.3 12.708 18.3 12.648 18.3C12.444 16.944 13.428 16.128 14.376 16.14C16.848 16.152 19.32 16.14 21.792 16.14C21.888 16.14 21.948 16.152 21.996 16.26C22.392 17.256 23.244 17.832 24.312 17.832C24.372 17.832 24.432 17.832 24.528 17.832Z" fill="white"/>
<path d="M11.64 23.424C11.64 22.56 12.324 21.876 13.176 21.888C14.028 21.888 14.7 22.584 14.7 23.448C14.7 24.312 14.016 24.984 13.164 24.984C12.312 24.984 11.64 24.288 11.64 23.424ZM13.56 23.388C13.812 23.388 14.016 23.172 14.004 22.92C14.004 22.668 13.8 22.476 13.548 22.476C13.308 22.476 13.104 22.68 13.104 22.932C13.116 23.172 13.32 23.388 13.56 23.388Z" fill="white"/>
<path d="M24.036 24.984C23.172 24.972 22.5 24.264 22.512 23.4C22.524 22.536 23.232 21.864 24.096 21.888C24.924 21.9 25.596 22.62 25.584 23.448C25.572 24.312 24.888 24.996 24.036 24.984ZM24.444 22.464C24.192 22.464 23.988 22.68 23.988 22.932C24 23.184 24.216 23.388 24.456 23.376C24.696 23.364 24.9 23.148 24.888 22.908C24.9 22.668 24.684 22.464 24.444 22.464Z" fill="white"/>
<path d="M8.076 25.6799C7.368 25.5959 6.84 25.0079 6.828 24.3359C6.828 23.7359 6.828 23.1239 6.828 22.5239C6.84 21.8879 7.32 21.3119 7.944 21.1919C7.98 21.1799 8.016 21.1799 8.064 21.1799C7.38 22.6919 7.38 24.1799 8.076 25.6799Z" fill="white"/>
<path d="M29.16 25.6799C29.844 24.1799 29.844 22.6919 29.16 21.1799C29.688 21.2639 30.06 21.5159 30.264 21.9839C30.348 22.1759 30.396 22.4039 30.396 22.6199C30.42 23.1599 30.408 23.7119 30.396 24.2519C30.396 25.0079 29.88 25.6079 29.16 25.6799Z" fill="white"/>
</svg>
