<svg width="42" height="42" viewBox="0 0 42 42" fill="none" xmlns="http://www.w3.org/2000/svg">
<circle cx="21" cy="21" r="21" fill="#A376FF"/>
<path d="M29.1125 10H13.8875C12.2946 10 11 11.284 11 12.8639V29.1361C11 30.716 12.2946 32 13.8875 32H29.1125C30.7054 32 32 30.716 32 29.1361V12.8639C32 11.284 30.7054 10 29.1125 10ZM18.5633 20.5444V15.4164C21.0831 15.7965 23.0258 17.9408 23.0258 20.5444C23.0258 23.4156 20.6707 25.7515 17.7758 25.7515C16.6124 25.7515 15.5466 25.362 14.6753 24.7235L18.3323 21.0963C18.4802 20.9504 18.5633 20.7516 18.5633 20.5444ZM16.9883 15.4164V20.2215L13.5622 23.6196C12.9185 22.7554 12.5258 21.6982 12.5258 20.5444C12.5258 17.9408 14.4684 15.7965 16.9883 15.4164ZM29.6813 29.1361H13.3625C12.9277 29.1361 12.575 28.7862 12.575 28.355C12.575 27.9238 12.9277 27.574 13.3625 27.574H29.6813C30.116 27.574 30.4688 27.9238 30.4688 28.355C30.4688 28.7862 30.116 29.1361 29.6813 29.1361ZM29.6594 25.7515H25.35C24.9152 25.7515 24.5625 25.4016 24.5625 24.9704C24.5625 24.5392 24.9152 24.1893 25.35 24.1893H29.6594C30.0941 24.1893 30.4469 24.5392 30.4469 24.9704C30.4469 25.4016 30.0941 25.7515 29.6594 25.7515ZM29.6594 22.8876H25.35C24.9152 22.8876 24.5625 22.5377 24.5625 22.1065C24.5625 21.6753 24.9152 21.3254 25.35 21.3254H29.6594C30.0941 21.3254 30.4469 21.6753 30.4469 22.1065C30.4469 22.5377 30.0941 22.8876 29.6594 22.8876ZM29.6594 19.7633H25.35C24.9152 19.7633 24.5625 19.4135 24.5625 18.9822C24.5625 18.551 24.9152 18.2012 25.35 18.2012H29.6594C30.0941 18.2012 30.4469 18.551 30.4469 18.9822C30.4469 19.4135 30.0941 19.7633 29.6594 19.7633ZM29.6594 16.8994H25.35C24.9152 16.8994 24.5625 16.5496 24.5625 16.1183C24.5625 15.6871 24.9152 15.3373 25.35 15.3373H29.6594C30.0941 15.3373 30.4469 15.6871 30.4469 16.1183C30.4469 16.5496 30.0941 16.8994 29.6594 16.8994Z" fill="white"/>
</svg>
