<svg width="42" height="42" viewBox="0 0 42 42" fill="none" xmlns="http://www.w3.org/2000/svg">
<g id="Group 237798">
<circle id="Ellipse 3557" cx="21" cy="21" r="21" fill="#FEC163"/>
<g id="Group">
<g id="Group_2">
<path id="Vector" d="M26.0329 26.7908C24.8543 26.7908 23.7142 26.5992 22.6511 26.2544C22.3159 26.1398 21.9423 26.2255 21.6833 26.4845L20.1792 28.3719C17.4676 27.0787 14.9292 24.6357 13.5782 21.8287L15.4463 20.2379C15.7053 19.9693 15.7814 19.5957 15.6764 19.2606C15.3221 18.1974 15.1401 17.0573 15.1401 15.8787C15.1401 15.3615 14.7087 14.9302 14.1916 14.9302H10.8771C10.3599 14.9302 9.73694 15.1603 9.73694 15.8787C9.73694 24.7792 17.1429 32.1747 26.0329 32.1747C26.7128 32.1747 26.9814 31.5709 26.9814 31.0442V27.7393C26.9814 27.2222 26.5509 26.7908 26.0329 26.7908Z" fill="white"/>
</g>
<path id="Vector_2" d="M28.2134 11.3426C27.6464 11.4275 27.1083 11.6506 26.6481 11.991C26.1869 12.3314 25.8151 12.7794 25.5674 13.2956C25.3189 13.8127 25.2008 14.3815 25.2218 14.9546C25.2437 15.5277 25.4056 16.086 25.6926 16.583C25.7066 16.6057 25.7145 16.632 25.7153 16.6591C25.7162 16.6862 25.7092 16.7134 25.6961 16.7361C25.6838 16.7597 25.6646 16.779 25.6418 16.793C25.6182 16.807 25.5919 16.814 25.5657 16.8149H24.2628C24.2357 16.814 24.2086 16.807 24.1867 16.793C24.1631 16.779 24.1447 16.7597 24.1316 16.7361C24.1184 16.7125 24.1123 16.6862 24.1123 16.6591C24.1132 16.632 24.1211 16.6057 24.1359 16.583C24.4089 16.1096 24.5682 15.5802 24.6014 15.0351C24.6347 14.49 24.5393 13.9449 24.3258 13.4426C24.1114 12.9404 23.7833 12.495 23.3677 12.1415C22.9521 11.788 22.4594 11.536 21.9292 11.4056C21.3989 11.2752 20.8459 11.2691 20.3131 11.3907C19.7802 11.5106 19.2832 11.753 18.8606 12.0986C18.4379 12.4442 18.1011 12.8844 17.878 13.3814C17.6548 13.8792 17.5498 14.4226 17.5726 14.9677C17.6338 15.8926 18.0486 16.7589 18.7302 17.388C19.4118 18.0162 20.3087 18.3584 21.2353 18.3444H28.5976C29.5251 18.3592 30.4219 18.0171 31.1053 17.3889C31.7869 16.7606 32.2026 15.8935 32.2638 14.9677C32.2839 14.4497 32.1903 13.9326 31.9882 13.4549C31.7861 12.9771 31.4807 12.5484 31.0948 12.2019C30.7072 11.8554 30.2496 11.599 29.7517 11.4511C29.2503 11.3015 28.7262 11.2647 28.2134 11.3426ZM19.0968 14.8242C19.0968 14.4305 19.2141 14.0455 19.4319 13.7191C19.6507 13.3919 19.9622 13.1372 20.3253 12.9858C20.6893 12.8353 21.0892 12.796 21.4751 12.8721C21.8609 12.9491 22.2153 13.1381 22.4936 13.4172C22.7727 13.6955 22.9617 14.0499 23.0387 14.4357C23.1148 14.8225 23.0754 15.2215 22.9249 15.5855C22.7744 15.9486 22.5198 16.2592 22.1917 16.4789C21.8653 16.6976 21.4803 16.814 21.0866 16.814C20.5589 16.8131 20.0541 16.6031 19.6804 16.2304C19.3077 15.8567 19.0977 15.351 19.0968 14.8242ZM28.7393 16.814C28.3456 16.814 27.9614 16.6967 27.6342 16.4789C27.3078 16.2601 27.0523 15.9486 26.9009 15.5855C26.7504 15.2215 26.7111 14.8216 26.7881 14.4357C26.8642 14.0499 27.0541 13.6955 27.3323 13.4172C27.6106 13.1381 27.9649 12.9491 28.3517 12.8721C28.7376 12.796 29.1374 12.8353 29.5006 12.9858C29.8646 13.1363 30.1752 13.391 30.3939 13.7191C30.6127 14.0455 30.7291 14.4305 30.7291 14.8242C30.7282 15.351 30.5191 15.8567 30.1454 16.2304C29.7736 16.6031 29.2669 16.8131 28.7393 16.814Z" fill="white"/>
</g>
</g>
</svg>
