<svg width="42" height="42" viewBox="0 0 42 42" fill="none" xmlns="http://www.w3.org/2000/svg">
<circle cx="21" cy="21" r="21" fill="#1D6E9D"/>
<path d="M8.50961 22.6119C8.56161 22.3935 8.60321 22.1647 8.65521 21.9463C8.83201 21.2599 9.16481 20.6463 9.65361 20.1263C9.78881 19.9807 9.84081 19.8351 9.86161 19.6583C10.0696 17.9319 10.6416 16.3407 11.6192 14.9055C13.46 12.1703 16.008 10.4959 19.2736 9.97595C22.0816 9.52875 24.7024 10.1007 27.1048 11.6191C27.3024 11.7439 27.448 11.8999 27.4168 12.1495C27.3752 12.5239 26.9904 12.6695 26.6368 12.4823C26.0128 12.1495 25.4096 11.7751 24.7544 11.5151C18.8888 9.17515 12.2432 12.7631 10.964 18.9511C10.9536 18.9927 10.9536 19.0447 10.9432 19.0967C11.2968 18.9927 11.6504 18.8887 11.9832 18.7743C12.0456 18.7535 12.0976 18.6287 12.1288 18.5455C12.784 16.5487 13.928 14.8951 15.6336 13.6575C20.0328 10.4751 26.1584 11.7439 28.956 16.3927C29.372 17.0895 29.7048 17.8175 29.9336 18.5871C29.9752 18.7223 30.0376 18.7951 30.1936 18.8367C30.4848 18.9199 30.776 19.0239 31.1296 19.1487C30.9736 18.6287 30.88 18.1191 30.6824 17.6407C30.3808 16.9335 30.0168 16.2575 29.684 15.5607C29.6216 15.4255 29.5592 15.2695 29.5696 15.1343C29.58 14.9263 29.736 14.7911 29.9544 14.7495C30.1832 14.7079 30.36 14.8015 30.4744 14.9887C30.7344 15.4359 30.9944 15.8831 31.2232 16.3511C31.7432 17.4431 32.0656 18.5975 32.2008 19.8039C32.2112 19.8975 32.2424 20.0015 32.3048 20.0639C32.96 20.7711 33.3552 21.6031 33.4696 22.5599C33.4696 22.5807 33.4904 22.6015 33.5008 22.6223C33.5008 22.9343 33.5008 23.2359 33.5008 23.5479C33.4488 23.7663 33.4176 23.9951 33.3448 24.2031C32.8352 25.8879 31.7328 26.9487 30.0168 27.3543C29.2576 27.5311 28.6336 27.0111 28.6336 26.2311C28.6232 25.1703 28.6336 24.1199 28.6336 23.0591C28.6336 22.0503 28.6336 21.0415 28.6336 20.0327C28.6336 19.6687 28.7168 19.3463 28.9664 19.0759C29.0184 19.0239 29.0184 18.8991 28.9872 18.8159C28.0096 15.9351 26.1064 13.9695 23.1528 13.1687C18.7016 11.9623 14.3856 14.6247 13.0752 18.8783C13.0544 18.9615 13.0752 19.0863 13.1272 19.1591C13.2936 19.3879 13.3872 19.6479 13.3872 19.9287C13.3872 22.0295 13.3872 24.1199 13.3872 26.2207C13.3872 27.0111 12.7632 27.5103 11.9832 27.3543C11.848 27.3231 11.7128 27.2919 11.5256 27.2399C11.5984 27.4583 11.64 27.6455 11.7232 27.8223C12.3472 29.1535 13.3768 29.8919 14.8536 29.9335C16.2888 29.9751 17.7344 29.9439 19.1696 29.9543C19.3464 29.9543 19.3776 29.8607 19.44 29.7359C19.804 28.9351 20.688 28.5295 21.5304 28.7791C22.3416 29.0183 22.8824 29.8711 22.7472 30.6823C22.6016 31.5871 21.8528 32.2215 20.9584 32.1799C20.2408 32.1383 19.7208 31.7743 19.4296 31.1191C19.3672 30.9735 19.2944 30.9319 19.1488 30.9319C17.7656 30.9423 16.3824 30.9423 14.9992 30.9319C12.8464 30.9111 11.0888 29.5695 10.6208 27.5311C10.496 26.9799 10.2984 26.5743 9.86161 26.1895C9.11281 25.5447 8.71761 24.6711 8.57201 23.6831C8.56161 23.6415 8.54081 23.5895 8.53041 23.5479C8.50961 23.2255 8.50961 22.9239 8.50961 22.6119ZM12.3992 23.0799C12.3992 22.0607 12.3992 21.0311 12.3992 20.0119C12.3992 19.8351 12.3784 19.7103 12.1392 19.7623C10.6416 20.0847 9.50801 21.4679 9.48721 23.0279C9.46641 24.5983 10.548 26.0231 12.056 26.3767C12.3576 26.4495 12.3992 26.4183 12.3992 26.1063C12.3992 25.0871 12.3992 24.0783 12.3992 23.0799ZM29.6008 23.0695C29.6008 24.0783 29.6008 25.0871 29.6008 26.0959C29.6008 26.4183 29.6424 26.4495 29.9544 26.3663C31.4416 26.0023 32.5232 24.6087 32.5128 23.0487C32.5024 21.4991 31.4312 20.1367 29.944 19.7831C29.6424 19.7103 29.6008 19.7311 29.6008 20.0535C29.6008 21.0519 29.6008 22.0607 29.6008 23.0695ZM20.2512 30.4327C20.2512 30.8487 20.5944 31.1919 21.0104 31.1919C21.4264 31.1919 21.7696 30.8383 21.7696 30.4223C21.7696 30.0063 21.4264 29.6735 21 29.6735C20.584 29.6735 20.2512 30.0167 20.2512 30.4327Z" fill="white"/>
<path d="M19.9184 25.1912C20.1784 25.4928 20.428 25.7736 20.6776 26.0544C20.9168 26.3352 20.9272 26.6264 20.688 26.824C20.4592 27.0216 20.1888 26.9696 19.9496 26.6992C19.648 26.3664 19.3464 26.0232 19.0552 25.68C19.0344 25.68 19.0032 25.6904 18.9824 25.6904C18.9824 25.9608 18.9928 26.2312 18.9824 26.5016C18.9616 26.7616 18.7536 26.9384 18.5144 26.9384C18.2752 26.9384 18.0672 26.7616 18.0256 26.512C18.0152 26.4288 18.0152 26.3352 18.0152 26.2416C18.0152 25.4408 18.0152 24.6296 18.0152 23.8288C18.0152 23.5688 18.0152 23.3088 18.0152 23.0488C18.0256 22.6536 18.2024 22.4664 18.5976 22.4664C18.9512 22.4664 19.2944 22.456 19.6376 22.4976C20.272 22.5808 20.7504 23.0488 20.8544 23.652C20.948 24.2448 20.6464 24.8064 20.064 25.108C20.0224 25.1392 19.9808 25.16 19.9184 25.1912ZM18.9928 24.2864C19.3152 24.2656 19.648 24.38 19.8248 24.0472C19.8768 23.9432 19.856 23.7456 19.7832 23.652C19.5856 23.3816 19.284 23.4752 18.9928 23.4648C18.9928 23.7456 18.9928 23.9952 18.9928 24.2864Z" fill="white"/>
<path d="M21.2496 19.4712C21.2392 20.5736 20.3448 21.4576 19.232 21.4472C18.14 21.4368 17.256 20.532 17.2664 19.44C17.2768 18.348 18.1712 17.4536 19.2632 17.464C20.3656 17.464 21.26 18.3688 21.2496 19.4712ZM20.272 19.4504C20.272 18.8888 19.8248 18.4416 19.2632 18.4416C18.7016 18.4312 18.244 18.8992 18.244 19.4608C18.244 20.0224 18.6912 20.4696 19.2528 20.4696C19.8248 20.4696 20.272 20.0224 20.272 19.4504Z" fill="white"/>
<path d="M22.6952 23.4751C22.6952 23.7351 22.6952 23.9743 22.6952 24.2239C22.9656 24.2239 23.2256 24.2239 23.4856 24.2239C23.808 24.2239 24.016 24.4215 24.0264 24.7023C24.0368 24.9935 23.8184 25.1911 23.4856 25.2015C23.2256 25.2015 22.9656 25.2015 22.6952 25.2015C22.6952 25.4511 22.6952 25.6799 22.6952 25.9503C23.0072 25.9503 23.3088 25.9399 23.6 25.9503C23.9224 25.9607 24.12 26.1583 24.1304 26.4391C24.1304 26.6887 23.964 26.9071 23.704 26.9175C23.184 26.9279 22.664 26.9383 22.144 26.9175C21.8632 26.9071 21.7072 26.6991 21.7072 26.3767C21.6968 25.9191 21.7072 25.4615 21.7072 25.0143C21.7072 24.3903 21.7072 23.7663 21.7072 23.1319C21.7072 22.6743 21.8736 22.5079 22.3208 22.5079C22.7368 22.5079 23.1528 22.5079 23.5688 22.5079C23.9328 22.5079 24.1408 22.6951 24.1408 22.9967C24.1408 23.2983 23.9224 23.4751 23.5688 23.4855C23.2672 23.4855 22.9864 23.4751 22.6952 23.4751Z" fill="white"/>
<path d="M25.5968 23.4751C25.5968 23.7455 25.5968 23.9743 25.5968 24.2239C25.7632 24.2239 25.9296 24.2239 26.0856 24.2239C26.6888 24.2239 26.928 24.3591 26.9384 24.7023C26.9384 25.0559 26.6992 25.1911 26.0752 25.1911C25.9192 25.1911 25.7736 25.1911 25.6072 25.1911C25.6072 25.4407 25.6072 25.6695 25.6072 25.9399C25.8672 25.9399 26.1168 25.9399 26.3664 25.9399C26.46 25.9399 26.564 25.9399 26.6576 25.9607C26.9072 26.0127 27.0736 26.2311 27.0528 26.4703C27.032 26.7095 26.8552 26.9071 26.616 26.9071C26.1064 26.9175 25.5968 26.9175 25.0768 26.9071C24.8168 26.8967 24.6296 26.7095 24.6296 26.4495C24.6192 25.2847 24.6192 24.1303 24.6296 22.9655C24.6296 22.6847 24.8272 22.4975 25.1184 22.4975C25.5968 22.4871 26.0752 22.4871 26.5536 22.4975C26.8448 22.4975 27.0424 22.6951 27.0528 22.9551C27.0632 23.2255 26.8656 23.4439 26.5744 23.4647C26.252 23.4855 25.94 23.4751 25.5968 23.4751Z" fill="white"/>
<path d="M15.9352 23.4959C15.9352 23.7247 15.9352 23.9431 15.9352 24.1823C16.1744 24.1823 16.4032 24.1823 16.6216 24.1823C16.9856 24.1823 17.1936 24.3695 17.204 24.6711C17.204 24.9727 16.996 25.1599 16.6424 25.1599C16.4344 25.1599 16.216 25.1599 16.008 25.1703C15.9976 25.1703 15.9768 25.1807 15.9248 25.2015C15.9248 25.5551 15.9248 25.9087 15.9248 26.2727C15.9248 26.3767 15.9248 26.4807 15.8936 26.5847C15.8208 26.8239 15.6232 26.9487 15.3736 26.9175C15.1448 26.8863 14.968 26.7199 14.9576 26.4807C14.9472 26.1687 14.9472 25.8463 14.9472 25.5343C14.9472 24.7231 14.9472 23.9119 14.9472 23.1007C14.9472 22.6743 15.1136 22.5079 15.5296 22.5079C15.9352 22.5079 16.3408 22.5079 16.7464 22.5079C17.1 22.5079 17.2976 22.6951 17.308 22.9759C17.3184 23.2775 17.1 23.4751 16.7464 23.4855C16.4968 23.4959 16.2472 23.4855 15.9872 23.4959C15.9872 23.4751 15.9664 23.4855 15.9352 23.4959Z" fill="white"/>
<path d="M16.4552 18.2023C16.4552 19.1383 16.4552 20.0327 16.4552 20.9167C16.4552 21.0103 16.4552 21.0935 16.4552 21.1871C16.4344 21.4783 16.2264 21.6863 15.956 21.6863C15.6856 21.6863 15.488 21.4783 15.4776 21.1767C15.4672 20.3031 15.4776 19.4191 15.4776 18.5455C15.4776 18.4415 15.4776 18.3375 15.4776 18.2023C15.3008 18.2023 15.1552 18.2127 15.02 18.2023C14.7184 18.1815 14.5208 17.9839 14.5208 17.7135C14.5208 17.4431 14.7288 17.2351 15.0304 17.2351C15.6544 17.2247 16.2784 17.2247 16.9024 17.2351C17.204 17.2351 17.412 17.4327 17.412 17.7031C17.4224 17.9735 17.2248 18.1815 16.9232 18.2023C16.7776 18.2127 16.632 18.2023 16.4552 18.2023Z" fill="white"/>
<path d="M23.0488 20.7087C23.3088 20.7087 23.5376 20.7087 23.7664 20.7087C24.068 20.7191 24.2656 20.9167 24.2656 21.1975C24.2656 21.4679 24.0576 21.6759 23.7664 21.6863C23.3712 21.6967 22.9656 21.6967 22.5704 21.6863C22.2688 21.6759 22.0712 21.4783 22.0712 21.1663C22.0712 20.0327 22.0712 18.8887 22.0712 17.7551C22.0712 17.4327 22.2688 17.2351 22.56 17.2351C22.8512 17.2351 23.0384 17.4431 23.0384 17.7655C23.0384 18.6495 23.0384 19.5335 23.0384 20.4175C23.0488 20.5007 23.0488 20.5943 23.0488 20.7087Z" fill="white"/>
<path d="M26.0232 20.7087C26.2832 20.7087 26.512 20.7087 26.7304 20.7087C27.0216 20.7191 27.24 20.9271 27.24 21.1975C27.24 21.4679 27.032 21.6759 26.7304 21.6863C26.3352 21.6967 25.9296 21.6967 25.5344 21.6863C25.2224 21.6759 25.0456 21.4887 25.0456 21.1663C25.0456 20.0327 25.0456 18.8887 25.0456 17.7551C25.0456 17.4327 25.2432 17.2351 25.5344 17.2351C25.8256 17.2351 26.0232 17.4327 26.0232 17.7551C26.0336 18.6287 26.0232 19.5127 26.0232 20.3863C26.0232 20.4799 26.0232 20.5839 26.0232 20.7087Z" fill="white"/>
<path d="M28.6336 13.9799C28.3632 13.9695 28.1656 13.7615 28.1656 13.4911C28.1656 13.2311 28.384 13.0127 28.6544 13.0127C28.9248 13.0127 29.1536 13.2623 29.1328 13.5223C29.1224 13.7823 28.8936 13.9903 28.6336 13.9799Z" fill="white"/>
</svg>
