<svg width="42" height="42" viewBox="0 0 42 42" fill="none" xmlns="http://www.w3.org/2000/svg">
<circle cx="21" cy="21" r="21" fill="#F9833D"/>
<g clip-path="url(#clip0_2_296)">
<path d="M28.5833 12.3333H27.5V10.1666H25.3333V12.3333H16.6667V10.1666H14.5V12.3333H13.4167C12.2142 12.3333 11.2608 13.3083 11.2608 14.5L11.25 29.6666C11.25 30.8583 12.2142 31.8333 13.4167 31.8333H28.5833C29.775 31.8333 30.75 30.8583 30.75 29.6666V14.5C30.75 13.3083 29.775 12.3333 28.5833 12.3333ZM28.5833 29.6666H13.4167V18.8333H28.5833V29.6666ZM17.75 23.1666H15.5833V21H17.75V23.1666ZM22.0833 23.1666H19.9167V21H22.0833V23.1666ZM26.4167 23.1666H24.25V21H26.4167V23.1666ZM17.75 27.5H15.5833V25.3333H17.75V27.5ZM22.0833 27.5H19.9167V25.3333H22.0833V27.5ZM26.4167 27.5H24.25V25.3333H26.4167V27.5Z" fill="white"/>
</g>
<defs>
<clipPath id="clip0_2_296">
<rect width="26" height="26" fill="white" transform="translate(8 8)"/>
</clipPath>
</defs>
</svg>
