<svg width="38" height="38" viewBox="0 0 38 38" fill="none" xmlns="http://www.w3.org/2000/svg">
<circle cx="19" cy="19" r="19" fill="#FF5969"/>
<g clip-path="url(#clip0_2_105)">
<path d="M27.625 27.25H27.25V16.375C27.25 16.168 27.082 16 26.875 16H24.625C24.418 16 24.25 16.168 24.25 16.375V27.25H22.7499V20.875C22.7499 20.668 22.5819 20.5 22.3749 20.5H20.1249C19.9179 20.5 19.7499 20.668 19.7499 20.875V27.25H18.2499V19.375C18.2499 19.168 18.0819 19 17.8749 19H15.6249C15.4179 19 15.2499 19.168 15.2499 19.375V27.25H13.7499V23.125C13.7499 22.918 13.5819 22.75 13.3749 22.75H11.125C10.918 22.75 10.75 22.918 10.75 23.125V27.25H10.375C10.168 27.25 10 27.418 10 27.625C10 27.832 10.168 28 10.375 28H11.125H13.375H15.625H17.875H20.125H22.375H24.625H26.875H27.625C27.832 28 28 27.832 28 27.625C28 27.418 27.832 27.25 27.625 27.25Z" fill="white"/>
<path d="M25.75 10C24.9227 10 24.25 10.6727 24.25 11.5C24.25 11.7775 24.331 12.034 24.4622 12.2575L22.0075 14.7123C21.784 14.581 21.5275 14.5 21.25 14.5C20.7797 14.5 20.3642 14.722 20.089 15.0618L18.2462 14.536C18.2462 14.524 18.25 14.5128 18.25 14.5C18.25 13.6727 17.5773 13 16.75 13C15.9227 13 15.25 13.6727 15.25 14.5C15.25 14.7182 15.2987 14.9237 15.3827 15.1105L13.039 16.9802C12.8095 16.8362 12.5402 16.75 12.25 16.75C11.4227 16.75 10.75 17.4228 10.75 18.25C10.75 19.0773 11.4227 19.75 12.25 19.75C13.0773 19.75 13.75 19.0773 13.75 18.25C13.75 17.9868 13.6758 17.7422 13.5558 17.527L15.853 15.6948C16.1043 15.8838 16.4125 16 16.75 16C17.2998 16 17.7768 15.6993 18.0378 15.2568L19.7755 15.7525C19.7613 15.8335 19.75 15.9153 19.75 16C19.75 16.8273 20.4228 17.5001 21.25 17.5001C22.0773 17.5001 22.75 16.8273 22.75 16C22.75 15.7226 22.669 15.4661 22.5378 15.2425L24.9933 12.787C25.216 12.9191 25.4725 13.0001 25.75 13.0001C26.5773 13.0001 27.25 12.3273 27.25 11.5C27.25 10.6727 26.5773 10 25.75 10Z" fill="white"/>
</g>
<defs>
<clipPath id="clip0_2_105">
<rect width="18" height="18" fill="white" transform="translate(10 10)"/>
</clipPath>
</defs>
</svg>
