<svg width="42" height="42" viewBox="0 0 42 42" fill="none" xmlns="http://www.w3.org/2000/svg">
<circle cx="21" cy="21" r="21" fill="#68C2BD"/>
<path d="M27.0329 25.7908C25.8543 25.7908 24.7142 25.5992 23.6511 25.2544C23.3159 25.1398 22.9423 25.2255 22.6833 25.4845L21.1792 27.3719C18.4676 26.0787 15.9292 23.6357 14.5782 20.8287L16.4463 19.2379C16.7053 18.9693 16.7814 18.5957 16.6764 18.2606C16.3221 17.1974 16.1401 16.0573 16.1401 14.8787C16.1401 14.3615 15.7087 13.9302 15.1916 13.9302H11.8771C11.3599 13.9302 10.7369 14.1603 10.7369 14.8787C10.7369 23.7792 18.1429 31.1747 27.0329 31.1747C27.7128 31.1747 27.9814 30.5709 27.9814 30.0442V26.7393C27.9814 26.2222 27.5509 25.7908 27.0329 25.7908Z" fill="white"/>
<g clip-path="url(#clip0_4_10340)">
<path d="M21.5 20H22.5V14H21.5V20ZM23.5 22H24.5V12H23.5V22ZM19.5 18H20.5V16H19.5V18ZM25.5 20H26.5V14H25.5V20ZM27.5 16V18H28.5V16H27.5Z" fill="white"/>
</g>
<defs>
<clipPath id="clip0_4_10340">
<rect width="12" height="12" fill="white" transform="translate(18 11)"/>
</clipPath>
</defs>
</svg>
