<svg width="16" height="19" viewBox="0 0 16 19" fill="none" xmlns="http://www.w3.org/2000/svg">
<path d="M13.3031 0.570068H2.12088C0.950939 0.570068 0.000114441 1.59886 0.000114441 2.86472V15.9025C0.000114441 17.1684 0.950939 18.1972 2.12088 18.1972H13.3031C14.473 18.1972 15.4238 17.1684 15.4238 15.9025V2.86472C15.4238 1.59886 14.473 0.570068 13.3031 0.570068ZM5.55507 9.01857V4.90983C7.40582 5.2144 8.83261 6.93252 8.83261 9.01857C8.83261 11.3191 7.10289 13.1907 4.97668 13.1907C4.12225 13.1907 3.3394 12.8786 2.69946 12.367L5.38541 9.46081C5.49405 9.34389 5.55507 9.18462 5.55507 9.01857ZM4.39829 4.90983V8.75985L1.88195 11.4825C1.40917 10.7901 1.12074 9.94305 1.12074 9.01857C1.12074 6.93252 2.54754 5.2144 4.39829 4.90983ZM13.7208 15.9025H1.73528C1.41596 15.9025 1.15689 15.6222 1.15689 15.2767C1.15689 14.9312 1.41596 14.6509 1.73528 14.6509H13.7208C14.0401 14.6509 14.2992 14.9312 14.2992 15.2767C14.2992 15.6222 14.0401 15.9025 13.7208 15.9025ZM13.7047 13.1907H10.5396C10.2203 13.1907 9.96124 12.9104 9.96124 12.5649C9.96124 12.2194 10.2203 11.939 10.5396 11.939H13.7047C14.024 11.939 14.2831 12.2194 14.2831 12.5649C14.2831 12.9104 14.024 13.1907 13.7047 13.1907ZM13.7047 10.896H10.5396C10.2203 10.896 9.96124 10.6157 9.96124 10.2702C9.96124 9.9247 10.2203 9.64438 10.5396 9.64438H13.7047C14.024 9.64438 14.2831 9.9247 14.2831 10.2702C14.2831 10.6157 14.024 10.896 13.7047 10.896ZM13.7047 8.39275H10.5396C10.2203 8.39275 9.96124 8.11244 9.96124 7.76694C9.96124 7.42144 10.2203 7.14112 10.5396 7.14112H13.7047C14.024 7.14112 14.2831 7.42144 14.2831 7.76694C14.2831 8.11244 14.024 8.39275 13.7047 8.39275ZM13.7047 6.0981H10.5396C10.2203 6.0981 9.96124 5.81779 9.96124 5.47228C9.96124 5.12678 10.2203 4.84647 10.5396 4.84647H13.7047C14.024 4.84647 14.2831 5.12678 14.2831 5.47228C14.2831 5.81779 14.024 6.0981 13.7047 6.0981Z" fill="white"/>
</svg>
