<svg width="16" height="17" viewBox="0 0 16 17" fill="none" xmlns="http://www.w3.org/2000/svg">
<path d="M15.4302 15.6067H15.1123V6.38537C15.1123 6.20985 14.9698 6.06738 14.7943 6.06738H12.8864C12.7109 6.06738 12.5684 6.20985 12.5684 6.38537V15.6067H11.2965V10.2011C11.2965 10.0256 11.1541 9.88309 10.9785 9.88309H9.07067C8.89515 9.88309 8.75269 10.0256 8.75269 10.2011V15.6067H7.48077V8.92917C7.48077 8.75364 7.33831 8.61118 7.16279 8.61118H5.25493C5.07941 8.61118 4.93695 8.75364 4.93695 8.92917V15.6067H3.66503V12.1089C3.66503 11.9334 3.52257 11.7909 3.34705 11.7909H1.43931C1.26379 11.7909 1.12132 11.9334 1.12132 12.1089V15.6067H0.803368C0.627845 15.6067 0.485382 15.7491 0.485382 15.9246C0.485382 16.1002 0.627845 16.2426 0.803368 16.2426H1.43931H3.34717H5.25502H7.16288H9.07073H10.9786H12.8864H14.7943H15.4302C15.6058 16.2426 15.7482 16.1002 15.7482 15.9246C15.7482 15.7491 15.6058 15.6067 15.4302 15.6067Z" fill="white"/>
<path d="M13.8403 0.980011C13.1389 0.980011 12.5684 1.55046 12.5684 2.25192C12.5684 2.48722 12.6371 2.70471 12.7484 2.89425L10.6669 4.97572C10.4774 4.86441 10.2599 4.79572 10.0246 4.79572C9.62588 4.79572 9.27356 4.98397 9.04017 5.27206L7.47764 4.82625C7.47764 4.81608 7.48083 4.80654 7.48083 4.79572C7.48083 4.09426 6.91038 3.52381 6.20891 3.52381C5.50745 3.52381 4.937 4.09426 4.937 4.79572C4.937 4.98078 4.97835 5.15503 5.04956 5.31338L3.0622 6.89881C2.86763 6.7767 2.63932 6.70358 2.3932 6.70358C1.69174 6.70358 1.12129 7.27403 1.12129 7.97549C1.12129 8.67696 1.69174 9.24741 2.3932 9.24741C3.09467 9.24741 3.66512 8.67696 3.66512 7.97549C3.66512 7.75227 3.60216 7.54494 3.50041 7.36244L5.44833 5.80882C5.66139 5.96908 5.92276 6.06767 6.20894 6.06767C6.67509 6.06767 7.07955 5.81264 7.30086 5.43745L8.77435 5.8578C8.76228 5.92649 8.75274 5.99579 8.75274 6.06767C8.75274 6.76913 9.32319 7.33958 10.0247 7.33958C10.7261 7.33958 11.2966 6.76913 11.2966 6.06767C11.2966 5.83237 11.2279 5.61488 11.1166 5.42535L13.1987 3.34325C13.3876 3.45519 13.6051 3.52387 13.8404 3.52387C14.5418 3.52387 15.1123 2.95342 15.1123 2.25195C15.1123 1.55046 14.5418 0.980011 13.8403 0.980011Z" fill="white"/>
</svg>
