<svg width="20" height="14" viewBox="0 0 20 14" fill="none" xmlns="http://www.w3.org/2000/svg">
<g clip-path="url(#clip0_1_168)">
<path d="M9.99138 11.3055C8.84841 11.3055 7.70114 11.3055 6.55818 11.3055C6.51091 11.3055 6.47653 11.3098 6.48943 11.241C6.57107 10.777 6.71716 10.3344 6.91052 9.90471C7.207 9.2344 7.60232 8.63713 8.13943 8.13869C8.54333 7.76487 9.0031 7.47698 9.5531 7.37385C10.1074 7.27073 10.6316 7.36096 11.13 7.62307C11.7574 7.95393 12.2258 8.44807 12.6125 9.03244C12.8531 9.39338 13.0551 9.7758 13.2011 10.184C13.3258 10.5278 13.4418 10.8715 13.4976 11.2324C13.5062 11.2926 13.4976 11.3098 13.4332 11.3098C12.2902 11.3055 11.1386 11.3055 9.99138 11.3055Z" fill="white"/>
<path d="M9.9957 2.14455C11.332 2.16174 12.3418 3.19299 12.3504 4.49494C12.3633 5.83987 11.2203 6.85393 10.0086 6.85393C8.77539 6.85823 7.6625 5.84416 7.64531 4.52932C7.62812 3.30471 8.58632 2.16174 9.9957 2.14455Z" fill="white"/>
<path d="M0.692957 3.14143C0.692957 2.31213 0.692957 1.48284 0.68866 0.649242C0.68866 0.563304 0.718738 0.55471 0.787488 0.55471C2.34725 0.55471 3.90702 0.55471 5.46678 0.55471C5.5785 0.55471 5.69022 0.55471 5.80194 0.55471C5.84921 0.55471 5.87069 0.563304 5.87069 0.619164C5.86639 0.988695 5.86639 1.35393 5.87069 1.72346C5.87069 1.79651 5.83202 1.79651 5.78046 1.79651C5.46679 1.79651 5.15311 1.8008 4.83944 1.8008C3.9285 1.8008 3.02186 1.8008 2.11093 1.8008C2.08514 1.8008 2.05936 1.8051 2.03358 1.8008C1.95194 1.79221 1.93046 1.82229 1.93046 1.90393C1.93475 3.15432 1.93046 4.40471 1.93475 5.6551C1.93475 5.72385 1.91327 5.74104 1.84882 5.74104C1.48788 5.73674 1.13124 5.73674 0.7703 5.74104C0.70155 5.74104 0.68866 5.71955 0.68866 5.6551C0.692957 4.81721 0.68866 3.97932 0.692957 3.14143Z" fill="white"/>
<path d="M16.716 0.559006C17.5496 0.559006 18.3832 0.559006 19.2168 0.559006C19.2941 0.559006 19.3113 0.58049 19.3113 0.653537C19.3113 2.32072 19.3113 3.99221 19.3113 5.6594C19.3113 5.72385 19.2941 5.74963 19.2254 5.74533C18.8645 5.74104 18.5035 5.74104 18.1383 5.74533C18.0867 5.74533 18.0566 5.73674 18.0566 5.67229C18.0566 4.67112 18.0566 3.66994 18.0566 2.66877C18.0566 2.39807 18.0566 2.13166 18.0609 1.86096C18.0609 1.81799 18.0438 1.8051 18.0094 1.8051C17.9578 1.8051 17.9105 1.8051 17.859 1.8051C16.6516 1.8051 15.4484 1.8051 14.241 1.8051C14.125 1.8051 14.125 1.8051 14.125 1.69338C14.125 1.33244 14.125 0.975803 14.125 0.614865C14.125 0.571896 14.1379 0.559006 14.1766 0.559006C14.198 0.559006 14.2195 0.559006 14.2453 0.559006C15.0703 0.559006 15.8953 0.559006 16.716 0.559006Z" fill="white"/>
<path d="M16.7203 13.441C15.8824 13.441 15.0488 13.441 14.2109 13.441C14.155 13.441 14.1336 13.4239 14.1293 13.3637C14.1164 12.9942 14.125 12.6246 14.1207 12.2551C14.1207 12.2078 14.1464 12.2078 14.1808 12.2078C14.3011 12.2078 14.4214 12.2035 14.5418 12.2035C15.6804 12.2035 16.8191 12.2121 17.9578 12.1992C18.0351 12.1992 18.0566 12.1735 18.0566 12.1004C18.0566 10.9016 18.0566 9.70276 18.0566 8.50823C18.0566 8.45667 18.0609 8.40081 18.0566 8.34924C18.0523 8.28049 18.0824 8.2676 18.1425 8.2676C18.3531 8.2676 18.5636 8.26331 18.7742 8.26331C18.9246 8.26331 19.0707 8.2719 19.2211 8.2676C19.307 8.26331 19.307 8.30627 19.307 8.37073C19.307 9.63401 19.307 10.9016 19.307 12.1649C19.307 12.5559 19.307 12.9426 19.3113 13.3336C19.3113 13.4196 19.2855 13.4453 19.2039 13.441C18.3746 13.4367 17.5496 13.4367 16.7203 13.441Z" fill="white"/>
<path d="M0.68866 10.8414C0.68866 10.0121 0.68866 9.18283 0.68866 8.34924C0.68866 8.28908 0.697253 8.25471 0.7703 8.259C1.13553 8.2633 1.50077 8.2676 1.866 8.2676C1.92616 8.2676 1.93905 8.28908 1.93905 8.34494C1.93905 9.60393 1.93905 10.8629 1.93905 12.1219C1.93905 12.1863 1.96913 12.1906 2.0121 12.1949C2.17108 12.1992 2.32577 12.2035 2.48475 12.2035C3.55468 12.2035 4.6203 12.2035 5.69022 12.2035C5.87499 12.2035 5.87499 12.2035 5.87499 12.3926C5.87499 12.7063 5.87069 13.0199 5.87499 13.3336C5.87499 13.4153 5.84491 13.4367 5.76757 13.4367C4.22069 13.4496 2.66952 13.4367 1.12264 13.441C1.01522 13.441 0.903503 13.4367 0.796082 13.441C0.718738 13.4453 0.692957 13.4196 0.692957 13.3422C0.697254 12.7406 0.697253 12.1348 0.697253 11.5332C0.692957 11.3012 0.692957 11.0735 0.68866 10.8414Z" fill="white"/>
</g>
<defs>
<clipPath id="clip0_1_168">
<rect width="20" height="14" fill="white"/>
</clipPath>
</defs>
</svg>
