<?xml version="1.0" encoding="utf-8"?>
<!-- Generator: Adobe Illustrator 24.3.0, SVG Export Plug-In . SVG Version: 6.00 Build 0)  -->
<svg version="1.0" id="Layer_1" xmlns="http://www.w3.org/2000/svg" xmlns:xlink="http://www.w3.org/1999/xlink" x="0px" y="0px"
	 viewBox="0 0 150 150" enable-background="new 0 0 150 150" xml:space="preserve">
<g>
	<path fill="#FFFFFF" d="M120,107.1c-8.6,0-16.9-1.4-24.6-3.9c-2.4-0.8-5.2-0.2-7,1.7l-10.9,13.7c-19.7-9.4-38.2-27.2-48-47.6
		L43,59.4c1.9-2,2.4-4.7,1.7-7.1c-2.6-7.7-3.9-16-3.9-24.6c0-3.8-3.1-6.9-6.9-6.9H9.7c-3.8,0-8.3,1.7-8.3,6.9
		c0,64.7,53.9,118.5,118.5,118.5c4.9,0,6.9-4.4,6.9-8.2v-24C126.9,110.2,123.7,107.1,120,107.1z"/>
	<g>
		<path fill="#FFFFFF" d="M74.6,17L74.2,3.8c40-1.2,73.4,30.4,74.5,70.5l-13.2,0.4C134.6,41.9,107.3,16.1,74.6,17z"/>
		<path fill="#FFFFFF" d="M96,75.6l-19.8,0.5l-0.5-19.8C86.6,56.2,95.7,64.7,96,75.6z"/>
		<path fill="#FFFFFF" d="M109.2,75.3c-0.6-18.2-15.7-32.5-33.8-32L75,30.1c25.4-0.7,46.7,19.4,47.4,44.8L109.2,75.3z"/>
	</g>
</g>
</svg>
