<svg width="18" height="19" viewBox="0 0 18 19" fill="none" xmlns="http://www.w3.org/2000/svg">
<mask id="mask0_4_372" style="mask-type:alpha" maskUnits="userSpaceOnUse" x="0" y="0" width="18" height="19">
<rect y="0.989685" width="18" height="18" fill="#D9D9D9"/>
</mask>
<g mask="url(#mask0_4_372)">
<path d="M9 18.2397C8.5875 18.2397 8.23438 18.0928 7.94063 17.7991C7.64688 17.5053 7.5 17.1522 7.5 16.7397C7.5 16.3272 7.64688 15.9741 7.94063 15.6803C8.23438 15.3866 8.5875 15.2397 9 15.2397C9.4125 15.2397 9.76563 15.3866 10.0594 15.6803C10.3531 15.9741 10.5 16.3272 10.5 16.7397C10.5 17.1522 10.3531 17.5053 10.0594 17.7991C9.76563 18.0928 9.4125 18.2397 9 18.2397ZM4.5 4.73969C4.0875 4.73969 3.73438 4.59281 3.44063 4.29906C3.14688 4.00531 3 3.65219 3 3.23969C3 2.82719 3.14688 2.47406 3.44063 2.18031C3.73438 1.88656 4.0875 1.73969 4.5 1.73969C4.9125 1.73969 5.26563 1.88656 5.55938 2.18031C5.85313 2.47406 6 2.82719 6 3.23969C6 3.65219 5.85313 4.00531 5.55938 4.29906C5.26563 4.59281 4.9125 4.73969 4.5 4.73969ZM4.5 9.23969C4.0875 9.23969 3.73438 9.09281 3.44063 8.79906C3.14688 8.50531 3 8.15219 3 7.73969C3 7.32719 3.14688 6.97406 3.44063 6.68031C3.73438 6.38656 4.0875 6.23969 4.5 6.23969C4.9125 6.23969 5.26563 6.38656 5.55938 6.68031C5.85313 6.97406 6 7.32719 6 7.73969C6 8.15219 5.85313 8.50531 5.55938 8.79906C5.26563 9.09281 4.9125 9.23969 4.5 9.23969ZM4.5 13.7397C4.0875 13.7397 3.73438 13.5928 3.44063 13.2991C3.14688 13.0053 3 12.6522 3 12.2397C3 11.8272 3.14688 11.4741 3.44063 11.1803C3.73438 10.8866 4.0875 10.7397 4.5 10.7397C4.9125 10.7397 5.26563 10.8866 5.55938 11.1803C5.85313 11.4741 6 11.8272 6 12.2397C6 12.6522 5.85313 13.0053 5.55938 13.2991C5.26563 13.5928 4.9125 13.7397 4.5 13.7397ZM13.5 4.73969C13.0875 4.73969 12.7344 4.59281 12.4406 4.29906C12.1469 4.00531 12 3.65219 12 3.23969C12 2.82719 12.1469 2.47406 12.4406 2.18031C12.7344 1.88656 13.0875 1.73969 13.5 1.73969C13.9125 1.73969 14.2656 1.88656 14.5594 2.18031C14.8531 2.47406 15 2.82719 15 3.23969C15 3.65219 14.8531 4.00531 14.5594 4.29906C14.2656 4.59281 13.9125 4.73969 13.5 4.73969ZM9 13.7397C8.5875 13.7397 8.23438 13.5928 7.94063 13.2991C7.64688 13.0053 7.5 12.6522 7.5 12.2397C7.5 11.8272 7.64688 11.4741 7.94063 11.1803C8.23438 10.8866 8.5875 10.7397 9 10.7397C9.4125 10.7397 9.76563 10.8866 10.0594 11.1803C10.3531 11.4741 10.5 11.8272 10.5 12.2397C10.5 12.6522 10.3531 13.0053 10.0594 13.2991C9.76563 13.5928 9.4125 13.7397 9 13.7397ZM13.5 13.7397C13.0875 13.7397 12.7344 13.5928 12.4406 13.2991C12.1469 13.0053 12 12.6522 12 12.2397C12 11.8272 12.1469 11.4741 12.4406 11.1803C12.7344 10.8866 13.0875 10.7397 13.5 10.7397C13.9125 10.7397 14.2656 10.8866 14.5594 11.1803C14.8531 11.4741 15 11.8272 15 12.2397C15 12.6522 14.8531 13.0053 14.5594 13.2991C14.2656 13.5928 13.9125 13.7397 13.5 13.7397ZM13.5 9.23969C13.0875 9.23969 12.7344 9.09281 12.4406 8.79906C12.1469 8.50531 12 8.15219 12 7.73969C12 7.32719 12.1469 6.97406 12.4406 6.68031C12.7344 6.38656 13.0875 6.23969 13.5 6.23969C13.9125 6.23969 14.2656 6.38656 14.5594 6.68031C14.8531 6.97406 15 7.32719 15 7.73969C15 8.15219 14.8531 8.50531 14.5594 8.79906C14.2656 9.09281 13.9125 9.23969 13.5 9.23969ZM9 9.23969C8.5875 9.23969 8.23438 9.09281 7.94063 8.79906C7.64688 8.50531 7.5 8.15219 7.5 7.73969C7.5 7.32719 7.64688 6.97406 7.94063 6.68031C8.23438 6.38656 8.5875 6.23969 9 6.23969C9.4125 6.23969 9.76563 6.38656 10.0594 6.68031C10.3531 6.97406 10.5 7.32719 10.5 7.73969C10.5 8.15219 10.3531 8.50531 10.0594 8.79906C9.76563 9.09281 9.4125 9.23969 9 9.23969ZM9 4.73969C8.5875 4.73969 8.23438 4.59281 7.94063 4.29906C7.64688 4.00531 7.5 3.65219 7.5 3.23969C7.5 2.82719 7.64688 2.47406 7.94063 2.18031C8.23438 1.88656 8.5875 1.73969 9 1.73969C9.4125 1.73969 9.76563 1.88656 10.0594 2.18031C10.3531 2.47406 10.5 2.82719 10.5 3.23969C10.5 3.65219 10.3531 4.00531 10.0594 4.29906C9.76563 4.59281 9.4125 4.73969 9 4.73969Z" fill="white"/>
</g>
</svg>
