<svg width="18" height="18" viewBox="0 0 18 18" fill="none" xmlns="http://www.w3.org/2000/svg">
<g clip-path="url(#clip0_1_124)">
<path d="M2.28132 10.1118C2.31562 10.1674 2.32542 10.1876 2.34012 10.2028C3.76129 11.633 5.15305 13.0935 6.54971 14.549C7.42201 15.4587 8.30411 16.3633 9.18132 17.2729C9.44105 17.5408 9.74488 17.7429 10.1026 17.8238C10.8867 18.0007 11.5483 17.7783 12.1168 17.1921C13.4301 15.8276 14.7484 14.4732 16.0666 13.1137C16.1352 13.043 16.1989 12.9722 16.292 12.8712C16.292 13.4018 16.2969 13.8819 16.2871 14.362C16.2822 14.4884 16.3214 14.4985 16.4195 14.4985C16.8507 14.4934 17.2869 14.4934 17.7181 14.4985C17.8455 14.4985 17.8798 14.458 17.8798 14.3317C17.8749 13.0228 17.8749 11.7139 17.8749 10.405C17.8749 10.1219 17.8749 10.1169 17.5956 10.1169C16.3214 10.1169 15.0424 10.1169 13.7682 10.1118C13.6506 10.1118 13.6016 10.1422 13.6065 10.2786C13.6163 10.7183 13.6163 11.158 13.6114 11.5976C13.6114 11.729 13.6555 11.7492 13.7633 11.7492C14.0672 11.7442 14.371 11.7442 14.6798 11.7442C14.8415 11.7442 15.0032 11.7442 15.1698 11.7442C15.1061 11.8604 15.0277 11.9312 14.9542 12.007C13.6653 13.3159 12.3912 14.6349 11.1219 15.964C10.7005 16.4037 10.5094 16.4037 10.083 15.964C8.24531 14.0588 6.40269 12.1586 4.56988 10.2483C4.48167 10.1523 4.38856 10.1118 4.26605 10.1118C3.75149 10.1169 3.23693 10.1118 2.71747 10.1118C2.58515 10.1118 2.44794 10.1118 2.28132 10.1118ZM1.70795 5.12888C1.65404 5.02275 1.67365 4.93684 1.67365 4.85093C1.66875 4.45168 1.66384 4.05244 1.66875 3.6532C1.66875 3.53696 1.63444 3.50664 1.52663 3.51169C1.10518 3.51675 0.683731 3.51675 0.262282 3.51169C0.139768 3.51169 0.120166 3.55212 0.120166 3.66836C0.125066 5.03286 0.120165 6.40242 0.115265 7.76692C0.115265 7.86799 0.139768 7.88821 0.237779 7.88821C1.57563 7.88315 2.90859 7.88315 4.24644 7.88821C4.32975 7.88821 4.34936 7.86294 4.34936 7.77703C4.34446 7.31714 4.34446 6.8623 4.34936 6.40242C4.34936 6.29124 4.31505 6.2508 4.20724 6.25586C3.78089 6.26091 3.35454 6.25586 2.92819 6.25586C2.88899 6.25586 2.83998 6.28113 2.81058 6.22554C2.81548 6.22048 2.81548 6.21038 2.82038 6.21038C4.20234 4.78523 5.5843 3.35503 6.97116 1.92988C7.25049 1.64687 7.46122 1.64687 7.74545 1.92988C8.12769 2.30891 8.50504 2.69805 8.88238 3.08718C10.3673 4.62351 11.8472 6.15984 13.3272 7.69617C13.4644 7.83767 13.6163 7.89831 13.8026 7.89831C14.126 7.89326 14.4445 7.88821 14.768 7.88821C15.0571 7.88821 15.3511 7.88821 15.6746 7.88821C15.5374 7.74165 15.4197 7.61025 15.3021 7.48896C13.6849 5.81113 12.0678 4.12825 10.4457 2.45547C9.85269 1.83892 9.28423 1.19709 8.64715 0.620971C7.89737 -0.06128 6.78984 -0.0461186 6.04985 0.651294C5.6284 1.05054 5.23636 1.47505 4.82961 1.89451C3.79559 2.96589 2.76157 4.04233 1.70795 5.12888Z" fill="white"/>
</g>
<defs>
<clipPath id="clip0_1_124">
<rect width="18" height="18" fill="white"/>
</clipPath>
</defs>
</svg>
