<svg width="14" height="17" viewBox="0 0 14 17" fill="none" xmlns="http://www.w3.org/2000/svg">
<path d="M13.1433 11.6761C12.1927 11.6761 11.2731 11.5215 10.4157 11.2435C10.1454 11.151 9.84405 11.2202 9.63516 11.4291L8.42202 12.9513C6.23501 11.9083 4.18773 9.93792 3.09811 7.67398L4.60481 6.39099C4.8137 6.17434 4.8751 5.87299 4.79041 5.6027C4.50459 4.74526 4.3578 3.82569 4.3578 2.87509C4.3578 2.45801 4.00988 2.11011 3.5928 2.11011H0.919555C0.502476 2.11011 0 2.2957 0 2.87509C0 10.0536 5.97319 16.0184 13.1433 16.0184C13.6916 16.0184 13.9083 15.5314 13.9083 15.1066V12.4411C13.9083 12.024 13.5611 11.6761 13.1433 11.6761Z" fill="white"/>
<path d="M10.3893 5.8677C10.0322 5.8677 9.7286 5.74489 9.4786 5.49927C9.2286 5.25366 9.1036 4.95541 9.1036 4.60454V2.07822C9.1036 1.72734 9.2286 1.4291 9.4786 1.18348C9.7286 0.93787 10.0322 0.815063 10.3893 0.815063C10.7465 0.815063 11.05 0.93787 11.3 1.18348C11.55 1.4291 11.675 1.72734 11.675 2.07822V4.60454C11.675 4.95541 11.55 5.25366 11.3 5.49927C11.05 5.74489 10.7465 5.8677 10.3893 5.8677ZM9.96074 8.81506V7.52033C9.21788 7.42208 8.6036 7.09577 8.11788 6.54138C7.63217 5.98699 7.38931 5.34138 7.38931 4.60454H8.24646C8.24646 5.18699 8.45538 5.68348 8.87324 6.09401C9.2911 6.50454 9.79646 6.7098 10.3893 6.7098C10.9822 6.7098 11.4875 6.50454 11.9054 6.09401C12.3232 5.68348 12.5322 5.18699 12.5322 4.60454H13.3893C13.3893 5.34138 13.1465 5.98699 12.6607 6.54138C12.175 7.09577 11.5607 7.42208 10.8179 7.52033V8.81506H9.96074Z" fill="white"/>
</svg>
