<svg width="20" height="20" viewBox="0 0 20 20" fill="none" xmlns="http://www.w3.org/2000/svg">
<mask id="mask0_1_133" style="mask-type:alpha" maskUnits="userSpaceOnUse" x="0" y="0" width="20" height="20">
<rect y="3.05176e-05" width="20" height="20" fill="#D9D9D9"/>
</mask>
<g mask="url(#mask0_1_133)">
<path d="M7.83334 16.2917C7.58334 15.8334 7.36459 15.3577 7.17709 14.8646C6.98959 14.3716 6.83334 13.8611 6.70834 13.3334H4.25001C4.65278 14.0278 5.15625 14.632 5.76042 15.1459C6.36459 15.6598 7.05556 16.0417 7.83334 16.2917ZM3.54167 11.6667H6.37501C6.33334 11.3889 6.30209 11.1146 6.28125 10.8438C6.26042 10.5729 6.25 10.2917 6.25 10C6.25 9.70836 6.26042 9.42711 6.28125 9.15628C6.30209 8.88544 6.33334 8.61114 6.37501 8.33336H3.54167C3.47223 8.61114 3.42014 8.88544 3.38542 9.15628C3.3507 9.42711 3.33334 9.70836 3.33334 10C3.33334 10.2917 3.3507 10.5729 3.38542 10.8438C3.42014 11.1146 3.47223 11.3889 3.54167 11.6667ZM4.25001 6.66669H6.70834C6.83334 6.13892 6.98959 5.6285 7.17709 5.13544C7.36459 4.64239 7.58334 4.16669 7.83334 3.70836C7.05556 3.95836 6.36459 4.34031 5.76042 4.85419C5.15625 5.36808 4.65278 5.97225 4.25001 6.66669ZM8.41667 6.66669H11.5833C11.4167 6.05558 11.2014 5.47919 10.9375 4.93753C10.6736 4.39586 10.3611 3.87503 10 3.37503C9.63889 3.87503 9.32639 4.39586 9.0625 4.93753C8.79862 5.47919 8.58334 6.05558 8.41667 6.66669ZM13.2917 6.66669H15.75C15.3472 5.97225 14.8438 5.36808 14.2396 4.85419C13.6354 4.34031 12.9444 3.95836 12.1667 3.70836C12.4167 4.16669 12.6354 4.64239 12.8229 5.13544C13.0104 5.6285 13.1667 6.13892 13.2917 6.66669ZM10 18.3334C8.86112 18.3334 7.78473 18.1146 6.77084 17.6771C5.75695 17.2396 4.87153 16.6424 4.11459 15.8854C3.35764 15.1285 2.76042 14.2431 2.32292 13.2292C1.88542 12.2153 1.66667 11.1389 1.66667 10C1.66667 8.84725 1.88542 7.76739 2.32292 6.76044C2.76042 5.7535 3.35764 4.87156 4.11459 4.11461C4.87153 3.35767 5.75695 2.76044 6.77084 2.32294C7.78473 1.88544 8.86112 1.66669 10 1.66669C11.1528 1.66669 12.2326 1.88544 13.2396 2.32294C14.2465 2.76044 15.1285 3.35767 15.8854 4.11461C16.6424 4.87156 17.2396 5.7535 17.6771 6.76044C18.1146 7.76739 18.3333 8.84725 18.3333 10C18.3333 10.1389 18.3299 10.2778 18.3229 10.4167C18.316 10.5556 18.3056 10.6945 18.2917 10.8334H16.6042C16.632 10.6945 16.6493 10.5591 16.6563 10.4271C16.6632 10.2952 16.6667 10.1528 16.6667 10C16.6667 9.70836 16.6493 9.42711 16.6146 9.15628C16.5799 8.88544 16.5278 8.61114 16.4583 8.33336H13.625C13.6667 8.61114 13.6979 8.88544 13.7188 9.15628C13.7396 9.42711 13.75 9.70836 13.75 10V10.4271C13.75 10.5591 13.7431 10.6945 13.7292 10.8334H12.0625C12.0764 10.6945 12.0833 10.5591 12.0833 10.4271V10C12.0833 9.70836 12.0729 9.42711 12.0521 9.15628C12.0313 8.88544 12 8.61114 11.9583 8.33336H8.04167C8.00001 8.61114 7.96875 8.88544 7.94792 9.15628C7.92709 9.42711 7.91667 9.70836 7.91667 10C7.91667 10.2917 7.92709 10.5729 7.94792 10.8438C7.96875 11.1146 8.00001 11.3889 8.04167 11.6667H10.8333V13.3334H8.41667C8.58334 13.9445 8.79862 14.5209 9.0625 15.0625C9.32639 15.6042 9.63889 16.125 10 16.625C10.1528 16.4028 10.2986 16.1771 10.4375 15.9479C10.5764 15.7188 10.7083 15.4861 10.8333 15.25V18.2917C10.6944 18.3056 10.559 18.316 10.4271 18.3229C10.2951 18.3299 10.1528 18.3334 10 18.3334ZM16.625 17.8125L14.1667 15.3542V17.2084H12.5V12.5H17.2083V14.1667H15.3333L17.7917 16.625L16.625 17.8125Z" fill="white"/>
</g>
</svg>
