<svg width="20" height="20" viewBox="0 0 20 20" fill="none" xmlns="http://www.w3.org/2000/svg">
<mask id="mask0_1_153" style="mask-type:alpha" maskUnits="userSpaceOnUse" x="0" y="0" width="20" height="20">
<rect y="1.52588e-05" width="19.4691" height="19.4691" fill="#D9D9D9"/>
</mask>
<g mask="url(#mask0_1_153)">
<path d="M6.4897 8.92332C6.71954 8.92332 6.91221 8.84558 7.06769 8.69009C7.22317 8.53461 7.30091 8.34195 7.30091 8.11211C7.30091 7.88226 7.22317 7.6896 7.06769 7.53412C6.91221 7.37864 6.71954 7.3009 6.4897 7.3009C6.25986 7.3009 6.06719 7.37864 5.91171 7.53412C5.75623 7.6896 5.67849 7.88226 5.67849 8.11211C5.67849 8.34195 5.75623 8.53461 5.91171 8.69009C6.06719 8.84558 6.25986 8.92332 6.4897 8.92332ZM9.73454 8.92332C9.96439 8.92332 10.157 8.84558 10.3125 8.69009C10.468 8.53461 10.5458 8.34195 10.5458 8.11211C10.5458 7.88226 10.468 7.6896 10.3125 7.53412C10.157 7.37864 9.96439 7.3009 9.73454 7.3009C9.5047 7.3009 9.31204 7.37864 9.15656 7.53412C9.00107 7.6896 8.92333 7.88226 8.92333 8.11211C8.92333 8.34195 9.00107 8.53461 9.15656 8.69009C9.31204 8.84558 9.5047 8.92332 9.73454 8.92332ZM12.9794 8.92332C13.2092 8.92332 13.4019 8.84558 13.5574 8.69009C13.7129 8.53461 13.7906 8.34195 13.7906 8.11211C13.7906 7.88226 13.7129 7.6896 13.5574 7.53412C13.4019 7.37864 13.2092 7.3009 12.9794 7.3009C12.7495 7.3009 12.5569 7.37864 12.4014 7.53412C12.2459 7.6896 12.1682 7.88226 12.1682 8.11211C12.1682 8.34195 12.2459 8.53461 12.4014 8.69009C12.5569 8.84558 12.7495 8.92332 12.9794 8.92332ZM1.62244 17.8466V3.24484C1.62244 2.79868 1.7813 2.41673 2.09902 2.09901C2.41675 1.78128 2.79869 1.62242 3.24486 1.62242H16.2242C16.6704 1.62242 17.0523 1.78128 17.3701 2.09901C17.6878 2.41673 17.8466 2.79868 17.8466 3.24484V12.9794C17.8466 13.4255 17.6878 13.8075 17.3701 14.1252C17.0523 14.4429 16.6704 14.6018 16.2242 14.6018H4.86728L1.62244 17.8466Z" fill="white"/>
</g>
</svg>
