<svg version="1.1" id="Layer_1" xmlns="http://www.w3.org/2000/svg" xmlns:xlink="http://www.w3.org/1999/xlink" x="0px" y="0px" viewBox="0 0 24 24" style="enable-background:new 0 0 24 24;" xml:space="preserve">
<style type="text/css">
	.st0{fill:none;}
	.st1{fill:#FFFFFF;}
</style>
<path class="st0" d="M0,0h24v24H0V0z"/>
<path class="st1" d="M20,15.5c-1.25,0-2.45-0.2-3.57-0.57c-0.35-0.11-0.74-0.03-1.02,0.24l-2.2,2.2c-2.83-1.44-5.15-3.75-6.59-6.58  l2.2-2.21C9.1,8.31,9.18,7.92,9.07,7.57C8.7,6.45,8.5,5.25,8.5,4c0-0.55-0.45-1-1-1H4C3.45,3,3,3.45,3,4c0,9.39,7.61,17,17,17  c0.55,0,1-0.45,1-1v-3.5C21,15.95,20.55,15.5,20,15.5z M12,3v10l3-3h6V3H12z"/>
</svg>